<svg xmlns="http://www.w3.org/2000/svg" width="32.762" height="32.762" viewBox="0 0 32.762 32.762">
  <path id="Icon_material-library-books" data-name="Icon material-library-books" d="M6.276,9.552H3V32.486a3.286,3.286,0,0,0,3.276,3.276H29.209V32.486H6.276ZM32.486,3H12.829A3.286,3.286,0,0,0,9.552,6.276V25.933a3.286,3.286,0,0,0,3.276,3.276H32.486a3.286,3.286,0,0,0,3.276-3.276V6.276A3.286,3.286,0,0,0,32.486,3ZM30.847,17.743H14.467V14.467H30.847ZM24.3,24.3H14.467V21.019H24.3Zm6.552-13.1H14.467V7.914H30.847Z" transform="translate(-3 -3)" fill="#afafaf"/>
</svg>
