<svg xmlns="http://www.w3.org/2000/svg" xmlns:xlink="http://www.w3.org/1999/xlink" width="375" height="135.683" viewBox="0 0 375 135.683">
  <defs>
    <clipPath id="clip-path">
      <rect id="Rectángulo_281094" data-name="Rectángulo 281094" width="135.683" height="135.683" transform="translate(283 7754)" fill="#fff" stroke="#707070" stroke-width="1"/>
    </clipPath>
  </defs>
  <g id="Grupo_847367" data-name="Grupo 847367" transform="translate(-316 -7242.882)">
    <g id="Grupo_847366" data-name="Grupo 847366">
      <g id="Grupo_847365" data-name="Grupo 847365">
        <g id="Enmascarar_grupo_700377" data-name="Enmascarar grupo 700377" transform="translate(33 -511.118)" clip-path="url(#clip-path)">
          <g id="Grupo_846524" data-name="Grupo 846524" transform="translate(299.088 7770.087)">
            <path id="Trazado_586044" data-name="Trazado 586044" d="M1717.793,96.474l2.755-2.86c1.371.967,2.471.534,3.552-.573,2.588-2.648,5.26-5.215,7.83-7.881a4.12,4.12,0,0,1,3.158-1.387c7.539-.118,15.076-.336,22.615-.51,1.1-.025,2.2,0,3.635,0a44.7,44.7,0,0,0-5.02,7,2.435,2.435,0,0,1-2.2,1.381,11.224,11.224,0,0,0-1.641,21.911,11.239,11.239,0,0,0,13.064-5.523,11.427,11.427,0,0,0-2.7-13.955c-.888-.764-2.777-.849-2.554-2.3.176-1.142,1.3-2.146,2.034-3.192.346-.5.8-.915,1.128-1.423.717-1.122,1.3-.933,2.152-.054q4.137,4.287,8.426,8.427a3.432,3.432,0,0,1,1.122,2.832q-.353,12.619-.58,25.24a3.738,3.738,0,0,1-1.342,2.765q-21.444,21.405-42.833,42.866c-1.182,1.189-1.785,1.414-3.112.074q-19.046-19.232-38.269-38.288c-1.183-1.174-1.215-1.776-.005-2.965,7.439-7.319,14.777-14.741,22.18-22.1,1.109-1.1,1.8-2.181.865-3.7l2.681-2.9c.957.653,1.939,1,2.911.062C1718.594,98.5,1718.358,97.487,1717.793,96.474Zm14.75,17.493a10.166,10.166,0,0,0-6.71,2.555c-3.6,3.25-4.2,7.974-1.615,12.482.364.634,1.136,1.17.21,2.055-2.286,2.183-4.49,4.452-6.721,6.693-.654.657-.966.481-1.175-.371a6.732,6.732,0,0,1,1.508-6.214c.929-1.11,1.454-2.244.175-3.33-1.4-1.186-2.492-.322-3.4.825-2.575,3.252-3.413,6.908-1.855,10.777.683,1.7.613,2.689-.764,3.916-1.46,1.3-.987,3.236.677,3.617a2.151,2.151,0,0,0,2.3-.936c.952-1.3,1.842-1.133,3.188-.448a9.88,9.88,0,0,0,11.19-.887c4.024-3.1,4.791-8.172,2.091-12.859-.366-.635-1.133-1.173-.209-2.056,2.285-2.184,4.49-4.451,6.72-6.693.652-.655.965-.481,1.176.368a6.728,6.728,0,0,1-1.508,6.213c-.926,1.113-1.458,2.247-.176,3.328,1.385,1.166,2.488.338,3.4-.823,2.57-3.257,3.4-6.911,1.848-10.779-.683-1.7-.6-2.686.769-3.911,1.458-1.3.981-3.245-.681-3.616a2.162,2.162,0,0,0-2.3.939c-.955,1.3-1.9,1.255-3.189.426A9.782,9.782,0,0,0,1732.543,113.967Z" transform="translate(-1682.6 -72.236)" fill="#8f83dc"/>
            <path id="Trazado_586045" data-name="Trazado 586045" d="M1703.93,86.028c.931,1.521.245,2.6-.865,3.7-7.4,7.357-14.74,14.779-22.18,22.1-1.209,1.189-1.177,1.791.005,2.965q19.205,19.073,38.27,38.288c1.327,1.34,1.929,1.115,3.111-.074q21.366-21.484,42.833-42.866a3.739,3.739,0,0,0,1.343-2.765q.209-12.622.58-25.24a3.433,3.433,0,0,0-1.123-2.832q-4.288-4.135-8.426-8.427c-.848-.879-1.435-1.068-2.153.054-.324.507-.781.927-1.128,1.423-.732,1.046-1.858,2.05-2.034,3.192-.223,1.45,1.666,1.535,2.554,2.3a11.427,11.427,0,0,1,2.7,13.955,11.244,11.244,0,0,1-21.1-6.521,11.1,11.1,0,0,1,9.681-9.868,2.436,2.436,0,0,0,2.2-1.381,44.667,44.667,0,0,1,5.02-7c-1.433,0-2.535-.022-3.636,0-7.538.175-15.075.392-22.614.51a4.119,4.119,0,0,0-3.158,1.387c-2.57,2.666-5.242,5.233-7.83,7.881-1.081,1.107-2.18,1.54-3.552.573-.894-1.306-.491-2.349.559-3.38q4.755-4.671,9.427-9.427a3.365,3.365,0,0,1,2.505-1.054q14.338-.287,28.675-.619c.336-.007.784-.123.991.044,1.961,1.584,3.029-.113,4.314-1.1,3.216-2.478,6.6-4.643,10.633-5.565,5.865-1.341,9.535,2.347,8.17,8.224-1.066,4.586-3.655,8.336-6.612,11.863-.65.776-1.228,1.354-.291,2.318.5.511.3,1.283.289,1.949-.2,9.357-.425,18.713-.593,28.071a4.288,4.288,0,0,1-1.374,3.193q-23.1,23.036-46.148,46.122c-2.009,2.008-2.556,2-4.624-.071q-21.142-21.136-42.278-42.279c-2.131-2.132-2.126-2.6.029-4.761q12.066-12.073,24.125-24.153C1701.356,85.619,1702.45,85.032,1703.93,86.028Zm69.981-23.278c.066-2.323-.92-3.074-3.219-2.568-4.2.923-7.552,3.388-10.778,6.075-.7.58-.473.917.045,1.418,1.5,1.451,2.958,2.94,4.433,4.414,2.854,2.854,2.869,2.865,5.283-.441C1771.709,68.863,1773.479,65.947,1773.911,62.75ZM1745.53,79.808a6.694,6.694,0,0,0-5.186,7.456,7.11,7.11,0,0,0,6.848,6.416,6.593,6.593,0,0,0,6.984-5.27C1746.748,88.517,1745.819,87.592,1745.53,79.808Zm6.356,4.642c.547-.373,1.84.406,2.121-.868.182-.828-2.679-3.716-3.55-3.556-1.241.228-.811,1.46-.906,2.262C1749.376,83.78,1750.154,84.545,1751.886,84.45Z" transform="translate(-1674.48 -56.005)" fill="#040605"/>
            <path id="Trazado_586046" data-name="Trazado 586046" d="M1756.292,115.181c.564,1.013.8,2.026-.15,2.943-.972.937-1.954.59-2.911-.062a2.048,2.048,0,0,1,.173-2.851C1754.332,114.334,1755.323,114.624,1756.292,115.181Z" transform="translate(-1721.099 -90.942)" fill="#090c0b"/>
            <path id="Trazado_586047" data-name="Trazado 586047" d="M1766.745,159a9.781,9.781,0,0,1,4.954,1.269c1.293.829,2.235.876,3.189-.426a2.162,2.162,0,0,1,2.3-.939c1.662.372,2.139,2.314.681,3.616-1.372,1.225-1.451,2.214-.769,3.911,1.557,3.867.723,7.522-1.848,10.779-.916,1.161-2.02,1.989-3.4.823-1.283-1.081-.75-2.215.176-3.328a6.727,6.727,0,0,0,1.508-6.213c-.211-.849-.524-1.023-1.176-.367-2.23,2.241-4.436,4.508-6.721,6.693-.923.883-.156,1.421.209,2.056,2.7,4.686,1.933,9.758-2.091,12.859a9.88,9.88,0,0,1-11.19.887c-1.346-.685-2.236-.856-3.189.448a2.15,2.15,0,0,1-2.3.936c-1.664-.381-2.137-2.316-.677-3.617,1.376-1.227,1.447-2.219.764-3.916-1.557-3.869-.72-7.525,1.855-10.777.909-1.147,2.006-2.011,3.4-.825,1.279,1.086.755,2.22-.175,3.33a6.733,6.733,0,0,0-1.508,6.214c.209.852.521,1.028,1.175.371,2.23-2.241,4.435-4.509,6.72-6.693.926-.885.155-1.42-.21-2.055-2.586-4.508-1.981-9.232,1.615-12.482A10.167,10.167,0,0,1,1766.745,159Zm-5.833,9.633a5.854,5.854,0,0,0,.764,2.879c.366.748.722.815,1.323.2q3.381-3.444,6.817-6.833c.548-.544.408-.81-.229-1.17C1765.912,161.638,1760.947,164.438,1760.912,168.633Zm2.431,13.617a5.505,5.505,0,0,0-.416-2.154c-.461-1.321-.959-1.74-2.123-.475-1.948,2.119-4.051,4.094-6.083,6.136-.458.461-1.121.841-.018,1.449C1758.412,189.25,1763.35,186.448,1763.343,182.249Z" transform="translate(-1716.802 -117.269)" fill="#020705"/>
            <path id="Trazado_586048" data-name="Trazado 586048" d="M1899.151,68.683c-.432,3.2-2.2,6.113-4.235,8.9-2.414,3.306-2.429,3.295-5.283.441-1.475-1.474-2.935-2.964-4.433-4.414-.518-.5-.741-.838-.045-1.418,3.226-2.687,6.579-5.152,10.778-6.075C1898.23,65.609,1899.217,66.361,1899.151,68.683Z" transform="translate(-1799.719 -61.938)" fill="#f2f4f5"/>
            <path id="Trazado_586049" data-name="Trazado 586049" d="M1842.533,114.881c.288,7.784,1.217,8.709,8.645,8.6a6.593,6.593,0,0,1-6.984,5.27,7.11,7.11,0,0,1-6.848-6.416A6.694,6.694,0,0,1,1842.533,114.881Z" transform="translate(-1771.483 -91.078)" fill="#f0f2f3"/>
            <path id="Trazado_586050" data-name="Trazado 586050" d="M1862.466,119.835c-1.732.1-2.511-.669-2.335-2.161.095-.8-.335-2.034.906-2.262.871-.16,3.732,2.728,3.55,3.556C1864.306,120.241,1863.013,119.462,1862.466,119.835Z" transform="translate(-1785.059 -91.39)" fill="#eff1f2"/>
            <path id="Trazado_586051" data-name="Trazado 586051" d="M1783.573,174.77c.036-4.195,5-7,8.676-4.92.638.36.778.626.23,1.17q-3.425,3.4-6.818,6.833c-.6.611-.957.543-1.322-.2A5.866,5.866,0,0,1,1783.573,174.77Z" transform="translate(-1739.465 -123.406)" fill="#8f83dc"/>
            <path id="Trazado_586052" data-name="Trazado 586052" d="M1775.98,211.736c0,4.2-4.933,7-8.643,4.957-1.1-.608-.44-.988.018-1.449,2.032-2.042,4.135-4.018,6.083-6.136,1.164-1.265,1.662-.846,2.123.475A5.556,5.556,0,0,1,1775.98,211.736Z" transform="translate(-1729.437 -146.756)" fill="#8f83dc"/>
          </g>
        </g>
        <g id="Grupo_846379" data-name="Grupo 846379" transform="translate(834 4082.737)">
          <g id="Grupo_53375" data-name="Grupo 53375" transform="translate(-256 3227.09)">
            <line id="Línea_107" data-name="Línea 107" x2="113" fill="none" stroke="#afafaf" stroke-width="2"/>
          </g>
        </g>
        <rect id="Rectángulo_281156" data-name="Rectángulo 281156" width="92" height="29" transform="translate(475 7294.882)" fill="#f27b58"/>
        <path id="Trazado_587823" data-name="Trazado 587823" d="M12.855,16.176V21H9.428V6.781H15.1a6.608,6.608,0,0,1,2.886.6,4.526,4.526,0,0,1,1.943,1.709,4.667,4.667,0,0,1,.688,2.515,4.114,4.114,0,0,1-1.489,3.325,6.179,6.179,0,0,1-4.087,1.245Zm0-2.646H15.1a2.118,2.118,0,0,0,1.519-.5,1.85,1.85,0,0,0,.522-1.406,2.287,2.287,0,0,0-.537-1.592,1.9,1.9,0,0,0-1.465-.605H12.855Zm15.83-.117L27.6,13.334a1.947,1.947,0,0,0-1.992.977V21H22.318V10.434H25.4l.107,1.357a2.548,2.548,0,0,1,2.314-1.553,3.209,3.209,0,0,1,.918.117Zm6.3,7.783a5.432,5.432,0,0,1-3.936-1.45,5.008,5.008,0,0,1-1.5-3.774V15.7a6.489,6.489,0,0,1,.6-2.861A4.395,4.395,0,0,1,31.9,10.917a5.292,5.292,0,0,1,2.734-.679,4.574,4.574,0,0,1,3.516,1.382,5.43,5.43,0,0,1,1.289,3.853v1.279H32.895a2.372,2.372,0,0,0,.771,1.4,2.3,2.3,0,0,0,1.543.508,2.958,2.958,0,0,0,2.441-1.094l1.5,1.777a4.2,4.2,0,0,1-1.743,1.353A5.891,5.891,0,0,1,34.984,21.2Zm-.371-8.418q-1.445,0-1.719,1.914h3.32v-.254a1.63,1.63,0,0,0-.4-1.226A1.593,1.593,0,0,0,34.613,12.777Zm10.615,5.879A1.464,1.464,0,0,0,46.3,18.28a1.379,1.379,0,0,0,.371-1.05H49.76a3.653,3.653,0,0,1-1.245,2.852A4.631,4.631,0,0,1,45.307,21.2a4.689,4.689,0,0,1-3.633-1.445,5.7,5.7,0,0,1-1.328-4v-.137a6.436,6.436,0,0,1,.591-2.827,4.3,4.3,0,0,1,1.7-1.885,5.081,5.081,0,0,1,2.637-.659,4.573,4.573,0,0,1,3.271,1.143,4.053,4.053,0,0,1,1.211,3.1H46.674a1.807,1.807,0,0,0-.4-1.26,1.382,1.382,0,0,0-1.074-.439q-1.279,0-1.494,1.631a11.507,11.507,0,0,0-.068,1.426,4.52,4.52,0,0,0,.381,2.207A1.319,1.319,0,0,0,45.229,18.656ZM54.623,21h-3.3V10.434h3.3Zm-3.5-13.291a1.469,1.469,0,0,1,.508-1.152,2.159,2.159,0,0,1,2.637,0,1.469,1.469,0,0,1,.508,1.152,1.469,1.469,0,0,1-.508,1.152,2.159,2.159,0,0,1-2.637,0A1.469,1.469,0,0,1,51.127,7.709Zm5.107,7.91A6.236,6.236,0,0,1,56.85,12.8a4.4,4.4,0,0,1,1.768-1.9,5.323,5.323,0,0,1,2.705-.664,4.858,4.858,0,0,1,3.74,1.47,5.64,5.64,0,0,1,1.367,4v.117a5.472,5.472,0,0,1-1.372,3.921,4.871,4.871,0,0,1-3.716,1.45,4.927,4.927,0,0,1-3.623-1.353,5.29,5.29,0,0,1-1.475-3.667Zm3.291.205a3.932,3.932,0,0,0,.459,2.148,1.529,1.529,0,0,0,1.357.684q1.758,0,1.8-2.705v-.332q0-2.842-1.816-2.842-1.65,0-1.787,2.451ZM82.23,13.949H73.188V11.41H82.23Zm0,4.287H73.188V15.7H82.23Z" transform="translate(475 7295.327)" fill="#fff"/>
        <rect id="Rectángulo_281156-2" data-name="Rectángulo 281156" width="113" height="29" transform="translate(578 7264.882)" fill="#ffd400" opacity="0.617"/>
        <rect id="Rectángulo_281157" data-name="Rectángulo 281157" width="113" height="29" transform="translate(578 7326.882)" fill="#ffd400" opacity="0.617"/>
        <path id="Trazado_587824" data-name="Trazado 587824" d="M14.5,16.186a5.193,5.193,0,0,1-.8,2.622A4.833,4.833,0,0,1,11.64,20.57a7,7,0,0,1-3.022.625A5.584,5.584,0,0,1,4.2,19.369a7.54,7.54,0,0,1-1.611-5.156v-.7a8.607,8.607,0,0,1,.728-3.657A5.513,5.513,0,0,1,5.414,7.431a5.844,5.844,0,0,1,3.164-.854,6.129,6.129,0,0,1,4.16,1.362,5.383,5.383,0,0,1,1.787,3.755H11.107a2.547,2.547,0,0,0-.654-1.865,2.691,2.691,0,0,0-1.875-.566,2.048,2.048,0,0,0-1.875.957,6.151,6.151,0,0,0-.625,3.057v1.006a6.806,6.806,0,0,0,.571,3.252,2.091,2.091,0,0,0,1.968.977,2.632,2.632,0,0,0,1.807-.557,2.363,2.363,0,0,0,.664-1.768Zm1.055-.566a6.236,6.236,0,0,1,.615-2.817,4.4,4.4,0,0,1,1.768-1.9,5.323,5.323,0,0,1,2.705-.664,4.858,4.858,0,0,1,3.74,1.47,5.64,5.64,0,0,1,1.367,4v.117a5.472,5.472,0,0,1-1.372,3.921,4.871,4.871,0,0,1-3.716,1.45,4.927,4.927,0,0,1-3.623-1.353,5.29,5.29,0,0,1-1.475-3.667Zm3.291.205a3.932,3.932,0,0,0,.459,2.148,1.529,1.529,0,0,0,1.357.684q1.758,0,1.8-2.705v-.332q0-2.842-1.816-2.842-1.65,0-1.787,2.451Zm13.887,2.207a.76.76,0,0,0-.439-.674,6.684,6.684,0,0,0-1.67-.527,7.615,7.615,0,0,1-2.031-.718,3.4,3.4,0,0,1-1.221-1.079,2.577,2.577,0,0,1-.42-1.455,2.92,2.92,0,0,1,1.2-2.4,4.948,4.948,0,0,1,3.145-.942,5.482,5.482,0,0,1,3.359.947,2.962,2.962,0,0,1,1.27,2.49h-3.3q0-1.27-1.338-1.27a1.326,1.326,0,0,0-.869.288.892.892,0,0,0-.352.718.819.819,0,0,0,.43.713,4.06,4.06,0,0,0,1.372.449,11.857,11.857,0,0,1,1.655.42A3.007,3.007,0,0,1,35.9,17.934a2.767,2.767,0,0,1-1.284,2.354,5.632,5.632,0,0,1-3.325.908,5.747,5.747,0,0,1-2.422-.488,4.05,4.05,0,0,1-1.66-1.328,3.007,3.007,0,0,1-.6-1.768h3.076a1.272,1.272,0,0,0,.488,1.069,2.009,2.009,0,0,0,1.2.337,1.58,1.58,0,0,0,1.011-.273A.875.875,0,0,0,32.729,18.031ZM41.273,7.807v2.627h1.738v2.285H41.273v4.834a1.234,1.234,0,0,0,.215.83,1.152,1.152,0,0,0,.85.234,4.828,4.828,0,0,0,.82-.059v2.354A6.074,6.074,0,0,1,41.3,21.2a3.448,3.448,0,0,1-2.51-.8,3.282,3.282,0,0,1-.811-2.432V12.719H36.635V10.434h1.348V7.807ZM43.6,15.619a6.236,6.236,0,0,1,.615-2.817,4.4,4.4,0,0,1,1.768-1.9,5.323,5.323,0,0,1,2.705-.664,4.858,4.858,0,0,1,3.74,1.47,5.64,5.64,0,0,1,1.367,4v.117a5.472,5.472,0,0,1-1.372,3.921,4.871,4.871,0,0,1-3.716,1.45,4.927,4.927,0,0,1-3.623-1.353,5.29,5.29,0,0,1-1.475-3.667Zm3.291.205a3.932,3.932,0,0,0,.459,2.148,1.529,1.529,0,0,0,1.357.684q1.758,0,1.8-2.705v-.332q0-2.842-1.816-2.842-1.65,0-1.787,2.451ZM64.057,7.807v2.627h1.738v2.285H64.057v4.834a1.234,1.234,0,0,0,.215.83,1.152,1.152,0,0,0,.85.234,4.828,4.828,0,0,0,.82-.059v2.354a6.074,6.074,0,0,1-1.855.283,3.448,3.448,0,0,1-2.51-.8,3.282,3.282,0,0,1-.811-2.432V12.719H59.418V10.434h1.348V7.807Zm2.324,7.813A6.236,6.236,0,0,1,67,12.8a4.4,4.4,0,0,1,1.768-1.9,5.323,5.323,0,0,1,2.705-.664,4.858,4.858,0,0,1,3.74,1.47,5.64,5.64,0,0,1,1.367,4v.117A5.472,5.472,0,0,1,75.2,19.745a4.871,4.871,0,0,1-3.716,1.45,4.927,4.927,0,0,1-3.623-1.353,5.29,5.29,0,0,1-1.475-3.667Zm3.291.205a3.932,3.932,0,0,0,.459,2.148,1.529,1.529,0,0,0,1.357.684q1.758,0,1.8-2.705v-.332q0-2.842-1.816-2.842-1.65,0-1.787,2.451ZM81.859,7.807v2.627H83.6v2.285H81.859v4.834a1.234,1.234,0,0,0,.215.83,1.152,1.152,0,0,0,.85.234,4.828,4.828,0,0,0,.82-.059v2.354a6.074,6.074,0,0,1-1.855.283,3.448,3.448,0,0,1-2.51-.8,3.282,3.282,0,0,1-.811-2.432V12.719H77.221V10.434h1.348V7.807ZM90.844,21a3.716,3.716,0,0,1-.312-.947A3.06,3.06,0,0,1,87.992,21.2a3.749,3.749,0,0,1-2.539-.9,2.875,2.875,0,0,1-1.045-2.271,2.955,2.955,0,0,1,1.27-2.6,6.468,6.468,0,0,1,3.691-.879h1.016v-.559q0-1.462-1.26-1.462a1.03,1.03,0,0,0-1.172,1.158H84.662a2.95,2.95,0,0,1,1.3-2.487,5.479,5.479,0,0,1,3.325-.956,4.8,4.8,0,0,1,3.193.986,3.429,3.429,0,0,1,1.2,2.705v4.678a4.79,4.79,0,0,0,.449,2.227V21Zm-2.061-2.148a1.836,1.836,0,0,0,1.021-.264,1.653,1.653,0,0,0,.581-.6V16.3h-.957q-1.719,0-1.719,1.543a.942.942,0,0,0,.3.728A1.1,1.1,0,0,0,88.783,18.852ZM98.979,21h-3.3V6h3.3Z" transform="translate(583 7265.327)" fill="#12263f"/>
        <path id="Trazado_587825" data-name="Trazado 587825" d="M11.688,21h-3.3V10.492l-3.242.947v-2.5l6.24-2.158h.3ZM22.46,16.137H16.591V13.6H22.46Zm12.2-9.355,3.174,9.893L41,6.781h4.512V21H42.069V17.68l.332-6.8L38.964,21H36.7L33.251,10.873l.332,6.807V21H30.155V6.781ZM53.485,21a3.716,3.716,0,0,1-.312-.947A3.06,3.06,0,0,1,50.634,21.2a3.749,3.749,0,0,1-2.539-.9,2.875,2.875,0,0,1-1.045-2.271,2.955,2.955,0,0,1,1.27-2.6,6.468,6.468,0,0,1,3.691-.879h1.016v-.559q0-1.462-1.26-1.462a1.03,1.03,0,0,0-1.172,1.158H47.3a2.95,2.95,0,0,1,1.3-2.487,5.479,5.479,0,0,1,3.325-.956,4.8,4.8,0,0,1,3.193.986,3.429,3.429,0,0,1,1.2,2.705v4.678a4.79,4.79,0,0,0,.449,2.227V21Zm-2.061-2.148a1.836,1.836,0,0,0,1.021-.264,1.653,1.653,0,0,0,.581-.6V16.3h-.957q-1.719,0-1.719,1.543a.942.942,0,0,0,.3.728A1.1,1.1,0,0,0,51.425,18.852ZM64.54,13.412l-1.084-.078a1.947,1.947,0,0,0-1.992.977V21H58.173V10.434h3.086l.107,1.357a2.548,2.548,0,0,1,2.314-1.553,3.209,3.209,0,0,1,.918.117Zm.8,2.227a7.134,7.134,0,0,1,.527-2.832,4.245,4.245,0,0,1,1.514-1.9,3.99,3.99,0,0,1,2.295-.669,3.173,3.173,0,0,1,2.578,1.113l.117-.918H75.36V20.6a4.455,4.455,0,0,1-.649,2.427,4.167,4.167,0,0,1-1.88,1.582,6.91,6.91,0,0,1-2.852.552,5.961,5.961,0,0,1-2.251-.439,4.063,4.063,0,0,1-1.665-1.143l1.377-1.934a3.018,3.018,0,0,0,2.422,1.084,1.96,1.96,0,0,0,2.188-2.246V20.15A3.09,3.09,0,0,1,69.657,21.2a3.819,3.819,0,0,1-3.125-1.479,6.13,6.13,0,0,1-1.191-3.96Zm3.3.205A3.759,3.759,0,0,0,69.13,17.9a1.541,1.541,0,0,0,1.367.757,1.748,1.748,0,0,0,1.553-.713V13.5a1.7,1.7,0,0,0-1.533-.723,1.551,1.551,0,0,0-1.377.786A4.287,4.287,0,0,0,68.642,15.844Zm13.7,5.352a5.432,5.432,0,0,1-3.936-1.45,5.008,5.008,0,0,1-1.5-3.774V15.7a6.489,6.489,0,0,1,.6-2.861,4.395,4.395,0,0,1,1.753-1.919,5.292,5.292,0,0,1,2.734-.679,4.574,4.574,0,0,1,3.516,1.382A5.43,5.43,0,0,1,86.8,15.473v1.279H80.253a2.372,2.372,0,0,0,.771,1.4,2.3,2.3,0,0,0,1.543.508,2.958,2.958,0,0,0,2.441-1.094l1.5,1.777a4.2,4.2,0,0,1-1.743,1.353A5.891,5.891,0,0,1,82.343,21.2Zm-.371-8.418q-1.445,0-1.719,1.914h3.32v-.254a1.63,1.63,0,0,0-.4-1.226A1.593,1.593,0,0,0,81.972,12.777Zm9.17-2.344.107,1.24a3.583,3.583,0,0,1,3.018-1.436,3.015,3.015,0,0,1,2.466.986,4.7,4.7,0,0,1,.845,2.969V21h-3.3V14.33a1.783,1.783,0,0,0-.322-1.177,1.491,1.491,0,0,0-1.172-.376,1.569,1.569,0,0,0-1.436.762V21H88.056V10.434Z" transform="translate(583 7327.327)" fill="#12263f"/>
      </g>
    </g>
  </g>
</svg>
