<svg xmlns="http://www.w3.org/2000/svg" width="32.777" height="32.762" viewBox="0 0 32.777 32.762">
  <g id="Icon_ionic-ios-megaphone" data-name="Icon ionic-ios-megaphone" transform="translate(-3.368 -3.375)">
    <path id="Trazado_587665" data-name="Trazado 587665" d="M6.691,13.865a7.233,7.233,0,0,1,3.426-6.214.255.255,0,0,0-.134-.473h0a6.082,6.082,0,0,0-5.836,5.5,1.119,1.119,0,0,0-.78,1.173,1.074,1.074,0,0,0,.851,1.166,6.949,6.949,0,0,0,4.82,5.08h0a.343.343,0,0,0,.3-.591A7.847,7.847,0,0,1,6.691,13.865Z" transform="translate(0 0.457)" fill="#4a2efc"/>
    <path id="Trazado_587666" data-name="Trazado 587666" d="M34.472,7.691c-.079-.213-.165-.41-.252-.606a8.079,8.079,0,0,0-1.709-2.536A3.887,3.887,0,0,0,29.77,3.375a3.6,3.6,0,0,0-2.032.614A28.089,28.089,0,0,1,15.61,7.612c-3.284,0-3.1.016-3.1.016a7.384,7.384,0,0,0-.819,12.994c.953.8,1.859.693,1.662,1.748s-1.772,7.679-1.969,9.057-.228,2.166.315,2.835,3.9,1.874,5.355,1.874,1.087-.685,1.087-3.449-.732-10.372,1.3-10.372c3.8,0,5.788,1.362,8.765,2.5a4.22,4.22,0,0,0,1.583.37,3.885,3.885,0,0,0,2.733-1.433,8.161,8.161,0,0,0,1.709-2.536c.087-.2.173-.41.26-.63a18.39,18.39,0,0,0,1.079-6.45A18.4,18.4,0,0,0,34.472,7.691ZM32.377,20.055c-.5,1.236-1.386,2.221-2.118,2.221s-1.4-.984-1.906-2.221a16.24,16.24,0,0,1-.969-5.883,16.3,16.3,0,0,1,.969-5.9c.5-1.229,1.173-1.969,1.9-1.969s1.6.748,2.111,1.969a15.867,15.867,0,0,1,.016,11.782Z" transform="translate(0.579)" fill="#4a2efc"/>
  </g>
</svg>
