<svg xmlns="http://www.w3.org/2000/svg" width="81.396" height="81.396" viewBox="0 0 81.396 81.396">
  <g id="Grupo_846494" data-name="Grupo 846494" transform="translate(-240 -1286.742)">
    <rect id="Rectángulo_38178" data-name="Rectángulo 38178" width="81.396" height="81.396" transform="translate(240 1286.742)" fill="none"/>
    <g id="Grupo_847229" data-name="Grupo 847229" transform="translate(3273.508 519.095)">
      <path id="Trazado_587328" data-name="Trazado 587328" d="M-2960.092,859.265q-.012.395-.024.789c-.837-.281-1.3.1-1.609.854-.42,1.018-.837,2.043-1.353,3.013a7.98,7.98,0,0,0-.922,4.234c.074,1.629-.017,3.265-.036,4.9l-15.767-.009a2.6,2.6,0,0,1-.733-2.23,8.515,8.515,0,0,0-2.544-6.881,15.457,15.457,0,0,1-4.051-6.913,53.761,53.761,0,0,1-.782-7.409c-.128-1.5-.1-3.031-.361-4.509a7.146,7.146,0,0,1,2.173-6.933c2.715-2.471,5.574-4.784,8.395-7.138,3.132-2.614,6.292-5.195,9.436-7.794a1.352,1.352,0,0,0,.583-1.038,2.786,2.786,0,0,1,.045,4.745c-3.788,2.976-7.147,6.47-11.3,9.023a40.371,40.371,0,0,0-4.866,4.129c-.519.448-1.058.937-.427,1.629s1.175.181,1.682-.261c1.452-1.264,2.892-2.543,4.359-3.789a2.2,2.2,0,0,1,3.115-.152c2.552,2.12,5.089,4.26,7.575,6.455,1.179,1.042,1.218,2.342.308,3.735-2.516-2.139-5.046-4.26-7.541-6.424a3.157,3.157,0,0,0-4.236-.207c-.8.584-1.411,1.409-2.222,1.915a4.486,4.486,0,0,0-2.279,4.974,2.885,2.885,0,0,1-.228.279c-.494.476-1.227.938-.549,1.71s1.239.153,1.769-.308c1.391-1.21,2.773-2.431,4.174-3.63,1.273-1.089,2.224-1.105,3.5-.035q3.53,2.966,7.023,5.973a2.852,2.852,0,0,1,.5,4.226,2.909,2.909,0,0,1-4.265.085c-1.29-1.076-2.594-2.138-3.83-3.275-.828-.761-1.52-.875-2.259.062a10.49,10.49,0,0,1-.778.786c-.422.43-.6.908-.135,1.4a.841.841,0,0,0,1.386-.062c.593-.781,1.04-.481,1.54.053.25.266.525.508.789.761a1.831,1.831,0,0,0,.094.713c1.83,2.928,5.034,4.193,7.959,2.565a5.422,5.422,0,0,0,1.979-8.075,1.575,1.575,0,0,1,.071-2.157,5.071,5.071,0,0,0-.678-6.785c-.959-.943-2-1.8-2.96-2.744a1.012,1.012,0,0,0-1.211-.218c.479-2.629.912-5.268,1.58-7.859a10.327,10.327,0,0,0,4.352-4.129c.659-1.3,1.18-2.812.111-4.255,2.246-.812,3.575.172,3.377,2.5-.18,2.121-.247,4.258-.564,6.358a12.744,12.744,0,0,0,1.464,8.71,14.684,14.684,0,0,1,1.666,9.621,21.421,21.421,0,0,1-2.075,6.128c-.363.772-.438,1.4.425,1.847-.457.207-.451.788-.844,1.047l-.1-.055Z" transform="translate(-18.706 -34.186)" fill="#fcede5"/>
      <path id="Trazado_587329" data-name="Trazado 587329" d="M-2986.711,797.28c-.668,2.591-1.1,5.23-1.58,7.859-.235.575.325.684.586.922.909.827,1.9,1.569,2.786,2.418a4.608,4.608,0,0,1-.072,6.87c-.62.551-.639.753-.025,1.317a4.637,4.637,0,0,1,.388,6.611,4.693,4.693,0,0,1-6.629.411q-1.147-.92-2.288-1.847c-.264-.253-.54-.495-.789-.761-.5-.534-.947-.834-1.54-.053a.841.841,0,0,1-1.386.062c-.465-.494-.287-.972.135-1.4a10.408,10.408,0,0,0,.778-.786c.74-.937,1.432-.823,2.26-.062,1.236,1.136,2.54,2.2,3.83,3.274a2.909,2.909,0,0,0,4.265-.085,2.852,2.852,0,0,0-.5-4.226q-3.489-3.013-7.023-5.973c-1.274-1.07-2.225-1.054-3.5.035-1.4,1.2-2.783,2.42-4.174,3.63-.53.461-1.1,1.066-1.77.307s.055-1.234.549-1.71a2.889,2.889,0,0,0,.228-.279q1.958-1.659,3.916-3.319c2.024-1.724,3.992-1.73,6.044,0,1.312,1.1,2.616,2.219,3.923,3.328,1.186,1.006,1.336.989,2.394-.266.91-1.393.872-2.693-.307-3.735-2.487-2.2-5.024-4.335-7.576-6.455a2.2,2.2,0,0,0-3.115.152c-1.468,1.246-2.907,2.526-4.359,3.789-.507.441-1.053.951-1.682.261s-.092-1.182.426-1.63a40.371,40.371,0,0,1,4.866-4.129c4.148-2.553,7.508-6.047,11.3-9.023a2.786,2.786,0,0,0-.044-4.745,2.753,2.753,0,0,0-3.683.409q-9.473,7.915-18.934,15.842a6.232,6.232,0,0,0-2.347,5.639c.192,2.2.342,4.409.524,6.612.049.592.065,1.153-.5,1.535-.913.174-1.291-.3-1.355-1.134-.193-2.535-.458-5.067-.552-7.605a7.058,7.058,0,0,1,3.045-6.393,5.559,5.559,0,0,0,2.619-5.757c-.208-2.154-.029-4.343-.047-6.517a6.9,6.9,0,0,1,1.218-4.051c1.709-2.5,3.4-5.018,5.139-7.5a4.655,4.655,0,0,1,6.665-1.383,4.651,4.651,0,0,1,1.076,6.716c-.511.738-.759,2.121-2.241,1.447-.719-1.108.291-1.727.742-2.465,1.14-1.864.679-3.6-1.239-4.408a2.613,2.613,0,0,0-3.4,1.027c-1.8,2.575-3.552,5.179-5.31,7.781a3.6,3.6,0,0,0-.7,2.052,72.62,72.62,0,0,0-.1,8.677c.01.96.444.135.68-.017,1.506-1.24,3-2.5,4.526-3.711a1.288,1.288,0,0,0,.5-1.491,6.641,6.641,0,0,1,1.668-5.023c.471-.567.891-.916,1.628-.625.516.624.259,1.149-.106,1.762-.519.871-1.562,1.532-1.245,2.783-.1.258-.13.46.256.282,2.2-1.832,4.4-3.672,6.611-5.5,2.269-1.873,4.51-1.846,6.724.121a.805.805,0,0,0,1.059.174,6.228,6.228,0,0,1,1.273-.431c3.01-.739,5.38,1.172,5.182,4.249-.2,3.146-.476,6.288-.775,9.426a5.285,5.285,0,0,0,.622,3.173,20.181,20.181,0,0,1,2.844,11.5,23.861,23.861,0,0,1-2.526,8.15,1.224,1.224,0,0,1-1.09.67c-.863-.451-.788-1.075-.425-1.847a21.419,21.419,0,0,0,2.075-6.128,14.681,14.681,0,0,0-1.666-9.621,12.745,12.745,0,0,1-1.464-8.71c.317-2.1.384-4.238.564-6.358.2-2.328-1.131-3.312-3.377-2.5-.7.065-1.084.309-1,1.153a4.35,4.35,0,0,1-1.9,4.137A3.407,3.407,0,0,0-2986.711,797.28Zm-2.2.231a52.373,52.373,0,0,0-4.283,3.451c-.2.153-.354.3-.022.546,1.059.8,2.086,1.638,3.248,2.56.408-2.273.783-4.36,1.157-6.448.116-.083.15-.172.026-.277Z" transform="translate(0 -0.027)" fill="#090808"/>
      <path id="Trazado_587330" data-name="Trazado 587330" d="M-3006.147,850.635c.565-.382.549-.943.5-1.535-.183-2.2-.333-4.409-.525-6.612a6.233,6.233,0,0,1,2.347-5.639q9.472-7.915,18.934-15.842a2.753,2.753,0,0,1,3.683-.41,1.353,1.353,0,0,1-.583,1.038c-3.144,2.6-6.3,5.181-9.436,7.794-2.82,2.353-5.679,4.667-8.395,7.138a7.146,7.146,0,0,0-2.173,6.933c.261,1.478.233,3.006.361,4.509a53.723,53.723,0,0,0,.782,7.409,15.457,15.457,0,0,0,4.051,6.913,8.515,8.515,0,0,1,2.544,6.881,2.6,2.6,0,0,0,.733,2.23l-5.066.014a5.734,5.734,0,0,1-.035-1.1,10.249,10.249,0,0,0-3.269-9.373,12.333,12.333,0,0,1-3.557-7.151,1.147,1.147,0,0,0-1.11-1.1A5.7,5.7,0,0,1-3006.147,850.635Z" transform="translate(-5.187 -32.585)" fill="#fbddce"/>
      <path id="Trazado_587331" data-name="Trazado 587331" d="M-2966.321,785.617c1.918.812,2.379,2.544,1.239,4.408-.451.738-1.46,1.357-.742,2.465-.113.727-.7,1.184-1.015,1.8-.737-.29-1.157.058-1.628.625a6.643,6.643,0,0,0-1.668,5.023c-.624.455-1.244.916-1.872,1.365-.722.516-1.388.274-1.449-.615-.182-2.637-.027-5.142,1.763-7.4C-2969.757,790.845-2968.1,788.183-2966.321,785.617Z" transform="translate(-29.944 -6.617)" fill="#fcece4"/>
      <path id="Trazado_587332" data-name="Trazado 587332" d="M-3008.639,952.61a1.147,1.147,0,0,1,1.111,1.1,12.332,12.332,0,0,0,3.557,7.151,10.249,10.249,0,0,1,3.269,9.373,5.734,5.734,0,0,0,.035,1.1c-.154.566-.458,1.021-1.106.9-.629-.116-.807-.626-.762-1.222.006-.082-.011-.166,0-.246.644-3.693-.693-6.618-3.268-9.232a13.539,13.539,0,0,1-3.516-7.187C-3009.456,953.621-3009.477,952.955-3008.639,952.61Z" transform="translate(-2.907 -132.468)" fill="#080707"/>
      <path id="Trazado_587333" data-name="Trazado 587333" d="M-2889.425,988.57c.019-1.633.11-3.269.036-4.9a7.977,7.977,0,0,1,.922-4.234c.515-.97.933-2,1.353-3.013.312-.755.772-1.135,1.609-.854a1.216,1.216,0,0,1,.174,1.465c-.019.036-.035.074-.057.108-2.054,3.292-2.384,6.921-2.091,10.673.009.122,0,.245,0,.367.027.609-.064,1.189-.762,1.343C-2888.978,989.689-2889.227,989.134-2889.425,988.57Z" transform="translate(-93.316 -149.702)" fill="#0f0f0e"/>
      <path id="Trazado_587334" data-name="Trazado 587334" d="M-2880.878,788.144c-.749-.092-1.25-.5-.956-1.148a37.314,37.314,0,0,1,2.055-3.765.754.754,0,0,1,1.093-.214c.385.237.668.6.455,1.02-.652,1.273-1.362,2.518-2.084,3.754C-2880.421,787.972-2880.712,788.045-2880.878,788.144Z" transform="translate(-98.972 -4.55)" fill="#0c0c0c"/>
      <path id="Trazado_587335" data-name="Trazado 587335" d="M-2867.3,804.642a1.058,1.058,0,0,1-1.059-.585.81.81,0,0,1,.3-1.08c1.124-.733,2.272-1.429,3.422-2.122a.826.826,0,0,1,1.1.2c.275.3.41.711.129,1C-2864.556,803.227-2866.1,803.812-2867.3,804.642Z" transform="translate(-109.125 -18.001)" fill="#0d0d0d"/>
      <path id="Trazado_587336" data-name="Trazado 587336" d="M-2897.832,779.678c0,.653.022,1.308-.006,1.96a.833.833,0,0,1-.95.882.807.807,0,0,1-.835-.871c-.018-1.306-.024-2.614,0-3.92a.832.832,0,0,1,.945-.891.838.838,0,0,1,.839.88C-2897.813,778.371-2897.833,779.025-2897.832,779.678Z" transform="translate(-85.619 0)" fill="#040404"/>
      <path id="Trazado_587337" data-name="Trazado 587337" d="M-2952.313,903.28c-1.058,1.256-1.208,1.273-2.394.266-1.308-1.109-2.611-2.224-3.923-3.328-2.052-1.728-4.02-1.722-6.044,0q-1.954,1.664-3.916,3.319a4.486,4.486,0,0,1,2.279-4.974c.811-.506,1.426-1.331,2.222-1.915a3.156,3.156,0,0,1,4.236.207C-2957.359,899.019-2954.829,901.141-2952.313,903.28Z" transform="translate(-33.585 -89.753)" fill="#fadcce"/>
      <path id="Trazado_587338" data-name="Trazado 587338" d="M-2933.274,907.978q1.144.924,2.288,1.847a4.693,4.693,0,0,0,6.629-.411,4.637,4.637,0,0,0-.388-6.611c-.614-.564-.594-.766.025-1.317a4.608,4.608,0,0,0,.072-6.87c-.888-.849-1.876-1.591-2.786-2.418-.261-.238-.821-.347-.586-.922a1.012,1.012,0,0,1,1.211.218c.955.946,2,1.8,2.96,2.744a5.071,5.071,0,0,1,.678,6.785,1.575,1.575,0,0,0-.071,2.157,5.422,5.422,0,0,1-1.978,8.075c-2.926,1.628-6.129.363-7.959-2.565A1.831,1.831,0,0,1-2933.274,907.978Z" transform="translate(-60.27 -86.164)" fill="#f3d8c9"/>
      <path id="Trazado_587339" data-name="Trazado 587339" d="M-2905.544,834.057a3.406,3.406,0,0,1,1.557-3.094,4.35,4.35,0,0,0,1.9-4.137c-.08-.844.3-1.088,1-1.153,1.069,1.443.548,2.958-.111,4.255A10.327,10.327,0,0,1-2905.544,834.057Z" transform="translate(-81.167 -36.804)" fill="#f8dbcc"/>
      <path id="Trazado_587340" data-name="Trazado 587340" d="M-2873.725,972.484l-.1-.054.1.055Z" transform="translate(-105.074 -147.405)" fill="#f7f9fa"/>
      <path id="Trazado_587341" data-name="Trazado 587341" d="M-2973.118,784.889c-1.779,2.566-3.436,5.228-5.372,7.669-1.79,2.257-1.945,4.762-1.763,7.4.061.888.727,1.131,1.449.614.628-.449,1.249-.909,1.872-1.365a1.288,1.288,0,0,1-.5,1.491c-1.528,1.212-3.02,2.47-4.525,3.711-.489-.307-.324-.8-.327-1.229-.016-2.049,0-4.1-.013-6.148,0-.436.138-.912-.24-1.283a3.6,3.6,0,0,1,.7-2.052c1.758-2.6,3.514-5.206,5.31-7.781A2.613,2.613,0,0,1-2973.118,784.889Z" transform="translate(-23.147 -5.888)" fill="#f9cdbf"/>
      <path id="Trazado_587342" data-name="Trazado 587342" d="M-2928.127,860.749l-1.158,6.448c-1.162-.921-2.189-1.761-3.248-2.56-.332-.25-.174-.393.022-.546a52.469,52.469,0,0,1,4.283-3.451Z" transform="translate(-60.685 -63.156)" fill="#edeff0"/>
      <path id="Trazado_587343" data-name="Trazado 587343" d="M-2983.089,829.695c.378.371.237.848.24,1.283.013,2.049,0,4.1.013,6.148,0,.427-.162.922.327,1.229-.237.152-.67.977-.68.017A72.62,72.62,0,0,1-2983.089,829.695Z" transform="translate(-22.591 -39.835)" fill="#c6aa9e"/>
      <path id="Trazado_587344" data-name="Trazado 587344" d="M-2914.47,860.122l.125-.169c.124.1.09.195-.026.277Z" transform="translate(-74.442 -62.639)" fill="#edeff0"/>
    </g>
  </g>
</svg>
