<svg xmlns="http://www.w3.org/2000/svg" width="81.396" height="81.396" viewBox="0 0 81.396 81.396">
  <g id="Grupo_846471" data-name="Grupo 846471" transform="translate(-240 -1286.742)">
    <rect id="Rectángulo_38178" data-name="Rectángulo 38178" width="81.396" height="81.396" transform="translate(240 1286.742)" fill="none"/>
    <g id="Grupo_847224" data-name="Grupo 847224" transform="translate(2365.446 113.618)">
      <path id="Trazado_587238" data-name="Trazado 587238" d="M-2107.392,1253.325a1.113,1.113,0,0,1-1.284-1.006c-.252-1.074-.563-2.135-.783-3.216a5.281,5.281,0,0,1,3.709-6.34c2.315-.749,4.667-1.388,7.015-2.031a21.655,21.655,0,0,0,3.3-1.529c.527-.244.416-.663.417-1.064.005-2.21-.01-4.421.006-6.63.019-2.456,1.384-3.732,3.816-3.866,4.233-.235,5.752,1.16,5.458,5.326a1.185,1.185,0,0,0,.132.91,1.578,1.578,0,0,0,1.449-1.855c-.1-2.358-.043-4.724-.026-7.087.021-2.922,1.609-4.352,4.782-4.342,2.951.009,4.516,1.5,4.522,4.369.012,5.525-.005,11.051.027,16.576,0,.315-.429,1.042.468.954.613-.06,1.1-.151,1.1-1.058-.043-8.117.09-16.236-.068-24.349-.093-4.768,4.006-5.455,7.062-4.345a3.4,3.4,0,0,1,2.217,3.195c.052.835,0,1.677.037,2.514a1.116,1.116,0,0,1-.813,1.214,1.137,1.137,0,0,1-.9-1.367,17.37,17.37,0,0,0,0-2.057,2.111,2.111,0,0,0-2.074-2.161,9.7,9.7,0,0,0-1.713,0,2.067,2.067,0,0,0-2.052,2.174c-.013,6.478.015,12.957.028,19.435-.015,1.672,0,3.345-.056,5.016-.024.779.207.848.818.465,1.613-1.01,3.141-2.138,4.655-3.287a.966.966,0,0,0,.415-.87c-.031-1.748-.041-3.5-.058-5.244.017-2.983.045-5.966.042-8.949,0-.7.065-1.295.909-1.428.772.2.8.785.8,1.433-.01,4.42-.005,8.84-.005,13.353a19.593,19.593,0,0,1,2.135-.739,3.853,3.853,0,0,1,4.213,1.807c.978,1.575,1.074,3.468-.229,4.648-3.8,3.446-7.561,7.006-12.021,9.6-2.406,1.4-5.308,1.563-7.993,2.256-3.979,1.027-7.976,1.99-11.976,2.935-.646.153-.827.343-.786,1.044a5.143,5.143,0,0,1-3.691,5.3,43.55,43.55,0,0,1-6.112,1.427,5.211,5.211,0,0,1-5.931-3.7c-.423-1.341-.742-2.715-1.1-4.076-.145-.55-.152-1.066.44-1.386.767-.1,1.089.317,1.254,1,.294,1.218.606,2.432.953,3.636a3.5,3.5,0,0,0,4.412,2.74q2.571-.5,5.11-1.156a3.8,3.8,0,0,0,2.651-5c-.374-1.073-.815-2.123-1.226-3.184q-1.915-5.172-3.826-10.345c-.16-.435-.3-.686-.887-.493-1.655.544-3.339,1-5.012,1.491-.257.058-.517.106-.771.176-3,.828-3.916,2.414-3.143,5.446.187.735.33,1.484.573,2.2A1.286,1.286,0,0,1-2107.392,1253.325Zm14.49-15.517c.846-.433,1.7-.857,2.536-1.3,3.16-1.677,3.16-1.68,2.909-5.274a1.657,1.657,0,0,0-1.339-1.739,6.875,6.875,0,0,0-3.211.008,1.376,1.376,0,0,0-1.157,1.15,32.638,32.638,0,0,0-.109,6.2v.658c0,.136-.048.322.02.395C-2093.161,1238-2092.99,1237.957-2092.9,1237.807Zm16.228.628c.015-4.645.045-9.29.034-13.934a2.026,2.026,0,0,0-1.821-2.13c-2.068-.321-3.416.159-3.848,1.376a1.38,1.38,0,0,0-.094.444c-.005,2.66,0,5.319,0,8.033.214-.036.354-.057.494-.083a3.381,3.381,0,0,1,4.123,4.083,10.146,10.146,0,0,1-1.087,2.87c-.836,1.354-2.193,2.211-3.568,3.495,1.99,0,3.64-.014,5.29.008.5.007.544-.258.536-.642C-2076.645,1240.781-2076.657,1239.608-2076.674,1238.435Zm-18.1,2.431c-.49.482-1.9.132-1.376,1.53,1.511,4.026,3.032,8.047,4.515,12.084.212.579.439.776,1.063.616,3.724-.953,7.457-1.873,11.186-2.8,2.443-.588,4.891-1.154,7.327-1.772a8.085,8.085,0,0,0,3.129-1.605c3.012-2.459,6.026-4.914,9.013-7.4,1.3-1.08,1.494-2.386.636-3.51-.888-1.163-2.222-1.286-3.635-.306a55.98,55.98,0,0,0-5.124,3.637c-4.228,3.7-9.287,3.047-14.253,2.942a1.677,1.677,0,0,1-1.544-1.334,1.732,1.732,0,0,1,.495-1.879c.467-.447.982-.844,1.484-1.254a6.77,6.77,0,0,0,2.326-3.7,1.723,1.723,0,0,0-.533-1.958,1.646,1.646,0,0,0-1.928-.121Q-2088.384,1237.442-2094.773,1240.866Z" transform="translate(-1.286 -21.403)" fill="#080808"/>
      <path id="Trazado_587239" data-name="Trazado 587239" d="M-2081.724,1193.487c-2.127,2.046-4.18,4.023-6.236,6-1.443,1.385-2.295,1.5-4.094.581-2.221-1.138-2.221-1.138-3.965.62l-10.312,10.392a3.291,3.291,0,0,1-1.787,1.157,2.582,2.582,0,0,1-2.675-1.162,2.511,2.511,0,0,1,0-2.9,4.689,4.689,0,0,1,.675-.773q6.523-6.58,13.051-13.154c1.421-1.43,2.249-1.548,4.071-.618,2.3,1.171,2.3,1.172,4.187-.651q1.441-1.39,2.881-2.78a1.749,1.749,0,0,0,.149-.192c-.115-.355-.441-.17-.657-.226a2.465,2.465,0,0,1-2.039-2.751,2.569,2.569,0,0,1,2.423-2.454q3.658-.09,7.319,0a2.316,2.316,0,0,1,2.35,2.336c.063,2.438.058,4.88.01,7.319a2.528,2.528,0,0,1-2.26,2.478,2.371,2.371,0,0,1-2.8-1.923C-2081.548,1194.394-2081.612,1194-2081.724,1193.487Zm3.522.89a52.133,52.133,0,0,0,.008-7.545c-.061-.314-.147-.58-.534-.286-.067-.077-.134-.222-.2-.223q-3.53-.014-7.06.008c-.118,0-.235.157-.353.242-.617.806-.414,1.41.558,1.515a18.715,18.715,0,0,0,2.055.027c.484,0,.927.069,1.118.594.175.48-.123.794-.431,1.091-2.222,2.14-4.457,4.268-6.662,6.425a1.2,1.2,0,0,1-1.632.2c-.794-.449-1.644-.8-2.42-1.279a1.514,1.514,0,0,0-2.173.355c-4.234,4.33-8.519,8.611-12.784,12.911a5.318,5.318,0,0,0-.67.773.81.81,0,0,0,.2,1.125.773.773,0,0,0,1.046.078,7.29,7.29,0,0,0,.753-.7c3.947-3.973,7.907-7.93,11.819-11.937a1.514,1.514,0,0,1,2.187-.33c.577.364,1.249.583,1.81.966a1.8,1.8,0,0,0,2.669-.344c2.323-2.361,4.751-4.619,7.142-6.915.351-.337.68-.778,1.267-.546.64.253.566.831.572,1.362.007.686,0,1.371.016,2.057a.907.907,0,0,0,.668.956A.75.75,0,0,0-2078.2,1194.377Z" fill="#070908"/>
      <path id="Trazado_587240" data-name="Trazado 587240" d="M-1936.867,1227.325c-.844.133-.909.728-.908,1.428,0,2.983-.026,5.966-.043,8.949a47.507,47.507,0,0,1-5.774,3.92c-.014-6.478-.041-12.957-.028-19.435a2.067,2.067,0,0,1,2.052-2.174,9.7,9.7,0,0,1,1.713,0,2.111,2.111,0,0,1,2.074,2.161,17.422,17.422,0,0,1,0,2.057,1.137,1.137,0,0,0,.9,1.367Q-1936.872,1226.46-1936.867,1227.325Z" transform="translate(-129.258 -27.336)" fill="#f9da53"/>
      <path id="Trazado_587241" data-name="Trazado 587241" d="M-2088.046,1360.087c.411,1.06.851,2.11,1.226,3.184a3.8,3.8,0,0,1-2.651,5q-2.536.656-5.111,1.156a3.5,3.5,0,0,1-4.411-2.74c-.348-1.2-.659-2.418-.954-3.636-.165-.684-.486-1.1-1.253-1q-.148-.982-.3-1.963a1.286,1.286,0,0,0,.385-1.526c-.242-.716-.385-1.465-.572-2.2-.773-3.032.141-4.618,3.143-5.446.254-.07.514-.118.771-.177-.1,1.168-.124,2.352-.333,3.5-.457,2.52,1.227,5.2,3.719,5.307C-2092.258,1359.643-2090.163,1359.967-2088.046,1360.087Zm-5.327.609a3.369,3.369,0,0,0-3.4,3.286,3.389,3.389,0,0,0,3.367,3.435,3.382,3.382,0,0,0,3.389-3.293A3.361,3.361,0,0,0-2093.374,1360.7Z" transform="translate(-7.18 -128.166)" fill="#78bed9"/>
      <path id="Trazado_587242" data-name="Trazado 587242" d="M-2044.865,1313.255q6.39-3.422,12.782-6.842a1.646,1.646,0,0,1,1.928.121,1.723,1.723,0,0,1,.533,1.958,6.77,6.77,0,0,1-2.326,3.7c-.5.409-1.017.807-1.484,1.254a1.732,1.732,0,0,0-.495,1.879,1.677,1.677,0,0,0,1.544,1.334c4.966.106,10.025.761,14.253-2.942a55.947,55.947,0,0,1,5.124-3.637c1.413-.979,2.747-.857,3.635.306.858,1.124.659,2.43-.636,3.51-2.987,2.489-6,4.944-9.013,7.4a8.085,8.085,0,0,1-3.129,1.605c-2.435.618-4.884,1.184-7.327,1.772-.112-.372-.383-.5-.747-.6-2.488-.673-4.95-1.445-7.453-2.052a7.939,7.939,0,0,1-6.562-7.077C-2044.321,1314.407-2044.05,1313.585-2044.865,1313.255Z" transform="translate(-51.193 -93.791)" fill="#fce0d7"/>
      <path id="Trazado_587243" data-name="Trazado 587243" d="M-2075.359,1354.846c-2.117-.12-4.211-.444-6.338-.539-2.492-.111-4.177-2.787-3.719-5.307.209-1.149.228-2.333.333-3.5,1.673-.491,3.357-.946,5.012-1.491.585-.193.727.058.887.493Q-2077.279,1349.676-2075.359,1354.846Z" transform="translate(-19.867 -122.925)" fill="#8cd4e5"/>
      <path id="Trazado_587244" data-name="Trazado 587244" d="M-2049.888,1337.155c.815.33.544,1.152.626,1.7a7.939,7.939,0,0,0,6.563,7.077c2.5.607,4.965,1.379,7.453,2.052.365.1.635.227.748.6-3.73.931-7.462,1.851-11.187,2.8-.625.16-.851-.037-1.064-.616-1.482-4.036-3-8.058-4.515-12.084C-2051.789,1337.287-2050.378,1337.637-2049.888,1337.155Z" transform="translate(-46.17 -117.691)" fill="#fbccbf"/>
      <path id="Trazado_587245" data-name="Trazado 587245" d="M-1987.319,1272.761a10.145,10.145,0,0,0,1.087-2.87,3.381,3.381,0,0,0-4.123-4.083c-.14.026-.281.047-.494.083,0-2.714,0-5.374,0-8.033a1.379,1.379,0,0,1,.094-.444c.433-1.216,1.78-1.7,3.848-1.376a2.026,2.026,0,0,1,1.821,2.13c.012,4.645-.019,9.289-.034,13.934C-1985.891,1272.187-1986.468,1272.931-1987.319,1272.761Z" transform="translate(-92.844 -55.07)" fill="#a9e9f2"/>
      <path id="Trazado_587246" data-name="Trazado 587246" d="M-2038.2,1288.631a1.376,1.376,0,0,1,1.157-1.15,4.893,4.893,0,0,0,3.211-.008,1.658,1.658,0,0,1,1.339,1.739c.251,3.594.251,3.6-2.909,5.274-.839.446-1.69.869-2.536,1.3l-.371-.3v-.658c.613-.357.337-.956.316-1.425C-2038.072,1291.813-2037.708,1290.2-2038.2,1288.631Z" transform="translate(-56.244 -79.383)" fill="#afe29a"/>
      <path id="Trazado_587247" data-name="Trazado 587247" d="M-1943.68,1301.334a47.508,47.508,0,0,0,5.774-3.92c.017,1.748.027,3.5.058,5.244a.967.967,0,0,1-.415.87c-1.514,1.149-3.042,2.277-4.655,3.288-.611.383-.842.313-.818-.465C-1943.685,1304.679-1943.7,1303.006-1943.68,1301.334Z" transform="translate(-129.169 -87.048)" fill="#f8c801"/>
      <path id="Trazado_587248" data-name="Trazado 587248" d="M-1987.448,1327.194c.851.17,1.429-.574,2.2-.659.017,1.173.028,2.346.053,3.519.008.384-.034.649-.536.642-1.65-.022-3.3-.008-5.29-.008C-1989.642,1329.4-1988.285,1328.548-1987.448,1327.194Z" transform="translate(-92.714 -109.503)" fill="#8cd4e5"/>
      <path id="Trazado_587249" data-name="Trazado 587249" d="M-2038.525,1292.532c.5,1.57.133,3.181.206,4.771.022.469.3,1.068-.315,1.425A32.678,32.678,0,0,1-2038.525,1292.532Z" transform="translate(-55.925 -83.284)" fill="#98c485"/>
      <path id="Trazado_587250" data-name="Trazado 587250" d="M-2029.573,1286.846a4.893,4.893,0,0,1-3.211.008A6.878,6.878,0,0,1-2029.573,1286.846Z" transform="translate(-60.508 -78.756)" fill="#98c485"/>
      <path id="Trazado_587251" data-name="Trazado 587251" d="M-2038.367,1322.472l.371.3c-.088.149-.259.189-.351.092C-2038.416,1322.794-2038.365,1322.608-2038.367,1322.472Z" transform="translate(-56.191 -106.37)" fill="#98c485"/>
      <path id="Trazado_587252" data-name="Trazado 587252" d="M-2072.914,1192.932c.386-.294.473-.028.533.286-.341.3-.219.7-.221,1.06-.011,1.732-.016,3.464,0,5.2,0,.433-.164.911.21,1.29a.75.75,0,0,1-1.033.583.908.908,0,0,1-.668-.956c-.02-.685-.009-1.371-.016-2.057-.006-.531.068-1.109-.572-1.361-.587-.232-.917.21-1.268.546-2.39,2.3-4.818,4.554-7.142,6.915a1.8,1.8,0,0,1-2.668.344c-.562-.383-1.233-.6-1.81-.965a1.515,1.515,0,0,0-2.187.33c-3.912,4.006-7.873,7.964-11.819,11.937a7.312,7.312,0,0,1-.753.7.773.773,0,0,1-1.046-.078.81.81,0,0,1-.2-1.125,5.331,5.331,0,0,1,.67-.773c4.264-4.3,8.55-8.581,12.784-12.911a1.514,1.514,0,0,1,2.172-.356c.777.475,1.626.83,2.421,1.279a1.2,1.2,0,0,0,1.632-.2c2.206-2.157,4.44-4.285,6.662-6.426.307-.3.605-.61.431-1.091-.191-.525-.634-.6-1.118-.594a18.658,18.658,0,0,1-2.055-.027c-.973-.1-1.175-.709-.558-1.515Z" transform="translate(-5.813 -6.386)" fill="#91eddd"/>
      <path id="Trazado_587253" data-name="Trazado 587253" d="M-1967.683,1202.154c-.374-.379-.206-.857-.21-1.29-.019-1.731-.014-3.463,0-5.2,0-.362-.12-.764.221-1.06A52.132,52.132,0,0,1-1967.683,1202.154Z" transform="translate(-110.518 -7.778)" fill="#a2fef6"/>
      <path id="Trazado_587254" data-name="Trazado 587254" d="M-1994.8,1192.59l-7.615.027c.117-.084.234-.241.352-.242q3.53-.025,7.06-.008C-1994.938,1192.367-1994.871,1192.512-1994.8,1192.59Z" transform="translate(-83.923 -6.045)" fill="#a2fef6"/>
      <path id="Trazado_587255" data-name="Trazado 587255" d="M-2075.938,1394.23a3.361,3.361,0,0,1,3.361,3.428,3.382,3.382,0,0,1-3.389,3.293,3.39,3.39,0,0,1-3.367-3.435A3.368,3.368,0,0,1-2075.938,1394.23Zm-.049,5.016a1.662,1.662,0,0,0,1.675-1.658,1.66,1.66,0,0,0-1.553-1.661,1.669,1.669,0,0,0-1.735,1.6A1.675,1.675,0,0,0-2075.987,1399.246Z" transform="translate(-24.615 -161.7)" fill="#060808"/>
      <path id="Trazado_587256" data-name="Trazado 587256" d="M-2070.151,1404.953a1.674,1.674,0,0,1-1.613-1.722,1.669,1.669,0,0,1,1.734-1.6,1.66,1.66,0,0,1,1.553,1.661A1.662,1.662,0,0,1-2070.151,1404.953Z" transform="translate(-30.451 -167.408)" fill="#f4e394"/>
    </g>
  </g>
</svg>
