<svg xmlns="http://www.w3.org/2000/svg" width="81.396" height="81.396" viewBox="0 0 81.396 81.396">
  <g id="Grupo_846469" data-name="Grupo 846469" transform="translate(-240 -1286.742)">
    <rect id="Rectángulo_38178" data-name="Rectángulo 38178" width="81.396" height="81.396" transform="translate(240 1286.742)" fill="none"/>
    <g id="Grupo_847223" data-name="Grupo 847223" transform="translate(1976.781 -34.57)">
      <path id="Trazado_587232" data-name="Trazado 587232" d="M-1719.1,1337.6c-.4-.7-.083-1.133.505-1.521a10.08,10.08,0,0,1,5.588-1.824c11.247-.024,22.5-.057,33.742.008a10.445,10.445,0,0,1,10.288,9.931q.246,11.548,0,23.105c-.119,5.7-4.955,9.984-10.979,10.043-4.122.04-8.246.026-12.368-.008a2.16,2.16,0,0,0-1.781.749q-5.017,5.408-10.1,10.754c-1.063,1.125-2.264,1.27-3.256.43a2.469,2.469,0,0,1-.808-2.04c.012-3-.02-6,.022-9,.01-.718-.192-.9-.895-.891a23.821,23.821,0,0,1-6.153-.35,10.482,10.482,0,0,1-7.954-9.707c-.126-7.628-.057-15.26-.035-22.89a9.793,9.793,0,0,1,1.6-5.11c.338-.553.738-.9,1.419-.571.481.55.249,1.05-.079,1.572a8.64,8.64,0,0,0-1.33,4.626c-.025,7.294-.064,14.589.01,21.883a8.958,8.958,0,0,0,7.567,8.752,34.746,34.746,0,0,0,5.405.147c1.78.033,2.086.311,2.088,2.076,0,3.105,0,6.211.005,9.317,0,.35-.087.765.321.959.474.225.729-.162.992-.446.686-.739,1.36-1.49,2.039-2.237,2.76-2.91,5.535-5.807,8.27-8.742a2.711,2.711,0,0,1,2.182-.937c4.374.034,8.75.045,13.124,0a9.041,9.041,0,0,0,9.133-9.077q.083-10.791,0-21.583a8.9,8.9,0,0,0-8.868-9.086c-11.171-.089-22.343-.037-33.514-.016a7.8,7.8,0,0,0-4.927,1.7A1.231,1.231,0,0,1-1719.1,1337.6Z" fill="#090606"/>
      <path id="Trazado_587233" data-name="Trazado 587233" d="M-1697.429,1397.519c-.679.746-1.353,1.5-2.039,2.237-.263.284-.518.671-.992.446-.408-.194-.321-.61-.321-.959-.006-3.106,0-6.211-.005-9.317,0-1.765-.308-2.042-2.088-2.076a34.745,34.745,0,0,1-5.405-.147,8.958,8.958,0,0,1-7.567-8.752c-.074-7.294-.035-14.589-.01-21.883a8.641,8.641,0,0,1,1.33-4.626c.328-.522.56-1.022.079-1.572a4.775,4.775,0,0,1,1.163-1.1,1.231,1.231,0,0,0,1.257.014c.011.469.032.938.032,1.407q0,12.022.007,24.044c.006,3.531,2.942,7.5,6.243,8.757,2.324.883,4.7.548,7.061.586.939.015,1.258.295,1.25,1.248C-1697.469,1389.721-1697.436,1393.62-1697.429,1397.519Z" transform="translate(-5.814 -12.171)" fill="#e3394f"/>
      <path id="Trazado_587234" data-name="Trazado 587234" d="M-1683.5,1391.326c-.008-3.9-.041-7.8-.005-11.7.008-.953-.311-1.232-1.25-1.248-2.361-.039-4.737.3-7.061-.586-3.3-1.254-6.237-5.226-6.243-8.757q-.019-12.022-.007-24.044c0-.469-.021-.938-.032-1.407a7.8,7.8,0,0,1,4.927-1.7c11.171-.02,22.343-.073,33.514.017a8.9,8.9,0,0,1,8.868,9.086q.074,10.791,0,21.583a9.041,9.041,0,0,1-9.133,9.077c-4.374.04-8.749.03-13.124,0a2.711,2.711,0,0,0-2.182.937C-1677.968,1385.518-1680.743,1388.415-1683.5,1391.326Zm14.106-24.142,1.131-1.131a1.016,1.016,0,0,0,1.438-.224c.779-.8,1.6-1.567,2.359-2.393a7.226,7.226,0,0,0-.148-10.085,7.286,7.286,0,0,0-10.1-.216c-.561.5-.982,1.439-1.669,1.431s-1.1-.938-1.665-1.438a7.273,7.273,0,0,0-10.016.2,7.111,7.111,0,0,0-.289,9.985c3.48,3.669,7.113,7.194,10.7,10.758a1.629,1.629,0,0,0,2.577-.022c1.835-1.793,3.631-3.625,5.452-5.432A1.009,1.009,0,0,0-1669.4,1367.184Z" transform="translate(-19.74 -5.977)" fill="#ea5468"/>
      <path id="Trazado_587235" data-name="Trazado 587235" d="M-1625.01,1405.71l-1.132,1.13c-.631-.37-1.065-.059-1.509.386-1.447,1.452-2.918,2.882-4.379,4.321-.246-.21-.508-.4-.735-.631q-4.143-4.132-8.276-8.274a6.349,6.349,0,0,1-.813-7.857,27.4,27.4,0,0,1,2.036-2.189,5.124,5.124,0,0,1,3.939,1.426c.509.458.967.973,1.469,1.438a1.686,1.686,0,0,0,2.58.006c.478-.439.914-.923,1.389-1.366a5.645,5.645,0,0,1,7.9.051,5.659,5.659,0,0,1,.051,7.9c-.714.765-1.461,1.5-2.216,2.223A1.058,1.058,0,0,0-1625.01,1405.71Z" transform="translate(-62.995 -45.633)" fill="#fcf3f3"/>
      <path id="Trazado_587236" data-name="Trazado 587236" d="M-1647.023,1405.613c1.461-1.439,2.932-2.868,4.379-4.321.444-.445.878-.755,1.509-.386a1.008,1.008,0,0,1-.222,1.435c-1.822,1.807-3.617,3.639-5.452,5.432a1.629,1.629,0,0,1-2.577.022c-3.591-3.563-7.223-7.089-10.7-10.758a7.111,7.111,0,0,1,.289-9.985,7.273,7.273,0,0,1,10.016-.2c.561.5.986,1.429,1.665,1.438s1.108-.932,1.669-1.431a7.286,7.286,0,0,1,10.1.216,7.226,7.226,0,0,1,.148,10.085c-.756.825-1.58,1.588-2.359,2.393a1.016,1.016,0,0,1-1.438.224,1.059,1.059,0,0,1,.308-1.433c.755-.723,1.5-1.458,2.216-2.223a5.66,5.66,0,0,0-.051-7.9,5.645,5.645,0,0,0-7.9-.051c-.475.443-.911.927-1.389,1.366a1.686,1.686,0,0,1-2.58-.006c-.5-.465-.96-.981-1.469-1.438a5.124,5.124,0,0,0-3.939-1.426,5.127,5.127,0,0,0-5,3.3,5.391,5.391,0,0,0,1.2,6.286c3.218,3.268,6.508,6.466,9.7,9.759.706.728,1.112.67,1.636-.054C-1647.2,1405.838-1647.109,1405.726-1647.023,1405.613Z" transform="translate(-48.003 -39.7)" fill="#080505"/>
      <path id="Trazado_587237" data-name="Trazado 587237" d="M-1641.036,1411.85c-.086.113-.174.225-.257.34-.524.724-.93.782-1.636.054-3.193-3.293-6.482-6.491-9.7-9.759a5.391,5.391,0,0,1-1.2-6.286,5.127,5.127,0,0,1,5-3.3,27.4,27.4,0,0,0-2.036,2.189,6.349,6.349,0,0,0,.813,7.857q4.13,4.145,8.276,8.274C-1641.544,1411.447-1641.282,1411.64-1641.036,1411.85Z" transform="translate(-53.989 -45.937)" fill="#d8e1e6"/>
    </g>
  </g>
</svg>
