<svg xmlns="http://www.w3.org/2000/svg" width="81.396" height="81.396" viewBox="0 0 81.396 81.396">
  <g id="Grupo_846465" data-name="Grupo 846465" transform="translate(-240 -1286.742)">
    <rect id="Rectángulo_38178" data-name="Rectángulo 38178" width="81.396" height="81.396" transform="translate(240 1286.742)" fill="none"/>
    <g id="Grupo_847222" data-name="Grupo 847222" transform="translate(2034.068 303.6)">
      <path id="Trazado_587214" data-name="Trazado 587214" d="M-1777.73,1031.475a1.221,1.221,0,0,1-1.822.086,50.938,50.938,0,0,1-5.745-4.992,3.662,3.662,0,0,1-.018-5.423c7.526-7.373,16.252-12.541,26.814-14.128,9.1-1.368,17.5.89,25.414,5.3a52.4,52.4,0,0,1,6.768,4.487c.5.387.943.766.792,1.482-.527.761-1.123.746-1.815.2-.529-.414-1.1-.773-1.655-1.156a38.718,38.718,0,0,0-13.1-6.666c.89.816,1.521,1.8,2.356,2.589l.295.316-.028.037a17.3,17.3,0,0,1,2.366,15.821,17,17,0,0,1-5.129,7.525,2.158,2.158,0,0,0,1.711-.256,50.143,50.143,0,0,0,16.966-10.789c1.756-1.682,1.8-2.292.137-4.021-.609-.634-.78-1.2-.127-1.875,1.584-.193,2.154,1.075,2.784,2.081a3.321,3.321,0,0,1-.293,3.981,14.275,14.275,0,0,1-1.8,1.844c-7.367,6.681-15.735,11.388-25.715,12.792a38.158,38.158,0,0,1-21.838-3.689c-1.556-.728-3.043-1.6-4.564-2.4a1.3,1.3,0,0,1-.856-1.429c.6-.845,1.266-.612,2.006-.17a43.606,43.606,0,0,0,8.125,3.838c.294.1.6.34.915.016-7.761-7.455-6.864-17.414-2.378-23.352l2.481-2.806c-2.28-.083-11.126,4.675-13.5,6.922a34.671,34.671,0,0,0-5.5,4.606c-1.124,1.1-1.116,2.067,0,3.2a45.378,45.378,0,0,0,5.156,4.434C-1777.978,1030.284-1777.544,1030.718-1777.73,1031.475Zm13.146-17.888a6.551,6.551,0,0,0-.555.532,15.256,15.256,0,0,0,2.569,21.891c4.582,3.453,11.281,4.113,15.687,1.546a12.788,12.788,0,0,0,5.024-3.709c5.751-6.5,4.709-17.2-2.125-21.942-4.939-4.4-13.84-4.4-18.78,0A5.964,5.964,0,0,0-1764.583,1013.587Z" transform="translate(0 0)" fill="#070808"/>
      <path id="Trazado_587215" data-name="Trazado 587215" d="M-1602.114,1037.068c.553.383,1.126.742,1.655,1.156.692.541,1.288.556,1.815-.2a3.641,3.641,0,0,0,1.979,1.731c-.653.673-.482,1.241.127,1.875,1.66,1.729,1.619,2.339-.137,4.021a50.145,50.145,0,0,1-16.966,10.789,2.159,2.159,0,0,1-1.711.256,17,17,0,0,0,5.13-7.525,17.3,17.3,0,0,0-2.366-15.821,1.66,1.66,0,0,1,1.362.113c1.469.573,2.919,1.2,4.413,1.707C-1605.205,1035.7-1603.87,1036.906-1602.114,1037.068Z" transform="translate(-126.883 -19.732)" fill="#ceecef"/>
      <path id="Trazado_587216" data-name="Trazado 587216" d="M-1761.47,1033.316c-4.487,5.938-5.383,15.9,2.378,23.352-.315.324-.62.085-.914-.016a43.6,43.6,0,0,1-8.126-3.838c-.74-.442-1.4-.675-2.006.17-.375-.858-1.426-.968-1.9-1.719.186-.757-.248-1.191-.793-1.6a45.4,45.4,0,0,1-5.155-4.434c-1.118-1.13-1.125-2.1,0-3.2a34.689,34.689,0,0,1,5.5-4.605c1.881-.385,3.4-1.621,5.185-2.225C-1765.367,1034.553-1763.609,1033.351-1761.47,1033.316Z" transform="translate(-5.693 -19.79)" fill="#ceecef"/>
      <path id="Trazado_587217" data-name="Trazado 587217" d="M-1685.125,1024.214c6.834,4.738,7.876,15.44,2.125,21.942a12.789,12.789,0,0,1-5.024,3.709,3.459,3.459,0,0,0-2.5-.107,7.407,7.407,0,0,1-3.916-.315c-.773-.242-.16-1.4-.36-2.114a.93.93,0,0,0-.655-.732.812.812,0,0,0-.915.554,2.45,2.45,0,0,0-.2.988c.046.925-.356.992-1.1.7-4.187-1.631-7.173-4.4-8.471-8.807.726-.089,1.575-.161,1.494-1.14-.089-1.082-.939-.8-1.639-.684a2.163,2.163,0,0,1-.379,0,18.873,18.873,0,0,1,.589-10.2,3.308,3.308,0,0,0,.349-2.111,5.963,5.963,0,0,1,1.819-1.681,49.553,49.553,0,0,1,14.811-.721,10.091,10.091,0,0,1-.91,2.1.845.845,0,0,0,.154,1.056c.368.3.948.355,1.179.044.581-.777,1.451-1.532.863-2.705ZM-1703.451,1036a8.918,8.918,0,0,0,9.76,9.019,8.76,8.76,0,0,0,7.986-7.676,1.365,1.365,0,0,1,.945-1.18,4.646,4.646,0,0,0,2.185-6.521,4.643,4.643,0,0,0-6.659-1.7,1.437,1.437,0,0,1-1.609.1A8.912,8.912,0,0,0-1703.451,1036Zm3.749-9.454c.006-.782-1.064-2.283-1.647-2.236a.942.942,0,0,0-.9,1.034c-.008.711,1.068,2.007,1.646,2.015C-1700.053,1027.365-1699.71,1027.142-1699.7,1026.544Zm17.284,14.243c.747.036,1.088-.239,1.083-.892,0-.61-1.265-1.447-2.159-1.375a.894.894,0,0,0-.907,1.027C-1684.239,1040.8-1683.053,1040.461-1682.418,1040.788Zm-1.246,3.428c-.027-.537-1.42-1.891-1.943-1.819a.954.954,0,0,0-.876,1.078,2.665,2.665,0,0,0,2.055,1.7C-1683.805,1045.148-1683.648,1044.751-1683.664,1044.216Z" transform="translate(-58.858 -12.309)" fill="#74b4e7"/>
      <path id="Trazado_587218" data-name="Trazado 587218" d="M-1713.365,1033.55a3.31,3.31,0,0,1-.349,2.111,18.87,18.87,0,0,0-.589,10.2c0,.086,0,.173,0,.259-.706.012-1.39.27-1.2,1.051.215.882.964.92,1.712.5l.014.009c1.3,4.4,4.284,7.176,8.471,8.807.741.289,1.144.222,1.1-.7a2.452,2.452,0,0,1,.2-.988.812.812,0,0,1,.915-.554.931.931,0,0,1,.655.732c.2.716-.412,1.872.36,2.114a7.405,7.405,0,0,0,3.916.315,3.459,3.459,0,0,1,2.5.107c-4.406,2.567-11.106,1.907-15.687-1.546a15.256,15.256,0,0,1-2.569-21.891A6.571,6.571,0,0,1-1713.365,1033.55Z" transform="translate(-51.219 -19.963)" fill="#68a1cf"/>
      <path id="Trazado_587219" data-name="Trazado 587219" d="M-1675.938,1017.587l-2.683-.224-1.286-.5a49.555,49.555,0,0,0-14.811.721C-1689.778,1013.185-1680.877,1013.185-1675.938,1017.587Z" transform="translate(-68.046 -5.682)" fill="#6299c4"/>
      <path id="Trazado_587220" data-name="Trazado 587220" d="M-1743.309,1025.271c-2.138.035-3.9,1.237-5.834,1.891-1.789.6-3.3,1.84-5.185,2.225,2.375-2.247,11.221-7,13.5-6.922Z" transform="translate(-23.854 -11.745)" fill="#acc4c7"/>
      <path id="Trazado_587221" data-name="Trazado 587221" d="M-1601.714,1028.939c-1.756-.162-3.091-1.363-4.7-1.9-1.493-.5-2.943-1.133-4.413-1.707a1.66,1.66,0,0,0-1.362-.112l.027-.037-.294-.316c-.836-.785-1.467-1.773-2.356-2.589A38.716,38.716,0,0,1-1601.714,1028.939Z" transform="translate(-127.283 -11.603)" fill="#acc4c7"/>
      <path id="Trazado_587222" data-name="Trazado 587222" d="M-1605.7,1032.284l.294.316Z" transform="translate(-134.037 -19.025)" fill="#ceecef"/>
      <path id="Trazado_587223" data-name="Trazado 587223" d="M-1692.963,1047.32a8.912,8.912,0,0,1,12.607-7.952,1.437,1.437,0,0,0,1.609-.1,4.643,4.643,0,0,1,6.659,1.7,4.646,4.646,0,0,1-2.185,6.521,1.365,1.365,0,0,0-.945,1.18,8.76,8.76,0,0,1-7.986,7.676A8.918,8.918,0,0,1-1692.963,1047.32Zm8.569,7.122a7.165,7.165,0,0,0,7.18-5.587c.145-.668.056-.944-.641-1.223a4.535,4.535,0,0,1-2.984-5.357c.176-.9-.16-1.125-.843-1.346a6.647,6.647,0,0,0-7.418,1.841,6.478,6.478,0,0,0-1.264,7.526A6.7,6.7,0,0,0-1684.394,1054.442Zm8.314-13.986a2.757,2.757,0,0,0-2.917,2.616,2.756,2.756,0,0,0,2.634,2.9,2.768,2.768,0,0,0,2.919-2.615A2.77,2.77,0,0,0-1676.08,1040.456Z" transform="translate(-69.346 -23.631)" fill="#040507"/>
      <path id="Trazado_587224" data-name="Trazado 587224" d="M-1640.387,1024.262l1.286.5c.589,1.173-.282,1.929-.863,2.705-.232.31-.811.252-1.179-.044a.845.845,0,0,1-.154-1.056A10.09,10.09,0,0,0-1640.387,1024.262Z" transform="translate(-107.566 -13.078)" fill="#6aa5d4"/>
      <path id="Trazado_587225" data-name="Trazado 587225" d="M-1685.774,1029.647c-.009.6-.352.819-.905.812-.578-.008-1.654-1.3-1.646-2.015a.942.942,0,0,1,.9-1.034C-1686.839,1027.362-1685.769,1028.864-1685.774,1029.647Z" transform="translate(-72.785 -15.41)" fill="#69a4d3"/>
      <path id="Trazado_587226" data-name="Trazado 587226" d="M-1617.354,1084.612c-.635-.326-1.821.011-1.982-1.24a.894.894,0,0,1,.907-1.027c.893-.071,2.154.765,2.159,1.375C-1616.266,1084.373-1616.607,1084.648-1617.354,1084.612Z" transform="translate(-123.922 -56.133)" fill="#69a4d3"/>
      <path id="Trazado_587227" data-name="Trazado 587227" d="M-1624.544,1099.155c.016.535-.142.932-.764.963a2.666,2.666,0,0,1-2.054-1.7.953.953,0,0,1,.876-1.078C-1625.965,1097.263-1624.572,1098.617-1624.544,1099.155Z" transform="translate(-117.977 -67.247)" fill="#69a4d3"/>
      <path id="Trazado_587228" data-name="Trazado 587228" d="M-1705.382,1081.069c0-.086,0-.173,0-.26a2.174,2.174,0,0,0,.379,0c.7-.12,1.55-.4,1.639.684.081.978-.767,1.051-1.493,1.14l-.014-.009Z" transform="translate(-60.14 -54.907)" fill="#69a4d3"/>
      <path id="Trazado_587229" data-name="Trazado 587229" d="M-1708.912,1082.167l.513,1.555c-.748.416-1.5.378-1.712-.5C-1710.3,1082.437-1709.618,1082.179-1708.912,1082.167Z" transform="translate(-56.61 -56.005)" fill="#6094be"/>
      <path id="Trazado_587230" data-name="Trazado 587230" d="M-1678.879,1060.189a6.694,6.694,0,0,1-5.969-4.146,6.477,6.477,0,0,1,1.264-7.526,6.646,6.646,0,0,1,7.418-1.841c.682.222,1.019.443.843,1.346a4.535,4.535,0,0,0,2.984,5.357c.7.279.786.555.641,1.223A7.166,7.166,0,0,1-1678.879,1060.189Z" transform="translate(-74.861 -29.378)" fill="#37638a"/>
      <path id="Trazado_587231" data-name="Trazado 587231" d="M-1636.058,1046.06a2.77,2.77,0,0,1,2.637,2.9,2.768,2.768,0,0,1-2.919,2.615,2.756,2.756,0,0,1-2.634-2.9A2.756,2.756,0,0,1-1636.058,1046.06Z" transform="translate(-109.367 -29.235)" fill="#f8f8f8"/>
    </g>
  </g>
</svg>
