<svg xmlns="http://www.w3.org/2000/svg" width="81.396" height="81.396" viewBox="0 0 81.396 81.396">
  <g id="Grupo_846480" data-name="Grupo 846480" transform="translate(-240 -1286.742)">
    <rect id="Rectángulo_38178" data-name="Rectángulo 38178" width="81.396" height="81.396" transform="translate(240 1286.742)" fill="none"/>
    <g id="Grupo_847226" data-name="Grupo 847226" transform="translate(3155.05 143.766)">
      <path id="Trazado_587267" data-name="Trazado 587267" d="M-2898,1171.864a1.262,1.262,0,0,1-.281-1.786c.853-1.361,1.6-2.806,2.574-4.07a9.7,9.7,0,0,1,8.538-3.895,1.449,1.449,0,0,0,1.406-.473,4.4,4.4,0,0,1,5.2-1.389,4.545,4.545,0,0,1,3.108,4.555c.053,2.324.059,4.651-.007,6.974-.026.9.253,1.161,1.128,1.114a37.317,37.317,0,0,1,3.888,0c.817.041,1.087-.2,1.065-1.039-.058-2.145,0-4.292-.025-6.438-.031-2.294.692-4.181,2.935-5.089a4.45,4.45,0,0,1,5.519,1.455c.365.45.767.349,1.2.329a9.522,9.522,0,0,1,9.026,4.491c3.775,6.007,7.621,11.995,10.944,18.252,3.087,5.814,2.224,11.639-1.854,16.815a15.5,15.5,0,0,1-16.548,5.1,15.638,15.638,0,0,1-11.028-12.9,16.267,16.267,0,0,1-.156-3.475c.147-1.463-.414-1.832-1.756-1.681a14.028,14.028,0,0,1-2.947,0c-1.091-.109-1.46.2-1.4,1.355a16.965,16.965,0,0,1-1.437,8.232,15.643,15.643,0,0,1-18.176,8.608,15.681,15.681,0,0,1-11.636-16.533,13.641,13.641,0,0,1,1.769-5.851c2.05-3.454,4.149-6.879,6.2-10.332a1.467,1.467,0,0,1,2.11-.749,1.734,1.734,0,0,1-.124,1.981c-.368.547-.649,1.152-.969,1.731l-.114.261.313.005a18.837,18.837,0,0,1,7.136-1.333,16.306,16.306,0,0,1,12.606,7.377c0-4.078.076-7.825-.021-11.567a7.778,7.778,0,0,0-7.754-7.473,7.392,7.392,0,0,0-6.528,3.272,34.387,34.387,0,0,0-2.036,3.306A1.487,1.487,0,0,1-2898,1171.864Zm20.593,12.885c-.283,1.325.187,1.854,1.582,1.67a10.771,10.771,0,0,1,2.8,0c1.4.185,1.863-.347,1.582-1.67.037-.249.013-.452-.321-.412l-.5,0a23.428,23.428,0,0,0-4.332,0l-.5,0C-2877.419,1184.3-2877.442,1184.5-2877.4,1184.75Zm28.093-7.311.323-.019-.124-.262c-1.865-3.143-3.606-6.37-5.627-9.409a7.656,7.656,0,0,0-11.375-1.539,7.288,7.288,0,0,0-2.935,6c-.052,3.34-.023,6.682-.007,10.022,0,.309-.2.7.242,1a17.284,17.284,0,0,1,4.351-4.485A15.987,15.987,0,0,1-2849.311,1177.439Zm6.916,14.4a13.364,13.364,0,0,0-13.332-13.426,13.39,13.39,0,0,0-13.334,13.3,13.365,13.365,0,0,0,13.207,13.411A13.343,13.343,0,0,0-2842.4,1191.839Zm-64.053-.112a13.345,13.345,0,0,0,13.214,13.4,13.366,13.366,0,0,0,13.453-13.3,13.38,13.38,0,0,0-13.355-13.41A13.362,13.362,0,0,0-2906.448,1191.727Zm29.015-13.307c0,1.06.029,1.91-.009,2.757-.029.645.227.865.859.851,1.429-.031,2.859-.04,4.287,0,.729.022.92-.283.9-.952-.038-1.115-.01-2.233-.01-3.349,0-2.586,0-2.613-2.592-2.573-1.1.017-2.523-.5-3.22.236S-2877.333,1177.527-2877.433,1178.419Zm-6.251-15.559a12.422,12.422,0,0,1,3.837,2.846c.207-1.515-.059-2.592-1.262-3.208A2.125,2.125,0,0,0-2883.684,1162.861Zm14.708,2.791a14.306,14.306,0,0,1,3.832-2.83,2.259,2.259,0,0,0-2.779-.219A2.644,2.644,0,0,0-2868.976,1165.651Z" transform="translate(0)" fill="#050707"/>
      <path id="Trazado_587268" data-name="Trazado 587268" d="M-2875.093,1189.438c.32-.579.6-1.184.969-1.731a1.734,1.734,0,0,0,.124-1.981q.32-.792.641-1.582a1.486,1.486,0,0,0,1.869-.858,34.384,34.384,0,0,1,2.035-3.306,7.393,7.393,0,0,1,6.528-3.272,3.226,3.226,0,0,1-.461,1.646c-1.469,3.334-2.916,6.677-4.37,10.017a18.838,18.838,0,0,0-7.136,1.333Z" transform="translate(-24.64 -12.279)" fill="#56a0a4"/>
      <path id="Trazado_587269" data-name="Trazado 587269" d="M-2734.225,1242.216a13.343,13.343,0,0,1-13.46,13.284,13.365,13.365,0,0,1-13.207-13.411,13.39,13.39,0,0,1,13.334-13.3A13.364,13.364,0,0,1-2734.225,1242.216Zm-5.459-5.745c.634-1.031-.027-1.655-.709-2.278a10.733,10.733,0,0,0-11.747-1.711,10.513,10.513,0,0,0-6.049,10.585,10.115,10.115,0,0,0,6.767,9.022,10.062,10.062,0,0,0,11.177-2.168c3.188-2.975,4.048-6.709,2.938-10.907-.24-.907-.767-1.395-1.765-1.15C-2739.017,1237.287-2739.439,1236.918-2739.684,1236.471Z" transform="translate(-108.171 -50.377)" fill="#62afb6"/>
      <path id="Trazado_587270" data-name="Trazado 587270" d="M-2900.1,1242.1a13.362,13.362,0,0,1,13.311-13.313,13.38,13.38,0,0,1,13.355,13.41,13.366,13.366,0,0,1-13.453,13.3A13.345,13.345,0,0,1-2900.1,1242.1Zm24.016.086a10.725,10.725,0,0,0-10.715-10.763,10.791,10.791,0,0,0-10.691,10.681,10.743,10.743,0,0,0,10.608,10.743A10.68,10.68,0,0,0-2876.084,1242.191Z" transform="translate(-6.349 -50.378)" fill="#62afb6"/>
      <path id="Trazado_587271" data-name="Trazado 587271" d="M-2749.915,1178.281a7.656,7.656,0,0,1,11.375,1.539c2.022,3.039,3.762,6.266,5.627,9.409l-.2.282a15.983,15.983,0,0,0-15.152,1.305,62.061,62.061,0,0,0-.962-7.856A25.3,25.3,0,0,0-2749.915,1178.281Z" transform="translate(-116.199 -12.071)" fill="#64b2b9"/>
      <path id="Trazado_587272" data-name="Trazado 587272" d="M-2847.779,1188.383c1.454-3.34,2.9-6.683,4.37-10.017a3.226,3.226,0,0,0,.461-1.646,7.779,7.779,0,0,1,7.755,7.473c.1,3.742.02,7.489.02,11.567A16.306,16.306,0,0,0-2847.779,1188.383Z" transform="translate(-44.618 -12.291)" fill="#64b2b9"/>
      <path id="Trazado_587273" data-name="Trazado 587273" d="M-2758.044,1183.351a25.3,25.3,0,0,1,.69,4.679,62.11,62.11,0,0,1,.962,7.856,17.284,17.284,0,0,0-4.351,4.486c-.437-.3-.24-.687-.242-1-.016-3.341-.046-6.682.007-10.022A7.288,7.288,0,0,1-2758.044,1183.351Z" transform="translate(-108.071 -17.141)" fill="#56a1a5"/>
      <path id="Trazado_587274" data-name="Trazado 587274" d="M-2792.419,1219.5c.1-.893-.476-2.3.211-3.026s2.119-.219,3.22-.236c2.592-.039,2.592-.013,2.592,2.573,0,1.116-.028,2.234.01,3.349.022.668-.169.973-.9.952-1.428-.043-2.858-.034-4.287,0-.632.013-.888-.207-.859-.851C-2792.391,1221.406-2792.419,1220.556-2792.419,1219.5Z" transform="translate(-85.014 -41.076)" fill="#559fa3"/>
      <path id="Trazado_587275" data-name="Trazado 587275" d="M-2787.021,1250.848l.5,0,.321.412c.281,1.323-.185,1.856-1.582,1.67a10.763,10.763,0,0,0-2.8,0c-1.4.185-1.865-.345-1.582-1.67l.32-.413.5,0A5.127,5.127,0,0,0-2787.021,1250.848Z" transform="translate(-85.235 -66.509)" fill="#64b2b9"/>
      <path id="Trazado_587276" data-name="Trazado 587276" d="M-2815.337,1169.13a2.125,2.125,0,0,1,2.575-.362c1.2.616,1.469,1.693,1.262,3.208A12.422,12.422,0,0,0-2815.337,1169.13Z" transform="translate(-68.347 -6.27)" fill="#50979b"/>
      <path id="Trazado_587277" data-name="Trazado 587277" d="M-2760.816,1171.932a2.643,2.643,0,0,1,1.053-3.049,2.259,2.259,0,0,1,2.779.219A14.306,14.306,0,0,0-2760.816,1171.932Z" transform="translate(-108.161 -6.281)" fill="#50979b"/>
      <path id="Trazado_587278" data-name="Trazado 587278" d="M-2784.582,1250.58a5.129,5.129,0,0,1-4.332,0A23.428,23.428,0,0,1-2784.582,1250.58Z" transform="translate(-87.674 -66.241)" fill="#50979b"/>
      <path id="Trazado_587279" data-name="Trazado 587279" d="M-2791.671,1250.833l-.32.413C-2792.028,1251-2792,1250.794-2791.671,1250.833Z" transform="translate(-85.414 -66.496)" fill="#50979b"/>
      <path id="Trazado_587280" data-name="Trazado 587280" d="M-2770.615,1251.245l-.321-.412C-2770.6,1250.793-2770.579,1251-2770.615,1251.245Z" transform="translate(-100.824 -66.496)" fill="#50979b"/>
      <path id="Trazado_587281" data-name="Trazado 587281" d="M-2875.2,1224.387l-.313-.005.114-.261Z" transform="translate(-24.329 -46.962)" fill="#56a0a4"/>
      <path id="Trazado_587282" data-name="Trazado 587282" d="M-2687.149,1224.116l.124.262-.323.02Z" transform="translate(-161.962 -46.958)" fill="#64b2b9"/>
      <path id="Trazado_587283" data-name="Trazado 587283" d="M-2731.835,1245.118c1-.245,1.525.243,1.765,1.15,1.109,4.2.25,7.931-2.938,10.907a10.062,10.062,0,0,1-11.177,2.168,10.116,10.116,0,0,1-6.767-9.022,10.512,10.512,0,0,1,6.049-10.585,10.734,10.734,0,0,1,11.747,1.711c.682.623,1.344,1.247.709,2.278a1.459,1.459,0,0,1-2-.318,6.947,6.947,0,0,0-3.9-2.089,6.191,6.191,0,0,0-4.019.024,8,8,0,0,0-6.218,6.941,3.051,3.051,0,0,0-.014,2.164,7.988,7.988,0,0,0,5.962,6.945,6.56,6.56,0,0,0,4.3.1,8.226,8.226,0,0,0,6.154-10.084C-2732.38,1246.585-2732.748,1245.76-2731.835,1245.118Z" transform="translate(-115.407 -57.63)" fill="#040707"/>
      <path id="Trazado_587284" data-name="Trazado 587284" d="M-2703.893,1248.427a6.948,6.948,0,0,1,3.9,2.089,1.459,1.459,0,0,0,2,.318c.244.447.667.816.612,1.394-.912.643-.545,1.468-.347,2.289a8.226,8.226,0,0,1-6.154,10.084,5.276,5.276,0,0,1,.464-.458,9.386,9.386,0,0,0,3.573-9.943A10.391,10.391,0,0,0-2703.893,1248.427Z" transform="translate(-149.861 -64.74)" fill="#bce3f6"/>
      <path id="Trazado_587285" data-name="Trazado 587285" d="M-2868.975,1249.37a10.68,10.68,0,0,1-10.8,10.66,10.743,10.743,0,0,1-10.608-10.743,10.791,10.791,0,0,1,10.691-10.681A10.725,10.725,0,0,1-2868.975,1249.37Zm-8.274-8.045-.357-.07a6.234,6.234,0,0,0-4.024,0,8.212,8.212,0,0,0-6.434,7.872,8.21,8.21,0,0,0,6.166,8.214,6.464,6.464,0,0,0,4.272.063l.646-.163.071-.01a8.349,8.349,0,0,0,5.666-7.911,8.38,8.38,0,0,0-5.941-7.981Z" transform="translate(-13.457 -57.557)" fill="#040607"/>
      <path id="Trazado_587286" data-name="Trazado 587286" d="M-2725.7,1247.545a10.393,10.393,0,0,1,4.048,5.773,9.386,9.386,0,0,1-3.573,9.943,5.228,5.228,0,0,0-.464.458,6.561,6.561,0,0,1-4.3-.1c-.07-.709-.677-1.026-1.1-1.459a9.491,9.491,0,0,1-.8-12.14c.657-.9,1.706-1.411,2.167-2.451A6.191,6.191,0,0,1-2725.7,1247.545Z" transform="translate(-128.055 -63.859)" fill="#9fdafb"/>
      <path id="Trazado_587287" data-name="Trazado 587287" d="M-2735.831,1248.515c-.461,1.04-1.51,1.547-2.167,2.451a9.49,9.49,0,0,0,.8,12.14c.424.434,1.032.75,1.1,1.459a7.989,7.989,0,0,1-5.962-6.945,2.025,2.025,0,0,0,.014-2.164A8.005,8.005,0,0,1-2735.831,1248.515Z" transform="translate(-121.943 -64.804)" fill="#84c9e4"/>
      <path id="Trazado_587288" data-name="Trazado 587288" d="M-2742.57,1274.359a2.025,2.025,0,0,1-.014,2.164A3.051,3.051,0,0,1-2742.57,1274.359Z" transform="translate(-121.422 -83.708)" fill="#64b2b9"/>
      <path id="Trazado_587289" data-name="Trazado 587289" d="M-2864.84,1263.7a6.464,6.464,0,0,1-4.272-.063c-.117-.844-.859-1.213-1.369-1.739a9.4,9.4,0,0,1-1.649-10.036c.773-1.737,2.134-2.92,3.286-4.31a6.234,6.234,0,0,1,4.024,0,.24.24,0,0,0,.357.07l.064.01c-.074.269.106.389.285.535a9.542,9.542,0,0,1,.537,14.375c-.277.25-.7.471-.547.981l-.071.009A.411.411,0,0,0-2864.84,1263.7Z" transform="translate(-26.243 -63.858)" fill="#9fdafb"/>
      <path id="Trazado_587290" data-name="Trazado 587290" d="M-2875.325,1248.456c-1.152,1.39-2.513,2.573-3.286,4.31a9.4,9.4,0,0,0,1.649,10.035c.51.527,1.252.9,1.369,1.74a8.21,8.21,0,0,1-6.166-8.214A8.212,8.212,0,0,1-2875.325,1248.456Z" transform="translate(-19.763 -64.761)" fill="#84c9e3"/>
      <path id="Trazado_587291" data-name="Trazado 587291" d="M-2841.019,1264.659c-.151-.51.27-.731.547-.981a9.542,9.542,0,0,0-.537-14.375c-.179-.146-.359-.266-.285-.535a8.38,8.38,0,0,1,5.941,7.981A8.349,8.349,0,0,1-2841.019,1264.659Z" transform="translate(-49.349 -64.989)" fill="#bbe2f5"/>
      <path id="Trazado_587292" data-name="Trazado 587292" d="M-2842.89,1307.886a.411.411,0,0,1,.646-.164Z" transform="translate(-48.194 -108.043)" fill="#bbe2f5"/>
      <path id="Trazado_587293" data-name="Trazado 587293" d="M-2842.458,1248.54a.24.24,0,0,1-.357-.07Z" transform="translate(-48.249 -64.772)" fill="#bbe2f5"/>
    </g>
  </g>
</svg>
