<svg xmlns="http://www.w3.org/2000/svg" width="107" height="107" viewBox="0 0 107 107">
  <g id="Grupo_846503" data-name="Grupo 846503" transform="translate(-240 -1286.742)">
    <rect id="Rectángulo_38178" data-name="Rectángulo 38178" width="107" height="107" transform="translate(240 1286.742)" fill="none"/>
    <g id="Grupo_847233" data-name="Grupo 847233" transform="translate(5009.975 1227.523)">
      <path id="Trazado_587413" data-name="Trazado 587413" d="M-4686.48,119.121a1.71,1.71,0,0,1,1.321,1.944c-.022,8.694.013,17.389-.029,26.083-.014,2.745-1.8,4.293-4.788,4.3-11.014.012-22.029.045-33.041-.04-1.607-.012-1.93.465-1.86,1.933.061,1.251.574,2.779-.891,3.649-1.494.886-2.521-.39-3.575-1.055a2.037,2.037,0,0,0-2.641.064,10.266,10.266,0,0,1-1.488.893c-1.633.846-2.83.133-2.968-1.712-.089-1.193.561-2.765-.3-3.484-.889-.745-2.45-.207-3.715-.233-1.854-.039-3.71.021-5.564-.02-3.94-.086-6.744-2.754-6.754-6.661-.044-18.084-.021-36.169-.03-54.253,0-.875.114-1.635,1.135-1.868,1.672.094,1.455,1.33,1.455,2.422q0,22.966,0,45.932c0,.464,0,.928.014,1.392.013.493.168.838.726.489,1.69-1.057,3.586-.925,5.416-.8,1.589.11,2.08-.481,1.936-1.949-.067-.689-.009-1.391-.009-2.087V74.209c0-3.4,0-3.4-3.388-3.368-3.171.033-4.668,1.519-4.69,4.695-.018,2.552-.03,5.1.006,7.655.015,1.061-.253,1.829-1.42,2.011a1.65,1.65,0,0,1-1.19-1.864c.037-2.9-.047-5.8.042-8.694a6.52,6.52,0,0,1,6.592-6.476q28.346-.045,56.692,0a4.133,4.133,0,0,1,4.294,4.276q.077,2.606,0,5.216c-.028.884.219,1.179,1.155,1.205,3.387.1,3.882.653,3.886,4.014,0,1.1,0,2.2,0,3.3-.011,2.839-.769,3.694-3.562,3.632-1.288-.028-1.551.433-1.493,1.587.041.82.253,1.056,1.09,1.091,3.55.145,3.962.609,3.965,4.113,0,1.217.014,2.435,0,3.652-.033,2.3-.965,3.335-3.293,3.231-1.5-.067-1.818.416-1.761,1.824.116,2.835.011,5.68.046,8.519.012,1.014-.28,1.688-1.377,1.8-1.547-.2-1.286-1.4-1.287-2.4q-.018-19.967-.012-39.934c0-2.118-.268-2.392-2.173-2.4l-.72,0c-.4-.034-.8-.1-1.208-.1q-22.8-.007-45.6,0c-.4,0-.8.063-1.207.1l-.371.018c-.645.552-.3,1.289-.305,1.925q-.034,29.692-.016,59.383c0,1.5.04,3.007.061,4.51-.408,1.543.637,1.368,1.585,1.368q23.659-.009,47.317-.006c2.313,0,2.627-.309,2.632-2.6.009-4.7.018-9.393-.007-14.09C-4687.848,120.327-4687.7,119.424-4686.48,119.121Zm1.948-37.641c-.219-.01-.552-.068-.557.205q-.047,2.656,0,5.313c0,.273.338.217.557.207,1.468.4,2.009-.163,1.832-1.648a10.311,10.311,0,0,1,0-2.429C-4682.524,81.645-4683.062,81.075-4684.533,81.48Zm-5.51,59.337c-.866-.242-1.306,0-1.267.986.065,1.669.063,3.342.089,5.012.008.693-.53,1.561.372,2a2.093,2.093,0,0,0,3.011-1.965c.041-1.387.012-2.775.011-4.163C-4687.827,140.487-4687.828,140.487-4690.042,140.817Zm-34.1,7.985h28.546l1.075,0c.605.121.68-.2.567-.68v-.547l-.008-.337q.005-2.993.01-5.985c.043-.808-.581-.556-.962-.556q-21.743-.019-43.486,0c-.382,0-1.019-.271-.973.555-.017,2.138.045,4.281-.08,6.413-.076,1.285.617,1.229,1.483,1.2.8-.026,1.661.2,1.549-1.144-.1-1.148,0-2.311-.014-3.468s.542-1.675,1.7-1.655c1.85.032,3.7,0,5.551.009,4.7.013,4.374-.491,4.355,4.214,0,.23.034.46.053.69v.714C-4724.884,148.769-4724.646,148.93-4724.146,148.8Zm-9.653,4.638c-.035.21-.056.411.268.335,1.343-.413,2.426-1.918,4.091-.969a3.514,3.514,0,0,0,2.01,1c0-2.494-.056-4.847.022-7.194.043-1.3-.435-1.679-1.627-1.316-1.208-.031-2.418-.029-3.624-.105-.881-.056-1.229.224-1.2,1.162C-4733.789,148.71-4733.813,151.076-4733.8,153.44Zm-8.229-8.93c-.376-1.146.715-3.008-.585-3.671-1.135-.578-2.838-.2-4.259-.013a3.7,3.7,0,0,0-3.141,2.871,3.7,3.7,0,0,0,1.2,4.076c1.874,1.634,4.232,1.284,6.3.885,1.024-.2.312-2.047.478-3.137A7.574,7.574,0,0,0-4742.028,144.51Zm59.3-46.526c0-.461-.02-.922,0-1.382.046-.919.08-1.615-1.28-1.62-1.479-.006-1.173.877-1.181,1.693-.011,1.036.056,2.077-.019,3.108-.068.939.3,1.153,1.183,1.144.906-.009,1.437-.156,1.306-1.217A14.122,14.122,0,0,1-4682.729,97.984Z" fill="#070505"/>
      <path id="Trazado_587414" data-name="Trazado 587414" d="M-4749.48,90.231c1.167-.182,1.436-.951,1.42-2.011-.036-2.551-.024-5.1-.006-7.655.021-3.175,1.519-4.662,4.69-4.695,3.388-.034,3.388-.034,3.388,3.368v59.85c0,.7-.058,1.4.009,2.087.144,1.468-.347,2.06-1.936,1.949-1.83-.127-3.726-.26-5.416.8-.557.349-.712,0-.725-.489-.013-.464-.015-.928-.015-1.392q0-22.966,0-45.932c0-1.093.217-2.329-1.455-2.422Q-4749.5,91.959-4749.48,90.231Z" transform="translate(-2.137 -5.029)" fill="#586a74"/>
      <path id="Trazado_587415" data-name="Trazado 587415" d="M-4665.035,76.03c1.906.011,2.172.285,2.173,2.4q.01,19.967.012,39.934c0,1-.261,2.2,1.286,2.4q.029,1.745.057,3.49c-1.224.3-1.367,1.206-1.361,2.281.025,4.7.016,9.393.006,14.09,0,2.286-.318,2.595-2.631,2.6q-23.659.005-47.318.006c-.948,0-1.994.176-1.585-1.368q22.871,0,45.743.006c2.67,0,3.607-.95,3.607-3.708q0-30.87-.009-61.74Z" transform="translate(-24.973 -5.137)" fill="#ea5569"/>
      <path id="Trazado_587416" data-name="Trazado 587416" d="M-4665.135,76.225q.006,30.87.009,61.74c0,2.758-.937,3.708-3.607,3.708q-22.871,0-45.742-.006c-.021-1.5-.061-3.007-.061-4.51q-.007-29.692.016-59.383c0-.636-.339-1.374.306-1.925.136.26.259.23.37-.018.4-.033.805-.1,1.208-.1q22.8-.007,45.6,0c.4,0,.8.064,1.207.1A.715.715,0,0,0-4665.135,76.225Zm-23.659,5.221q-7.221,0-14.442,0c-2.943.006-4.275,1.307-4.283,4.223q-.023,9.308,0,18.616c.008,2.8,1.373,4.187,4.16,4.193q14.615.029,29.231,0c2.834-.005,4.161-1.347,4.167-4.16q.019-9.308,0-18.616c0-2.979-1.266-4.25-4.22-4.256C-4679.051,81.438-4683.922,81.446-4688.794,81.446Zm-.142,53.86c4.98,0,9.961.013,14.942-.006,2.533-.009,4.013-1.334,4.031-3.536.018-2.162-1.488-3.516-4.041-3.52q-14.682-.026-29.364,0c-2.622,0-4.173,1.4-4.144,3.626.027,2.094,1.617,3.427,4.154,3.433C-4698.55,135.315-4693.743,135.306-4688.936,135.306Z" transform="translate(-24.893 -4.941)" fill="#ee7180"/>
      <path id="Trazado_587417" data-name="Trazado 587417" d="M-4699.81,284.309c-.019-.23-.054-.46-.053-.69.019-4.706.344-4.2-4.355-4.214-1.851,0-3.7.023-5.551-.009-1.163-.02-1.716.492-1.7,1.655s-.083,2.319.013,3.468c.112,1.342-.749,1.118-1.548,1.144-.867.029-1.559.085-1.484-1.2.125-2.132.063-4.275.08-6.413h45.42l-.009,5.985-.58.294Z" transform="translate(-24.967 -136.794)" fill="#eff8fc"/>
      <path id="Trazado_587418" data-name="Trazado 587418" d="M-4737.149,279.95a7.574,7.574,0,0,1-.007,1.011c-.167,1.089.547,2.939-.478,3.137-2.065.4-4.424.749-6.3-.885a3.7,3.7,0,0,1-1.2-4.076,3.7,3.7,0,0,1,3.141-2.871c1.421-.187,3.124-.565,4.259.013C-4736.434,276.942-4737.525,278.8-4737.149,279.95Z" transform="translate(-4.879 -135.44)" fill="#8b9aa6"/>
      <path id="Trazado_587419" data-name="Trazado 587419" d="M-4693.991,296.944c-1.665-.95-2.749.556-4.091.969l-.268-.335c-.014-2.364.01-4.729-.061-7.091-.028-.938.319-1.218,1.2-1.162,1.206.076,2.415.074,3.623.105.013,1.533.088,3.069.015,4.6C-4693.618,295-4693.148,296.078-4693.991,296.944Z" transform="translate(-35.45 -144.138)" fill="#7aabde"/>
      <path id="Trazado_587420" data-name="Trazado 587420" d="M-4668.835,276.933h-45.421c-.046-.826.591-.555.973-.555q21.743-.019,43.486,0C-4669.415,276.377-4668.791,276.125-4668.835,276.933Z" transform="translate(-25.122 -135.677)" fill="#f6f8f9"/>
      <path id="Trazado_587421" data-name="Trazado 587421" d="M-4672.328,296.021l30.229.02.588.044c0,.182,0,.365,0,.547a.721.721,0,0,0-.568.68l-1.074,0c-.21-.832-.895-.585-1.425-.585q-12.309-.019-24.62,0c-.531,0-1.214-.243-1.425.586h-1.076a.549.549,0,0,0-.631-.573Z" transform="translate(-52.448 -148.507)" fill="#cee1e7"/>
      <path id="Trazado_587422" data-name="Trazado 587422" d="M-4575.09,276.495c2.214-.33,2.215-.33,2.216,1.869,0,1.388.029,2.776-.011,4.163a2.093,2.093,0,0,1-3.011,1.965c-.9-.438-.363-1.306-.371-2a1.863,1.863,0,0,0,1.081-1.664C-4575.032,279.4-4575.108,277.941-4575.09,276.495Z" transform="translate(-114.952 -135.678)" fill="#ee7180"/>
      <path id="Trazado_587423" data-name="Trazado 587423" d="M-4667.43,298.557c.212-.829.895-.585,1.425-.586q12.311-.018,24.621,0c.53,0,1.214-.246,1.425.585Z" transform="translate(-55.64 -149.756)" fill="#eff8fc"/>
      <path id="Trazado_587424" data-name="Trazado 587424" d="M-4685.719,296.909c.843-.867.373-1.942.42-2.917.074-1.529,0-3.065-.015-4.6,1.192-.364,1.67.016,1.627,1.315-.078,2.348-.022,4.7-.022,7.194A3.514,3.514,0,0,1-4685.719,296.909Z" transform="translate(-43.721 -144.102)" fill="#5e92c9"/>
      <path id="Trazado_587425" data-name="Trazado 587425" d="M-4556.252,148.194a14.025,14.025,0,0,0,.013,1.726c.131,1.061-.4,1.209-1.306,1.217-.882.008-1.251-.206-1.183-1.145.074-1.031.009-2.072.019-3.108.009-.816-.3-1.7,1.181-1.693,1.36.006,1.326.7,1.28,1.62C-4556.272,147.272-4556.252,147.733-4556.252,148.194Z" transform="translate(-126.477 -50.21)" fill="#eec556"/>
      <path id="Trazado_587426" data-name="Trazado 587426" d="M-4556.782,106.189c1.47-.4,2.008.165,1.831,1.648a10.285,10.285,0,0,0,0,2.429c.178,1.485-.364,2.051-1.831,1.648Q-4556.781,109.051-4556.782,106.189Z" transform="translate(-127.75 -24.709)" fill="#7aabde"/>
      <path id="Trazado_587427" data-name="Trazado 587427" d="M-4574.978,276.628c-.017,1.446.058,2.9-.1,4.334a1.865,1.865,0,0,1-1.082,1.664c-.026-1.671-.024-3.343-.09-5.012C-4576.283,276.625-4575.844,276.386-4574.978,276.628Z" transform="translate(-115.065 -135.811)" fill="#fe7a8a"/>
      <path id="Trazado_587428" data-name="Trazado 587428" d="M-4557.869,106.4q0,2.862,0,5.725c-.22.01-.553.067-.558-.207q-.046-2.656,0-5.313C-4558.421,106.336-4558.088,106.393-4557.869,106.4Z" transform="translate(-126.664 -24.924)" fill="#cee1e7"/>
      <path id="Trazado_587429" data-name="Trazado 587429" d="M-4672.376,298.07a.549.549,0,0,1,.631.573C-4672.247,298.772-4672.483,298.61-4672.376,298.07Z" transform="translate(-52.4 -149.841)" fill="#eff8fc"/>
      <path id="Trazado_587430" data-name="Trazado 587430" d="M-4585.473,298.455a.72.72,0,0,1,.568-.68C-4584.793,298.253-4584.867,298.576-4585.473,298.455Z" transform="translate(-109.052 -149.65)" fill="#eff8fc"/>
      <path id="Trazado_587431" data-name="Trazado 587431" d="M-4573.871,76.416a.715.715,0,0,1-.7-.393l.72,0C-4573.856,76.155-4573.864,76.286-4573.871,76.416Z" transform="translate(-116.158 -5.132)" fill="#fe7a8a"/>
      <path id="Trazado_587432" data-name="Trazado 587432" d="M-4713.106,76.017c-.112.248-.234.278-.371.018Z" transform="translate(-25.631 -5.128)" fill="#fe7a8a"/>
      <path id="Trazado_587433" data-name="Trazado 587433" d="M-4584.946,295.572l-.587-.044.58-.294Z" transform="translate(-109.013 -147.994)" fill="#f6f8f9"/>
      <path id="Trazado_587434" data-name="Trazado 587434" d="M-4698.269,313.033l.269.335C-4698.324,313.444-4698.3,313.243-4698.269,313.033Z" transform="translate(-35.531 -159.593)" fill="#5e92c9"/>
      <path id="Trazado_587435" data-name="Trazado 587435" d="M-4675.549,92.137c4.872,0,9.744-.008,14.616,0,2.955.007,4.216,1.278,4.22,4.257q.015,9.308,0,18.616c-.005,2.813-1.332,4.155-4.167,4.16q-14.615.026-29.231,0c-2.788-.006-4.153-1.4-4.161-4.193q-.027-9.308,0-18.616c.007-2.916,1.339-4.218,4.282-4.223Q-4682.77,92.125-4675.549,92.137Zm.08,24.381c4.812,0,9.625-.034,14.436.022,1.3.015,1.736-.462,1.729-1.725-.037-6.087-.046-12.174.006-18.261.013-1.385-.5-1.8-1.842-1.791q-14.348.061-28.7,0c-1.37-.006-1.805.451-1.792,1.815q.09,9.043,0,18.087c-.016,1.458.464,1.9,1.9,1.883C-4684.978,116.472-4680.224,116.517-4675.469,116.517Z" transform="translate(-38.139 -15.632)" fill="#0e0a0b"/>
      <path id="Trazado_587436" data-name="Trazado 587436" d="M-4675.654,233.544c-4.808,0-9.614.009-14.421,0-2.538-.007-4.127-1.34-4.154-3.433-.029-2.23,1.522-3.622,4.144-3.626q14.682-.022,29.363,0c2.553,0,4.059,1.358,4.041,3.52-.018,2.2-1.5,3.526-4.031,3.536C-4665.693,233.557-4670.674,233.544-4675.654,233.544Zm.141-2.667q7.309,0,14.617,0c.688,0,1.57.132,1.545-.887-.024-.988-.895-.863-1.587-.863q-14.529,0-29.06,0c-.676,0-1.55-.154-1.53.9s.916.84,1.572.841Q-4682.734,230.888-4675.513,230.877Z" transform="translate(-38.175 -103.18)" fill="#0f090a"/>
      <path id="Trazado_587437" data-name="Trazado 587437" d="M-4670.5,121.432c-4.754,0-9.509-.045-14.262.028-1.437.022-1.917-.424-1.9-1.883q.1-9.042,0-18.087c-.013-1.364.422-1.821,1.792-1.815q14.349.065,28.7,0c1.34-.006,1.854.406,1.843,1.791-.053,6.086-.043,12.174-.007,18.261.007,1.264-.431,1.741-1.729,1.725C-4660.879,121.4-4665.692,121.432-4670.5,121.432Zm-1.508-5.165a4.823,4.823,0,0,0-.13-.48q-2.108-5.587-4.22-11.172a1.562,1.562,0,0,0-1.568-1.136c-.869.023-1.294.632-1.579,1.387-1.323,3.509-2.644,7.018-4,10.514-.357.921-.458,1.768.608,2.158,1.091.4,1.52-.412,1.88-1.278.208-.5.145-1.337.828-1.386a25.428,25.428,0,0,1,4.5,0c.969.1.765,1.283,1.155,1.941a1.3,1.3,0,0,0,1.563.76A1.286,1.286,0,0,0-4672.012,116.267Zm10.842-10.178c-2.121,3.262-4.06,6.19-5.939,9.156-.909,1.433-.422,2.364,1.233,2.4,2.314.046,4.629,0,6.944.015.928,0,1.657-.28,1.64-1.328-.018-1.065-.8-1.272-1.7-1.265-1.527.013-3.054,0-4.868,0,2.1-3.233,4.025-6.163,5.909-9.122.985-1.546.533-2.451-1.253-2.5-2.14-.054-4.281-.009-6.422-.015-.917,0-1.688.306-1.7,1.308s.717,1.355,1.652,1.349C-4664.3,106.083-4662.922,106.089-4661.169,106.089Zm-8.566,5.75v.042h.868c.932,0,1.673-.367,1.642-1.364s-.784-1.315-1.715-1.279c-.693.027-1.391-.019-2.082.031a1.235,1.235,0,0,0-1.22,1.234,1.221,1.221,0,0,0,1.124,1.321A8.64,8.64,0,0,0-4669.736,111.839Z" transform="translate(-43.104 -20.547)" fill="#eef6f9"/>
      <path id="Trazado_587438" data-name="Trazado 587438" d="M-4670.458,235.839q-7.22,0-14.442-.006c-.658,0-1.553.221-1.572-.841s.854-.9,1.529-.9q14.531-.008,29.06,0c.692,0,1.563-.125,1.587.863.024,1.019-.857.886-1.545.887Q-4663.15,235.841-4670.458,235.839Z" transform="translate(-43.23 -108.141)" fill="#eef6f9"/>
      <path id="Trazado_587439" data-name="Trazado 587439" d="M-4666.565,123.383a1.286,1.286,0,0,1-.96,1.312,1.3,1.3,0,0,1-1.562-.76c-.391-.658-.186-1.838-1.156-1.941a25.428,25.428,0,0,0-4.5,0c-.684.049-.62.886-.828,1.386-.361.866-.789,1.676-1.88,1.278-1.067-.39-.966-1.237-.609-2.158,1.356-3.5,2.678-7.006,4-10.514.285-.755.71-1.364,1.579-1.387a1.563,1.563,0,0,1,1.568,1.136q2.108,5.586,4.22,11.172A4.7,4.7,0,0,1-4666.565,123.383Zm-5.873-8.31c-.475,1.242-.728,2.119-1.135,2.918-.641,1.256-.083,1.346,1.026,1.408,1.548.086,1.794-.408,1.141-1.708C-4671.76,116.985-4671.993,116.217-4672.438,115.073Z" transform="translate(-48.551 -27.663)" fill="#070505"/>
      <path id="Trazado_587440" data-name="Trazado 587440" d="M-4625.418,113.1c-1.753,0-3.129-.007-4.505,0-.935.006-1.665-.359-1.652-1.349s.785-1.311,1.7-1.308c2.141.006,4.283-.039,6.422.015,1.787.045,2.238.951,1.253,2.5-1.884,2.958-3.811,5.889-5.909,9.122,1.814,0,3.341.009,4.868,0,.9-.007,1.683.2,1.7,1.265.017,1.048-.712,1.333-1.64,1.328-2.315-.011-4.63.031-6.943-.015-1.655-.033-2.142-.964-1.233-2.4C-4629.478,119.291-4627.54,116.363-4625.418,113.1Z" transform="translate(-78.855 -27.559)" fill="#0e0a0b"/>
      <path id="Trazado_587441" data-name="Trazado 587441" d="M-4642.75,129.727a8.647,8.647,0,0,1-1.384-.014,1.221,1.221,0,0,1-1.124-1.321,1.236,1.236,0,0,1,1.221-1.234c.69-.051,1.388,0,2.081-.031.931-.036,1.685.293,1.716,1.279s-.711,1.366-1.642,1.364h-.868Z" transform="translate(-70.089 -38.435)" fill="#0e0a0b"/>
      <path id="Trazado_587442" data-name="Trazado 587442" d="M-4664.083,123.453c.445,1.144.678,1.912,1.033,2.618.653,1.3.407,1.794-1.141,1.708-1.11-.062-1.667-.152-1.026-1.408C-4664.811,125.572-4664.558,124.695-4664.083,123.453Z" transform="translate(-56.905 -36.043)" fill="#cee1e7"/>
    </g>
  </g>
</svg>
