<svg xmlns="http://www.w3.org/2000/svg" width="189" height="240.6" viewBox="0 0 189 240.6">
  <g id="Grupo_847369" data-name="Grupo 847369" transform="translate(-387 -11203.953)">
    <g id="Grupo_846513" data-name="Grupo 846513" transform="translate(402.5 11283.127)" opacity="0.5">
      <path id="Trazado_586010" data-name="Trazado 586010" d="M-345.275,248.383h-.185c.634,2.746-.686,5.492-4.065,7.419l-63.3,36.561a22.065,22.065,0,0,1-11.351,2.428,28.16,28.16,0,0,1-13.094-3.431l-59.82-34.528c-3.96-2.3-5.965-5.228-5.965-7.973,0-.157.026-.316.026-.475V200.208h13.807l53.694-31.019a21.8,21.8,0,0,1,11.351-2.4,27.86,27.86,0,0,1,13.094,3.433l51.951,29.988h13.859Z" transform="translate(503.057 -133.374)" fill="#d8dbe8"/>
      <path id="Trazado_586011" data-name="Trazado 586011" d="M-381.466,248.376h-.185c.634,2.746-.686,5.492-4.065,7.419l-63.3,36.561a22.065,22.065,0,0,1-11.351,2.428v-128a27.86,27.86,0,0,1,13.094,3.433l51.951,29.988h13.859Z" transform="translate(539.248 -133.368)" fill="#fff"/>
      <g id="Grupo_846512" data-name="Grupo 846512" transform="translate(0)">
        <path id="Trazado_586012" data-name="Trazado 586012" d="M-349.5,212.287l-63.323,36.559c-6.262,3.616-17.2,3.163-24.436-1.013L-497.076,213.3c-7.23-4.176-8.016-10.492-1.754-14.108l63.323-36.559c6.262-3.616,17.2-3.163,24.436,1.013l59.812,34.532C-344.026,202.355-343.241,208.671-349.5,212.287Z" transform="translate(503.057 -138.953)" fill="#4a2efc"/>
        <path id="Trazado_586013" data-name="Trazado 586013" d="M-382.756,204.054l-44.326,25.592c-4.385,2.532-12.042,2.214-17.105-.71l-41.868-24.173c-5.063-2.923-5.614-7.343-1.229-9.875l44.326-25.592c4.385-2.532,12.042-2.214,17.105.71l41.87,24.173C-378.922,197.1-378.371,201.524-382.756,204.054Z" transform="translate(513.92 -132.684)" fill="#412dbe"/>
        <g id="Grupo_846511" data-name="Grupo 846511" transform="translate(23.667)">
          <path id="Trazado_586014" data-name="Trazado 586014" d="M-379.8,184.547h-.129c.443,1.922-.48,3.843-2.846,5.192l-44.311,25.592a15.443,15.443,0,0,1-7.946,1.7,19.723,19.723,0,0,1-9.165-2.4l-41.872-24.169c-2.772-1.608-4.176-3.659-4.176-5.58,0-.111.019-.222.019-.333v-7.853h9.664l37.585-21.712a15.258,15.258,0,0,1,7.946-1.681,19.5,19.5,0,0,1,9.165,2.4l36.365,20.991h9.7Z" transform="translate(490.254 -144.804)" fill="#d8dbe8"/>
          <path id="Trazado_586015" data-name="Trazado 586015" d="M-405.132,184.543h-.129c.443,1.922-.48,3.843-2.846,5.192l-44.311,25.592a15.444,15.444,0,0,1-7.946,1.7V153.3a19.5,19.5,0,0,1,9.165,2.4l36.365,20.991h9.7Z" transform="translate(515.587 -144.8)" fill="#fff"/>
          <path id="Trazado_586016" data-name="Trazado 586016" d="M-382.761,185.165l-44.325,25.59c-4.385,2.532-12.042,2.214-17.105-.708l-41.87-24.173c-5.061-2.923-5.612-7.345-1.227-9.877l44.326-25.59c4.385-2.532,12.042-2.214,17.105.708l41.87,24.173C-378.927,178.211-378.376,182.633-382.761,185.165Z" transform="translate(490.249 -148.698)" fill="#fff"/>
          <path id="Trazado_586017" data-name="Trazado 586017" d="M-406.041,179.4l-31.029,17.913c-3.069,1.772-8.43,1.55-11.974-.5L-478.352,179.9c-3.544-2.046-3.929-5.141-.859-6.913l31.029-17.913c3.069-1.772,8.43-1.55,11.972.5l29.31,16.922C-403.358,174.534-402.972,177.629-406.041,179.4Z" transform="translate(497.85 -144.309)" fill="#4a2efc"/>
        </g>
      </g>
    </g>
    <path id="Trazado_587716" data-name="Trazado 587716" d="M870.5,574.934V496.553" transform="translate(-389 10708.193)" fill="none" stroke="#e8e8e8" stroke-width="2" stroke-dasharray="5 5"/>
    <path id="Trazado_587717" data-name="Trazado 587717" d="M870.5,685.553v-189" transform="translate(-109.553 12075.953) rotate(-90)" fill="none" stroke="#a395fd" stroke-width="3"/>
  </g>
</svg>
