<svg xmlns="http://www.w3.org/2000/svg" width="81.396" height="81.396" viewBox="0 0 81.396 81.396">
  <g id="Grupo_846496" data-name="Grupo 846496" transform="translate(-240 -1286.742)">
    <rect id="Rectángulo_38178" data-name="Rectángulo 38178" width="81.396" height="81.396" transform="translate(240 1286.742)" fill="none"/>
    <g id="Grupo_847230" data-name="Grupo 847230" transform="translate(3522.403 592.013)">
      <path id="Trazado_587345" data-name="Trazado 587345" d="M-3257,758.969a32.845,32.845,0,0,1,.083-5.815c.269-1.475-.414-1.982-1.308-2.714a25.565,25.565,0,0,1-8.4-27.332,25.581,25.581,0,0,1,21.854-18.582,25.637,25.637,0,0,1,27.792,17.9,25.643,25.643,0,0,1-12.516,30.906,1.723,1.723,0,0,0-1.063,1.812,44.246,44.246,0,0,1-1.029,7.932,4.476,4.476,0,0,1-4.42,3.345c-1.9.061-3.806.053-5.707,0a6.536,6.536,0,0,1-3.74-1.262,2.437,2.437,0,0,0-1.556-.574c-.742.024-1.535-.2-1.513,1.056.011.607-.625.873-1.265.871-1.943-.007-3.886,0-5.829-.006-1.046-.006-1.388-.635-1.382-1.587C-3256.99,762.937-3257,760.953-3257,758.969Zm18.71-8.709c-.155,0-.312.013-.281.22s.186.169.329.113l3.787.027a4.543,4.543,0,0,1,1.775.741,1.268,1.268,0,0,0,1.622.1,23.417,23.417,0,0,0,12.641-24.839,23.78,23.78,0,0,0-20.195-19.689,23.317,23.317,0,0,0-25.333,15.822,23.368,23.368,0,0,0,10.579,28.143,6.715,6.715,0,0,0,4.109.547c.834-.056,1.181-.921,1.362-1.554.172-.6-.662-.514-1.047-.665a20.017,20.017,0,0,1-12.893-19.546,20.007,20.007,0,0,1,13.823-18.519c.944-.315,1.748-.4,2.229.684.075,1.187-.8,1.419-1.667,1.722a17.488,17.488,0,0,0-11.959,16.821,17.554,17.554,0,0,0,12.015,16.795c.758.262,1.211.253,1.644-.54.7-1.274,1.541-2.465,2.309-3.7a1.381,1.381,0,0,1,1.468-.832,5.66,5.66,0,0,1,4.519,4.518c.1,1.039.485.892,1.181.684,7.984-2.378,13.517-11.171,12.169-19.529-1.147-7.111-5.3-11.784-11.984-14.269-.836-.311-1.632-.565-1.561-1.677a1.375,1.375,0,0,1,1.872-.8c9.153,2.563,15.577,12.342,14.086,21.689-1.369,8.585-6.114,14.415-14.47,17.152Zm-9.725,3.423c-.67.138-.435.677-.438,1.068-.02,2.042-.027,4.085,0,6.126.006.4-.242.874.2,1.213a6.781,6.781,0,0,1,4.7,1.372,1.962,1.962,0,0,0,1.348.41,29.674,29.674,0,0,0,6.58.009,1.934,1.934,0,0,0,1.752-1.735c.347-2.23.673-4.465.9-6.709.13-1.268-.595-2.022-1.938-2.3l-5.077-.112c-1.608-.836-1.891-1.742-1.031-3.318.289-.53.61-1.043.874-1.585a1.994,1.994,0,0,0-.8-2.805c-.558-.36-.9-.416-1.31.273-1.256,2.109-2.605,4.161-3.909,6.242A4.871,4.871,0,0,1-3248.013,753.684Zm-2.848,5.418v-2.426c0-2.8,0-2.771-2.781-2.751-.754.005-.958.215-.941.958.05,2.142.017,4.286.017,6.429,0,2.924,0,2.906,2.959,2.783.568-.023.774-.155.758-.748C-3250.887,761.933-3250.862,760.517-3250.861,759.1Z" fill="#070705"/>
      <path id="Trazado_587346" data-name="Trazado 587346" d="M-3211.773,733.755c-.071,1.112.725,1.367,1.561,1.677,6.689,2.485,10.837,7.159,11.984,14.269,1.348,8.358-4.185,17.152-12.169,19.529-.7.207-1.081.355-1.181-.684a5.66,5.66,0,0,0-4.518-4.518,1.381,1.381,0,0,0-1.468.832c-.768,1.235-1.614,2.426-2.309,3.7-.433.793-.886.8-1.644.54a17.554,17.554,0,0,1-12.015-16.795,17.488,17.488,0,0,1,11.959-16.821c.87-.3,1.742-.535,1.668-1.722a11.608,11.608,0,0,1,2.833-.274c.271.576.631,1.059,1.351.991a1.257,1.257,0,0,0,1.159-1.189Zm-11.871,24.2c-.051.969-.13,1.938-.147,2.907-.023,1.324.691,1.835,1.953,1.385q2.623-.935,5.219-1.947a2.058,2.058,0,0,1,1.619,0c1.69.666,3.4,1.293,5.1,1.915,1.4.508,2.1.01,2.056-1.473-.052-1.778-.121-3.557-.234-5.332a2.333,2.333,0,0,1,.566-1.763c1.161-1.4,2.286-2.83,3.394-4.272.813-1.058.542-1.882-.748-2.263-1.781-.526-3.573-1.017-5.367-1.5a2.075,2.075,0,0,1-1.308-.961c-.972-1.536-1.993-3.041-3.017-4.543-.846-1.241-1.673-1.238-2.517.005-1,1.471-1.991,2.946-2.941,4.447a2.354,2.354,0,0,1-1.5,1.092c-1.8.465-3.59.957-5.369,1.49-1.144.342-1.406,1.174-.7,2.134a21.806,21.806,0,0,0,1.888,2.369C-3223.956,753.42-3222.942,755.4-3223.644,757.951Z" transform="translate(-25.877 -21.914)" fill="#fbe753"/>
      <path id="Trazado_587347" data-name="Trazado 587347" d="M-3229.983,719.308l-2.789-.464c-.151-.7-.531-1.22-1.293-1.2-.843.027-1.137.642-1.218,1.393a11.611,11.611,0,0,0-2.833.274c-.481-1.085-1.286-1-2.229-.685a20.007,20.007,0,0,0-13.823,18.519,20.017,20.017,0,0,0,12.893,19.546c.385.151,1.219.066,1.047.665-.181.632-.528,1.5-1.362,1.554a6.715,6.715,0,0,1-4.109-.547,23.369,23.369,0,0,1-10.579-28.143,23.317,23.317,0,0,1,25.333-15.822,23.78,23.78,0,0,1,20.195,19.689,23.416,23.416,0,0,1-12.641,24.839,1.267,1.267,0,0,1-1.621-.1,4.546,4.546,0,0,0-1.775-.741c-.32-.82-1.36.016-1.707-.743,8.356-2.736,13.1-8.567,14.47-17.152,1.49-9.346-4.934-19.126-14.087-21.689A1.375,1.375,0,0,0-3229.983,719.308Z" transform="translate(-7.667 -7.467)" fill="#f9eb99"/>
      <path id="Trazado_587348" data-name="Trazado 587348" d="M-3181.569,890.664a1.964,1.964,0,0,1-1.348-.41,6.781,6.781,0,0,0-4.7-1.372,3.206,3.206,0,0,0,.184-1.42q.022-3.494.051-6.988a4.873,4.873,0,0,0,1.856-1.854c1.3-2.08,2.653-4.133,3.909-6.242.41-.689.753-.633,1.311-.273a1.994,1.994,0,0,1,.8,2.805c-.264.542-.585,1.055-.874,1.585-.859,1.576-.576,2.483,1.031,3.318a8.648,8.648,0,0,0,5.077.112c1.343.279,2.068,1.033,1.938,2.3-.231,2.244-.557,4.479-.9,6.709a1.934,1.934,0,0,1-1.752,1.735c-.4-.4-.911-.265-1.368-.236C-3178.093,890.548-3179.852,890.136-3181.569,890.664Z" transform="translate(-60.635 -126.791)" fill="#fcd8d3"/>
      <path id="Trazado_587349" data-name="Trazado 587349" d="M-3209.96,913.505c0,1.415-.026,2.831.012,4.245.016.592-.19.724-.758.748-2.96.123-2.959.141-2.959-2.783,0-2.143.032-4.287-.017-6.429-.017-.743.187-.953.941-.958,2.782-.02,2.781-.051,2.781,2.751Z" transform="translate(-40.901 -154.404)" fill="#f9f9f9"/>
      <path id="Trazado_587350" data-name="Trazado 587350" d="M-3188.2,907.349q-.026,3.494-.05,6.988a3.206,3.206,0,0,1-.184,1.419c-.441-.339-.193-.813-.2-1.213-.031-2.042-.025-4.084,0-6.126C-3188.634,908.026-3188.87,907.487-3188.2,907.349Z" transform="translate(-59.814 -153.665)" fill="#cbb5b1"/>
      <path id="Trazado_587351" data-name="Trazado 587351" d="M-3162.747,948.408c1.717-.528,3.476-.116,5.212-.227.457-.029.969-.163,1.368.235A29.669,29.669,0,0,1-3162.747,948.408Z" transform="translate(-79.457 -184.535)" fill="#cbb5b1"/>
      <path id="Trazado_587352" data-name="Trazado 587352" d="M-3144.511,891.689c.346.759,1.386-.076,1.707.743l-3.787-.027-.047-.333Z" transform="translate(-91.65 -141.811)" fill="#f5f2a0"/>
      <path id="Trazado_587353" data-name="Trazado 587353" d="M-3148.534,904.749a8.647,8.647,0,0,1-5.077-.112Z" transform="translate(-86.372 -151.612)" fill="#feeae5"/>
      <path id="Trazado_587354" data-name="Trazado 587354" d="M-3147.527,893.264l.047.333c-.143.057-.3.1-.328-.113S-3147.682,893.26-3147.527,893.264Z" transform="translate(-90.761 -143.003)" fill="#908858"/>
      <path id="Trazado_587355" data-name="Trazado 587355" d="M-3206.329,776.267c.7-2.555-.312-4.531-2.05-6.311a21.864,21.864,0,0,1-1.888-2.369c-.705-.96-.443-1.792.7-2.134,1.779-.532,3.571-1.025,5.369-1.49a2.352,2.352,0,0,0,1.5-1.092c.951-1.5,1.944-2.976,2.942-4.447.843-1.244,1.67-1.246,2.516-.005,1.024,1.5,2.045,3.007,3.016,4.543a2.077,2.077,0,0,0,1.309.961c1.793.482,3.586.972,5.366,1.5,1.289.381,1.561,1.205.748,2.263-1.108,1.442-2.233,2.872-3.394,4.272a2.332,2.332,0,0,0-.566,1.763c.113,1.775.182,3.554.234,5.332.043,1.484-.659,1.982-2.056,1.473-1.707-.621-3.413-1.248-5.1-1.915a2.057,2.057,0,0,0-1.619,0q-2.594,1.014-5.219,1.947c-1.262.45-1.977-.061-1.953-1.385C-3206.459,778.2-3206.38,777.236-3206.329,776.267Zm16.692-8.911c-1.556-.435-2.936-.869-4.341-1.194a3.073,3.073,0,0,1-2.059-1.517c-.746-1.227-1.581-2.4-2.457-3.713-.928,1.387-1.806,2.633-2.608,3.926a2.641,2.641,0,0,1-1.695,1.24c-1.476.38-2.939.81-4.4,1.218.033.168.022.268.066.309,2.746,2.566,4.021,5.627,3.214,9.41-.137.641.26.708.7.459a8.985,8.985,0,0,1,9.47-.007c.631.356.734-.018.7-.588-.076-1.291-.074-2.587-.168-3.876a2.608,2.608,0,0,1,.653-1.994C-3191.606,769.888-3190.7,768.7-3189.637,767.355Z" transform="translate(-43.192 -40.23)" fill="#070603"/>
      <path id="Trazado_587356" data-name="Trazado 587356" d="M-3165.814,729.763c.08-.751.375-1.366,1.218-1.393.762-.025,1.142.493,1.293,1.2a1.257,1.257,0,0,1-1.159,1.189C-3165.184,730.822-3165.543,730.34-3165.814,729.763Z" transform="translate(-77.135 -18.189)" fill="#0d0c06"/>
      <path id="Trazado_587357" data-name="Trazado 587357" d="M-3178.868,778.076c-1.065,1.344-1.969,2.533-2.929,3.674a2.609,2.609,0,0,0-.653,1.994c.094,1.289.092,2.585.168,3.876.033.57-.07.944-.7.588a8.985,8.985,0,0,0-9.47.007c-.435.249-.832.182-.7-.459.807-3.783-.469-6.844-3.214-9.41-.044-.041-.033-.141-.066-.309,1.463-.408,2.927-.838,4.4-1.218a2.639,2.639,0,0,0,1.694-1.24c.8-1.293,1.681-2.539,2.608-3.926.876,1.314,1.711,2.486,2.457,3.713a3.073,3.073,0,0,0,2.058,1.517C-3181.8,777.207-3180.425,777.641-3178.868,778.076Z" transform="translate(-53.961 -50.951)" fill="#fbec9a"/>
    </g>
  </g>
</svg>
