<svg xmlns="http://www.w3.org/2000/svg" width="107" height="107" viewBox="0 0 107 107">
  <g id="Grupo_846504" data-name="Grupo 846504" transform="translate(-240 -1286.742)">
    <rect id="Rectángulo_38178" data-name="Rectángulo 38178" width="107" height="107" transform="translate(240 1286.742)" fill="none"/>
    <g id="Grupo_847234" data-name="Grupo 847234" transform="translate(4611.227 1384.887)">
      <path id="Trazado_587443" data-name="Trazado 587443" d="M-4342.954,48.8q.227-1.344.454-2.689c1.308.336,1.968-.255,2.336-1.485.43-1.436.938-2.853,1.5-4.244a8,8,0,0,1,9.1-4.942c.719.135,1.482.115,1.986.861a42.239,42.239,0,0,0,5.777,6.386c-1.992,2.059-3.991,4.111-5.975,6.179a5.277,5.277,0,0,0-1.076,6.183c.236.4.476,1.117,1.062.524,1.027-1.04,2.467-1.783,2.717-3.443,1.152,1.52,2.082.64,3-.282,5.1-5.1,10.188-10.222,15.317-15.3,2.663-2.636,5.993-2.558,8.4.1-.141.2-.406.395-.4.589.04,2.54-1.319,4.329-3.032,6-3.186,3.111-6.309,6.287-9.456,9.436a3.3,3.3,0,0,0-1.187,2.035,19.425,19.425,0,0,1-2.344,7.464c-3.5,6.143-8.682,10.115-15.7,10.954a9.364,9.364,0,0,0-7.251,4.471c-3.3-3.259-6.559-6.571-9.94-9.747-1.232-1.158-1.721-2-.08-3.115a3.186,3.186,0,0,0,1.1-1.707c1.354-3.907,2.709-7.813,4.134-11.695A2.065,2.065,0,0,0-4342.954,48.8Z" transform="translate(-6.447 -79.472)" fill="#fcc9bc"/>
      <path id="Trazado_587444" data-name="Trazado 587444" d="M-4304.794-42.816c-2.408-2.661-5.738-2.739-8.4-.1-5.129,5.076-10.213,10.2-15.317,15.3-.922.922-1.852,1.8-3,.282a2.132,2.132,0,0,1,.839-2.14c.993-.95,1.951-1.939,2.924-2.913,2.377-2.379,2.376-2.379-.49-4.391a42.239,42.239,0,0,1-5.777-6.386c-.5-.746-1.268-.726-1.986-.861a8,8,0,0,0-9.1,4.942c-.561,1.391-1.07,2.808-1.5,4.244-.368,1.23-1.028,1.821-2.336,1.485-.407-.483-.852-.971-.591-1.672.915-2.459,1.428-5.095,2.96-7.286a10.645,10.645,0,0,1,8.2-4.693c.542-.045,1.131.167,1.721-.3a38.5,38.5,0,0,1-3.413-10.832,30.187,30.187,0,0,1,35.674-34.265c16.352,3.071,28.32,17.509,28.076,33.869a29.91,29.91,0,0,1-29.441,29.667,2.954,2.954,0,0,0-2.607,1.106,5.058,5.058,0,0,1-.928.932,14.322,14.322,0,0,0-5.593,10.6c-.861,8.5-8.747,15.044-17.423,14.849a9.035,9.035,0,0,0-7.908,3.4c-1.895,2.258-2.092,2.129-4.125.1q-6.794-6.787-13.582-13.58c-1.595-1.6-1.651-1.977,0-3.485A10.531,10.531,0,0,0-4354.9-19.8c.986-3.166,2.2-6.262,3.27-9.4.38-1.112,1.009-1.7,2.228-1.466a2.065,2.065,0,0,1,.445,2.54c-1.425,3.881-2.78,7.788-4.134,11.695a3.186,3.186,0,0,1-1.1,1.707c-1.641,1.114-1.152,1.957.08,3.115,3.382,3.176,6.636,6.489,9.94,9.747,1.781,2.115,1.918,2.23,3.621.206,1.749-2.078,3.734-3,6.4-2.467a7.809,7.809,0,0,0,1.691.036A15.264,15.264,0,0,0-4317.5-16.97a30.688,30.688,0,0,0,.456-4.49,4.228,4.228,0,0,1,1.458-3.1q5.249-5.137,10.39-10.381C-4302.763-37.428-4302.654-40.318-4304.794-42.816Zm-8.4-47.006c-10.191,1.136-17.572,6.38-21.84,15.622-5.647,12.232-1.644,26.961,9.405,35.771,2.27,1.81,2.27,1.81,4.209-.448,2.245-2.189,4.43-4.444,6.75-6.55a8.389,8.389,0,0,1,11.738.286,8.44,8.44,0,0,1,.2,11.752c-.4.451-1.013.749-1.181,1.567.671-.081,1.281-.126,1.883-.23,15.281-2.65,24.873-16.2,22.457-31.719C-4282.08-79.88-4297.458-91.8-4313.19-89.823Z" fill="#090707"/>
      <path id="Trazado_587445" data-name="Trazado 587445" d="M-4280.062,40.023c2.139,2.5,2.031,5.389-.4,7.873q-5.141,5.243-10.389,10.381a4.227,4.227,0,0,0-1.458,3.1,30.756,30.756,0,0,1-.457,4.49,15.263,15.263,0,0,1-14.952,12.879,7.8,7.8,0,0,1-1.691-.036c-2.67-.529-4.655.389-6.4,2.467-1.7,2.024-1.84,1.908-3.622-.206a9.365,9.365,0,0,1,7.251-4.471c7.021-.839,12.205-4.811,15.7-10.954a19.459,19.459,0,0,0,2.344-7.464,3.29,3.29,0,0,1,1.186-2.035c3.147-3.15,6.271-6.325,9.456-9.436,1.713-1.672,3.072-3.461,3.033-6C-4280.468,40.418-4280.2,40.219-4280.062,40.023Z" transform="translate(-24.732 -82.839)" fill="#e4a899"/>
      <path id="Trazado_587446" data-name="Trazado 587446" d="M-4289.814,56.025c2.866,2.011,2.867,2.012.489,4.391-.972.974-1.93,1.963-2.924,2.913a2.133,2.133,0,0,0-.839,2.14c-.25,1.66-1.689,2.4-2.716,3.443-.586.593-.826-.122-1.062-.524a5.278,5.278,0,0,1,1.077-6.183C-4293.807,60.136-4291.807,58.084-4289.814,56.025Z" transform="translate(-38.429 -92.808)" fill="#e9ab9c"/>
      <path id="Trazado_587447" data-name="Trazado 587447" d="M-4258.363-84.992c15.731-1.974,31.109,9.943,33.616,26.051,2.416,15.517-7.176,29.068-22.458,31.719-.6.1-1.211.149-1.882.23.168-.818.779-1.117,1.181-1.567a8.44,8.44,0,0,0-.195-11.752,8.389,8.389,0,0,0-11.738-.286c-2.32,2.106-4.5,4.362-6.75,6.55-.389-1.065-1.69-1.451-1.946-2.614a6.265,6.265,0,0,0,4.947-2.264c2.964-3.071,6.051-6.024,9.018-9.091.8-.824,1.239-.875,2.064-.022,3.1,3.2,6.286,6.32,9.432,9.477a5.46,5.46,0,0,0,3.021,1.78,4.993,4.993,0,0,0,5.271-2.467,4.891,4.891,0,0,0-.855-5.9q-4.8-4.92-9.729-9.712c-.932-.9-1.082-1.487-.012-2.336.939-.744,1.856-1.6,1.224-3.023l1.79-1.966a1.8,1.8,0,0,0,2.494-.476c1.26-1.313,2.577-2.57,3.851-3.87,2.292-2.34,2.461-5.284.44-7.357-2.066-2.12-5.113-1.985-7.492.373-3.164,3.136-6.334,6.267-9.432,9.468-.821.848-1.262.81-2.063-.018-3.01-3.111-6.1-6.146-9.166-9.2-2.51-2.5-4.3-2.754-7.395-1.061.062-2.15,1.9-3.079,3.123-4.372A29.728,29.728,0,0,1-4258.363-84.992Z" transform="translate(-54.826 -4.831)" fill="#da616c"/>
      <path id="Trazado_587448" data-name="Trazado 587448" d="M-4287.741-36.307c.256,1.163,1.558,1.549,1.946,2.614-1.939,2.257-1.939,2.257-4.208.448-11.049-8.809-15.053-23.538-9.4-35.771,4.268-9.242,11.647-14.486,21.84-15.622a29.729,29.729,0,0,0-9.64,6.291c-1.229,1.293-3.062,2.222-3.124,4.372l-.27.224-.512.543-.561.963c-.764.086-.965.728-1.236,1.28a29.714,29.714,0,0,0-2.6,19.3c.636,3.247,1.419,6.454,3.506,9.153C-4292.336-39.058-4291.141-37.314-4287.741-36.307Z" transform="translate(-35.622 -5.185)" fill="#d64952"/>
      <path id="Trazado_587449" data-name="Trazado 587449" d="M-4275.367-56.418l.561-.963.512-.543.27-.224c3.1-1.693,4.885-1.441,7.4,1.061,3.066,3.057,6.155,6.092,9.166,9.2.8.828,1.242.867,2.063.018,3.1-3.2,6.268-6.332,9.432-9.468,2.379-2.358,5.426-2.493,7.492-.373,2.021,2.074,1.853,5.017-.44,7.357-1.274,1.3-2.591,2.557-3.851,3.87a1.8,1.8,0,0,1-2.494.476,1.827,1.827,0,0,1,.477-2.5q2.11-2.017,4.13-4.127c1.037-1.086,1.109-2.286-.087-3.274-1.146-.946-2.207-.469-3.155.483q-5.184,5.207-10.387,10.394c-2.119,2.118-2.18,2.115-4.326-.031-3.464-3.463-6.911-6.943-10.4-10.381-1.43-1.409-3.231-1.163-3.814.453a2.412,2.412,0,0,0,.9,2.669q5.342,5.315,10.66,10.654c1.656,1.661,1.652,1.954-.041,3.652q-5.254,5.269-10.525,10.522c-.854.848-1.509,1.727-.887,2.98.728,1.468,2.341,1.581,3.746.194,3.574-3.53,7.112-7.1,10.667-10.647,1.72-1.718,2.024-1.717,3.792.048q5.2,5.189,10.385,10.4c1.081,1.09,2.246,1.842,3.556.537s.58-2.478-.512-3.559q-4.418-4.374-8.794-8.79c-3.949-3.985-3.988-3,.171-7.251a1.876,1.876,0,0,1,2.651-.452c.632,1.426-.285,2.278-1.224,3.023-1.07.849-.92,1.435.012,2.336q4.942,4.777,9.729,9.712a4.89,4.89,0,0,1,.855,5.9,4.992,4.992,0,0,1-5.271,2.467,5.46,5.46,0,0,1-3.021-1.78c-3.146-3.157-6.333-6.275-9.432-9.477-.825-.853-1.266-.8-2.064.022-2.967,3.067-6.054,6.02-9.018,9.091a6.265,6.265,0,0,1-4.947,2.264c-3.4-1.007-4.6-2.751-4.261-6.21a7.059,7.059,0,0,1,1.856-2.791c3.123-3.093,6.184-6.25,9.353-9.3.925-.889.823-1.363-.035-2.195-3.111-3.014-6.106-6.15-9.225-9.156C-4275.623-51.936-4276.287-53.944-4275.367-56.418Z" transform="translate(-51.929 -21.013)" fill="#070505"/>
      <path id="Trazado_587450" data-name="Trazado 587450" d="M-4242.395-39.4a1.876,1.876,0,0,0-2.651.452c-4.16,4.253-4.12,3.265-.171,7.251q4.375,4.417,8.794,8.79c1.092,1.081,1.817,2.259.512,3.559s-2.475.554-3.555-.537q-5.172-5.219-10.385-10.4c-1.769-1.765-2.072-1.765-3.792-.048-3.555,3.55-7.093,7.117-10.667,10.647-1.4,1.387-3.018,1.274-3.746-.194-.622-1.253.034-2.132.887-2.98q5.279-5.245,10.525-10.522c1.693-1.7,1.7-1.991.042-3.652q-5.323-5.335-10.661-10.654a2.413,2.413,0,0,1-.9-2.669c.583-1.615,2.384-1.862,3.814-.453,3.489,3.438,6.936,6.918,10.4,10.381,2.146,2.146,2.207,2.149,4.326.031q5.2-5.193,10.387-10.394c.948-.952,2.009-1.429,3.155-.483,1.2.988,1.125,2.187.088,3.274q-2.015,2.111-4.131,4.127a1.827,1.827,0,0,0-.477,2.5Z" transform="translate(-56.586 -25.651)" fill="#f2eff2"/>
      <path id="Trazado_587451" data-name="Trazado 587451" d="M-4282-51.775c-.92,2.474-.256,4.483,1.621,6.291,3.119,3.006,6.114,6.142,9.225,9.156.858.831.96,1.306.035,2.195-3.168,3.046-6.23,6.2-9.353,9.3a7.059,7.059,0,0,0-1.856,2.791c-2.087-2.7-2.871-5.906-3.507-9.153a29.717,29.717,0,0,1,2.6-19.3C-4282.961-51.047-4282.761-51.689-4282-51.775Z" transform="translate(-45.299 -25.656)" fill="#d9616c"/>
      <path id="Trazado_587452" data-name="Trazado 587452" d="M-4272.689-55.768l-.512.543Z" transform="translate(-53.534 -23.169)" fill="#da616c"/>
    </g>
  </g>
</svg>
