<svg xmlns="http://www.w3.org/2000/svg" width="189" height="240.6" viewBox="0 0 189 240.6">
  <g id="Grupo_847371" data-name="Grupo 847371" transform="translate(-803 -11203.953)">
    <g id="Grupo_846519" data-name="Grupo 846519" transform="translate(818.311 11246.171)">
      <path id="Trazado_586026" data-name="Trazado 586026" d="M-146.765,265.339h-.185c.634,2.746-.686,5.492-4.065,7.419l-63.3,36.561a22.064,22.064,0,0,1-11.351,2.428,28.161,28.161,0,0,1-13.094-3.431l-59.818-34.528c-3.96-2.3-5.967-5.228-5.967-7.973,0-.157.026-.316.026-.475V180.208h13.807l53.694-31.019a21.8,21.8,0,0,1,11.351-2.4,27.861,27.861,0,0,1,13.094,3.433l51.952,29.988h13.859Z" transform="translate(304.547 -113.374)" fill="#d8dbe8"/>
      <path id="Trazado_586027" data-name="Trazado 586027" d="M-182.956,265.333h-.185c.634,2.746-.686,5.492-4.065,7.419l-63.3,36.561a22.064,22.064,0,0,1-11.351,2.428V146.78a27.861,27.861,0,0,1,13.094,3.433l51.952,29.988h13.859Z" transform="translate(340.738 -113.368)" fill="#fff"/>
      <g id="Grupo_846518" data-name="Grupo 846518" transform="translate(0)">
        <path id="Trazado_586028" data-name="Trazado 586028" d="M-150.993,192.287l-63.323,36.559c-6.262,3.616-17.2,3.163-24.436-1.013L-298.564,193.3c-7.232-4.176-8.018-10.492-1.755-14.108L-237,142.634c6.262-3.616,17.2-3.163,24.436,1.013l59.814,34.532C-145.516,182.355-144.729,188.671-150.993,192.287Z" transform="translate(304.547 -118.953)" fill="#ffd400"/>
        <path id="Trazado_586029" data-name="Trazado 586029" d="M-184.246,184.054l-44.326,25.592c-4.385,2.532-12.042,2.214-17.105-.71l-41.868-24.173c-5.063-2.923-5.614-7.343-1.229-9.875l44.326-25.592c4.385-2.532,12.042-2.214,17.105.71l41.87,24.173C-180.412,177.1-179.861,181.524-184.246,184.054Z" transform="translate(315.41 -112.684)" fill="#c4a407"/>
        <g id="Grupo_846517" data-name="Grupo 846517" transform="translate(23.667)">
          <path id="Trazado_586030" data-name="Trazado 586030" d="M-181.289,164.547h-.129c.443,1.922-.48,3.843-2.846,5.192l-44.311,25.592a15.443,15.443,0,0,1-7.946,1.7,19.722,19.722,0,0,1-9.165-2.4l-41.872-24.169c-2.772-1.608-4.176-3.659-4.176-5.58,0-.111.018-.222.018-.333v-7.853h9.664l37.585-21.712a15.258,15.258,0,0,1,7.946-1.681,19.5,19.5,0,0,1,9.165,2.4l36.365,20.991h9.7Z" transform="translate(291.744 -124.804)" fill="#d8dbe8"/>
          <path id="Trazado_586031" data-name="Trazado 586031" d="M-206.622,164.543h-.129c.443,1.922-.48,3.843-2.846,5.192l-44.311,25.592a15.443,15.443,0,0,1-7.946,1.7V133.3a19.5,19.5,0,0,1,9.165,2.4l36.365,20.991h9.7Z" transform="translate(317.077 -124.8)" fill="#fff"/>
          <path id="Trazado_586032" data-name="Trazado 586032" d="M-184.251,165.165l-44.326,25.59c-4.385,2.532-12.042,2.214-17.105-.708l-41.868-24.173c-5.063-2.923-5.614-7.345-1.229-9.877l44.326-25.59c4.385-2.532,12.042-2.214,17.105.708l41.87,24.173C-180.417,158.211-179.866,162.633-184.251,165.165Z" transform="translate(291.739 -128.698)" fill="#fff"/>
          <path id="Trazado_586033" data-name="Trazado 586033" d="M-207.531,159.4l-31.029,17.913c-3.069,1.772-8.43,1.55-11.974-.5L-279.842,159.9c-3.542-2.046-3.928-5.141-.859-6.913l31.029-17.913c3.069-1.772,8.43-1.55,11.974.5l29.308,16.922C-204.846,154.534-204.462,157.629-207.531,159.4Z" transform="translate(299.34 -124.309)" fill="#ffd400"/>
        </g>
      </g>
    </g>
    <path id="Trazado_586042" data-name="Trazado 586042" d="M870.5,543.966V496.553" transform="translate(27 10708.193)" fill="none" stroke="#e8e8e8" stroke-width="2" stroke-dasharray="5 5"/>
    <path id="Trazado_586043" data-name="Trazado 586043" d="M870.5,685.553v-189" transform="translate(306.447 12075.953) rotate(-90)" fill="none" stroke="#ffd400" stroke-width="3"/>
  </g>
</svg>
