<svg xmlns="http://www.w3.org/2000/svg" width="81.396" height="81.396" viewBox="0 0 81.396 81.396">
  <g id="Grupo_845530" data-name="Grupo 845530" transform="translate(-240 -1286.742)">
    <rect id="Rectángulo_38178" data-name="Rectángulo 38178" width="81.396" height="81.396" transform="translate(240 1286.742)" fill="none"/>
    <g id="Grupo_847203" data-name="Grupo 847203" transform="translate(-1510.951 1858.223)">
      <path id="Trazado_587118" data-name="Trazado 587118" d="M1811.192-542.141q-.009-.841-.018-1.681a1.18,1.18,0,0,0,.47-1.105c-.02-.88-.032-1.761.005-2.64a2.546,2.546,0,0,1,2.338-2.527c.315.345.731.207,1.1.207q13.179.011,26.357,0c.371,0,.79.143,1.093-.226l.422.021c-.181.77.624,1.209.639,1.922a38.174,38.174,0,0,1,.187,5.7,63.92,63.92,0,0,0-.17,7.3c-.023,1.55.108,3.106-.869,4.46l-.214,0c-.156-.07-.311-.2-.467-.2-3.192-.012-6.384-.01-9.575-.01-.261,0-.5.042-.573.35a3.767,3.767,0,0,0-1.085.933,1.174,1.174,0,0,0-1.824.6,3.985,3.985,0,0,1-1.363,1.73c-.225-.314-.441-.635-.678-.94-.621-.8-.956-1.831-1.939-2.325-.152-.483-.564-.346-.892-.347q-4.678-.013-9.356,0c-.278,0-.575-.054-.793.2a2.567,2.567,0,0,1-2.346-2.76c-.02-2.44-.012-4.881,0-7.322A1.486,1.486,0,0,0,1811.192-542.141Zm25.628-6.113c-1.66.671-2.557,1.848-1.944,3.117s.013,1.824-.75,2.511c-.4.356-.756.749-1.132,1.125-.99.989-.99.989-2.019-.04-1.3-1.3-2.605-2.614-3.916-3.913-1.46-1.447-2.775-1.445-4.24.014q-4.111,4.095-8.207,8.2c-.1.1-.2.2-.3.3a2.549,2.549,0,0,0,0,3.632,2.535,2.535,0,0,0,3.633-.028q3.239-3.159,6.4-6.4c.492-.506.748-.471,1.213.014,1.423,1.486,2.9,2.926,4.357,4.374,1.408,1.393,2.764,1.4,4.167.01q2.232-2.209,4.437-4.445c.318-.321.533-.478,1.055-.2a2.528,2.528,0,0,0,3.815-2.283c.03-.993.009-1.987.006-2.981a2.681,2.681,0,0,0-2.108-3.022.519.519,0,0,0-.5-.327q-1.75,0-3.5,0A.431.431,0,0,0,1836.82-548.253Z" transform="translate(-36.828 -6.26)" fill="#eaf3fc"/>
      <path id="Trazado_587119" data-name="Trazado 587119" d="M1783.23-426.694l-3.054.017c-.917-.713-.939-1.741-1.028-2.774a4,4,0,0,0-1.334-2.474c-1.407-1.4-2.815-2.8-4.209-4.213a3.932,3.932,0,0,1-1.343-3.11c.344-.265.229-.646.23-.985q.009-7.858,0-15.716c0-.339.115-.719-.216-.992a2.566,2.566,0,0,1,2.714-2.4,2.672,2.672,0,0,1,2.618,2.685c.043,2.767.01,5.535.022,8.3a1.233,1.233,0,0,1-.38.928,4.268,4.268,0,0,0,.1,6.414c1.319,1.341,2.658,2.66,3.985,3.993.444.446.928.933,1.515.3.54-.586.032-1.025-.376-1.433-1.38-1.379-2.777-2.743-4.134-4.145a2.69,2.69,0,0,1-.056-3.905,2.708,2.708,0,0,1,3.905.074c2.327,2.289,4.622,4.611,6.93,6.919a2.615,2.615,0,0,1,.851,1.888q-.007,4.788-.033,9.576c-1.7,0-3.4-.011-5.1,0-.358,0-.805-.176-1.024.319A1.44,1.44,0,0,0,1783.23-426.694Z" transform="translate(-6.204 -77.682)" fill="#f3e0bf"/>
      <path id="Trazado_587120" data-name="Trazado 587120" d="M1942.628-453.968c0,2.767-.018,5.535.006,8.3a6.279,6.279,0,0,1-1.915,4.683c-1.3,1.3-2.583,2.637-3.923,3.9a3.62,3.62,0,0,0-1.238,2.914c.053,1.827-.494,2.329-2.325,2.33q-4.737,0-9.473,0c-1.555,0-2.158-.572-2.165-2.088-.013-3.016,0-6.032,0-9.047a4.723,4.723,0,0,1,1.476-3.52c2.273-2.242,4.5-4.529,6.791-6.756a1.75,1.75,0,0,0,.594-1.478c-.043-.885-.029-1.774,0-2.66a4.074,4.074,0,0,1,2.713-3.947,1.1,1.1,0,0,0,.806-1.23,4.415,4.415,0,0,1,3.021-4.2,4.283,4.283,0,0,1,4.687,1.421,4.413,4.413,0,0,1,.959,2.862C1942.617-459.644,1942.628-456.806,1942.628-453.968Zm-10.448-4.08a11.279,11.279,0,0,0-.154,3.212c-.01.225.171.266.366.217l1.281-.008c.2.052.249-.051.224-.225l0-4.685c-.156-.63-.382-.113-.581-.035A2.01,2.01,0,0,0,1932.18-458.048Zm8.763-4.681-.016-.22a2.439,2.439,0,0,0-2.565-2.346,2.6,2.6,0,0,0-2.77,2.7c-.037,2.733,0,5.468-.022,8.2a1.344,1.344,0,0,0,.432,1.016,4.255,4.255,0,0,1-.054,6.267c-1.336,1.375-2.708,2.715-4.063,4.071-.438.439-.917.962-1.515.332s0-1.083.417-1.506c1.353-1.359,2.729-2.695,4.061-4.072a2.7,2.7,0,0,0,.082-3.91,2.7,2.7,0,0,0-3.906.052c-2.329,2.29-4.625,4.614-6.935,6.924a2.611,2.611,0,0,0-.857,1.887q.007,4.791.033,9.583c0,.321.251.29.45.289q4.239-.022,8.477-.054l.209.009a2.873,2.873,0,0,0,1.269,0c.189.023.251-.071.226-.245a5.923,5.923,0,0,1,2.307-5.013c1.046-.9,1.932-1.986,2.96-2.912a5.571,5.571,0,0,0,1.872-4.547c-.066-3.443-.01-6.888-.022-10.332C1941.005-458.616,1940.967-460.673,1940.943-462.729Z" transform="translate(-123.704 -71.674)" fill="#0c0b0a"/>
      <path id="Trazado_587121" data-name="Trazado 587121" d="M1826.437-535.892a3.766,3.766,0,0,1,1.085-.933c.494-.027.988-.074,1.482-.078q4.567-.039,9.134-.062l.214,0a2.5,2.5,0,0,0,2.536-2.467q.063-7.234,0-14.469a2.476,2.476,0,0,0-2.325-2.448l-.422-.021c-.245-.022-.49-.064-.735-.064q-13.49-.005-26.98,0a8.325,8.325,0,0,0-.838.082,2.546,2.546,0,0,0-2.338,2.527c-.037.879-.025,1.76-.005,2.64a1.18,1.18,0,0,1-.47,1.105c-.708.151-1.139-.148-1.15-.855a19.657,19.657,0,0,1,.075-3.508,4.232,4.232,0,0,1,4.13-3.607q14.217-.035,28.435,0a4.2,4.2,0,0,1,4.2,3.764,24.137,24.137,0,0,1,.078,2.87q.011,5.644,0,11.289c-.009,3.132-1.752,4.857-4.9,4.862-2.946,0-5.893.016-8.839-.012a1.2,1.2,0,0,0-1.2.635c-.606,1-1.276,1.96-1.94,2.924-.956,1.389-2.2,1.4-3.154.028-.625-.9-1.278-1.794-1.818-2.748a1.574,1.574,0,0,0-1.63-.843c-2.911.043-5.822.026-8.733.015a4.374,4.374,0,0,1-4.719-4.716c-.017-2.414,0-4.828-.006-7.242,0-.81.254-1.326,1.188-1.172a1.486,1.486,0,0,1,.451,1.34c-.012,2.441-.019,4.881,0,7.322a2.567,2.567,0,0,0,2.346,2.76c.741.024,1.483.058,2.224.071,2.939.052,5.88-.1,8.817.084.983.494,1.318,1.529,1.939,2.325.237.3.453.626.679.94.124.209.264.411.368.629.354.743.615.521.951-.038C1825.164-533.96,1825.812-534.92,1826.437-535.892Z" transform="translate(-32.43)" fill="#0f0f10"/>
      <path id="Trazado_587122" data-name="Trazado 587122" d="M1777.025-432.719a1.44,1.44,0,0,1,.581-.728c1.754-.01,3.507-.007,5.26-.043.291-.006.726.254.866-.281q.018-4.788.033-9.576a2.615,2.615,0,0,0-.851-1.888c-2.308-2.308-4.6-4.63-6.93-6.919a2.708,2.708,0,0,0-3.905-.074,2.69,2.69,0,0,0,.056,3.905c1.357,1.4,2.753,2.766,4.134,4.145.408.408.916.847.376,1.433-.587.638-1.071.151-1.515-.3-1.327-1.332-2.667-2.652-3.985-3.993a4.268,4.268,0,0,1-.1-6.414,1.233,1.233,0,0,0,.38-.928c-.012-2.767.021-5.535-.022-8.3a2.672,2.672,0,0,0-2.618-2.685,2.566,2.566,0,0,0-2.714,2.4c-.025,1.481-.074,2.963-.072,4.444.008,4.416.037,8.832.058,13.248a3.932,3.932,0,0,0,1.343,3.11c1.394,1.413,2.8,2.813,4.209,4.213a4,4,0,0,1,1.334,2.474c.088,1.034.11,2.061,1.028,2.774q-.717,1.432-1.9.467a1.341,1.341,0,0,1-.623-1.178c.368-2.189-.953-3.492-2.363-4.8-1.015-.939-1.974-1.94-2.938-2.932a6.089,6.089,0,0,1-1.781-4.414c.008-5.641-.005-11.283.006-16.924a4.347,4.347,0,0,1,4.148-4.515,4.346,4.346,0,0,1,4.493,4.285,1.353,1.353,0,0,0,1,1.435,4.036,4.036,0,0,1,2.533,3.635,2.054,2.054,0,0,1,.008.531c-.439,2.357.474,4.063,2.288,5.579,1.79,1.5,3.323,3.3,5,4.925a4.885,4.885,0,0,1,1.566,3.7c-.014,2.98,0,5.96-.008,8.941-.006,1.528-.6,2.1-2.145,2.109-1.667.006-3.336-.022-5,.013C1777.58-431.826,1777.165-432.048,1777.025-432.719Zm-2.42-21.917c.2.049.375.008.366-.217a11.276,11.276,0,0,0-.155-3.211,2.015,2.015,0,0,0-1.134-1.525c-.2-.075-.424-.6-.58.035l0,4.685c-.024.174.022.278.225.225Z" transform="translate(0 -71.657)" fill="#0c0c0a"/>
      <path id="Trazado_587123" data-name="Trazado 587123" d="M1850.072-541.445a2.681,2.681,0,0,1,2.107,3.022c0,.993.025,1.988-.006,2.981a2.528,2.528,0,0,1-3.815,2.283c-.522-.275-.737-.119-1.055.2q-2.209,2.232-4.437,4.445c-1.4,1.389-2.759,1.383-4.167-.01-1.463-1.448-2.934-2.888-4.357-4.374-.465-.485-.721-.52-1.213-.014q-3.154,3.243-6.4,6.4a2.535,2.535,0,0,1-3.633.028,2.549,2.549,0,0,1,0-3.632c.095-.105.2-.2.3-.3q4.1-4.1,8.207-8.2c1.466-1.46,2.781-1.461,4.24-.015,1.311,1.3,2.612,2.608,3.917,3.913,1.029,1.029,1.028,1.029,2.019.04.377-.376.737-.77,1.133-1.125.763-.687,1.362-1.242.75-2.511s.284-2.446,1.944-3.117Zm-2.212,1.6c-.533,0-1.067-.028-1.6.006-1.02.065-1.371.708-.9,1.591.639,1.186.577,1.669-.373,2.628-1.074,1.085-2.188,2.133-3.228,3.25-.689.74-1.229.751-1.939.012-1.648-1.715-3.35-3.379-5.038-5.055-.885-.88-1.236-.882-2.115-.006q-4.037,4.024-8.064,8.057c-.5.5-1.008,1.048-.363,1.719.661.687,1.206.171,1.708-.332,2.282-2.288,4.583-4.557,6.843-6.867.675-.69,1.19-.7,1.862,0,1.679,1.735,3.4,3.429,5.115,5.13.828.822,1.206.819,2.041-.008,1.488-1.474,2.962-2.963,4.447-4.441,1.073-1.069,1.4-1.113,2.792-.415a.944.944,0,0,0,1.5-.831c.055-.563.02-1.135.02-1.7C1850.573-539.852,1850.572-539.852,1847.859-539.849Z" transform="translate(-45.613 -13.08)" fill="#080907"/>
      <path id="Trazado_587124" data-name="Trazado 587124" d="M1959.5-550.013a2.477,2.477,0,0,1,2.325,2.449q.057,7.234,0,14.469a2.5,2.5,0,0,1-2.536,2.467c.977-1.354.846-2.91.869-4.46a63.891,63.891,0,0,1,.169-7.3,38.156,38.156,0,0,0-.187-5.7C1960.121-548.8,1959.316-549.243,1959.5-550.013Z" transform="translate(-153.362 -6.339)" fill="#d6e0f1"/>
      <path id="Trazado_587125" data-name="Trazado 587125" d="M1824.368-550.339a8.325,8.325,0,0,1,.838-.082q13.49-.006,26.98,0c.245,0,.49.042.735.064-.3.369-.722.225-1.093.226q-13.178.012-26.357,0C1825.1-550.132,1824.683-549.994,1824.368-550.339Z" transform="translate(-47.209 -6.016)" fill="#fefefe"/>
      <path id="Trazado_587126" data-name="Trazado 587126" d="M1891.636-454.865c-.626.973-1.273,1.932-1.868,2.924-.335.558-.6.78-.951.038-.1-.219-.245-.42-.369-.629a3.983,3.983,0,0,0,1.363-1.73A1.174,1.174,0,0,1,1891.636-454.865Z" transform="translate(-97.629 -81.028)" fill="#d6e0f1"/>
      <path id="Trazado_587127" data-name="Trazado 587127" d="M1835.423-459.765c-2.937-.183-5.878-.031-8.817-.084-.741-.013-1.483-.047-2.224-.071.218-.25.515-.2.793-.2q4.678,0,9.356,0C1834.859-460.111,1835.27-460.248,1835.423-459.765Z" transform="translate(-47.22 -77.06)" fill="#fefefe"/>
      <path id="Trazado_587128" data-name="Trazado 587128" d="M1919.1-459.854q-4.567.029-9.134.062c-.494,0-.988.051-1.482.078.075-.308.312-.35.573-.35,3.192,0,6.384,0,9.575.01C1918.791-460.053,1918.946-459.923,1919.1-459.854Z" transform="translate(-113.394 -77.112)" fill="#fefefe"/>
      <path id="Trazado_587129" data-name="Trazado 587129" d="M1935.938-542.662l-4.467.012a.431.431,0,0,1,.468-.34q1.75,0,3.5,0A.519.519,0,0,1,1935.938-542.662Z" transform="translate(-131.479 -11.864)" fill="#fefefe"/>
      <path id="Trazado_587130" data-name="Trazado 587130" d="M1772.08-430.4c-.021-4.416-.05-8.832-.058-13.248,0-1.481.046-2.963.072-4.444.331.273.216.653.216.992q.01,7.858,0,15.716C1772.309-431.046,1772.424-430.664,1772.08-430.4Z" transform="translate(-6.023 -86.531)" fill="#fef3cf"/>
      <path id="Trazado_587131" data-name="Trazado 587131" d="M1832.595-311.236c-.141.535-.576.275-.866.281-1.753.036-3.507.033-5.26.043.218-.494.665-.315,1.024-.319C1829.193-311.248,1830.894-311.237,1832.595-311.236Z" transform="translate(-48.861 -194.191)" fill="#fef3cf"/>
      <path id="Trazado_587132" data-name="Trazado 587132" d="M1938.46-427.31l-.209-.009c-.3-.374-.717-.231-1.086-.232-2.613-.011-5.227,0-7.84,0q-.018-4.792-.033-9.583a2.612,2.612,0,0,1,.857-1.887c2.31-2.31,4.605-4.634,6.935-6.924a2.7,2.7,0,0,1,3.906-.052,2.7,2.7,0,0,1-.082,3.91c-1.333,1.378-2.709,2.714-4.061,4.072-.421.423-1.023.867-.417,1.506s1.077.106,1.515-.332c1.355-1.357,2.727-2.7,4.063-4.071a4.255,4.255,0,0,0,.054-6.267,1.344,1.344,0,0,1-.432-1.016c.018-2.734-.015-5.468.022-8.2a2.6,2.6,0,0,1,2.77-2.7,6.428,6.428,0,0,1,1.084,2.908c-.042,5.6,0,11.192-.029,16.788a5.539,5.539,0,0,1-1.709,4.088c-1.167,1.137-2.24,2.38-3.477,3.432A4.685,4.685,0,0,0,1938.46-427.31Z" transform="translate(-129.763 -77.873)" fill="#f4e0bf"/>
      <path id="Trazado_587133" data-name="Trazado 587133" d="M1972.046-427.31a4.686,4.686,0,0,1,1.83-4.571c1.237-1.052,2.31-2.3,3.477-3.432a5.539,5.539,0,0,0,1.71-4.088c.025-5.6-.013-11.192.028-16.788a6.427,6.427,0,0,0-1.084-2.908,2.439,2.439,0,0,1,2.565,2.346c-.155.085-.123.157.016.22.024,2.056.062,4.112.069,6.169.011,3.444-.044,6.889.022,10.332a5.572,5.572,0,0,1-1.872,4.547c-1.027.925-1.914,2.011-2.96,2.912a5.924,5.924,0,0,0-2.307,5.013l-.225.245A2.873,2.873,0,0,1,1972.046-427.31Z" transform="translate(-163.35 -77.873)" fill="#efcdaa"/>
      <path id="Trazado_587134" data-name="Trazado 587134" d="M1972.757-427.309l-1.281.008c-.139-1.139.226-2.308-.212-3.429a2.01,2.01,0,0,1,1.134-1.525l.581.035,0,4.685Z" transform="translate(-162.788 -98.993)" fill="#efcdaa"/>
      <path id="Trazado_587135" data-name="Trazado 587135" d="M1929.447-311.23c2.613,0,5.227-.007,7.84,0,.37,0,.789-.142,1.086.232q-4.238.028-8.477.054C1929.7-310.94,1929.452-310.91,1929.447-311.23Z" transform="translate(-129.886 -194.197)" fill="#fef3cf"/>
      <path id="Trazado_587136" data-name="Trazado 587136" d="M1970.548-425.1c.438,1.12.073,2.29.212,3.429-.2.049-.375.008-.366-.217A11.283,11.283,0,0,1,1970.548-425.1Z" transform="translate(-162.072 -104.621)" fill="#d1b495"/>
      <path id="Trazado_587137" data-name="Trazado 587137" d="M1977.166-433.228l-.581-.035C1976.784-433.341,1977.009-433.857,1977.166-433.228Z" transform="translate(-166.975 -97.984)" fill="#f8d6b0"/>
      <path id="Trazado_587138" data-name="Trazado 587138" d="M2011.927-447.872c-.139-.064-.171-.135-.016-.22Z" transform="translate(-194.688 -86.531)" fill="#fedfb9"/>
      <path id="Trazado_587139" data-name="Trazado 587139" d="M1978.267-409.889l.224-.225C1978.516-409.94,1978.47-409.836,1978.267-409.889Z" transform="translate(-168.298 -116.413)" fill="#f8d6b0"/>
      <path id="Trazado_587140" data-name="Trazado 587140" d="M1978.248-310.918l.226-.245C1978.5-310.988,1978.437-310.895,1978.248-310.918Z" transform="translate(-168.283 -194.268)" fill="#f4e0bf"/>
      <path id="Trazado_587141" data-name="Trazado 587141" d="M1805.332-427.534l0-4.685.58-.035a2.015,2.015,0,0,1,1.134,1.525c-.437,1.12-.073,2.29-.211,3.428l-1.28-.008Z" transform="translate(-32.232 -98.993)" fill="#efcdaa"/>
      <path id="Trazado_587142" data-name="Trazado 587142" d="M1812.348-421.672c.139-1.139-.225-2.308.211-3.428a11.271,11.271,0,0,1,.155,3.211C1812.724-421.664,1812.543-421.622,1812.348-421.672Z" transform="translate(-37.743 -104.622)" fill="#d1b495"/>
      <path id="Trazado_587143" data-name="Trazado 587143" d="M1805.923-433.261l-.58.035C1805.5-433.857,1805.725-433.337,1805.923-433.261Z" transform="translate(-32.24 -97.985)" fill="#f8d6b0"/>
      <path id="Trazado_587144" data-name="Trazado 587144" d="M1805.31-410.113l.224.225C1805.332-409.835,1805.286-409.939,1805.31-410.113Z" transform="translate(-32.21 -116.413)" fill="#f8d6b0"/>
      <path id="Trazado_587145" data-name="Trazado 587145" d="M1853.778-534c2.713,0,2.714,0,2.713,2.732,0,.568.034,1.14-.02,1.7a.944.944,0,0,1-1.5.831c-1.4-.7-1.719-.654-2.792.415-1.485,1.478-2.959,2.967-4.447,4.441-.834.827-1.213.829-2.041.007-1.714-1.7-3.435-3.395-5.115-5.13-.672-.694-1.187-.687-1.862,0-2.259,2.31-4.561,4.579-6.843,6.867-.5.5-1.047,1.019-1.708.332-.645-.671-.141-1.216.363-1.719q4.035-4.025,8.063-8.057c.879-.876,1.229-.874,2.115.006,1.688,1.677,3.39,3.34,5.038,5.055.71.739,1.25.728,1.939-.012,1.04-1.117,2.154-2.164,3.228-3.25.949-.959,1.012-1.442.373-2.628-.476-.883-.125-1.526.9-1.591C1852.711-534.028,1853.245-534,1853.778-534Z" transform="translate(-51.531 -18.93)" fill="#bdde9d"/>
    </g>
  </g>
</svg>
