<svg xmlns="http://www.w3.org/2000/svg" xmlns:xlink="http://www.w3.org/1999/xlink" width="140" height="140" viewBox="0 0 140 140">
  <defs>
    <clipPath id="clip-path">
      <rect id="Rectángulo_281098" data-name="Rectángulo 281098" width="140" height="140" transform="translate(283 7754)" fill="#fff" stroke="#707070" stroke-width="1"/>
    </clipPath>
  </defs>
  <g id="Enmascarar_grupo_700378" data-name="Enmascarar grupo 700378" transform="translate(-283 -7754)" clip-path="url(#clip-path)">
    <g id="Grupo_846539" data-name="Grupo 846539" transform="translate(299.723 7770.698)">
      <path id="Trazado_586079" data-name="Trazado 586079" d="M-297.386-223.3c-1.652.725-2.619,2.2-3.782,3.46-1.521-1.044-2.654-.469-3.833.722q-9.662,9.757-19.409,19.429c-2.263,2.256-3.781,2.249-6.06-.026Q-343.749-212.974-357-226.253c-2.167-2.172-2.155-3.723.029-5.909q26.229-26.249,52.458-52.5a3.271,3.271,0,0,1,2.561-1.054c8.315.044,16.632.02,24.948.032.672,0,1.53-.279,1.92.466.453.864-.549,1.142-.943,1.636-.477.6-1.109,1.067-1.609,1.648a3.525,3.525,0,0,1-3.9,1.4c-3.5-.741-6.8,2.24-6.987,5.826a6.314,6.314,0,0,0,6.341,6.618c3.6-.034,6.786-3.212,6.1-6.722-.439-2.239.44-3.35,1.812-4.571.417-.371.759-.832,1.2-1.171.514-.4.812-1.38,1.635-1.012.757.338.506,1.221.507,1.9.008,8.246-.026,16.492.038,24.738a3.916,3.916,0,0,1-1.318,3.085c-6.063,5.993-12.057,12.057-18.115,18.055-1.244,1.232-1.6,2.4-.39,3.8-1.636.738-2.607,2.2-3.761,3.461-1.073-.676-2.172-.963-3.147.1C-298.622-225.335-298.2-224.284-297.386-223.3Zm-30.664-19.871a5.135,5.135,0,0,0,.31,1.006q3.874,7.649,7.782,15.28a2.009,2.009,0,0,0,2.789,1.113,1.9,1.9,0,0,0,.941-2.95c-.564-.955-.261-1.513.452-2.128.58-.5,1.1-1.068,1.634-1.623.907-.949,1.655-1.976,3.276-.939.9.576,1.928-.039,2.428-1.022a1.794,1.794,0,0,0-.656-2.568c-5.37-2.818-10.76-5.6-16.2-8.274C-326.637-245.938-328.026-244.827-328.05-243.173Zm4.477,21.5a6.411,6.411,0,0,0-.951-3.378c-2.065-3.262-6.141-3.895-9.464-1.374-1.149.871-2.26,1.293-3.311.118s-.516-2.3.505-3.284c.855-.821,1.71-1.647,2.494-2.535a1.947,1.947,0,0,0,.031-2.829,1.909,1.909,0,0,0-2.961-.091,41.338,41.338,0,0,0-3.51,3.586,5.69,5.69,0,0,0-1.256,4.7c.779,5,6.127,6.944,10.424,3.758,1.08-.8,2.146-1.192,3.162-.135,1.1,1.145.667,2.282-.35,3.292-.891.885-1.805,1.751-2.633,2.692a1.914,1.914,0,0,0-.042,2.668,1.9,1.9,0,0,0,2.243.657C-326.987-214.584-323.588-219.318-323.573-221.669Zm30.377-33.287a4.112,4.112,0,0,1-.814-.329,10.3,10.3,0,0,1-2.277-2.414c-.384-.8.863-1.222,1.333-1.852.289-.388.7-.686,1-1.064a1.958,1.958,0,0,0-.012-2.825,1.923,1.923,0,0,0-2.813-.177,7.384,7.384,0,0,0-1.495,1.455c-.944,1.308-1.6,1.058-2.716.024-1.4-1.306-1.507-2.222.055-3.323a5.976,5.976,0,0,0,.887-.885,2.02,2.02,0,0,0,.174-2.988,1.966,1.966,0,0,0-3.117.026c-1.307,1.256-2.585,2.543-3.851,3.842a2.119,2.119,0,0,0,.009,3.313q5.751,5.789,11.543,11.537a2,2,0,0,0,2.994.18,54.576,54.576,0,0,0,4.284-4.29,2.017,2.017,0,0,0-1.118-3.4,2.587,2.587,0,0,0-2.512,1.181C-292.231-256.256-292.759-255.518-293.2-254.955Zm-22.875-.237a2.033,2.033,0,0,0-1.993,1.146,1.974,1.974,0,0,0,.478,2.472q5.839,5.857,11.7,11.694a1.969,1.969,0,0,0,2.99.076c1.625-1.531,3.2-3.117,4.734-4.74a1.909,1.909,0,0,0-.046-2.964,2.006,2.006,0,0,0-2.989.133,18.954,18.954,0,0,0-1.921,1.925c-.832,1.028-1.43,1.1-2.422.055-2.781-2.94-5.7-5.751-8.561-8.612C-314.694-254.6-315.26-255.244-316.072-255.193Z" transform="translate(374.094 301.234)" fill="#8f83dc"/>
      <path id="Trazado_586080" data-name="Trazado 586080" d="M-312.127-251.428c-1.209-1.406-.855-2.571.39-3.8,6.059-6,12.052-12.061,18.115-18.055a3.916,3.916,0,0,0,1.318-3.085c-.064-8.246-.03-16.492-.038-24.738,0-.678.249-1.56-.507-1.9-.823-.368-1.121.615-1.635,1.012-.439.339-.78.8-1.2,1.171-1.372,1.221-2.251,2.332-1.812,4.571.687,3.51-2.5,6.688-6.1,6.722a6.314,6.314,0,0,1-6.341-6.618c.183-3.586,3.486-6.568,6.987-5.826a3.525,3.525,0,0,0,3.9-1.4c.5-.582,1.132-1.052,1.609-1.648.394-.493,1.4-.772.943-1.636-.39-.745-1.248-.465-1.92-.466-8.316-.012-16.632.012-24.948-.032a3.27,3.27,0,0,0-2.561,1.054q-26.211,26.267-52.458,52.5c-2.184,2.186-2.2,3.737-.029,5.909q13.253,13.283,26.534,26.537c2.279,2.276,3.8,2.283,6.06.026q9.724-9.7,19.409-19.43c1.179-1.191,2.311-1.766,3.833-.722.845,1.364.452,2.434-.637,3.514-6.7,6.645-13.33,13.351-20.032,19.989-3.42,3.388-7.758,3.4-11.157.016q-13.677-13.6-27.275-27.273c-3.378-3.4-3.384-7.757-.038-11.158,3.857-3.92,7.779-7.777,12.05-12.037h-8.7c-3.075,0-6.15.037-9.223-.01-4.731-.074-7.891-3.228-7.9-7.924q-.035-19.285,0-38.571a7.514,7.514,0,0,1,7.89-7.907q38.047-.025,76.094-.031a4.016,4.016,0,0,1,3.136,1.293c2.974,3.052,6.03,6.025,9.009,9.072a2.586,2.586,0,0,0,2.37.982.672.672,0,0,1,.209,0c2.174.363,4.276,2.549,6.589.075.394-.422,1.4.374,1.8,1.092a1.829,1.829,0,0,1-.465,2.457c-1.259,1-1.245,1.789.027,2.745.733.551.7,1.456.7,2.313q-.017,14.045.011,28.09a3.6,3.6,0,0,1-1.1,2.792q-9.813,9.753-19.565,19.566C-309.777-251.2-310.786-250.708-312.127-251.428Zm-38.79-35.093a10.476,10.476,0,0,1,1.074-1.547c6.655-6.685,13.428-13.255,19.945-20.07a9.3,9.3,0,0,1,7.827-3.276c5.753.276,11.528.077,17.939.077-2.349-2.3-4.3-4.149-6.183-6.075a3.254,3.254,0,0,0-2.561-1.068q-37.1.046-74.2.028c-3.031,0-4.2,1.158-4.206,4.16q-.016,18.864,0,37.729c0,2.879,1.207,4.108,4.062,4.118,6.777.025,13.554.008,20.332.01a2.408,2.408,0,0,0,1.94-.534c2.5-2.516,5.031-5.005,7.647-7.6-4.971-1.132-7.118-3.5-6.77-7.242a6.231,6.231,0,0,1,5.849-5.567C-354.527-293.562-352.163-291.326-350.918-286.52Zm-4.791-.639c-.214-1.221-.847-2.053-2.189-2.02a1.875,1.875,0,0,0-1.992,1.959,1.923,1.923,0,0,0,2.015,2.163C-356.6-285.026-355.879-285.86-355.709-287.159Zm54.157-8.695c-.2-1.252-.876-2.064-2.188-2.02a1.9,1.9,0,0,0-1.97,1.985,1.91,1.91,0,0,0,2.034,2.125C-302.363-293.742-301.707-294.577-301.551-295.853Z" transform="translate(395.498 322.679)" fill="#040404"/>
      <path id="Trazado_586081" data-name="Trazado 586081" d="M-213.81-142.225c-.815-.982-1.236-2.033-.245-3.116.976-1.067,2.074-.78,3.147-.1.532.968.79,1.95-.057,2.871A2.212,2.212,0,0,1-213.81-142.225Z" transform="translate(290.518 220.157)" fill="#0c0f0f"/>
      <path id="Trazado_586082" data-name="Trazado 586082" d="M-285.758-187.477c.025-1.654,1.413-2.765,2.753-2.107,5.443,2.674,10.833,5.457,16.2,8.274a1.794,1.794,0,0,1,.656,2.568c-.5.983-1.527,1.6-2.428,1.022-1.621-1.036-2.369-.01-3.276.939-.531.555-1.054,1.123-1.634,1.623-.712.614-1.016,1.172-.452,2.128a1.9,1.9,0,0,1-.941,2.95,2.008,2.008,0,0,1-2.789-1.113q-3.91-7.63-7.782-15.279A5.139,5.139,0,0,1-285.758-187.477Zm7.227,5.353c.489.965.992,1.8,1.345,2.691.5,1.272.968,1.106,1.852.265,1.025-.975,1.155-1.561-.309-2.048C-276.535-181.512-277.242-182.343-278.531-182.124Z" transform="translate(331.802 245.539)" fill="#030506"/>
      <path id="Trazado_586083" data-name="Trazado 586083" d="M-300.686-152.456c-.015,2.35-3.414,7.085-5.619,7.849a1.9,1.9,0,0,1-2.243-.657,1.914,1.914,0,0,1,.042-2.668c.828-.941,1.742-1.808,2.633-2.692,1.017-1.011,1.451-2.148.35-3.292-1.016-1.056-2.082-.665-3.162.136-4.3,3.187-9.645,1.242-10.424-3.758a5.69,5.69,0,0,1,1.256-4.7,41.322,41.322,0,0,1,3.51-3.586,1.909,1.909,0,0,1,2.961.091,1.947,1.947,0,0,1-.031,2.829c-.784.887-1.639,1.714-2.494,2.535-1.021.981-1.565,2.1-.505,3.284s2.162.754,3.311-.118c3.323-2.521,7.4-1.888,9.464,1.374A6.41,6.41,0,0,1-300.686-152.456Z" transform="translate(351.207 232.021)" fill="#040708"/>
      <path id="Trazado_586084" data-name="Trazado 586084" d="M-222.659-233.315c.438-.563.965-1.3,1.557-1.984a2.587,2.587,0,0,1,2.512-1.181,2.017,2.017,0,0,1,1.118,3.4,54.584,54.584,0,0,1-4.284,4.29,2,2,0,0,1-2.994-.18q-5.794-5.746-11.543-11.537a2.119,2.119,0,0,1-.009-3.313c1.265-1.3,2.543-2.586,3.851-3.842a1.966,1.966,0,0,1,3.117-.026,2.02,2.02,0,0,1-.174,2.988,5.971,5.971,0,0,1-.887.885c-1.562,1.1-1.46,2.016-.055,3.323,1.112,1.034,1.772,1.284,2.715-.024a7.385,7.385,0,0,1,1.495-1.455,1.923,1.923,0,0,1,2.813.177,1.958,1.958,0,0,1,.012,2.825c-.307.377-.714.675-1,1.064-.469.63-1.716,1.047-1.333,1.852a10.3,10.3,0,0,0,2.277,2.414A4.11,4.11,0,0,0-222.659-233.315Z" transform="translate(303.557 279.594)" fill="#040607"/>
      <path id="Trazado_586085" data-name="Trazado 586085" d="M-260.307-212.948c.812-.052,1.378.593,1.97,1.185,2.864,2.861,5.78,5.673,8.561,8.612.991,1.047,1.59.973,2.422-.055a18.954,18.954,0,0,1,1.921-1.925,2.006,2.006,0,0,1,2.989-.133,1.909,1.909,0,0,1,.046,2.964c-1.533,1.623-3.109,3.209-4.734,4.74a1.969,1.969,0,0,1-2.99-.076q-5.869-5.828-11.7-11.694a1.974,1.974,0,0,1-.478-2.472A2.033,2.033,0,0,1-260.307-212.948Z" transform="translate(318.33 258.99)" fill="#030505"/>
      <path id="Trazado_586086" data-name="Trazado 586086" d="M-345.1-280.71c-1.246-4.806-3.61-7.042-7.3-6.855A6.231,6.231,0,0,0-358.251-282c-.347,3.743,1.8,6.11,6.77,7.242-2.616,2.595-5.145,5.084-7.647,7.6a2.408,2.408,0,0,1-1.94.534c-6.777,0-13.554.015-20.332-.01-2.856-.01-4.059-1.239-4.062-4.118q-.02-18.864,0-37.729c0-3,1.175-4.16,4.206-4.16q37.1-.011,74.2-.028a3.254,3.254,0,0,1,2.561,1.068c1.878,1.927,3.834,3.778,6.183,6.075-6.411,0-12.186.2-17.939-.077a9.3,9.3,0,0,0-7.827,3.276c-6.517,6.815-13.29,13.386-19.945,20.07A10.475,10.475,0,0,0-345.1-280.71Zm-9.724-22.813c-1.279,0-1.753.96-2.274,1.885q-5.244,9.3-10.5,18.6c-.858,1.519-1.742,3.025-2.542,4.575a1.921,1.921,0,0,0,.8,2.713,1.939,1.939,0,0,0,2.759-.616,7.674,7.674,0,0,0,.652-1.072q6.227-11.032,12.446-22.068a6.029,6.029,0,0,0,.7-1.506A1.991,1.991,0,0,0-354.821-303.523Zm-14.832-.737a6.283,6.283,0,0,0-6.334,6.174,6.289,6.289,0,0,0,6.112,6.4,6.342,6.342,0,0,0,6.466-6.28A6.337,6.337,0,0,0-369.653-304.26Z" transform="translate(389.678 316.869)" fill="#f27b58"/>
      <path id="Trazado_586087" data-name="Trazado 586087" d="M-306.451-240.816c-.17,1.3-.889,2.132-2.166,2.1a1.923,1.923,0,0,1-2.015-2.163,1.875,1.875,0,0,1,1.992-1.959C-307.3-242.869-306.665-242.037-306.451-240.816Z" transform="translate(346.241 276.336)" fill="#f0f0f0"/>
      <path id="Trazado_586088" data-name="Trazado 586088" d="M-177.339-261.54c-.156,1.276-.811,2.111-2.124,2.091a1.91,1.91,0,0,1-2.034-2.126,1.9,1.9,0,0,1,1.97-1.985C-178.216-263.6-177.541-262.791-177.339-261.54Z" transform="translate(271.286 288.365)" fill="#e86d78"/>
      <path id="Trazado_586089" data-name="Trazado 586089" d="M-268.534-171.587c1.289-.219,2,.612,2.888.908,1.463.487,1.333,1.073.309,2.048-.884.841-1.349,1.007-1.852-.265C-267.542-169.789-268.045-170.622-268.534-171.587Z" transform="translate(321.805 235.002)" fill="#8cd7ec"/>
      <path id="Trazado_586090" data-name="Trazado 586090" d="M-333.987-290.874a1.992,1.992,0,0,1,2.042,2.509,6.025,6.025,0,0,1-.7,1.506q-6.215,11.038-12.446,22.068a7.666,7.666,0,0,1-.652,1.072,1.939,1.939,0,0,1-2.759.616,1.921,1.921,0,0,1-.8-2.712c.8-1.549,1.685-3.056,2.542-4.575q5.248-9.3,10.5-18.6C-335.739-289.913-335.265-290.871-333.987-290.874Z" transform="translate(368.843 304.219)" fill="#070303"/>
      <path id="Trazado_586091" data-name="Trazado 586091" d="M-356.534-292.627a6.338,6.338,0,0,1,6.245,6.291,6.342,6.342,0,0,1-6.466,6.28,6.289,6.289,0,0,1-6.112-6.4A6.283,6.283,0,0,1-356.534-292.627Zm2.051,6.232c-.222-1.263-.9-2.1-2.224-2.012a1.914,1.914,0,0,0-1.932,2.232,1.893,1.893,0,0,0,2.058,1.9C-355.253-284.28-354.63-285.145-354.484-286.4Z" transform="translate(376.559 305.236)" fill="#060404"/>
      <path id="Trazado_586092" data-name="Trazado 586092" d="M-348.641-280.566c-.146,1.251-.769,2.115-2.1,2.125a1.893,1.893,0,0,1-2.058-1.9,1.913,1.913,0,0,1,1.932-2.232C-349.537-282.665-348.864-281.83-348.641-280.566Z" transform="translate(370.717 299.407)" fill="#ededed"/>
    </g>
  </g>
</svg>
