<svg xmlns="http://www.w3.org/2000/svg" width="561.61" height="278.661" viewBox="0 0 561.61 278.661">
  <g id="Grupo_847373" data-name="Grupo 847373" transform="translate(-519.195 -1074)">
    <g id="Grupo_847372" data-name="Grupo 847372">
      <path id="Trazado_585951" data-name="Trazado 585951" d="M680.18-691.873l-165.009-.148a116.126,116.126,0,0,0-5.547-33.295,115.088,115.088,0,0,0-15.033-30.214l133.624-96.859a280.824,280.824,0,0,1,38.361,76.24A280.2,280.2,0,0,1,680.18-691.873Z" transform="translate(400.625 2044.534)" fill="#acfff0"/>
      <path id="Trazado_585952" data-name="Trazado 585952" d="M651.477-808.792,517.872-711.933a115.035,115.035,0,0,0-53.951-39.308l51.148-156.878A278.788,278.788,0,0,1,651.477-808.792Z" transform="translate(374.375 1996.836)" fill="#00e7bf"/>
      <path id="Trazado_585953" data-name="Trazado 585953" d="M566.716-902.909l-51.165,156.9a114.832,114.832,0,0,0-66.738-.056L397.96-903.076A279.181,279.181,0,0,1,566.716-902.909Z" transform="translate(317.92 1990.049)" fill="#ffd400"/>
      <path id="Trazado_585954" data-name="Trazado 585954" d="M509.206-751.211a114.961,114.961,0,0,0-54.045,39.178l-133.4-97.137a279.129,279.129,0,0,1,136.61-99.049Z" transform="translate(252.703 1996.75)" fill="#f27b58" opacity="0.75"/>
      <path id="Trazado_585955" data-name="Trazado 585955" d="M477.679-755.521a115.042,115.042,0,0,0-20.693,63.471L291.981-692.2a278.921,278.921,0,0,1,52.28-160.441Z" transform="translate(227.214 2044.32)" fill="#4a2efc" opacity="0.5"/>
      <path id="Trazado_587841" data-name="Trazado 587841" d="M9.539,17V5.625h3.5a5.315,5.315,0,0,1,2.684.676A4.712,4.712,0,0,1,17.57,8.223a5.928,5.928,0,0,1,.664,2.832v.523a5.945,5.945,0,0,1-.652,2.82,4.672,4.672,0,0,1-1.84,1.914,5.355,5.355,0,0,1-2.68.688Zm2.344-9.477v7.594h1.133a2.545,2.545,0,0,0,2.1-.9,4.06,4.06,0,0,0,.742-2.57v-.6a4.124,4.124,0,0,0-.719-2.629,2.537,2.537,0,0,0-2.1-.895ZM24.688,17a2.507,2.507,0,0,1-.227-.758,2.732,2.732,0,0,1-2.133.914,3,3,0,0,1-2.059-.719,2.312,2.312,0,0,1-.816-1.812,2.389,2.389,0,0,1,1-2.062,4.915,4.915,0,0,1,2.879-.727h1.039v-.484a1.393,1.393,0,0,0-.3-.937,1.183,1.183,0,0,0-.949-.352,1.345,1.345,0,0,0-.895.273.929.929,0,0,0-.324.75H19.641a2.268,2.268,0,0,1,.453-1.359,3,3,0,0,1,1.281-.98,4.669,4.669,0,0,1,1.859-.355,3.689,3.689,0,0,1,2.48.785,2.747,2.747,0,0,1,.918,2.207v3.664a4.041,4.041,0,0,0,.336,1.82V17ZM22.82,15.43a1.945,1.945,0,0,0,.922-.223,1.462,1.462,0,0,0,.625-.6V13.156h-.844q-1.7,0-1.8,1.172l-.008.133a.9.9,0,0,0,.3.7A1.153,1.153,0,0,0,22.82,15.43Zm8.25-8.961V8.547h1.445V10.2H31.07v4.219a1.007,1.007,0,0,0,.18.672.9.9,0,0,0,.688.2,3.6,3.6,0,0,0,.664-.055v1.711a4.648,4.648,0,0,1-1.367.2,2.156,2.156,0,0,1-2.422-2.4V10.2H27.578V8.547h1.234V6.469ZM33.188,12.7a5.013,5.013,0,0,1,.484-2.242A3.546,3.546,0,0,1,35.066,8.93a4.069,4.069,0,0,1,2.113-.539,3.849,3.849,0,0,1,2.793,1.047,4.2,4.2,0,0,1,1.207,2.844l.016.578a4.418,4.418,0,0,1-1.086,3.121,4.209,4.209,0,0,1-5.832,0,4.5,4.5,0,0,1-1.09-3.187Zm2.258.16A3.16,3.16,0,0,0,35.9,14.7a1.628,1.628,0,0,0,2.578.008,3.457,3.457,0,0,0,.461-2.015,3.128,3.128,0,0,0-.461-1.831,1.5,1.5,0,0,0-1.3-.649,1.474,1.474,0,0,0-1.281.646A3.516,3.516,0,0,0,35.445,12.856Zm11.719,1.808a.727.727,0,0,0-.41-.652,4.659,4.659,0,0,0-1.316-.426q-3.016-.633-3.016-2.562a2.323,2.323,0,0,1,.934-1.879A3.766,3.766,0,0,1,45.8,8.391a4.053,4.053,0,0,1,2.574.758,2.388,2.388,0,0,1,.965,1.969H47.078a1.092,1.092,0,0,0-.312-.8A1.322,1.322,0,0,0,45.789,10a1.351,1.351,0,0,0-.883.258.814.814,0,0,0-.312.656.7.7,0,0,0,.355.605,3.657,3.657,0,0,0,1.2.4,9.8,9.8,0,0,1,1.422.379,2.336,2.336,0,0,1,1.789,2.273,2.2,2.2,0,0,1-.992,1.871,4.28,4.28,0,0,1-2.562.715,4.47,4.47,0,0,1-1.887-.379,3.166,3.166,0,0,1-1.293-1.039,2.414,2.414,0,0,1-.469-1.426H44.3a1.179,1.179,0,0,0,.445.922,1.766,1.766,0,0,0,1.109.32,1.635,1.635,0,0,0,.98-.246A.766.766,0,0,0,47.164,14.664Zm7.281-1.953a5.094,5.094,0,0,1,.887-3.148,2.877,2.877,0,0,1,2.426-1.172,2.589,2.589,0,0,1,2.039.922V5h2.266V17H60.023l-.109-.9a2.657,2.657,0,0,1-2.172,1.055,2.869,2.869,0,0,1-2.395-1.176A5.258,5.258,0,0,1,54.445,12.711Zm2.258.168a3.337,3.337,0,0,0,.414,1.823,1.349,1.349,0,0,0,1.2.634,1.511,1.511,0,0,0,1.477-.884V11.111a1.489,1.489,0,0,0-1.461-.884Q56.7,10.227,56.7,12.879Zm11,4.277a4.15,4.15,0,0,1-3.027-1.141,4.054,4.054,0,0,1-1.168-3.039v-.219A5.106,5.106,0,0,1,64,10.48a3.612,3.612,0,0,1,1.395-1.547,3.914,3.914,0,0,1,2.059-.543,3.508,3.508,0,0,1,2.73,1.094,4.444,4.444,0,0,1,1,3.1v.922H65.8a2.1,2.1,0,0,0,.66,1.328,2,2,0,0,0,1.395.5,2.437,2.437,0,0,0,2.039-.945L71,15.633a3.389,3.389,0,0,1-1.375,1.121A4.511,4.511,0,0,1,67.7,17.156Zm-.258-6.945a1.411,1.411,0,0,0-1.09.455,2.357,2.357,0,0,0-.535,1.3h3.141v-.181a1.681,1.681,0,0,0-.406-1.165A1.456,1.456,0,0,0,67.445,10.211Zm12.516,5.125a1.481,1.481,0,0,0,1.016-.344,1.2,1.2,0,0,0,.406-.914H83.5a2.9,2.9,0,0,1-.469,1.574,3.093,3.093,0,0,1-1.262,1.109,3.949,3.949,0,0,1-1.77.395A3.67,3.67,0,0,1,77.141,16a4.56,4.56,0,0,1-1.047-3.184v-.148a4.508,4.508,0,0,1,1.039-3.117,3.627,3.627,0,0,1,2.852-1.164,3.555,3.555,0,0,1,2.543.9,3.2,3.2,0,0,1,.973,2.4H81.383a1.551,1.551,0,0,0-.406-1.072,1.51,1.51,0,0,0-2.223.163,3.333,3.333,0,0,0-.4,1.866v.235a3.375,3.375,0,0,0,.4,1.878A1.377,1.377,0,0,0,79.961,15.336ZM84.438,12.7a5.013,5.013,0,0,1,.484-2.242A3.546,3.546,0,0,1,86.316,8.93a4.069,4.069,0,0,1,2.113-.539,3.849,3.849,0,0,1,2.793,1.047,4.2,4.2,0,0,1,1.207,2.844l.016.578a4.418,4.418,0,0,1-1.086,3.121,4.209,4.209,0,0,1-5.832,0,4.5,4.5,0,0,1-1.09-3.187Zm2.258.16a3.16,3.16,0,0,0,.453,1.843,1.628,1.628,0,0,0,2.578.008,3.457,3.457,0,0,0,.461-2.015,3.128,3.128,0,0,0-.461-1.831,1.5,1.5,0,0,0-1.3-.649,1.474,1.474,0,0,0-1.281.646A3.516,3.516,0,0,0,86.7,12.856Zm9.219-4.309.07.977a2.951,2.951,0,0,1,2.43-1.133,2.453,2.453,0,0,1,2,.789,3.682,3.682,0,0,1,.672,2.359V17H98.828V11.594a1.465,1.465,0,0,0-.312-1.043,1.4,1.4,0,0,0-1.039-.324,1.553,1.553,0,0,0-1.43.813V17H93.789V8.547ZM105.5,6.469V8.547h1.445V10.2H105.5v4.219a1.007,1.007,0,0,0,.18.672.9.9,0,0,0,.688.2,3.6,3.6,0,0,0,.664-.055v1.711a4.648,4.648,0,0,1-1.367.2,2.156,2.156,0,0,1-2.422-2.4V10.2h-1.234V8.547h1.234V6.469ZM113.1,17a2.507,2.507,0,0,1-.227-.758,2.732,2.732,0,0,1-2.133.914,3,3,0,0,1-2.059-.719,2.312,2.312,0,0,1-.816-1.812,2.389,2.389,0,0,1,1-2.062,4.915,4.915,0,0,1,2.879-.727h1.039v-.484a1.393,1.393,0,0,0-.3-.937,1.183,1.183,0,0,0-.949-.352,1.345,1.345,0,0,0-.895.273.929.929,0,0,0-.324.75h-2.258a2.268,2.268,0,0,1,.453-1.359,3,3,0,0,1,1.281-.98,4.669,4.669,0,0,1,1.859-.355,3.689,3.689,0,0,1,2.48.785,2.747,2.747,0,0,1,.918,2.207v3.664a4.041,4.041,0,0,0,.336,1.82V17Zm-1.867-1.57a1.945,1.945,0,0,0,.922-.223,1.462,1.462,0,0,0,.625-.6V13.156h-.844q-1.7,0-1.8,1.172l-.008.133a.9.9,0,0,0,.3.7A1.153,1.153,0,0,0,111.234,15.43Zm9.063-.094a1.481,1.481,0,0,0,1.016-.344,1.2,1.2,0,0,0,.406-.914h2.117a2.9,2.9,0,0,1-.469,1.574,3.093,3.093,0,0,1-1.262,1.109,3.949,3.949,0,0,1-1.77.395A3.67,3.67,0,0,1,117.477,16a4.56,4.56,0,0,1-1.047-3.184v-.148a4.508,4.508,0,0,1,1.039-3.117,3.627,3.627,0,0,1,2.852-1.164,3.555,3.555,0,0,1,2.543.9,3.2,3.2,0,0,1,.973,2.4h-2.117a1.551,1.551,0,0,0-.406-1.072,1.51,1.51,0,0,0-2.223.163,3.333,3.333,0,0,0-.4,1.866v.235a3.375,3.375,0,0,0,.4,1.878A1.377,1.377,0,0,0,120.3,15.336Zm7.531-8.867V8.547h1.445V10.2h-1.445v4.219a1.007,1.007,0,0,0,.18.672.9.9,0,0,0,.688.2,3.6,3.6,0,0,0,.664-.055v1.711a4.648,4.648,0,0,1-1.367.2,2.156,2.156,0,0,1-2.422-2.4V10.2h-1.234V8.547h1.234V6.469Zm2.117,6.227a5.013,5.013,0,0,1,.484-2.242,3.546,3.546,0,0,1,1.395-1.523,4.069,4.069,0,0,1,2.113-.539,3.849,3.849,0,0,1,2.793,1.047,4.2,4.2,0,0,1,1.207,2.844l.016.578a4.418,4.418,0,0,1-1.086,3.121,4.209,4.209,0,0,1-5.832,0,4.5,4.5,0,0,1-1.09-3.187Zm2.258.16a3.16,3.16,0,0,0,.453,1.843,1.628,1.628,0,0,0,2.578.008,3.457,3.457,0,0,0,.461-2.015,3.128,3.128,0,0,0-.461-1.831,1.5,1.5,0,0,0-1.3-.649,1.474,1.474,0,0,0-1.281.646A3.516,3.516,0,0,0,132.2,12.856ZM27.441,34.711a5.094,5.094,0,0,1,.887-3.148,2.877,2.877,0,0,1,2.426-1.172,2.589,2.589,0,0,1,2.039.922V27h2.266V39H33.02l-.109-.9a2.657,2.657,0,0,1-2.172,1.055,2.869,2.869,0,0,1-2.395-1.176A5.258,5.258,0,0,1,27.441,34.711Zm2.258.168a3.337,3.337,0,0,0,.414,1.823,1.349,1.349,0,0,0,1.2.634,1.511,1.511,0,0,0,1.477-.884V33.111a1.489,1.489,0,0,0-1.461-.884Q29.7,32.227,29.7,34.879Zm11,4.277a4.15,4.15,0,0,1-3.027-1.141A4.054,4.054,0,0,1,36.5,34.977v-.219A5.106,5.106,0,0,1,37,32.48a3.612,3.612,0,0,1,1.395-1.547,3.914,3.914,0,0,1,2.059-.543,3.508,3.508,0,0,1,2.73,1.094,4.444,4.444,0,0,1,1,3.1v.922H38.793a2.1,2.1,0,0,0,.66,1.328,2,2,0,0,0,1.395.5,2.437,2.437,0,0,0,2.039-.945L44,37.633a3.389,3.389,0,0,1-1.375,1.121A4.511,4.511,0,0,1,40.7,39.156Zm-.258-6.945a1.411,1.411,0,0,0-1.09.455,2.357,2.357,0,0,0-.535,1.3h3.141v-.181a1.681,1.681,0,0,0-.406-1.165A1.456,1.456,0,0,0,40.441,32.211ZM47.84,39H45.574V27H47.84Zm9.008-2.758,1.57-5.7h2.359L57.926,39H55.77l-2.852-8.453h2.359Zm8.813,2.914a4.15,4.15,0,0,1-3.027-1.141,4.054,4.054,0,0,1-1.168-3.039v-.219a5.106,5.106,0,0,1,.492-2.277,3.612,3.612,0,0,1,1.395-1.547,3.914,3.914,0,0,1,2.059-.543,3.508,3.508,0,0,1,2.73,1.094,4.444,4.444,0,0,1,1,3.1v.922H63.754a2.1,2.1,0,0,0,.66,1.328,2,2,0,0,0,1.395.5,2.437,2.437,0,0,0,2.039-.945l1.109,1.242a3.389,3.389,0,0,1-1.375,1.121A4.511,4.511,0,0,1,65.66,39.156ZM65.4,32.211a1.411,1.411,0,0,0-1.09.455,2.357,2.357,0,0,0-.535,1.3h3.141v-.181a1.681,1.681,0,0,0-.406-1.165A1.456,1.456,0,0,0,65.4,32.211ZM72.5,30.547l.07.977A2.951,2.951,0,0,1,75,30.391a2.453,2.453,0,0,1,2,.789,3.682,3.682,0,0,1,.672,2.359V39H75.41V33.594a1.465,1.465,0,0,0-.312-1.043,1.4,1.4,0,0,0-1.039-.324,1.553,1.553,0,0,0-1.43.813V39H70.371V30.547Zm6.531,4.164a5.094,5.094,0,0,1,.887-3.148,2.877,2.877,0,0,1,2.426-1.172,2.589,2.589,0,0,1,2.039.922V27h2.266V39H84.605l-.109-.9a2.657,2.657,0,0,1-2.172,1.055A2.869,2.869,0,0,1,79.93,37.98,5.258,5.258,0,0,1,79.027,34.711Zm2.258.168A3.337,3.337,0,0,0,81.7,36.7a1.349,1.349,0,0,0,1.2.634,1.511,1.511,0,0,0,1.477-.884V33.111a1.489,1.489,0,0,0-1.461-.884Q81.285,32.227,81.285,34.879Zm11,4.277a4.15,4.15,0,0,1-3.027-1.141,4.054,4.054,0,0,1-1.168-3.039v-.219a5.106,5.106,0,0,1,.492-2.277,3.612,3.612,0,0,1,1.395-1.547,3.914,3.914,0,0,1,2.059-.543,3.508,3.508,0,0,1,2.73,1.094,4.444,4.444,0,0,1,1,3.1v.922H90.379a2.1,2.1,0,0,0,.66,1.328,2,2,0,0,0,1.395.5,2.437,2.437,0,0,0,2.039-.945l1.109,1.242a3.389,3.389,0,0,1-1.375,1.121A4.511,4.511,0,0,1,92.285,39.156Zm-.258-6.945a1.411,1.411,0,0,0-1.09.455,2.357,2.357,0,0,0-.535,1.3h3.141v-.181a1.681,1.681,0,0,0-.406-1.165A1.456,1.456,0,0,0,92.027,32.211Zm4.664,2.5a5.094,5.094,0,0,1,.887-3.148A2.877,2.877,0,0,1,100,30.391a2.589,2.589,0,0,1,2.039.922V27h2.266V39H102.27l-.109-.9a2.657,2.657,0,0,1-2.172,1.055,2.869,2.869,0,0,1-2.395-1.176A5.258,5.258,0,0,1,96.691,34.711Zm2.258.168a3.337,3.337,0,0,0,.414,1.823,1.349,1.349,0,0,0,1.2.634,1.511,1.511,0,0,0,1.477-.884V33.111a1.489,1.489,0,0,0-1.461-.884Q98.949,32.227,98.949,34.879Zm6.758-.184a5.013,5.013,0,0,1,.484-2.242,3.546,3.546,0,0,1,1.395-1.523,4.069,4.069,0,0,1,2.113-.539,3.849,3.849,0,0,1,2.793,1.047,4.2,4.2,0,0,1,1.207,2.844l.016.578a4.418,4.418,0,0,1-1.086,3.121,4.209,4.209,0,0,1-5.832,0,4.5,4.5,0,0,1-1.09-3.187Zm2.258.16a3.16,3.16,0,0,0,.453,1.843,1.628,1.628,0,0,0,2.578.008,3.457,3.457,0,0,0,.461-2.015A3.128,3.128,0,0,0,111,32.86a1.5,1.5,0,0,0-1.3-.649,1.474,1.474,0,0,0-1.281.646A3.516,3.516,0,0,0,107.965,34.856Zm11.891-2.192a6.134,6.134,0,0,0-.812-.062,1.654,1.654,0,0,0-1.68.867V39h-2.258V30.547h2.133l.063,1.008a2.092,2.092,0,0,1,1.883-1.164,2.366,2.366,0,0,1,.7.1Z" transform="translate(922 1282.842)" fill="#12263f"/>
      <path id="Trazado_587838" data-name="Trazado 587838" d="M7.926,12.992V17H5.582V5.625H10.02a5.134,5.134,0,0,1,2.254.469,3.454,3.454,0,0,1,1.5,1.332,3.714,3.714,0,0,1,.523,1.965,3.266,3.266,0,0,1-1.145,2.637,4.767,4.767,0,0,1-3.168.965Zm0-1.9H10.02a2.059,2.059,0,0,0,1.418-.437,1.591,1.591,0,0,0,.488-1.25,1.876,1.876,0,0,0-.492-1.352,1.839,1.839,0,0,0-1.359-.531H7.926Zm12.578-.43a6.134,6.134,0,0,0-.812-.062,1.654,1.654,0,0,0-1.68.867V17H15.754V8.547h2.133l.063,1.008a2.092,2.092,0,0,1,1.883-1.164,2.366,2.366,0,0,1,.7.1Zm4.977,6.492a4.15,4.15,0,0,1-3.027-1.141,4.054,4.054,0,0,1-1.168-3.039v-.219a5.106,5.106,0,0,1,.492-2.277,3.612,3.612,0,0,1,1.395-1.547,3.914,3.914,0,0,1,2.059-.543,3.508,3.508,0,0,1,2.73,1.094,4.444,4.444,0,0,1,1,3.1v.922H23.574a2.1,2.1,0,0,0,.66,1.328,2,2,0,0,0,1.395.5,2.437,2.437,0,0,0,2.039-.945l1.109,1.242A3.389,3.389,0,0,1,27.4,16.754,4.511,4.511,0,0,1,25.48,17.156Zm-.258-6.945a1.411,1.411,0,0,0-1.09.455,2.357,2.357,0,0,0-.535,1.3h3.141v-.181a1.681,1.681,0,0,0-.406-1.165A1.456,1.456,0,0,0,25.223,10.211Zm9.594,4.453a.727.727,0,0,0-.41-.652,4.659,4.659,0,0,0-1.316-.426q-3.016-.633-3.016-2.562a2.323,2.323,0,0,1,.934-1.879,3.766,3.766,0,0,1,2.441-.754,4.053,4.053,0,0,1,2.574.758,2.388,2.388,0,0,1,.965,1.969H34.73a1.092,1.092,0,0,0-.312-.8A1.322,1.322,0,0,0,33.441,10a1.351,1.351,0,0,0-.883.258.814.814,0,0,0-.312.656.7.7,0,0,0,.355.605,3.657,3.657,0,0,0,1.2.4,9.8,9.8,0,0,1,1.422.379,2.336,2.336,0,0,1,1.789,2.273,2.2,2.2,0,0,1-.992,1.871,4.28,4.28,0,0,1-2.562.715,4.47,4.47,0,0,1-1.887-.379,3.166,3.166,0,0,1-1.293-1.039,2.414,2.414,0,0,1-.469-1.426h2.141a1.179,1.179,0,0,0,.445.922,1.766,1.766,0,0,0,1.109.32,1.635,1.635,0,0,0,.98-.246A.766.766,0,0,0,34.816,14.664Zm7.539,2.492a4.15,4.15,0,0,1-3.027-1.141,4.054,4.054,0,0,1-1.168-3.039v-.219a5.106,5.106,0,0,1,.492-2.277,3.612,3.612,0,0,1,1.395-1.547,3.914,3.914,0,0,1,2.059-.543,3.508,3.508,0,0,1,2.73,1.094,4.444,4.444,0,0,1,1,3.1v.922H40.449a2.1,2.1,0,0,0,.66,1.328,2,2,0,0,0,1.395.5,2.437,2.437,0,0,0,2.039-.945l1.109,1.242a3.389,3.389,0,0,1-1.375,1.121A4.511,4.511,0,0,1,42.355,17.156ZM42.1,10.211a1.411,1.411,0,0,0-1.09.455,2.357,2.357,0,0,0-.535,1.3h3.141v-.181a1.681,1.681,0,0,0-.406-1.165A1.456,1.456,0,0,0,42.1,10.211Zm7.094-1.664.07.977a2.951,2.951,0,0,1,2.43-1.133,2.453,2.453,0,0,1,2,.789,3.682,3.682,0,0,1,.672,2.359V17H52.105V11.594a1.465,1.465,0,0,0-.312-1.043,1.4,1.4,0,0,0-1.039-.324,1.553,1.553,0,0,0-1.43.813V17H47.066V8.547Zm9.586-2.078V8.547h1.445V10.2H58.777v4.219a1.007,1.007,0,0,0,.18.672.9.9,0,0,0,.688.2,3.6,3.6,0,0,0,.664-.055v1.711a4.648,4.648,0,0,1-1.367.2,2.156,2.156,0,0,1-2.422-2.4V10.2H55.285V8.547H56.52V6.469ZM66.379,17a2.507,2.507,0,0,1-.227-.758,2.732,2.732,0,0,1-2.133.914,3,3,0,0,1-2.059-.719,2.312,2.312,0,0,1-.816-1.812,2.389,2.389,0,0,1,1-2.062,4.915,4.915,0,0,1,2.879-.727h1.039v-.484a1.393,1.393,0,0,0-.3-.937,1.183,1.183,0,0,0-.949-.352,1.345,1.345,0,0,0-.895.273.929.929,0,0,0-.324.75H61.332a2.268,2.268,0,0,1,.453-1.359,3,3,0,0,1,1.281-.98,4.669,4.669,0,0,1,1.859-.355,3.689,3.689,0,0,1,2.48.785,2.747,2.747,0,0,1,.918,2.207v3.664a4.041,4.041,0,0,0,.336,1.82V17Zm-1.867-1.57a1.945,1.945,0,0,0,.922-.223,1.462,1.462,0,0,0,.625-.6V13.156h-.844q-1.7,0-1.8,1.172l-.008.133a.9.9,0,0,0,.3.7A1.153,1.153,0,0,0,64.512,15.43Zm9.063-.094a1.481,1.481,0,0,0,1.016-.344A1.2,1.2,0,0,0,75,14.078h2.117a2.9,2.9,0,0,1-.469,1.574,3.093,3.093,0,0,1-1.262,1.109,3.949,3.949,0,0,1-1.77.395A3.67,3.67,0,0,1,70.754,16a4.56,4.56,0,0,1-1.047-3.184v-.148a4.508,4.508,0,0,1,1.039-3.117A3.627,3.627,0,0,1,73.6,8.391a3.555,3.555,0,0,1,2.543.9,3.2,3.2,0,0,1,.973,2.4H75a1.551,1.551,0,0,0-.406-1.072,1.51,1.51,0,0,0-2.223.163,3.333,3.333,0,0,0-.4,1.866v.235a3.375,3.375,0,0,0,.4,1.878A1.377,1.377,0,0,0,73.574,15.336ZM80.785,17H78.52V8.547h2.266Zm-2.4-10.641a1.112,1.112,0,0,1,.34-.836,1.465,1.465,0,0,1,1.848,0,1.105,1.105,0,0,1,.344.836,1.108,1.108,0,0,1-.348.844,1.448,1.448,0,0,1-1.836,0A1.108,1.108,0,0,1,78.387,6.359ZM82.293,12.7a5.013,5.013,0,0,1,.484-2.242A3.546,3.546,0,0,1,84.172,8.93a4.069,4.069,0,0,1,2.113-.539,3.849,3.849,0,0,1,2.793,1.047,4.2,4.2,0,0,1,1.207,2.844l.016.578a4.418,4.418,0,0,1-1.086,3.121,4.209,4.209,0,0,1-5.832,0,4.5,4.5,0,0,1-1.09-3.187Zm2.258.16A3.16,3.16,0,0,0,85,14.7a1.628,1.628,0,0,0,2.578.008,3.457,3.457,0,0,0,.461-2.015,3.128,3.128,0,0,0-.461-1.831,1.5,1.5,0,0,0-1.3-.649A1.474,1.474,0,0,0,85,10.856,3.516,3.516,0,0,0,84.551,12.856ZM86.73,5h2.461L87.027,7.422H85.191ZM93.77,8.547l.07.977a2.951,2.951,0,0,1,2.43-1.133,2.453,2.453,0,0,1,2,.789,3.682,3.682,0,0,1,.672,2.359V17H96.684V11.594a1.465,1.465,0,0,0-.312-1.043,1.4,1.4,0,0,0-1.039-.324,1.553,1.553,0,0,0-1.43.813V17H91.645V8.547Zm10.516,4.164a5.094,5.094,0,0,1,.887-3.148A2.877,2.877,0,0,1,107.6,8.391a2.589,2.589,0,0,1,2.039.922V5H111.9V17h-2.039l-.109-.9a2.657,2.657,0,0,1-2.172,1.055,2.869,2.869,0,0,1-2.395-1.176A5.258,5.258,0,0,1,104.285,12.711Zm2.258.168a3.337,3.337,0,0,0,.414,1.823,1.349,1.349,0,0,0,1.2.634,1.511,1.511,0,0,0,1.477-.884V11.111a1.489,1.489,0,0,0-1.461-.884Q106.543,10.227,106.543,12.879Zm11,4.277a4.15,4.15,0,0,1-3.027-1.141,4.054,4.054,0,0,1-1.168-3.039v-.219a5.106,5.106,0,0,1,.492-2.277,3.612,3.612,0,0,1,1.395-1.547,3.914,3.914,0,0,1,2.059-.543,3.508,3.508,0,0,1,2.73,1.094,4.444,4.444,0,0,1,1,3.1v.922h-5.383a2.1,2.1,0,0,0,.66,1.328,2,2,0,0,0,1.395.5,2.437,2.437,0,0,0,2.039-.945l1.109,1.242a3.389,3.389,0,0,1-1.375,1.121A4.511,4.511,0,0,1,117.543,17.156Zm-.258-6.945a1.411,1.411,0,0,0-1.09.455,2.357,2.357,0,0,0-.535,1.3H118.8v-.181a1.681,1.681,0,0,0-.406-1.165A1.456,1.456,0,0,0,117.285,10.211ZM26.449,39H24.184V27h2.266Zm6.758,0a2.507,2.507,0,0,1-.227-.758,2.732,2.732,0,0,1-2.133.914,3,3,0,0,1-2.059-.719,2.312,2.312,0,0,1-.816-1.812,2.389,2.389,0,0,1,1-2.062,4.915,4.915,0,0,1,2.879-.727h1.039v-.484a1.393,1.393,0,0,0-.3-.937,1.183,1.183,0,0,0-.949-.352,1.345,1.345,0,0,0-.895.273.929.929,0,0,0-.324.75H28.16a2.268,2.268,0,0,1,.453-1.359,3,3,0,0,1,1.281-.98,4.669,4.669,0,0,1,1.859-.355,3.689,3.689,0,0,1,2.48.785,2.747,2.747,0,0,1,.918,2.207v3.664a4.041,4.041,0,0,0,.336,1.82V39ZM31.34,37.43a1.945,1.945,0,0,0,.922-.223,1.462,1.462,0,0,0,.625-.6V35.156h-.844q-1.7,0-1.8,1.172l-.008.133a.9.9,0,0,0,.3.7A1.153,1.153,0,0,0,31.34,37.43Zm13.422,1.727a4.15,4.15,0,0,1-3.027-1.141,4.054,4.054,0,0,1-1.168-3.039v-.219a5.106,5.106,0,0,1,.492-2.277,3.612,3.612,0,0,1,1.395-1.547,3.914,3.914,0,0,1,2.059-.543,3.508,3.508,0,0,1,2.73,1.094,4.444,4.444,0,0,1,1,3.1v.922H42.855a2.1,2.1,0,0,0,.66,1.328,2,2,0,0,0,1.395.5,2.437,2.437,0,0,0,2.039-.945l1.109,1.242a3.389,3.389,0,0,1-1.375,1.121A4.511,4.511,0,0,1,44.762,39.156ZM44.5,32.211a1.411,1.411,0,0,0-1.09.455,2.357,2.357,0,0,0-.535,1.3H46.02v-.181a1.681,1.681,0,0,0-.406-1.165A1.456,1.456,0,0,0,44.5,32.211Zm7.133-1.664.07.945a2.971,2.971,0,0,1,2.43-1.1,2.255,2.255,0,0,1,2.242,1.289,2.9,2.9,0,0,1,2.539-1.289,2.521,2.521,0,0,1,2.047.8,3.681,3.681,0,0,1,.672,2.41V39H59.371V33.609a1.61,1.61,0,0,0-.281-1.051,1.246,1.246,0,0,0-.992-.332,1.409,1.409,0,0,0-1.406.969L56.7,39H54.441V33.617a1.59,1.59,0,0,0-.289-1.062,1.259,1.259,0,0,0-.984-.328,1.463,1.463,0,0,0-1.391.8V39H49.52V30.547Zm19.344,4.3a5.07,5.07,0,0,1-.887,3.129A2.843,2.843,0,0,1,67.7,39.156a2.633,2.633,0,0,1-2.07-.891V42.25H63.371v-11.7h2.094l.078.828a2.654,2.654,0,0,1,2.141-.984,2.862,2.862,0,0,1,2.43,1.156,5.207,5.207,0,0,1,.867,3.188Zm-2.258-.164a3.327,3.327,0,0,0-.418-1.82,1.361,1.361,0,0,0-1.215-.641,1.478,1.478,0,0,0-1.461.813V36.5a1.5,1.5,0,0,0,1.477.836Q68.723,37.336,68.723,34.688Zm8.406-2.023a6.134,6.134,0,0,0-.812-.062,1.654,1.654,0,0,0-1.68.867V39H72.379V30.547h2.133l.063,1.008a2.092,2.092,0,0,1,1.883-1.164,2.366,2.366,0,0,1,.7.1Zm4.977,6.492a4.15,4.15,0,0,1-3.027-1.141,4.054,4.054,0,0,1-1.168-3.039v-.219A5.106,5.106,0,0,1,78.4,32.48,3.612,3.612,0,0,1,79.8,30.934a3.914,3.914,0,0,1,2.059-.543,3.508,3.508,0,0,1,2.73,1.094,4.444,4.444,0,0,1,1,3.1v.922H80.2a2.1,2.1,0,0,0,.66,1.328,2,2,0,0,0,1.395.5,2.437,2.437,0,0,0,2.039-.945L85.4,37.633a3.389,3.389,0,0,1-1.375,1.121A4.511,4.511,0,0,1,82.105,39.156Zm-.258-6.945a1.411,1.411,0,0,0-1.09.455,2.357,2.357,0,0,0-.535,1.3h3.141v-.181a1.681,1.681,0,0,0-.406-1.165A1.456,1.456,0,0,0,81.848,32.211Zm9.594,4.453a.727.727,0,0,0-.41-.652,4.659,4.659,0,0,0-1.316-.426Q86.7,34.953,86.7,33.023a2.323,2.323,0,0,1,.934-1.879,3.766,3.766,0,0,1,2.441-.754,4.053,4.053,0,0,1,2.574.758,2.388,2.388,0,0,1,.965,1.969H91.355a1.092,1.092,0,0,0-.312-.8A1.322,1.322,0,0,0,90.066,32a1.351,1.351,0,0,0-.883.258.814.814,0,0,0-.312.656.7.7,0,0,0,.355.605,3.657,3.657,0,0,0,1.2.4,9.8,9.8,0,0,1,1.422.379,2.336,2.336,0,0,1,1.789,2.273,2.2,2.2,0,0,1-.992,1.871,4.28,4.28,0,0,1-2.562.715,4.47,4.47,0,0,1-1.887-.379A3.166,3.166,0,0,1,86.9,37.738a2.414,2.414,0,0,1-.469-1.426h2.141a1.179,1.179,0,0,0,.445.922,1.766,1.766,0,0,0,1.109.32,1.635,1.635,0,0,0,.98-.246A.766.766,0,0,0,91.441,36.664ZM99.988,39a2.507,2.507,0,0,1-.227-.758,2.732,2.732,0,0,1-2.133.914,3,3,0,0,1-2.059-.719,2.312,2.312,0,0,1-.816-1.812,2.389,2.389,0,0,1,1-2.062,4.915,4.915,0,0,1,2.879-.727h1.039v-.484a1.393,1.393,0,0,0-.3-.937,1.183,1.183,0,0,0-.949-.352,1.345,1.345,0,0,0-.895.273.929.929,0,0,0-.324.75H94.941a2.268,2.268,0,0,1,.453-1.359,3,3,0,0,1,1.281-.98,4.669,4.669,0,0,1,1.859-.355,3.689,3.689,0,0,1,2.48.785,2.747,2.747,0,0,1,.918,2.207v3.664a4.041,4.041,0,0,0,.336,1.82V39Zm-1.867-1.57a1.945,1.945,0,0,0,.922-.223,1.462,1.462,0,0,0,.625-.6V35.156h-.844q-1.7,0-1.8,1.172l-.008.133a.9.9,0,0,0,.3.7A1.153,1.153,0,0,0,98.121,37.43Z" transform="translate(605.186 1167.273)" fill="#12263f"/>
      <path id="Trazado_587840" data-name="Trazado 587840" d="M12.09,14.18l2.578-8.555h2.609L13.316,17H10.871L6.926,5.625h2.6ZM20.582,17H18.316V8.547h2.266Zm-2.4-10.641a1.112,1.112,0,0,1,.34-.836,1.465,1.465,0,0,1,1.848,0,1.105,1.105,0,0,1,.344.836,1.108,1.108,0,0,1-.348.844,1.448,1.448,0,0,1-1.836,0A1.108,1.108,0,0,1,18.184,6.359Zm3.93,6.352a4.954,4.954,0,0,1,.926-3.133,3,3,0,0,1,2.5-1.187,2.631,2.631,0,0,1,2.164.953l.094-.8H29.84v8.172a3.613,3.613,0,0,1-.5,1.93,3.236,3.236,0,0,1-1.418,1.25,4.985,4.985,0,0,1-2.141.43,4.635,4.635,0,0,1-1.812-.371A3.217,3.217,0,0,1,22.629,19l1-1.375a2.645,2.645,0,0,0,2.047.945,1.936,1.936,0,0,0,1.4-.48,1.8,1.8,0,0,0,.5-1.363v-.453a2.612,2.612,0,0,1-2.055.883,2.992,2.992,0,0,1-2.465-1.191,4.953,4.953,0,0,1-.941-3.16Zm2.258.168a3.085,3.085,0,0,0,.461,1.8,1.466,1.466,0,0,0,1.266.653,1.568,1.568,0,0,0,1.477-.775V11a1.564,1.564,0,0,0-1.461-.775,1.476,1.476,0,0,0-1.277.665A3.477,3.477,0,0,0,24.371,12.879Zm11.094,4.277a4.15,4.15,0,0,1-3.027-1.141,4.054,4.054,0,0,1-1.168-3.039v-.219a5.106,5.106,0,0,1,.492-2.277,3.612,3.612,0,0,1,1.395-1.547,3.914,3.914,0,0,1,2.059-.543,3.508,3.508,0,0,1,2.73,1.094,4.444,4.444,0,0,1,1,3.1v.922H33.559a2.1,2.1,0,0,0,.66,1.328,2,2,0,0,0,1.395.5,2.437,2.437,0,0,0,2.039-.945l1.109,1.242a3.389,3.389,0,0,1-1.375,1.121A4.511,4.511,0,0,1,35.465,17.156Zm-.258-6.945a1.411,1.411,0,0,0-1.09.455,2.357,2.357,0,0,0-.535,1.3h3.141v-.181a1.681,1.681,0,0,0-.406-1.165A1.456,1.456,0,0,0,35.207,10.211ZM42.3,8.547l.07.977A2.951,2.951,0,0,1,44.8,8.391a2.453,2.453,0,0,1,2,.789,3.682,3.682,0,0,1,.672,2.359V17H45.215V11.594a1.465,1.465,0,0,0-.312-1.043,1.4,1.4,0,0,0-1.039-.324,1.553,1.553,0,0,0-1.43.813V17H40.176V8.547Zm10.4,6.789a1.481,1.481,0,0,0,1.016-.344,1.2,1.2,0,0,0,.406-.914h2.117a2.9,2.9,0,0,1-.469,1.574,3.093,3.093,0,0,1-1.262,1.109,3.949,3.949,0,0,1-1.77.395A3.67,3.67,0,0,1,49.879,16a4.56,4.56,0,0,1-1.047-3.184v-.148a4.508,4.508,0,0,1,1.039-3.117,3.627,3.627,0,0,1,2.852-1.164,3.555,3.555,0,0,1,2.543.9,3.2,3.2,0,0,1,.973,2.4H54.121a1.551,1.551,0,0,0-.406-1.072,1.51,1.51,0,0,0-2.223.163,3.333,3.333,0,0,0-.4,1.866v.235a3.375,3.375,0,0,0,.4,1.878A1.377,1.377,0,0,0,52.7,15.336ZM59.91,17H57.645V8.547H59.91Zm-2.4-10.641a1.112,1.112,0,0,1,.34-.836,1.465,1.465,0,0,1,1.848,0,1.105,1.105,0,0,1,.344.836A1.108,1.108,0,0,1,59.7,7.2a1.448,1.448,0,0,1-1.836,0A1.108,1.108,0,0,1,57.512,6.359ZM66.668,17a2.507,2.507,0,0,1-.227-.758,2.732,2.732,0,0,1-2.133.914,3,3,0,0,1-2.059-.719,2.312,2.312,0,0,1-.816-1.812,2.389,2.389,0,0,1,1-2.062,4.915,4.915,0,0,1,2.879-.727h1.039v-.484a1.393,1.393,0,0,0-.3-.937,1.183,1.183,0,0,0-.949-.352,1.345,1.345,0,0,0-.895.273.929.929,0,0,0-.324.75H61.621a2.268,2.268,0,0,1,.453-1.359,3,3,0,0,1,1.281-.98,4.669,4.669,0,0,1,1.859-.355,3.689,3.689,0,0,1,2.48.785,2.747,2.747,0,0,1,.918,2.207v3.664a4.041,4.041,0,0,0,.336,1.82V17ZM64.8,15.43a1.945,1.945,0,0,0,.922-.223,1.462,1.462,0,0,0,.625-.6V13.156H65.5q-1.7,0-1.8,1.172l-.008.133a.9.9,0,0,0,.3.7A1.153,1.153,0,0,0,64.8,15.43Zm9.18-2.719a5.094,5.094,0,0,1,.887-3.148,2.877,2.877,0,0,1,2.426-1.172,2.589,2.589,0,0,1,2.039.922V5H81.6V17H79.559l-.109-.9a2.657,2.657,0,0,1-2.172,1.055,2.869,2.869,0,0,1-2.395-1.176A5.258,5.258,0,0,1,73.98,12.711Zm2.258.168a3.337,3.337,0,0,0,.414,1.823,1.349,1.349,0,0,0,1.2.634,1.511,1.511,0,0,0,1.477-.884V11.111a1.489,1.489,0,0,0-1.461-.884Q76.238,10.227,76.238,12.879Zm11,4.277a4.15,4.15,0,0,1-3.027-1.141,4.054,4.054,0,0,1-1.168-3.039v-.219a5.106,5.106,0,0,1,.492-2.277A3.612,3.612,0,0,1,84.93,8.934a3.914,3.914,0,0,1,2.059-.543,3.508,3.508,0,0,1,2.73,1.094,4.444,4.444,0,0,1,1,3.1v.922H85.332a2.1,2.1,0,0,0,.66,1.328,2,2,0,0,0,1.395.5,2.437,2.437,0,0,0,2.039-.945l1.109,1.242a3.389,3.389,0,0,1-1.375,1.121A4.511,4.511,0,0,1,87.238,17.156Zm-.258-6.945a1.411,1.411,0,0,0-1.09.455,2.357,2.357,0,0,0-.535,1.3H88.5v-.181a1.681,1.681,0,0,0-.406-1.165A1.456,1.456,0,0,0,86.98,10.211ZM7.633,39H5.367V27H7.633Zm6.758,0a2.507,2.507,0,0,1-.227-.758,2.732,2.732,0,0,1-2.133.914,3,3,0,0,1-2.059-.719,2.312,2.312,0,0,1-.816-1.812,2.389,2.389,0,0,1,1-2.062,4.915,4.915,0,0,1,2.879-.727H14.07v-.484a1.393,1.393,0,0,0-.3-.937,1.183,1.183,0,0,0-.949-.352,1.345,1.345,0,0,0-.895.273.929.929,0,0,0-.324.75H9.344A2.268,2.268,0,0,1,9.8,31.727a3,3,0,0,1,1.281-.98,4.669,4.669,0,0,1,1.859-.355,3.689,3.689,0,0,1,2.48.785,2.747,2.747,0,0,1,.918,2.207v3.664a4.041,4.041,0,0,0,.336,1.82V39Zm-1.867-1.57a1.945,1.945,0,0,0,.922-.223,1.462,1.462,0,0,0,.625-.6V35.156h-.844q-1.7,0-1.8,1.172l-.008.133a.9.9,0,0,0,.3.7A1.153,1.153,0,0,0,12.523,37.43Zm17.141-2.578a5.07,5.07,0,0,1-.887,3.129,2.843,2.843,0,0,1-2.395,1.176,2.633,2.633,0,0,1-2.07-.891V42.25H22.055v-11.7h2.094l.078.828a2.654,2.654,0,0,1,2.141-.984,2.862,2.862,0,0,1,2.43,1.156,5.207,5.207,0,0,1,.867,3.188Zm-2.258-.164a3.327,3.327,0,0,0-.418-1.82,1.361,1.361,0,0,0-1.215-.641,1.478,1.478,0,0,0-1.461.813V36.5a1.5,1.5,0,0,0,1.477.836Q27.406,37.336,27.406,34.688Zm8.406-2.023A6.134,6.134,0,0,0,35,32.6a1.654,1.654,0,0,0-1.68.867V39H31.063V30.547H33.2l.063,1.008a2.092,2.092,0,0,1,1.883-1.164,2.366,2.366,0,0,1,.7.1Zm.453,2.031a5.013,5.013,0,0,1,.484-2.242,3.546,3.546,0,0,1,1.395-1.523,4.069,4.069,0,0,1,2.113-.539,3.849,3.849,0,0,1,2.793,1.047,4.2,4.2,0,0,1,1.207,2.844l.016.578a4.418,4.418,0,0,1-1.086,3.121,4.209,4.209,0,0,1-5.832,0,4.5,4.5,0,0,1-1.09-3.187Zm2.258.16a3.16,3.16,0,0,0,.453,1.843,1.628,1.628,0,0,0,2.578.008,3.457,3.457,0,0,0,.461-2.015,3.128,3.128,0,0,0-.461-1.831,1.5,1.5,0,0,0-1.3-.649,1.474,1.474,0,0,0-1.281.646A3.516,3.516,0,0,0,38.523,34.856Zm14.75,0a5.07,5.07,0,0,1-.887,3.129,2.843,2.843,0,0,1-2.395,1.176,2.633,2.633,0,0,1-2.07-.891V42.25H45.664v-11.7h2.094l.078.828a2.654,2.654,0,0,1,2.141-.984,2.862,2.862,0,0,1,2.43,1.156,5.207,5.207,0,0,1,.867,3.188Zm-2.258-.164a3.327,3.327,0,0,0-.418-1.82,1.361,1.361,0,0,0-1.215-.641,1.478,1.478,0,0,0-1.461.813V36.5a1.5,1.5,0,0,0,1.477.836Q51.016,37.336,51.016,34.688Zm8.719,3.453a2.831,2.831,0,0,1-2.312,1.016,2.67,2.67,0,0,1-2.074-.781,3.335,3.335,0,0,1-.73-2.289V30.547h2.258v5.467q0,1.322,1.2,1.322a1.63,1.63,0,0,0,1.578-.8V30.547h2.266V39H59.8Zm7.781,1.016a4.15,4.15,0,0,1-3.027-1.141,4.054,4.054,0,0,1-1.168-3.039v-.219a5.106,5.106,0,0,1,.492-2.277,3.612,3.612,0,0,1,1.395-1.547,3.914,3.914,0,0,1,2.059-.543A3.508,3.508,0,0,1,70,31.484a4.444,4.444,0,0,1,1,3.1v.922H65.609a2.1,2.1,0,0,0,.66,1.328,2,2,0,0,0,1.395.5,2.437,2.437,0,0,0,2.039-.945l1.109,1.242a3.389,3.389,0,0,1-1.375,1.121A4.511,4.511,0,0,1,67.516,39.156Zm-.258-6.945a1.411,1.411,0,0,0-1.09.455,2.357,2.357,0,0,0-.535,1.3h3.141v-.181a1.681,1.681,0,0,0-.406-1.165A1.456,1.456,0,0,0,67.258,32.211Zm9.594,4.453a.727.727,0,0,0-.41-.652,4.659,4.659,0,0,0-1.316-.426q-3.016-.633-3.016-2.562a2.323,2.323,0,0,1,.934-1.879,3.766,3.766,0,0,1,2.441-.754,4.053,4.053,0,0,1,2.574.758,2.388,2.388,0,0,1,.965,1.969H76.766a1.092,1.092,0,0,0-.312-.8A1.322,1.322,0,0,0,75.477,32a1.351,1.351,0,0,0-.883.258.814.814,0,0,0-.312.656.7.7,0,0,0,.355.605,3.657,3.657,0,0,0,1.2.4,9.8,9.8,0,0,1,1.422.379,2.336,2.336,0,0,1,1.789,2.273,2.2,2.2,0,0,1-.992,1.871,4.28,4.28,0,0,1-2.562.715,4.47,4.47,0,0,1-1.887-.379,3.166,3.166,0,0,1-1.293-1.039,2.414,2.414,0,0,1-.469-1.426h2.141a1.179,1.179,0,0,0,.445.922,1.766,1.766,0,0,0,1.109.32,1.635,1.635,0,0,0,.98-.246A.766.766,0,0,0,76.852,36.664Zm6.352-8.2v2.078h1.445V32.2H83.2v4.219a1.007,1.007,0,0,0,.18.672.9.9,0,0,0,.688.2,3.6,3.6,0,0,0,.664-.055v1.711a4.648,4.648,0,0,1-1.367.2,2.156,2.156,0,0,1-2.422-2.4V32.2H79.711V30.547h1.234V28.469ZM90.8,39a2.507,2.507,0,0,1-.227-.758,2.732,2.732,0,0,1-2.133.914,3,3,0,0,1-2.059-.719,2.312,2.312,0,0,1-.816-1.812,2.389,2.389,0,0,1,1-2.062,4.915,4.915,0,0,1,2.879-.727h1.039v-.484a1.393,1.393,0,0,0-.3-.937,1.183,1.183,0,0,0-.949-.352,1.345,1.345,0,0,0-.895.273.929.929,0,0,0-.324.75H85.758a2.268,2.268,0,0,1,.453-1.359,3,3,0,0,1,1.281-.98,4.669,4.669,0,0,1,1.859-.355,3.689,3.689,0,0,1,2.48.785,2.747,2.747,0,0,1,.918,2.207v3.664a4.041,4.041,0,0,0,.336,1.82V39Zm-1.867-1.57a1.945,1.945,0,0,0,.922-.223,1.462,1.462,0,0,0,.625-.6V35.156h-.844q-1.7,0-1.8,1.172l-.008.133a.9.9,0,0,0,.3.7A1.153,1.153,0,0,0,88.938,37.43Z" transform="translate(878.074 1165.125)" fill="#12263f"/>
      <path id="Trazado_587839" data-name="Trazado 587839" d="M17.184,17V5.625h3.5a5.315,5.315,0,0,1,2.684.676,4.712,4.712,0,0,1,1.848,1.922,5.928,5.928,0,0,1,.664,2.832v.523a5.945,5.945,0,0,1-.652,2.82,4.672,4.672,0,0,1-1.84,1.914,5.355,5.355,0,0,1-2.68.688Zm2.344-9.477v7.594H20.66a2.545,2.545,0,0,0,2.1-.9,4.06,4.06,0,0,0,.742-2.57v-.6a4.124,4.124,0,0,0-.719-2.629,2.537,2.537,0,0,0-2.1-.895Zm11.8,9.633A4.15,4.15,0,0,1,28.3,16.016a4.054,4.054,0,0,1-1.168-3.039v-.219a5.106,5.106,0,0,1,.492-2.277,3.612,3.612,0,0,1,1.395-1.547,3.914,3.914,0,0,1,2.059-.543A3.508,3.508,0,0,1,33.8,9.484a4.444,4.444,0,0,1,1,3.1v.922H29.418a2.1,2.1,0,0,0,.66,1.328,2,2,0,0,0,1.395.5,2.437,2.437,0,0,0,2.039-.945l1.109,1.242a3.389,3.389,0,0,1-1.375,1.121A4.511,4.511,0,0,1,31.324,17.156Zm-.258-6.945a1.411,1.411,0,0,0-1.09.455,2.357,2.357,0,0,0-.535,1.3h3.141v-.181a1.681,1.681,0,0,0-.406-1.165A1.456,1.456,0,0,0,31.066,10.211Zm7.719-3.742V8.547H40.23V10.2H38.785v4.219a1.007,1.007,0,0,0,.18.672.9.9,0,0,0,.688.2,3.6,3.6,0,0,0,.664-.055v1.711a4.648,4.648,0,0,1-1.367.2,2.156,2.156,0,0,1-2.422-2.4V10.2H35.293V8.547h1.234V6.469ZM46.387,17a2.507,2.507,0,0,1-.227-.758,2.732,2.732,0,0,1-2.133.914,3,3,0,0,1-2.059-.719,2.312,2.312,0,0,1-.816-1.812,2.389,2.389,0,0,1,1-2.062,4.915,4.915,0,0,1,2.879-.727h1.039v-.484a1.393,1.393,0,0,0-.3-.937,1.183,1.183,0,0,0-.949-.352,1.345,1.345,0,0,0-.895.273.929.929,0,0,0-.324.75H41.34a2.268,2.268,0,0,1,.453-1.359,3,3,0,0,1,1.281-.98,4.669,4.669,0,0,1,1.859-.355,3.689,3.689,0,0,1,2.48.785,2.747,2.747,0,0,1,.918,2.207v3.664a4.041,4.041,0,0,0,.336,1.82V17ZM44.52,15.43a1.945,1.945,0,0,0,.922-.223,1.462,1.462,0,0,0,.625-.6V13.156h-.844q-1.7,0-1.8,1.172l-.008.133a.9.9,0,0,0,.3.7A1.153,1.153,0,0,0,44.52,15.43ZM52.449,17H50.184V5h2.266Zm4.242,0H54.426V5h2.266Zm5.75.156a4.15,4.15,0,0,1-3.027-1.141,4.054,4.054,0,0,1-1.168-3.039v-.219a5.106,5.106,0,0,1,.492-2.277,3.612,3.612,0,0,1,1.395-1.547,3.914,3.914,0,0,1,2.059-.543,3.508,3.508,0,0,1,2.73,1.094,4.444,4.444,0,0,1,1,3.1v.922H60.535a2.1,2.1,0,0,0,.66,1.328,2,2,0,0,0,1.395.5,2.437,2.437,0,0,0,2.039-.945l1.109,1.242a3.389,3.389,0,0,1-1.375,1.121A4.511,4.511,0,0,1,62.441,17.156Zm-.258-6.945a1.411,1.411,0,0,0-1.09.455,2.357,2.357,0,0,0-.535,1.3H63.7v-.181a1.681,1.681,0,0,0-.406-1.165A1.456,1.456,0,0,0,62.184,10.211Z" transform="translate(758.5 1146.273)" fill="#12263f"/>
      <path id="Trazado_587842" data-name="Trazado 587842" d="M48.324,12.992V17H45.98V5.625h4.438a5.134,5.134,0,0,1,2.254.469,3.454,3.454,0,0,1,1.5,1.332,3.714,3.714,0,0,1,.523,1.965,3.266,3.266,0,0,1-1.145,2.637,4.767,4.767,0,0,1-3.168.965Zm0-1.9h2.094a2.059,2.059,0,0,0,1.418-.437,1.591,1.591,0,0,0,.488-1.25,1.876,1.876,0,0,0-.492-1.352,1.839,1.839,0,0,0-1.359-.531H48.324ZM55.7,12.7a5.013,5.013,0,0,1,.484-2.242A3.546,3.546,0,0,1,57.578,8.93a4.069,4.069,0,0,1,2.113-.539,3.849,3.849,0,0,1,2.793,1.047,4.2,4.2,0,0,1,1.207,2.844l.016.578a4.418,4.418,0,0,1-1.086,3.121,4.209,4.209,0,0,1-5.832,0A4.5,4.5,0,0,1,55.7,12.8Zm2.258.16A3.16,3.16,0,0,0,58.41,14.7a1.628,1.628,0,0,0,2.578.008,3.457,3.457,0,0,0,.461-2.015,3.128,3.128,0,0,0-.461-1.831,1.5,1.5,0,0,0-1.3-.649,1.474,1.474,0,0,0-1.281.646A3.516,3.516,0,0,0,57.957,12.856Zm11.891-2.192a6.134,6.134,0,0,0-.812-.062,1.654,1.654,0,0,0-1.68.867V17H65.1V8.547H67.23l.063,1.008a2.092,2.092,0,0,1,1.883-1.164,2.366,2.366,0,0,1,.7.1Zm4.18-4.2V8.547h1.445V10.2H74.027v4.219a1.007,1.007,0,0,0,.18.672.9.9,0,0,0,.688.2,3.6,3.6,0,0,0,.664-.055v1.711a4.648,4.648,0,0,1-1.367.2,2.156,2.156,0,0,1-2.422-2.4V10.2H70.535V8.547H71.77V6.469ZM81.629,17a2.507,2.507,0,0,1-.227-.758,2.732,2.732,0,0,1-2.133.914,3,3,0,0,1-2.059-.719,2.312,2.312,0,0,1-.816-1.812,2.389,2.389,0,0,1,1-2.062,4.915,4.915,0,0,1,2.879-.727h1.039v-.484a1.393,1.393,0,0,0-.3-.937,1.183,1.183,0,0,0-.949-.352,1.345,1.345,0,0,0-.895.273.929.929,0,0,0-.324.75H76.582a2.268,2.268,0,0,1,.453-1.359,3,3,0,0,1,1.281-.98,4.669,4.669,0,0,1,1.859-.355,3.689,3.689,0,0,1,2.48.785,2.747,2.747,0,0,1,.918,2.207v3.664a4.041,4.041,0,0,0,.336,1.82V17Zm-1.867-1.57a1.945,1.945,0,0,0,.922-.223,1.462,1.462,0,0,0,.625-.6V13.156h-.844q-1.7,0-1.8,1.172l-.008.133a.9.9,0,0,0,.3.7A1.153,1.153,0,0,0,79.762,15.43Zm5.2-2.719a5.094,5.094,0,0,1,.887-3.148A2.877,2.877,0,0,1,88.27,8.391a2.589,2.589,0,0,1,2.039.922V5h2.266V17H90.535l-.109-.9a2.657,2.657,0,0,1-2.172,1.055,2.869,2.869,0,0,1-2.395-1.176A5.258,5.258,0,0,1,84.957,12.711Zm2.258.168a3.337,3.337,0,0,0,.414,1.823,1.349,1.349,0,0,0,1.2.634,1.511,1.511,0,0,0,1.477-.884V11.111a1.489,1.489,0,0,0-1.461-.884Q87.215,10.227,87.215,12.879ZM99.223,17A2.507,2.507,0,0,1,99,16.242a2.732,2.732,0,0,1-2.133.914,3,3,0,0,1-2.059-.719,2.312,2.312,0,0,1-.816-1.812,2.389,2.389,0,0,1,1-2.062,4.915,4.915,0,0,1,2.879-.727H98.9v-.484a1.393,1.393,0,0,0-.3-.937,1.183,1.183,0,0,0-.949-.352,1.345,1.345,0,0,0-.895.273.929.929,0,0,0-.324.75H94.176a2.268,2.268,0,0,1,.453-1.359,3,3,0,0,1,1.281-.98,4.669,4.669,0,0,1,1.859-.355,3.689,3.689,0,0,1,2.48.785,2.747,2.747,0,0,1,.918,2.207v3.664a4.041,4.041,0,0,0,.336,1.82V17Zm-1.867-1.57a1.945,1.945,0,0,0,.922-.223,1.462,1.462,0,0,0,.625-.6V13.156h-.844q-1.7,0-1.8,1.172l-.008.133a.9.9,0,0,0,.3.7A1.153,1.153,0,0,0,97.355,15.43Z" transform="translate(538 1287.773)" fill="#12263f"/>
      <g id="Grupo_847317" data-name="Grupo 847317" transform="translate(516 -52.742)">
        <rect id="Rectángulo_38178" data-name="Rectángulo 38178" width="107" height="107" transform="translate(240 1286.742)" fill="none"/>
        <g id="Grupo_846545" data-name="Grupo 846545" transform="translate(1090.891 1666.682)">
          <path id="Trazado_586093" data-name="Trazado 586093" d="M-826.5-282.319c-.2.939-.745,1.5-1.727,1.285-.875-.194-1.115-.914-1.105-1.759.019-1.639-.029-3.279.019-4.917.023-.764-.219-1.034-.993-1-1.227.053-2.459.048-3.687,0a5.24,5.24,0,0,1-5.283-5.24c-.065-9.014-.079-18.029.009-27.043a7.337,7.337,0,0,1,5.958-7.1c4.153-.983,8.328-1.871,12.477-2.872.586-.142,1.658.116,1.655-.884,0-1.044.546-2.246-.488-3.134a10.291,10.291,0,0,1-3.021-4.237c-.228-.609-.681-.676-1.2-.836-3.7-1.144-6.029-6.634-4.326-10.142.176-.362.4-.841.716-.971,2.087-.854,1.025-1.843.323-3.055-4.553-7.862.495-16.216,10.021-16.654,3.944-.182,7.842,0,11.544,1.585a3.656,3.656,0,0,0,4.476-.745c1.066-1.073,1.964-.476,2.708.615a15,15,0,0,1,.17,16.249c-.449.682-.8,1.1.239,1.521a2.7,2.7,0,0,1,1.263,1.418c1.8,3.634-.709,9.181-4.626,10.242-.384.1-.817.04-1.011.533A15.111,15.111,0,0,1-805.408-335a2.609,2.609,0,0,0,1.445,4.069c3.879.873,7.761,1.729,11.637,2.613,4.494,1.024,6.679,3.639,6.8,8.268.027,1,.314,1.268,1.288,1.256,3.979-.05,7.96-.025,11.94-.019,2.425,0,2.876.6,2.135,2.824-3.67,11.031-7.368,22.054-11,33.1a2.35,2.35,0,0,1-2.609,1.95c-8.487-.063-16.974-.033-25.461-.027-1.025,0-2.056.064-2.28-1.307a13.293,13.293,0,0,1,.956-3.539c.175-.551.294-1.132-.356-1.332-1.611-.495-3.1-1.479-4.813-1.525-3.157-.085-6.319,0-9.478-.041-.969-.013-1.376.292-1.338,1.3C-826.473-285.714-826.5-284.016-826.5-282.319Zm24.689-60.861c1.59.087,1.821-1.244,2.184-2.264a4.068,4.068,0,0,0,.084-3.549c-.322-.543-1.039-.419-1.618-.324-.652.106-.563.628-.574,1.09q-.055,2.353-.116,4.706C-802.135-343.373-802.131-343.258-801.807-343.181Zm-6.824,11.631c.249-1.1.133-1.65-1.259-1.187a8.436,8.436,0,0,1-5.185.055c-1.321-.41-1.395.131-1.175,1.14-.031,2.368,1.448,3.714,4.028,3.664C-809.8-327.924-808.546-329.212-808.631-331.55Zm-6.991,10.562a1.562,1.562,0,0,1-1.954-1.478c-.152-.86-.356-1.71-.516-2.569-.707-3.8-.711-3.8-4.4-2.64a1.682,1.682,0,0,0-.494.162,2.914,2.914,0,0,0-1.317,2.525c.136.916,1.275.406,1.952.363,1.931-.121,2.787.764,1.892,2.466-1.031,1.961-.521,3.337.774,4.836.986,1.143,1.748,2.477,2.645,3.7.349.476.552,1.163,1.394,1.205a21.648,21.648,0,0,0-.844-4.836c-.248-1.153-.1-1.939.953-2.487,1.156.012,1.6.7,1.8,1.749.348,1.864.78,3.712,1.177,5.566,1.053-3.668,1.8-7.264,2.546-10.863.409-1.988.4-1.959-1.683-1.838a14.451,14.451,0,0,1-2.439-.14c-1.049-.118-1.374.1-.949,1.236C-814.7-323-814.116-321.761-815.622-320.987Zm1.617-32.871a2.126,2.126,0,0,1,2.3-1.229,7.013,7.013,0,0,0,4.883-1.576,2.267,2.267,0,0,1,3.551.734c.449.776.8,1.611,1.194,2.426,3.634-2.42,3.5-9.708,2.135-12.382-.211-.414-.384-.878-1.035-.578-2.263,1.04-4.412.389-6.61-.362a20.293,20.293,0,0,0-12.382-.517c-1.913.55-3.77,1.348-4.792,3.267-1.687,3.17-1.182,6.247.678,9.1,1.758,2.7,2.244,2.618,3.728-.276.459-.9.764-1.945,2.016-1.826a4.2,4.2,0,0,1,3.377,3.009c-.483.4-.96,1.186-1.585.892-1.467-.691-1.873.375-2.355,1.25-.516.936-1.694,1.428-1.641,2.761.084,2.1-.05,4.208.053,6.306a7.848,7.848,0,0,0,8.08,7.541,7.8,7.8,0,0,0,7.7-7.732c.064-2.335.041-4.672.008-7.008a8.691,8.691,0,0,0-.905-3.757,11.009,11.009,0,0,1-5.834,1.781C-812.762-352.037-813.732-352.436-814.005-353.858Zm16.425,38.417c-.513,1.217-.7,2.749-2.577,2.633-1.536-1.8-.221-3.427.365-5.045.5-1.367,1.815-1.017,2.892-1.025,2.457-.019,4.915,0,7.372-.008.594,0,1.136.031,1.261-.828a5.665,5.665,0,0,0-2.23-4.87c-2.21-1.211-4.688-1.358-7.349-1.959.437,1.047.713,1.749,1.021,2.436.778,1.733.179,2.716-1.7,2.7a7.575,7.575,0,0,1-1.549-.229c-.832-.182-1.147.114-.782.891a2.636,2.636,0,0,1-.4,2.923c-3.232,4.434-6.412,8.906-9.638,13.344-1.218,1.676-1.99,1.649-3.169,0q-4.581-6.413-9.167-12.822c-.759-1.059-1.533-2.082-.766-3.492.393-.723-.013-.957-.7-.867-.519.068-1.03.231-1.549.251-1.807.071-2.438-.852-1.794-2.559.287-.762.552-1.533.827-2.3l.124-.175-.175.124a18.9,18.9,0,0,0-5.305,1.023,4.474,4.474,0,0,0-3.816,4.725q-.027,13.077,0,26.156a2.553,2.553,0,0,0,2.6,2.868c5.441.059,10.882.015,16.323.034.821,0,1.175-.31,1.139-1.137-.034-.759-.024-1.522.008-2.281.039-.928.414-1.581,1.469-1.584,1.038,0,1.447.565,1.43,1.551-.016.935-.01,1.871,0,2.807.006.394-.148.948.317,1.1,1.917.62,3.656,1.824,5.812,1.676,4.346-.3,8.2-1.545,10.837-5.318.1-.141.255-.241.367-.375.321-.386.941-.674.7-1.292s-.884-.45-1.39-.452c-2.515-.011-5.029.022-7.543-.016-1.7-.026-2.192-.736-1.715-2.366.268-.916.589-1.817.916-2.818-1.333.21-1.47.146-1.712.667-1.531,3.3-4.236,3.978-7.505,3.508a1.9,1.9,0,0,0-.519.071c-3.917-.023-7.833-.067-11.75-.058-1.371,0-2.327-.42-2.342-1.938-.03-2.865-.046-5.731.017-8.6.021-.965.41-2.018,1.547-2,1.241.014,1.531,1.045,1.523,2.147-.014,1.93.069,3.863-.029,5.788-.068,1.347.312,1.844,1.749,1.806q5.7-.148,11.4,0a2.941,2.941,0,0,0,2.99-1.574c.691-1.19,1.422-2.592,3.045-2.575,2.179.021,3.146-1.088,3.487-3.066.088-.511.377-.984.5-1.493a1.757,1.757,0,0,1,2.178-1.5c1.081.611.876,1.515.565,2.45-.955,2.863-1.907,5.727-2.913,8.75,2.32,0,4.366.034,6.409-.011a3.534,3.534,0,0,1,3.7,2.111c.742,1.685.138,3.055-1.1,4.263-1.508,1.472-3.012,2.948-4.47,4.467a3.84,3.84,0,0,1-2.3,1.135c-1.963.314-3.915.691-5.875,1.027-1.361.234-1.3,1.482-1.38,2.324-.1.991.943.5,1.444.507,7.08.037,14.16,0,21.24.051a1.59,1.59,0,0,0,1.841-1.32c.833-2.739,1.787-5.441,2.682-8.161q3.641-11.072,7.272-22.147c-.009-1.031-.812-.554-1.221-.556q-10.727-.051-21.454-.012C-796.622-315.954-797.306-316.237-797.58-315.441Zm-2.921-9.195c.1-3.031-2.236-3.083-4.245-3.608-.971-.254-1.344-.033-1.538.969-.608,3.148-1.359,6.268-1.961,9.416-.365,1.905-1.045,3.766-.9,5.811,1.28-1.52,2.316-3.2,3.579-4.683,1.513-1.779,2.37-3.449,1.047-5.792-.718-1.271.187-2.244,1.682-2.123A6.5,6.5,0,0,0-800.5-324.636Zm-22.936-18.5c0-1.887-.009-3.571.005-5.255,0-.521-.083-.947-.706-.971-.581-.022-1.156-.047-1.454.653C-826.219-347.238-825.146-344.194-823.437-343.134Zm7.9,31.406.07.058.014-.093Z" transform="translate(0)" fill="#040404"/>
          <path id="Trazado_586094" data-name="Trazado 586094" d="M-693.472-348.086c-3.24-.2-3.266-.232-3.266-3.225q0-8.335,0-16.67c0-2.251.319-2.582,2.49-2.583q14.388-.006,28.776,0c2.214,0,2.481.279,2.483,2.56q.006,8.686,0,17.372c0,2.184-.26,2.448-2.393,2.452-4.5.007-9.008.03-13.511-.018a4.786,4.786,0,0,0-2.78.8c-4.027,2.595-8.082,5.146-12.126,7.714-.742.471-1.485,1.081-2.374.344s-.453-1.558-.09-2.377C-695.341-343.786-694.443-345.864-693.472-348.086Zm1.645,3.33.3.289c2.45-1.556,4.981-3,7.327-4.7a9.792,9.792,0,0,1,6.53-1.873c3.5.155,7.018-.007,10.526.066,1.092.023,1.381-.29,1.368-1.365q-.085-7.018,0-14.038c.013-1.084-.292-1.375-1.375-1.369q-12.634.067-25.267-.007c-1.3-.009-1.526.449-1.509,1.609.061,4.211.024,8.423.024,12.634,0,2.376,0,2.376,2.3,2.511,1.588.093,2.093.828,1.5,2.3C-690.64-347.371-691.251-346.071-691.827-344.757Z" transform="translate(-92.475 -0.241)" fill="#040404"/>
          <path id="Trazado_586095" data-name="Trazado 586095" d="M-802.9-130.575c-.008-1.7.024-3.395-.04-5.09-.038-1.009.369-1.314,1.338-1.3,3.159.042,6.321-.044,9.478.041,1.714.046,3.2,1.03,4.813,1.525.651.2.531.781.356,1.332a13.3,13.3,0,0,0-.956,3.539Z" transform="translate(-23.595 -151.745)" fill="#3f4c60"/>
          <path id="Trazado_586096" data-name="Trazado 586096" d="M-821.809-244.334c-.275.767-.54,1.538-.827,2.3-.643,1.707-.013,2.63,1.794,2.559.519-.021,1.03-.183,1.549-.251.686-.09,1.092.143.7.867-.767,1.41.007,2.433.766,3.492q4.59,6.406,9.167,12.822c1.179,1.65,1.95,1.677,3.169,0,3.226-4.439,6.406-8.911,9.638-13.344a2.636,2.636,0,0,0,.4-2.923c-.365-.777-.05-1.073.782-.891a7.577,7.577,0,0,0,1.549.229c1.878.012,2.478-.97,1.7-2.7-.308-.687-.584-1.389-1.021-2.436,2.661.6,5.139.748,7.349,1.959a5.665,5.665,0,0,1,2.23,4.87c-.124.859-.666.827-1.261.828-2.457,0-4.914-.011-7.372.008-1.078.008-2.4-.343-2.892,1.025-.587,1.618-1.9,3.25-.365,5.045q-.19.987-.379,1.974a1.757,1.757,0,0,0-2.178,1.5c-.12.509-.409.982-.5,1.493-.341,1.978-1.308,3.088-3.487,3.066-1.623-.016-2.354,1.386-3.045,2.575a2.94,2.94,0,0,1-2.99,1.574q-5.7-.146-11.4,0c-1.437.037-1.817-.46-1.748-1.806.1-1.925.014-3.859.028-5.788.008-1.1-.282-2.133-1.523-2.147-1.137-.013-1.526,1.04-1.547,2-.063,2.864-.047,5.731-.017,8.6.016,1.518.971,1.941,2.342,1.938,3.917-.009,7.833.035,11.75.058q0,.629.006,1.259c-1.055,0-1.43.656-1.469,1.584-.032.759-.042,1.522-.008,2.281.037.827-.318,1.139-1.139,1.137-5.441-.019-10.883.025-16.323-.034a2.553,2.553,0,0,1-2.6-2.868q-.018-13.078,0-26.156a4.474,4.474,0,0,1,3.816-4.725,18.9,18.9,0,0,1,5.3-1.023Z" transform="translate(-5.403 -81.929)" fill="#3f4c60"/>
          <path id="Trazado_586097" data-name="Trazado 586097" d="M-742.561-208.418q.189-.987.379-1.974c1.874.116,2.064-1.416,2.577-2.633l24.158.052q-3.635,11.074-7.272,22.147c-.895,2.721-1.85,5.422-2.682,8.161a1.591,1.591,0,0,1-1.841,1.32c-7.08-.05-14.16-.014-21.24-.051-.5,0-1.54.484-1.444-.507.082-.842.019-2.091,1.38-2.324,1.96-.336,3.912-.713,5.875-1.027a3.839,3.839,0,0,0,2.3-1.135c1.459-1.519,2.963-3,4.47-4.467,1.238-1.208,1.842-2.578,1.1-4.263a3.534,3.534,0,0,0-3.7-2.111c-2.044.045-4.089.011-6.409.011,1.006-3.023,1.958-5.887,2.913-8.75C-741.685-206.9-741.48-207.807-742.561-208.418Z" transform="translate(-57.975 -102.417)" fill="#bfe8fb"/>
          <path id="Trazado_586098" data-name="Trazado 586098" d="M-790-348.789a4.2,4.2,0,0,0-3.377-3.009c-1.252-.119-1.557.931-2.016,1.826-1.484,2.895-1.971,2.974-3.728.276-1.859-2.853-2.365-5.93-.678-9.1,1.021-1.919,2.878-2.717,4.792-3.267a20.293,20.293,0,0,1,12.382.517c2.2.751,4.346,1.4,6.61.362.651-.3.824.165,1.035.578,1.365,2.674,1.5,9.962-2.135,12.382-.4-.816-.744-1.651-1.194-2.426a2.267,2.267,0,0,0-3.551-.734,7.013,7.013,0,0,1-4.883,1.576,2.126,2.126,0,0,0-2.295,1.229Z" transform="translate(-24.97 -5.279)" fill="#3f4c60"/>
          <path id="Trazado_586099" data-name="Trazado 586099" d="M-780.32-322.935l.962.21c.273,1.422,1.243,1.821,2.558,1.823a11.009,11.009,0,0,0,5.834-1.781,8.692,8.692,0,0,1,.9,3.757c.033,2.336.056,4.674-.008,7.008a7.8,7.8,0,0,1-7.7,7.732,7.848,7.848,0,0,1-8.08-7.541c-.1-2.1.031-4.206-.053-6.306-.053-1.333,1.125-1.825,1.641-2.761.482-.875.887-1.941,2.355-1.25C-781.28-321.749-780.8-322.535-780.32-322.935Z" transform="translate(-34.647 -31.134)" fill="#f9d1c2"/>
          <path id="Trazado_586100" data-name="Trazado 586100" d="M-769.676-169.316q0-.629-.006-1.259a1.9,1.9,0,0,1,.519-.071c3.269.47,5.974-.211,7.505-3.508.242-.521.38-.457,1.712-.667-.327,1-.648,1.9-.916,2.818-.477,1.629.018,2.34,1.715,2.366,2.514.038,5.028,0,7.543.016.506,0,1.144-.17,1.39.452s-.376.906-.7,1.292c-.112.134-.269.234-.367.375-2.632,3.774-6.491,5.02-10.837,5.318-2.155.148-3.894-1.056-5.811-1.676-.465-.15-.311-.7-.317-1.1-.014-.935-.02-1.871,0-2.807C-768.229-168.75-768.639-169.316-769.676-169.316Z" transform="translate(-45.167 -127.194)" fill="#f7cfc0"/>
          <path id="Trazado_586101" data-name="Trazado 586101" d="M-787.849-241.152c-1.058.549-1.2,1.334-.953,2.487a21.639,21.639,0,0,1,.844,4.836c-.841-.043-1.044-.729-1.394-1.205-.9-1.223-1.659-2.557-2.645-3.7-1.294-1.5-1.805-2.875-.774-4.836.895-1.7.039-2.586-1.892-2.466-.677.043-1.816.553-1.952-.363a2.914,2.914,0,0,1,1.317-2.525,1.682,1.682,0,0,1,.494-.162c3.688-1.161,3.693-1.156,4.4,2.64.16.859.364,1.709.516,2.569a1.562,1.562,0,0,0,1.954,1.477Z" transform="translate(-27.687 -78.589)" fill="#506479"/>
          <path id="Trazado_586102" data-name="Trazado 586102" d="M-744.845-246.023a6.5,6.5,0,0,1-2.336-.009c-1.5-.121-2.4.852-1.682,2.123,1.323,2.343.466,4.013-1.047,5.792-1.263,1.485-2.3,3.163-3.579,4.683-.145-2.045.535-3.906.9-5.811.6-3.149,1.353-6.269,1.961-9.416.194-1,.567-1.223,1.538-.969C-747.081-249.105-744.749-249.054-744.845-246.023Z" transform="translate(-55.656 -78.613)" fill="#506479"/>
          <path id="Trazado_586103" data-name="Trazado 586103" d="M-771.8-235.508l-.085-1.247c1.506-.774.919-2.014.533-3.043-.425-1.133-.1-1.354.949-1.236a14.451,14.451,0,0,0,2.439.14c2.086-.121,2.092-.15,1.683,1.838-.741,3.6-1.493,7.2-2.546,10.863-.4-1.855-.828-3.7-1.177-5.566C-770.2-234.811-770.639-235.5-771.8-235.508Z" transform="translate(-43.741 -84.233)" fill="#c3d8f0"/>
          <path id="Trazado_586104" data-name="Trazado 586104" d="M-766.048-258.86c.084,2.338-1.174,3.625-3.59,3.672-2.58.05-4.059-1.3-4.028-3.664A13.641,13.641,0,0,0-766.048-258.86Z" transform="translate(-42.583 -72.69)" fill="#f7cfc0"/>
          <path id="Trazado_586105" data-name="Trazado 586105" d="M-696.387-214.1l-24.158-.052c.274-.8.958-.513,1.483-.515q10.727-.026,21.454.012C-697.2-214.655-696.4-215.132-696.387-214.1Z" transform="translate(-77.035 -101.288)" fill="#caf6fe"/>
          <path id="Trazado_586106" data-name="Trazado 586106" d="M-732.687-303.775q.058-2.353.116-4.705c.011-.462-.078-.983.574-1.09.579-.095,1.3-.219,1.618.324a4.069,4.069,0,0,1-.084,3.549c-.363,1.02-.594,2.351-2.184,2.264C-732.66-303.548-732.674-303.661-732.687-303.775Z" transform="translate(-69.16 -39.747)" fill="#f0bfae"/>
          <path id="Trazado_586107" data-name="Trazado 586107" d="M-798.428-303.326c-1.709-1.061-2.782-4.1-2.155-5.573.3-.7.873-.675,1.454-.653.623.024.71.45.706.971C-798.437-306.9-798.428-305.213-798.428-303.326Z" transform="translate(-25.009 -39.808)" fill="#f0bfae"/>
          <path id="Trazado_586108" data-name="Trazado 586108" d="M-766.222-261.355a13.642,13.642,0,0,1-7.618.008c-.22-1.009-.146-1.551,1.175-1.14a8.436,8.436,0,0,0,5.185-.055C-766.089-263.006-765.974-262.459-766.222-261.355Z" transform="translate(-42.408 -70.194)" fill="#f0bfae"/>
          <path id="Trazado_586109" data-name="Trazado 586109" d="M-733.073-292.927c.013.114.027.228.04.342C-733.357-292.662-733.361-292.777-733.073-292.927Z" transform="translate(-68.774 -50.595)" fill="#12100f"/>
          <path id="Trazado_586110" data-name="Trazado 586110" d="M-805.007-244.191l.175-.124-.124.175Z" transform="translate(-22.257 -82.123)" fill="#3f4c60"/>
          <path id="Trazado_586111" data-name="Trazado 586111" d="M-771.632-202.524l.084-.035-.014.093Z" transform="translate(-43.903 -109.204)" fill="#506479"/>
          <path id="Trazado_586112" data-name="Trazado 586112" d="M-686.649-339.565c.576-1.314,1.187-2.614,1.72-3.945.59-1.471.085-2.205-1.5-2.3-2.3-.135-2.3-.135-2.3-2.511,0-4.211.038-8.423-.023-12.634-.017-1.16.206-1.618,1.509-1.609q12.633.092,25.267.007c1.083-.006,1.388.286,1.375,1.369q-.086,7.018,0,14.038c.013,1.076-.276,1.388-1.368,1.365-3.508-.073-7.023.089-10.526-.066a9.792,9.792,0,0,0-6.53,1.873c-2.346,1.7-4.876,3.144-7.327,4.7Zm11.512-18.607c-.673.47-1.145,1.035-.774,1.912.327.772,1.013.887,1.751.887q4.212,0,8.423,0c.818,0,1.555-.167,1.8-1.059s-.278-1.428-1.031-1.789a.7.7,0,0,0-.763-.56q-4.254,0-8.509-.005C-674.692-358.787-675.038-358.668-675.137-358.172Zm-3.381,6.364c-1.513,0-3.026.015-4.539-.006-1.021-.014-1.779.358-1.746,1.454.03.979.755,1.356,1.7,1.354,2.968-.006,5.935,0,8.9,0,.939,0,1.638-.388,1.658-1.387s-.652-1.414-1.608-1.412Q-676.336-351.8-678.519-351.808Zm-3.255-3.592v.017c.583,0,1.167.027,1.748-.006.862-.05,1.475-.464,1.486-1.384a1.292,1.292,0,0,0-1.448-1.39c-1.165-.02-2.332-.022-3.5.015a1.264,1.264,0,0,0-1.325,1.337,1.321,1.321,0,0,0,1.288,1.4A14.675,14.675,0,0,0-681.774-355.4Zm14.98,6.378V-349c.409,0,.818,0,1.228,0,.934-.005,1.645-.361,1.671-1.382s-.652-1.425-1.6-1.43c-.994,0-1.989-.025-2.981.021a1.3,1.3,0,0,0-1.339,1.34,1.319,1.319,0,0,0,1.272,1.414A13.913,13.913,0,0,0-666.794-349.022Z" transform="translate(-97.653 -5.433)" fill="#bce4f6"/>
          <path id="Trazado_586113" data-name="Trazado 586113" d="M-671.229-331.971q2.183,0,4.364,0c.956,0,1.628.406,1.608,1.412s-.719,1.386-1.658,1.387c-2.968,0-5.936,0-8.9,0-.94,0-1.665-.375-1.7-1.354-.033-1.1.725-1.468,1.746-1.454C-674.254-331.957-672.741-331.972-671.229-331.971Z" transform="translate(-104.943 -25.269)" fill="#1b1b1c"/>
          <path id="Trazado_586114" data-name="Trazado 586114" d="M-641.508-350.208c.754.361,1.28.89,1.031,1.789s-.982,1.06-1.8,1.059q-4.212-.008-8.423,0c-.738,0-1.424-.114-1.75-.887-.371-.878.1-1.442.773-1.912Z" transform="translate(-121.114 -13.446)" fill="#1b1b1c"/>
          <path id="Trazado_586115" data-name="Trazado 586115" d="M-674.492-347.309a14.681,14.681,0,0,1-1.746-.014,1.322,1.322,0,0,1-1.288-1.4,1.264,1.264,0,0,1,1.325-1.337c1.164-.038,2.331-.036,3.5-.015a1.292,1.292,0,0,1,1.448,1.39c-.012.92-.624,1.335-1.486,1.384-.581.033-1.165.006-1.748.006Z" transform="translate(-104.935 -13.524)" fill="#1b1b1c"/>
          <path id="Trazado_586116" data-name="Trazado 586116" d="M-631.849-329.2a13.917,13.917,0,0,1-1.751-.014,1.319,1.319,0,0,1-1.272-1.414,1.3,1.3,0,0,1,1.339-1.34c.992-.046,1.987-.025,2.981-.021.95,0,1.629.4,1.6,1.43s-.737,1.377-1.671,1.382c-.409,0-.818,0-1.228,0Z" transform="translate(-132.599 -25.257)" fill="#222323"/>
          <path id="Trazado_586117" data-name="Trazado 586117" d="M-639.84-351.251l-10.168.049c.1-.5.445-.615.9-.614q4.254.01,8.509.005A.7.7,0,0,1-639.84-351.251Z" transform="translate(-122.782 -12.403)" fill="#caf6fe"/>
        </g>
      </g>
    </g>
  </g>
</svg>
