<svg xmlns="http://www.w3.org/2000/svg" width="81.396" height="81.396" viewBox="0 0 81.396 81.396">
  <g id="Grupo_846483" data-name="Grupo 846483" transform="translate(-240 -1286.742)">
    <rect id="Rectángulo_38178" data-name="Rectángulo 38178" width="81.396" height="81.396" transform="translate(240 1286.742)" fill="none"/>
    <g id="Grupo_847227" data-name="Grupo 847227" transform="translate(3539.69 213.496)">
      <path id="Trazado_587294" data-name="Trazado 587294" d="M-3233.622,1121.182l.962,1.564c-.873.716-.624,1.478-.146,2.3,3.264,5.638,6.407,11.35,9.81,16.9,1.666,2.72.282,5.216-2.924,5.195q-25.515-.174-51.033,0c-3.2.02-4.378-2.548-2.922-5.041,8.608-14.742,17.088-29.559,25.613-44.349,1.663-2.884,4.07-2.877,5.738.014q5.071,8.785,10.126,17.58c.487.85.992,1.551,2.126,1.166l1.406,2.466a1.27,1.27,0,0,0-.381,1.746A1.226,1.226,0,0,0-3233.622,1121.182Zm-21.75,6.12a4.582,4.582,0,0,0,1.671,2.643,4.016,4.016,0,0,0,6.281-2.642c.407-.219.358-.609.358-.976q0-5.246,0-10.491c0-.354.1-.767-.378-.939-.681-2.181-2-3.311-3.892-3.339-1.947-.028-3.32,1.114-4.015,3.339-.53.209-.375.678-.376,1.062q-.015,5.122,0,10.244C-3255.728,1126.6-3255.831,1127.046-3255.372,1127.3Zm4.04,6.381a3.958,3.958,0,0,0-4.016,3.861,3.993,3.993,0,0,0,3.95,4.069,3.993,3.993,0,0,0,3.956-3.94A3.961,3.961,0,0,0-3251.332,1133.682Z" transform="translate(-7.658 -7.442)" fill="#fdb853"/>
      <path id="Trazado_587295" data-name="Trazado 587295" d="M-3243.93,1109.072c-1.134.385-1.639-.316-2.126-1.166q-5.046-8.8-10.126-17.58c-1.668-2.891-4.075-2.9-5.738-.014-8.526,14.79-17.005,29.607-25.613,44.349-1.456,2.493-.274,5.061,2.922,5.041q25.516-.161,51.033,0c3.206.022,4.59-2.475,2.924-5.195-3.4-5.553-6.546-11.265-9.81-16.9-.479-.827-.727-1.588.146-2.3a1.386,1.386,0,0,1,1.849.758c3.492,6.069,7.051,12.1,10.451,18.22,2.067,3.721-.626,7.847-5.021,7.851q-24.268.025-48.535.007a29.637,29.637,0,0,0-2.97.014c-4.87.493-7.833-4.388-5.064-8.863,2.859-4.621,5.461-9.4,8.176-14.111q8.762-15.2,17.527-30.4c1.437-2.49,3.56-3.5,6.078-2.926a5.062,5.062,0,0,1,3.375,2.5q5.382,9.3,10.753,18.616A1.492,1.492,0,0,1-3243.93,1109.072Z" transform="translate(0 0)" fill="#070604"/>
      <path id="Trazado_587296" data-name="Trazado 587296" d="M-3097,1191.724a1.226,1.226,0,0,1-1.625-.456,1.27,1.27,0,0,1,.381-1.746,1.257,1.257,0,0,1,1.7.5C-3096.14,1190.719-3096.458,1191.262-3097,1191.724Z" transform="translate(-144.277 -77.985)" fill="#100f0c"/>
      <path id="Trazado_587297" data-name="Trazado 587297" d="M-3179.144,1163.325c.7-2.225,2.068-3.368,4.015-3.339,1.893.028,3.211,1.159,3.892,3.339q.011,6.2.022,12.405a4.016,4.016,0,0,1-6.281,2.642,4.583,4.583,0,0,1-1.671-2.644Q-3179.155,1169.526-3179.144,1163.325Zm5.409,6.227c0-1.732.017-3.465-.006-5.2-.016-1.234-.567-1.9-1.506-1.828-1.115.083-1.4.848-1.4,1.818,0,3.465-.011,6.93.007,10.4.006,1.223.591,1.935,1.5,1.844,1.079-.108,1.411-.846,1.4-1.833C-3173.743,1173.017-3173.734,1171.284-3173.734,1169.552Z" transform="translate(-83.864 -55.869)" fill="#110906"/>
      <path id="Trazado_587298" data-name="Trazado 587298" d="M-3175.056,1249.228a3.961,3.961,0,0,1,3.889,3.99,3.992,3.992,0,0,1-3.956,3.94,3.993,3.993,0,0,1-3.95-4.069A3.958,3.958,0,0,1-3175.056,1249.228Zm1.378,3.988a1.378,1.378,0,0,0-1.449-1.478,1.318,1.318,0,0,0-1.416,1.392,1.34,1.34,0,0,0,1.43,1.507A1.381,1.381,0,0,0-3173.678,1253.216Z" transform="translate(-83.933 -122.988)" fill="#070402"/>
      <path id="Trazado_587299" data-name="Trazado 587299" d="M-3180.277,1173.456q-.012,6.2-.022,12.4c-.458-.255-.356-.7-.356-1.1q-.008-5.122,0-10.244C-3180.652,1174.135-3180.807,1173.666-3180.277,1173.456Z" transform="translate(-82.73 -66.001)" fill="#fec759"/>
      <path id="Trazado_587300" data-name="Trazado 587300" d="M-3147.158,1185.861q-.011-6.2-.022-12.405c.474.172.378.584.378.939q.009,5.245,0,10.491C-3146.8,1185.252-3146.75,1185.642-3147.158,1185.861Z" transform="translate(-107.92 -66.001)" fill="#fec759"/>
      <path id="Trazado_587301" data-name="Trazado 587301" d="M-3166.1,1177.246c0,1.733-.008,3.465,0,5.2.007.988-.324,1.726-1.4,1.833-.913.091-1.5-.621-1.5-1.844-.018-3.465-.005-6.93-.007-10.4,0-.97.286-1.735,1.4-1.818.939-.07,1.49.595,1.506,1.828C-3166.082,1173.78-3166.1,1175.513-3166.1,1177.246Z" transform="translate(-91.499 -63.563)" fill="#fc5d5d"/>
      <path id="Trazado_587302" data-name="Trazado 587302" d="M-3166.005,1260.832a1.381,1.381,0,0,1-1.436,1.421,1.34,1.34,0,0,1-1.43-1.507,1.318,1.318,0,0,1,1.416-1.392A1.378,1.378,0,0,1-3166.005,1260.832Z" transform="translate(-91.606 -130.604)" fill="#f75a5a"/>
    </g>
  </g>
</svg>
