<svg xmlns="http://www.w3.org/2000/svg" width="81.396" height="81.396" viewBox="0 0 81.396 81.396">
  <g id="Grupo_846479" data-name="Grupo 846479" transform="translate(-240 -1286.742)">
    <rect id="Rectángulo_38178" data-name="Rectángulo 38178" width="81.396" height="81.396" transform="translate(240 1286.742)" fill="none"/>
    <g id="Grupo_847225" data-name="Grupo 847225" transform="translate(2752.19 244.595)">
      <path id="Trazado_587257" data-name="Trazado 587257" d="M-2471.655,1113.308a32.213,32.213,0,0,1-16.379-4.588,1.488,1.488,0,0,0-1.612-.059c-3.087,1.429-6.193,2.817-9.286,4.232-.656.3-1.293.7-1.957.049s-.27-1.318-.026-1.979c1.232-3.339,2.453-6.682,3.715-10.009a1.543,1.543,0,0,0-.155-1.524,30.89,30.89,0,0,1,19.916-46.418c11.676-2.553,24.293,2.773,31.224,13.235,13.019,19.652-.358,43.135-20.353,46.612A26.5,26.5,0,0,1-2471.655,1113.308Zm-25.917-3.685c2.6-1.168,5.213-2.3,7.788-3.522a2.064,2.064,0,0,1,2.3.134,28.149,28.149,0,0,0,14.534,4.633,28.286,28.286,0,0,0,29.3-31.208c-1.441-13.357-13.36-24.547-26.769-24.83-11.35-.239-20,4.832-25.545,14.613-5.494,9.7-4.7,19.523.859,29.023a3.03,3.03,0,0,1,.293,2.961c-1.034,2.65-1.949,5.347-2.912,8.025-.044.054-.135.135-.123.156C-2497.776,1109.74-2497.67,1109.688-2497.572,1109.623Z" fill="#040707"/>
      <path id="Trazado_587258" data-name="Trazado 587258" d="M-2490.61,1117.273c.963-2.678,1.879-5.374,2.913-8.024a3.03,3.03,0,0,0-.293-2.961c-5.563-9.5-6.353-19.326-.859-29.023,5.541-9.781,14.2-14.852,25.545-14.613,13.409.283,25.328,11.473,26.769,24.83a28.286,28.286,0,0,1-29.3,31.208,28.148,28.148,0,0,1-14.534-4.633,2.064,2.064,0,0,0-2.3-.134c-2.575,1.219-5.189,2.354-7.788,3.522A1.641,1.641,0,0,0-2490.61,1117.273Zm47.588-25.372c.683-.139,1.208-.469,1.208-1.235s-.525-1.1-1.208-1.234q-.123-1.144-.246-2.289a1.521,1.521,0,0,0,.881-1.957,12.361,12.361,0,0,0-.968-2.924,25.759,25.759,0,0,0-10.17-11.175,20.483,20.483,0,0,0-10.141-3.007,22.609,22.609,0,0,0-22.859,27.208,22.615,22.615,0,0,0,21.452,17.975,22.612,22.612,0,0,0,22.583-17.009c.23-.93.192-1.642-.778-2.063Z" transform="translate(-7.12 -7.822)" fill="#24d6f4"/>
      <path id="Trazado_587259" data-name="Trazado 587259" d="M-2484.511,1292.312c-.1.065-.2.117-.281-.015-.012-.021.079-.1.123-.157A1.665,1.665,0,0,1-2484.511,1292.312Z" transform="translate(-13.061 -182.688)" fill="#24d6f4"/>
      <path id="Trazado_587260" data-name="Trazado 587260" d="M-2417.7,1112.179q.123,1.144.246,2.289c-.625.156-1.118.474-1.147,1.176-.032.768.475,1.119,1.148,1.294q-.123,1.144-.246,2.289c-1.168-.04-1.379.807-1.614,1.687a20.191,20.191,0,0,1-18.8,15,20.144,20.144,0,0,1-20.677-23.432c1.579-10.6,11.831-18.391,22.429-16.762,7.846,1.206,13.176,5.943,16.641,12.932a5.189,5.189,0,0,1,.564,2.05C-2419.116,1111.67-2418.673,1112.163-2417.7,1112.179Zm-24.7,8.289q0,5.048,0,10.1c0,1.444.324,1.781,1.705,1.791,1.306.01,2.613-.009,3.919.005,1.036.011,1.519-.474,1.518-1.515q-.012-10.393,0-20.786c0-1.049-.5-1.512-1.533-1.5-1.306.016-2.613,0-3.919.006-1.337.01-1.685.353-1.688,1.687C-2442.408,1113.658-2442.4,1117.063-2442.4,1120.468Zm7.138-17.842a3.582,3.582,0,0,0-3.53-3.577,3.582,3.582,0,0,0-3.607,3.5,3.586,3.586,0,0,0,3.588,3.637A3.584,3.584,0,0,0-2435.266,1102.626Z" transform="translate(-32.687 -32.857)" fill="#dceaef"/>
      <path id="Trazado_587261" data-name="Trazado 587261" d="M-2425.326,1104.518c-.971-.015-1.414-.508-1.459-1.48a5.186,5.186,0,0,0-.564-2.05c-3.465-6.989-8.795-11.726-16.641-12.932-10.6-1.63-20.85,6.157-22.429,16.762a20.143,20.143,0,0,0,20.677,23.432,20.191,20.191,0,0,0,18.8-15c.235-.879.446-1.727,1.614-1.687.97.421,1.008,1.133.778,2.063a22.612,22.612,0,0,1-22.583,17.009,22.615,22.615,0,0,1-21.452-17.975,22.609,22.609,0,0,1,22.859-27.208,20.485,20.485,0,0,1,10.141,3.007,25.76,25.76,0,0,1,10.169,11.175,12.374,12.374,0,0,1,.968,2.924A1.521,1.521,0,0,1-2425.326,1104.518Z" transform="translate(-25.062 -25.196)" fill="#030607"/>
      <path id="Trazado_587262" data-name="Trazado 587262" d="M-2288.035,1177.65c-.673-.174-1.18-.526-1.148-1.294.03-.7.522-1.02,1.147-1.176.684.137,1.208.468,1.208,1.234S-2287.352,1177.512-2288.035,1177.65Z" transform="translate(-162.107 -93.57)" fill="#080e0f"/>
      <path id="Trazado_587263" data-name="Trazado 587263" d="M-2389.169,1162.271c0-3.4,0-6.81,0-10.214,0-1.334.351-1.677,1.688-1.687,1.306-.01,2.613.01,3.919-.006,1.029-.013,1.534.45,1.533,1.5q-.011,10.393,0,20.786c0,1.041-.482,1.526-1.518,1.515-1.306-.014-2.613,0-3.919-.005-1.382-.01-1.7-.347-1.705-1.791Q-2389.175,1167.319-2389.169,1162.271Zm4.759.054c0-2.893-.041-5.788.024-8.68.021-.907-.4-.983-1.062-.891-.557.078-1.37-.41-1.36.828q.07,8.68,0,17.36c-.009,1.109.669.809,1.239.834.625.027,1.215.161,1.186-.89C-2384.461,1168.034-2384.411,1165.179-2384.411,1162.325Z" transform="translate(-85.921 -74.661)" fill="#020303"/>
      <path id="Trazado_587264" data-name="Trazado 587264" d="M-2382.023,1113.986a3.584,3.584,0,0,1-3.548,3.559,3.585,3.585,0,0,1-3.588-3.637,3.582,3.582,0,0,1,3.607-3.5A3.582,3.582,0,0,1-2382.023,1113.986Zm-2.376.031c-.074-.725-.44-1.2-1.184-1.205a1.085,1.085,0,0,0-1.174,1.187,1.077,1.077,0,0,0,1.1,1.145A1.158,1.158,0,0,0-2384.4,1114.017Z" transform="translate(-85.929 -44.217)" fill="#060708"/>
      <path id="Trazado_587265" data-name="Trazado 587265" d="M-2376.855,1169.877c0,2.854-.05,5.709.026,8.561.028,1.051-.561.918-1.187.89-.57-.025-1.249.276-1.239-.834q.072-8.68,0-17.36c-.01-1.238.8-.75,1.361-.828.658-.092,1.082-.016,1.062.891C-2376.9,1164.089-2376.855,1166.984-2376.855,1169.877Z" transform="translate(-93.477 -82.213)" fill="#24d6f4"/>
      <path id="Trazado_587266" data-name="Trazado 587266" d="M-2376.708,1121.707a1.158,1.158,0,0,1-1.259,1.126,1.077,1.077,0,0,1-1.1-1.145,1.085,1.085,0,0,1,1.174-1.187C-2377.149,1120.5-2376.783,1120.982-2376.708,1121.707Z" transform="translate(-93.62 -51.907)" fill="#22cce9"/>
    </g>
  </g>
</svg>
