<svg xmlns="http://www.w3.org/2000/svg" width="81.396" height="81.396" viewBox="0 0 81.396 81.396">
  <g id="Grupo_846484" data-name="Grupo 846484" transform="translate(-240 -1286.742)">
    <rect id="Rectángulo_38178" data-name="Rectángulo 38178" width="81.396" height="81.396" transform="translate(240 1286.742)" fill="none"/>
    <g id="Grupo_847228" data-name="Grupo 847228" transform="translate(3854.816 409.414)">
      <path id="Trazado_587303" data-name="Trazado 587303" d="M-3575.642,1056.983l-15.462-5.006c.219-.132.507-.214.647-.4,2.17-2.931,4.86-5.481,6.552-8.761a15.316,15.316,0,0,1,4.921-5.672,16.7,16.7,0,0,1,9.638-2.768c3.76-.037,7.521,0,11.282-.017.532,0,1.174.218,1.5-.48,1.011,2.018-.042,3.789-2.335,3.827-2.7.045-5.4.025-8.1,0-.827-.006-1.488.124-1.566,1.12-1.5-.475-3.043-.182-4.566-.238-.666-.025-.583.406-.336.781a2.988,2.988,0,0,0,2.7,1.307c3.988-.008,7.977-.017,11.965,0a5.158,5.158,0,0,0,3.5-1.243,3.648,3.648,0,0,1,2.639-.889c2.058.064,4.121-.021,6.179.035a4.172,4.172,0,0,0,3.05-1.251c1.779-1.608,3.715-3.051,5.409-4.739,1.156-1.152,2.8-1.833,3.457-3.481a1.6,1.6,0,0,1,2.161.9,1.746,1.746,0,0,1-.558,2.223c-.225.207-.465.4-.7.6-4.1,3.475-8.245,6.9-12.279,10.447a11.6,11.6,0,0,1-7.345,3.329,1.387,1.387,0,0,0-1.5,1.167l-2.094.268c-.261-.772-.831-.909-1.565-.819q-4.685.575-9.374,1.11a1.9,1.9,0,0,0-1.3.776Q-3572.368,1053.057-3575.642,1056.983Z" transform="translate(-11.416 -106.583)" fill="#fddecf"/>
      <path id="Trazado_587304" data-name="Trazado 587304" d="M-3531.234,895.759c-.557-.562-.368-1.2-.2-1.845a12.7,12.7,0,0,1,14.164-9.445,12.988,12.988,0,0,1,11.317,13.183,12.93,12.93,0,0,1-2.1,6.8c-1.543,2.387-2.964,4.863-4.643,7.149-1.222,1.664-1.294,3.531-1.542,5.395-.1.775.01,1.576-.024,2.363a2.871,2.871,0,0,1-3,2.971c-1.138.035-2.279.041-3.416,0a2.685,2.685,0,0,1-2.815-2.695c0-1.881-.286-3.724-.426-5.585a2.7,2.7,0,0,0-.52-1.306q-2.626-4.083-5.251-8.166a13.661,13.661,0,0,1-1.972-4.824,1.409,1.409,0,0,1,.438-1.527c.93-.189,1.369.23,1.519,1.132a10.528,10.528,0,0,0,1.577,3.979q2.789,4.34,5.593,8.671c.158.242.187.7.7.622-.025-.536-.035-1.059-.076-1.579-.058-.738-.137-1.474-.207-2.21,0-.517.007-1.035-.016-1.551-.086-1.968-.09-1.968-2.039-2.237-1.742-1.1-2.064-1.957-1.525-4.053a2.9,2.9,0,0,1,3.154-1.346c1.016.239,1.944.93,1.926,1.9-.035,1.882,1.092,1.65,2.278,1.661.725.006.947-.207,1.006-.949a2.682,2.682,0,0,1,2.919-2.68,2.747,2.747,0,0,1,2.571,2.784,2.714,2.714,0,0,1-2.834,2.78c-.68.029-.882.214-.91.885-.091,2.18-.251,4.357-.385,6.536v1.862l.106,0q.06-.891.12-1.783c2.134-3.3,4.4-6.517,6.367-9.911a10.256,10.256,0,0,0-.391-11.412,10.242,10.242,0,0,0-9.954-4.835,11.911,11.911,0,0,0-1.554.142,10.139,10.139,0,0,0-8.232,7.839C-3529.744,895.377-3529.988,896.227-3531.234,895.759Zm13.439,13.986h.012c.064-1.222.066-2.451.209-3.664.153-1.285-.745-.888-1.337-.893s-1.451-.378-1.342.893c.224,2.612.366,5.232.489,7.851.031.641.258.8.857.806.615.009.846-.186.868-.806C-3517.991,912.536-3517.881,911.141-3517.8,909.745Zm-1.143,7a11.7,11.7,0,0,1-1.441-.011c-.9-.113-1.2.193-1.184,1.137.038,2.482-.01,2.483,2.428,2.5.349,0,.7,0,1.049,0,1.716-.006,1.822-.095,1.812-1.756-.015-2.239.219-1.82-1.878-1.867C-3518.414,916.744-3518.676,916.749-3518.938,916.749Zm4.165-13.521c.542-.032.935-.265.945-.849a.739.739,0,0,0-.792-.836c-.668.039-.754.594-.8,1.138C-3515.471,903.195-3515.159,903.246-3514.774,903.228Zm-8.32,0c.449.021.746-.033.716-.546-.034-.565-.153-1.085-.808-1.128-.5-.032-.79.315-.786.828C-3523.968,902.989-3523.553,903.176-3523.094,903.226Z" transform="translate(-55.18 0)" fill="#080806"/>
      <path id="Trazado_587305" data-name="Trazado 587305" d="M-3524.1,1032.385a1.387,1.387,0,0,1,1.5-1.167,11.592,11.592,0,0,0,7.345-3.329c4.035-3.549,8.18-6.972,12.28-10.447.233-.2.473-.389.7-.6a1.746,1.746,0,0,0,.558-2.223,1.6,1.6,0,0,0-2.16-.9c-.547,0-.838.438-1.195.738-2.716,2.284-5.438,4.562-8.118,6.886a5.038,5.038,0,0,1-3.595,1.306c-2.146-.052-4.294.01-6.441-.026a2.547,2.547,0,0,0-2,.7,3.707,3.707,0,0,1-2.659.954c-2.848,0-5.7-.009-8.545.012-.682.005-1.209-.151-1.447-.852.078-1,.74-1.126,1.566-1.12,2.7.021,5.4.04,8.1,0,2.293-.038,3.346-1.809,2.335-3.827a1.909,1.909,0,0,0-1.659-1.133,2.524,2.524,0,0,0-1.408-.148c-3.581-.011-7.162-.02-10.742,0a10.679,10.679,0,0,0-3.12.159,11.573,11.573,0,0,0-4.744,1.2,1.681,1.681,0,0,1-1.708.083c-.459-.915-.117-1.451.769-1.853a16.294,16.294,0,0,1,6.86-1.523c4.814.016,9.629.016,14.443.073a1.743,1.743,0,0,0,1.239-.587c2.14-1.807,4.27-3.626,6.415-5.427,2.528-2.124,5.232-1.483,6.55,1.546.309.122.453-.155.653-.285a3.731,3.731,0,0,1,5.739,1.486c.309.616.421.645.977.276a3.745,3.745,0,0,1,5.352.773,3.825,3.825,0,0,1-.788,5.278q-7.14,6.1-14.319,12.144a12.192,12.192,0,0,1-7.259,2.67A1.34,1.34,0,0,1-3524.1,1032.385Zm-.128-15.224a11.93,11.93,0,0,1,.93,2.71c2.623-2.22,5.147-4.355,7.67-6.493a1.722,1.722,0,0,0,.517-2.325,1.543,1.543,0,0,0-2.188-.77c-.123.031-.278.024-.366.1-2.258,1.892-4.5,3.8-6.766,5.686C-3525.08,1016.6-3524.541,1016.843-3524.232,1017.162Zm3.115,3.469c1.866,0,3.353,0,4.839,0a1.818,1.818,0,0,0,1.235-.356c2.065-1.759,4.15-3.5,6.18-5.3a1.691,1.691,0,0,0,.2-2.475,1.734,1.734,0,0,0-2.569-.227C-3514.447,1014.953-3517.63,1017.677-3521.117,1020.63Z" transform="translate(-42.092 -91.193)" fill="#080807"/>
      <path id="Trazado_587306" data-name="Trazado 587306" d="M-3564,1043.292a1.908,1.908,0,0,1,1.659,1.133c-.325.7-.967.478-1.5.48-3.761.016-7.521-.02-11.282.017a16.7,16.7,0,0,0-9.638,2.768,15.313,15.313,0,0,0-4.921,5.672c-1.692,3.28-4.381,5.83-6.552,8.761-.141.19-.428.272-.647.4l-2.061-.523c1.826-2.335,3.667-4.66,5.474-7.01a16.7,16.7,0,0,0,2.242-3.051,14.787,14.787,0,0,1,3.242-4.717,1.175,1.175,0,0,0,.235-1.727c.7-.255,1.2-.949,2.024-.905a1.681,1.681,0,0,0,1.708-.083,11.575,11.575,0,0,1,4.744-1.2,1.2,1.2,0,0,0,.978.248h13.323A1.151,1.151,0,0,0-3564,1043.292Z" transform="translate(-5.645 -117.132)" fill="#fbcebf"/>
      <path id="Trazado_587307" data-name="Trazado 587307" d="M-3529.894,901.8c1.246.468,1.491-.382,1.725-1.288a10.138,10.138,0,0,1,8.231-7.839,11.9,11.9,0,0,1,1.554-.142,1.7,1.7,0,0,1-.324.4,12.977,12.977,0,0,0-5.807,8.762,9.733,9.733,0,0,0,.158,5.349c-.539,2.1-.217,2.952,1.525,4.053a19.786,19.786,0,0,0,2.055,3.788c.07.736.149,1.472.207,2.21.041.52.052,1.043.076,1.579-.511.078-.54-.38-.7-.622-1.877-2.882-3.733-5.778-5.593-8.671a10.523,10.523,0,0,1-1.577-3.978c-.15-.9-.589-1.321-1.519-1.132Q-3529.888,903.03-3529.894,901.8Z" transform="translate(-56.521 -6.036)" fill="#f6df70"/>
      <path id="Trazado_587308" data-name="Trazado 587308" d="M-3532.349,1108.019q3.264-3.935,6.526-7.873a1.9,1.9,0,0,1,1.3-.776q4.688-.538,9.373-1.11c.735-.09,1.3.048,1.565.819-.072.811-.589,1.073-1.328,1.157-2.691.306-5.375.676-8.068.948a2.8,2.8,0,0,0-2.078,1.122c-1.721,2.148-3.514,4.237-5.28,6.349-.343.411-.7.832-1.317.628C-3532.25,1109.085-3532.374,1108.584-3532.349,1108.019Z" transform="translate(-54.71 -157.619)" fill="#0a0909"/>
      <path id="Trazado_587309" data-name="Trazado 587309" d="M-3593.388,1051.157a1.175,1.175,0,0,1-.236,1.727,14.8,14.8,0,0,0-3.241,4.717,16.714,16.714,0,0,1-2.243,3.052c-1.807,2.35-3.647,4.675-5.474,7.01-.506.458-1.051.923-1.695.289-.627-.617-.215-1.18.216-1.72q2.007-2.51,3.993-5.036a33.908,33.908,0,0,0,4.47-6.437,12.287,12.287,0,0,1,2.471-3.208A1.312,1.312,0,0,1-3593.388,1051.157Z" transform="translate(0 -122.792)" fill="#0a0909"/>
      <path id="Trazado_587310" data-name="Trazado 587310" d="M-3422.7,957.7c.783.323,1.727.655,2.614,1.1a.815.815,0,0,1,.252,1.16.887.887,0,0,1-1.084.525,23.638,23.638,0,0,1-2.433-.932.849.849,0,0,1-.482-1.087C-3423.693,958-3423.349,957.765-3422.7,957.7Z" transform="translate(-134.638 -54.062)" fill="#0e0e0e"/>
      <path id="Trazado_587311" data-name="Trazado 587311" d="M-3555.254,910.168c-.65-.246-1.433-.515-2.191-.838a.9.9,0,0,1-.578-1.167.934.934,0,0,1,1.236-.67,20.531,20.531,0,0,1,2.316.873.884.884,0,0,1,.5,1.2C-3554.162,910.064-3554.572,910.281-3555.254,910.168Z" transform="translate(-35.754 -17.025)" fill="#0e0e0e"/>
      <path id="Trazado_587312" data-name="Trazado 587312" d="M-3421,907.464c.731.015,1.071.269,1.2.731a.867.867,0,0,1-.476,1.1,24.923,24.923,0,0,1-2.443.9.875.875,0,0,1-1.081-.511.8.8,0,0,1,.253-1.15C-3422.668,908.085-3421.724,907.759-3421,907.464Z" transform="translate(-134.599 -17.044)" fill="#0e0e0e"/>
      <path id="Trazado_587313" data-name="Trazado 587313" d="M-3553.906,958.746a1.019,1.019,0,0,1-.644.975c-.725.3-1.456.582-2.2.828a.944.944,0,0,1-1.264-.621.87.87,0,0,1,.521-1.184,18.528,18.528,0,0,1,2.321-.869C-3554.428,957.665-3554.044,958.11-3553.906,958.746Z" transform="translate(-35.745 -54.152)" fill="#0e0e0e"/>
      <path id="Trazado_587314" data-name="Trazado 587314" d="M-3562.161,936.071c-.847-.169-2.146.4-2.113-1.056.031-1.325,1.252-.918,2.035-.912.822.006,2.122-.443,2.142.94C-3560.076,936.451-3561.4,935.893-3562.161,936.071Z" transform="translate(-31.187 -36.626)" fill="#080807"/>
      <path id="Trazado_587315" data-name="Trazado 587315" d="M-3415.661,936.076c-.828-.095-2.052.323-2.084-.941-.035-1.4,1.249-1.018,2.086-1.013s2.136-.4,2.121.976S-3414.863,935.944-3415.661,936.076Z" transform="translate(-139.16 -36.648)" fill="#080807"/>
      <path id="Trazado_587316" data-name="Trazado 587316" d="M-3519.674,1039.208c.238.7.765.857,1.447.852,2.848-.021,5.7-.011,8.544-.012a3.709,3.709,0,0,0,2.659-.954,2.545,2.545,0,0,1,2-.7c2.146.035,4.3-.026,6.441.026a5.038,5.038,0,0,0,3.6-1.306c2.681-2.325,5.4-4.6,8.119-6.886.356-.3.648-.734,1.194-.737-.652,1.649-2.3,2.329-3.457,3.481-1.695,1.688-3.63,3.132-5.409,4.74a4.173,4.173,0,0,1-3.051,1.251c-2.058-.056-4.121.029-6.179-.035a3.649,3.649,0,0,0-2.64.889,5.156,5.156,0,0,1-3.5,1.243c-3.988-.021-7.977-.013-11.965,0a2.987,2.987,0,0,1-2.7-1.307c-.248-.374-.331-.805.335-.78C-3522.718,1039.026-3521.175,1038.733-3519.674,1039.208Z" transform="translate(-60.306 -106.964)" fill="#f4cabb"/>
      <path id="Trazado_587317" data-name="Trazado 587317" d="M-3510.124,906.907a9.736,9.736,0,0,1-.159-5.349,12.978,12.978,0,0,1,5.807-8.762,1.682,1.682,0,0,0,.324-.4,10.242,10.242,0,0,1,9.955,4.835,10.255,10.255,0,0,1,.39,11.412c-1.966,3.395-4.233,6.614-6.367,9.911a.164.164,0,0,0-.225-.076c.134-2.178.294-4.356.385-6.536.028-.671.229-.856.909-.885a2.715,2.715,0,0,0,2.834-2.78,2.747,2.747,0,0,0-2.571-2.784,2.682,2.682,0,0,0-2.919,2.68c-.06.742-.281.955-1.007.949-1.186-.011-2.313.221-2.278-1.661.018-.97-.91-1.661-1.926-1.9A2.9,2.9,0,0,0-3510.124,906.907Z" transform="translate(-70.754 -5.906)" fill="#f8e58a"/>
      <path id="Trazado_587318" data-name="Trazado 587318" d="M-3485.729,968c-.085,1.4-.195,2.791-.244,4.188-.021.62-.253.815-.868.806-.6-.009-.827-.165-.857-.806-.123-2.619-.264-5.239-.489-7.851-.109-1.271.743-.9,1.342-.893s1.49-.392,1.338.893c-.144,1.213-.146,2.442-.209,3.664Z" transform="translate(-87.247 -58.251)" fill="#f1e087"/>
      <path id="Trazado_587319" data-name="Trazado 587319" d="M-3490.515,1007.436c.262,0,.525-.005.787,0,2.1.047,1.864-.372,1.878,1.867.01,1.661-.1,1.75-1.812,1.756q-.525,0-1.049,0c-2.438-.013-2.39-.014-2.428-2.5-.014-.944.283-1.25,1.184-1.137A11.691,11.691,0,0,0-3490.515,1007.436Z" transform="translate(-83.604 -90.687)" fill="#9c929d"/>
      <path id="Trazado_587320" data-name="Trazado 587320" d="M-3501,966.869a19.821,19.821,0,0,1-2.055-3.788c1.949.269,1.953.269,2.039,2.237C-3500.994,965.834-3501.006,966.352-3501,966.869Z" transform="translate(-76.297 -58.027)" fill="#f1e087"/>
      <path id="Trazado_587321" data-name="Trazado 587321" d="M-3469.17,951.417c-.385.018-.7-.034-.65-.548.05-.544.135-1.1.8-1.138a.74.74,0,0,1,.792.836C-3468.235,951.152-3468.628,951.384-3469.17,951.417Z" transform="translate(-100.785 -48.188)" fill="#d4c979"/>
      <path id="Trazado_587322" data-name="Trazado 587322" d="M-3501.416,951.438c-.459-.049-.874-.237-.879-.846,0-.513.288-.86.786-.828.655.042.774.563.808,1.128C-3500.67,951.405-3500.968,951.459-3501.416,951.438Z" transform="translate(-76.858 -48.212)" fill="#d4c979"/>
      <path id="Trazado_587323" data-name="Trazado 587323" d="M-3471.888,991.6a.164.164,0,0,1,.225.076l-.12,1.783-.1,0Z" transform="translate(-99.265 -79.029)" fill="#9c929d"/>
      <path id="Trazado_587324" data-name="Trazado 587324" d="M-3441.7,1031.05c3.487-2.953,6.67-5.677,9.889-8.357a1.734,1.734,0,0,1,2.569.228,1.69,1.69,0,0,1-.2,2.475c-2.029,1.8-4.114,3.537-6.18,5.3a1.817,1.817,0,0,1-1.235.356C-3438.344,1031.053-3439.831,1031.05-3441.7,1031.05Z" transform="translate(-121.512 -101.613)" fill="#f8d8c9"/>
      <path id="Trazado_587325" data-name="Trazado 587325" d="M-3446.609,1015.87a1.543,1.543,0,0,1,2.189.77,1.722,1.722,0,0,1-.518,2.325c-2.522,2.138-5.046,4.273-7.67,6.493a11.917,11.917,0,0,0-.929-2.71c1.146-.192,1.617-1.271,2.434-1.894,1.856-1.416,3.608-2.967,5.4-4.461C-3445.946,1016-3446.452,1016.261-3446.609,1015.87Z" transform="translate(-112.787 -96.778)" fill="#f8dbcc"/>
      <path id="Trazado_587326" data-name="Trazado 587326" d="M-3448.025,1016.429c.156.392.662.132.9.522-1.792,1.494-3.544,3.046-5.4,4.462-.817.624-1.288,1.7-2.434,1.894-.309-.319-.848-.559-.2-1.094,2.264-1.885,4.508-3.794,6.766-5.686C-3448.3,1016.453-3448.148,1016.459-3448.025,1016.429Z" transform="translate(-111.37 -97.338)" fill="#f4cabb"/>
      <path id="Trazado_587327" data-name="Trazado 587327" d="M-3508.909,1042.786a1.151,1.151,0,0,1-.971.262H-3523.2a1.2,1.2,0,0,1-.978-.248,10.674,10.674,0,0,1,3.12-.159c3.581-.022,7.162-.014,10.743,0A2.522,2.522,0,0,1-3508.909,1042.786Z" transform="translate(-60.732 -116.627)" fill="#c8aca0"/>
    </g>
  </g>
</svg>
