<svg xmlns="http://www.w3.org/2000/svg" width="107" height="107" viewBox="0 0 107 107">
  <g id="Grupo_846505" data-name="Grupo 846505" transform="translate(-240 -1286.742)">
    <rect id="Rectángulo_38178" data-name="Rectángulo 38178" width="107" height="107" transform="translate(240 1286.742)" fill="none"/>
    <g id="Grupo_847235" data-name="Grupo 847235" transform="translate(5031.5 1537.195)">
      <path id="Trazado_587453" data-name="Trazado 587453" d="M-4715.625-131.149q0,2.451,0,4.9c-1.351.23-1.794,1.086-1.78,2.384.035,3.457.015,6.915.01,10.372-.008,6.377-3.53,9.93-9.856,9.935-5.743,0-11.486-.009-17.229.007-1.854.006-2.409.574-2.449,2.394-.018.832,0,1.664,0,2.9-1.613-1.642-2.951-2.877-4.127-4.251a2.863,2.863,0,0,0-2.439-1.059c-3.4.031-6.8.027-10.2.007-5.51-.032-9.237-3.766-9.25-9.3q-.03-13.009,0-26.019c.013-5.619,3.744-9.309,9.4-9.326q8.176-.024,16.351.009c1.327.007,2.32-.306,2.562-1.781l3.476-.03a26.282,26.282,0,0,0,10.182,14.245A26.586,26.586,0,0,0-4715.625-131.149Zm-31.129,6.852q9.048,0,18.1,0c1.186,0,2.176-.336,2.22-1.681.047-1.45-.956-1.86-2.229-1.844-.82.011-1.64,0-2.46,0q-16.517,0-33.033,0c-1,0-2.035-.084-2.6,1.012-.686,1.328.345,2.5,2.26,2.5C-4758.586-124.287-4752.67-124.3-4746.754-124.3Zm-3.537,9.847c4.913,0,9.826-.009,14.739.006,1.2,0,2.184-.4,2.226-1.687.046-1.4-.956-1.845-2.241-1.844q-14.563.014-29.126,0a2.205,2.205,0,0,0-1.77.587,1.577,1.577,0,0,0-.367,1.779,2.028,2.028,0,0,0,2.152,1.164C-4759.883-114.458-4755.087-114.451-4750.292-114.45Zm-2.086-19.694q6.239,0,12.476,0c1.142,0,2.018-.472,2.061-1.676.047-1.311-.845-1.839-2.069-1.84q-12.477-.007-24.953,0a1.834,1.834,0,0,0-2.061,1.5c-.231,1.151.7,2,2.246,2.008C-4760.577-134.129-4756.477-134.144-4752.378-134.145Zm24.278,16.162a1.716,1.716,0,0,0-1.714,1.6,1.6,1.6,0,0,0,1.618,1.889,1.574,1.574,0,0,0,1.778-1.552C-4726.317-117.163-4726.966-117.763-4728.1-117.983Z" transform="translate(-6.514 -59.615)" fill="#c5e8fc"/>
      <path id="Trazado_587454" data-name="Trazado 587454" d="M-4658.611-190.765a26.59,26.59,0,0,1-15.348-4.613,26.286,26.286,0,0,1-10.181-14.245c-1.725-7.286-.9-14.214,3.236-20.532a24.889,24.889,0,0,1,20.482-11.741c5.818-.306,11.53-.01,16.945,2.7,15.772,7.883,18.923,29.545,5.906,41.439a3.67,3.67,0,0,0-1.375,3.142c.1,2.455.013,4.917.033,7.376.009,1.03.009,2.055-1.137,2.511s-1.855-.335-2.567-1.049q-2.542-2.55-5.1-5.085c-.357-.353-.648-.88-1.305-.687C-4652.163-190.628-4655.409-190.969-4658.611-190.765Zm16.167.238c0-2.174.109-3.764-.029-5.331a4.2,4.2,0,0,1,1.814-3.878c11.916-10.055,9.557-29.236-4.36-36.293-4.983-2.527-10.268-2.561-15.608-2.332a22.047,22.047,0,0,0-20.063,16.221,22.072,22.072,0,0,0,9.429,24.321c6.83,4.289,14.249,4,21.749,2.7a3.386,3.386,0,0,1,3.593,1.021C-4644.935-192.968-4643.835-191.944-4642.443-190.527Z" transform="translate(-63.529 0)" fill="#070605"/>
      <path id="Trazado_587455" data-name="Trazado 587455" d="M-4751.144-153.184c-.242,1.476-1.236,1.789-2.562,1.781q-8.175-.046-16.351-.009c-5.659.017-9.39,3.707-9.4,9.326q-.029,13.009,0,26.019c.013,5.535,3.74,9.269,9.25,9.3,3.4.02,6.8.024,10.2-.007a2.865,2.865,0,0,1,2.44,1.059c1.176,1.373,2.513,2.609,4.127,4.251,0-1.234-.016-2.066,0-2.9.04-1.821.594-2.389,2.449-2.394,5.743-.017,11.486,0,17.229-.007,6.326-.006,9.848-3.558,9.855-9.935,0-3.457.025-6.915-.011-10.372-.013-1.3.431-2.154,1.781-2.384,1.354.235,1.778,1.1,1.766,2.4-.037,3.925.05,7.853-.037,11.776a12.2,12.2,0,0,1-12.023,12.015c-5.331.1-10.665.069-16,0-1.255-.017-1.618.33-1.521,1.554.11,1.4.013,2.81.022,4.216a1.833,1.833,0,0,1-1.1,1.838,1.739,1.739,0,0,1-2.063-.53c-2-1.98-4.018-3.938-5.96-5.971a3.159,3.159,0,0,0-2.594-1.1c-2.986.081-5.977.061-8.964.018a12.258,12.258,0,0,1-12.372-12.4q-.067-13.446,0-26.893a12.229,12.229,0,0,1,12.208-12.378c5.741-.077,11.484,0,17.227-.031C-4752.253-154.956-4751.381-154.537-4751.144-153.184Z" transform="translate(0 -56.409)" fill="#040505"/>
      <path id="Trazado_587456" data-name="Trazado 587456" d="M-4735.73-83.438c-5.915,0-11.83.01-17.745-.006-1.916,0-2.946-1.177-2.26-2.5.565-1.1,1.6-1.013,2.6-1.012q16.516.005,33.033,0c.82,0,1.64.009,2.46,0,1.273-.016,2.277.394,2.229,1.844-.045,1.345-1.034,1.683-2.22,1.681Q-4726.682-83.447-4735.73-83.438Z" transform="translate(-17.539 -100.475)" fill="#030303"/>
      <path id="Trazado_587457" data-name="Trazado 587457" d="M-4739.254-55.459c-4.8,0-9.592-.007-14.388.006a2.029,2.029,0,0,1-2.152-1.164,1.577,1.577,0,0,1,.368-1.779,2.2,2.2,0,0,1,1.77-.587q14.563.008,29.127,0c1.285,0,2.286.443,2.241,1.844-.042,1.29-1.023,1.691-2.226,1.687C-4729.428-55.467-4734.341-55.458-4739.254-55.459Z" transform="translate(-17.552 -118.607)" fill="#030304"/>
      <path id="Trazado_587458" data-name="Trazado 587458" d="M-4741.324-111.414c-4.1,0-8.2.016-12.3-.007-1.547-.009-2.478-.857-2.246-2.008a1.834,1.834,0,0,1,2.061-1.5q12.478,0,24.953,0c1.224,0,2.115.529,2.068,1.84-.043,1.2-.919,1.676-2.061,1.676Q-4735.086-111.412-4741.324-111.414Z" transform="translate(-17.568 -82.346)" fill="#030304"/>
      <path id="Trazado_587459" data-name="Trazado 587459" d="M-4648.65-59c1.134.22,1.782.82,1.682,1.94a1.574,1.574,0,0,1-1.778,1.552,1.6,1.6,0,0,1-1.618-1.889A1.715,1.715,0,0,1-4648.65-59Z" transform="translate(-85.963 -118.595)" fill="#0d0f11"/>
      <path id="Trazado_587460" data-name="Trazado 587460" d="M-4635.9-184c-1.393-1.417-2.492-2.441-3.477-3.566a3.385,3.385,0,0,0-3.593-1.021c-7.5,1.3-14.918,1.585-21.749-2.7a22.072,22.072,0,0,1-9.429-24.321,22.047,22.047,0,0,1,20.063-16.221c5.341-.229,10.625-.2,15.609,2.332,13.916,7.057,16.276,26.238,4.36,36.293a4.2,4.2,0,0,0-1.815,3.878C-4635.793-187.765-4635.9-186.176-4635.9-184Zm-16.052-23.128c0,1.083-.024,1.787.007,2.488.049,1.117.5,1.982,1.744,2s1.731-.8,1.777-1.946a12.24,12.24,0,0,0,0-1.755,2.328,2.328,0,0,1,1.641-2.771,7.174,7.174,0,0,0,3.712-8.733,7.52,7.52,0,0,0-7.846-5.209,7.531,7.531,0,0,0-6.673,6.839c-.089,1.131.238,2.038,1.438,2.24s1.859-.47,2.03-1.649a8.367,8.367,0,0,1,.2-1.033,3.88,3.88,0,0,1,3.915-2.893,3.872,3.872,0,0,1,3.621,3.038,3.546,3.546,0,0,1-2.121,4.333C-4651.351-211.317-4652.336-209.529-4651.954-207.129Zm3.507,9.783a1.654,1.654,0,0,0-1.657-1.755,1.612,1.612,0,0,0-1.788,1.741,1.577,1.577,0,0,0,1.645,1.7A1.64,1.64,0,0,0-4648.447-197.347Z" transform="translate(-70.069 -6.525)" fill="#fcba52"/>
      <path id="Trazado_587461" data-name="Trazado 587461" d="M-4620.105-190.867c-.382-2.4.6-4.188,3.443-5.054a3.547,3.547,0,0,0,2.121-4.333,3.872,3.872,0,0,0-3.622-3.038,3.88,3.88,0,0,0-3.915,2.893,8.189,8.189,0,0,0-.2,1.033c-.172,1.179-.837,1.849-2.031,1.649s-1.525-1.108-1.437-2.239a7.531,7.531,0,0,1,6.673-6.839,7.519,7.519,0,0,1,7.845,5.209,7.175,7.175,0,0,1-3.712,8.733,2.328,2.328,0,0,0-1.641,2.771,12.24,12.24,0,0,1,0,1.755c-.045,1.142-.534,1.962-1.777,1.946s-1.694-.881-1.744-2C-4620.131-189.08-4620.105-189.784-4620.105-190.867Z" transform="translate(-101.916 -22.788)" fill="#080602"/>
      <path id="Trazado_587462" data-name="Trazado 587462" d="M-4606.081-136.9a1.641,1.641,0,0,1-1.8,1.682,1.578,1.578,0,0,1-1.646-1.7,1.612,1.612,0,0,1,1.788-1.741A1.655,1.655,0,0,1-4606.081-136.9Z" transform="translate(-112.435 -66.973)" fill="#100c05"/>
    </g>
  </g>
</svg>
