<svg xmlns="http://www.w3.org/2000/svg" xmlns:xlink="http://www.w3.org/1999/xlink" width="524.272" height="305" viewBox="0 0 524.272 305">
  <defs>
    <filter id="Elipse_7410" x="107.636" y="0" width="304" height="305" filterUnits="userSpaceOnUse">
      <feOffset dx="5" dy="5" input="SourceAlpha"/>
      <feGaussianBlur stdDeviation="12.5" result="blur"/>
      <feFlood flood-opacity="0.059"/>
      <feComposite operator="in" in2="blur"/>
      <feComposite in="SourceGraphic"/>
    </filter>
    <filter id="Elipse_7394" x="0" y="21.665" width="262.003" height="262.003" filterUnits="userSpaceOnUse">
      <feOffset dx="5" dy="5" input="SourceAlpha"/>
      <feGaussianBlur stdDeviation="12.5" result="blur-2"/>
      <feFlood flood-opacity="0.063"/>
      <feComposite operator="in" in2="blur-2"/>
      <feComposite in="SourceGraphic"/>
    </filter>
    <filter id="Elipse_7395" x="262.269" y="21.218" width="262.003" height="262.003" filterUnits="userSpaceOnUse">
      <feOffset dx="5" dy="5" input="SourceAlpha"/>
      <feGaussianBlur stdDeviation="12.5" result="blur-3"/>
      <feFlood flood-opacity="0.063"/>
      <feComposite operator="in" in2="blur-3"/>
      <feComposite in="SourceGraphic"/>
    </filter>
  </defs>
  <g id="Grupo_847369" data-name="Grupo 847369" transform="translate(-536.864 -9984.866)">
    <g id="Grupo_847336" data-name="Grupo 847336" transform="translate(-296 192.366)">
      <circle id="Elipse_7407" data-name="Elipse 7407" cx="22" cy="22" r="22" transform="translate(1040 9962)" fill="#ffd400" opacity="0.38"/>
      <circle id="Elipse_7408" data-name="Elipse 7408" cx="15" cy="15" r="15" transform="translate(1047 9969)" fill="#ffd400"/>
    </g>
    <g id="Grupo_847337" data-name="Grupo 847337" transform="translate(-19.031 114.335)">
      <circle id="Elipse_7409" data-name="Elipse 7409" cx="144.5" cy="144.5" r="144.5" transform="translate(669.031 9873.031)" fill="#f6f6f6"/>
      <g transform="matrix(1, 0, 0, 1, 555.9, 9870.53)" filter="url(#Elipse_7410)">
        <ellipse id="Elipse_7410-2" data-name="Elipse 7410" cx="114.5" cy="115" rx="114.5" ry="115" transform="translate(140.14 32.5)" fill="#fff"/>
      </g>
    </g>
    <circle id="Elipse_7392" data-name="Elipse 7392" cx="114.939" cy="114.939" r="114.939" transform="translate(547.927 10017.146)" fill="#00e7bf"/>
    <g transform="matrix(1, 0, 0, 1, 536.86, 9984.87)" filter="url(#Elipse_7394)">
      <ellipse id="Elipse_7394-2" data-name="Elipse 7394" cx="93.501" cy="93.501" rx="93.501" ry="93.501" transform="translate(32.5 54.17)" fill="#fff"/>
    </g>
    <g id="Grupo_847238" data-name="Grupo 847238" transform="translate(622.457 10064.988)">
      <path id="Trazado_587463" data-name="Trazado 587463" d="M-5014.937-569.343q0,1.927,0,3.854c-.9.178-1.564.62-1.569,1.622s.7,1.424,1.565,1.648q0,1.889,0,3.777a2,2,0,0,0-1.6,2.333c.075,1.309-.014,2.627.024,3.939.043,1.479-.679,2.112-2.106,2.09-1.1-.017-2.21-.059-3.308.014-1.069.071-1.506-.09-1.458-1.4a6.287,6.287,0,0,0-6.762-6.464,6.372,6.372,0,0,0-5.944,6.537c0,.457.5,1.279-.542,1.293-1.628.022-3.256.014-4.881-.054a1.138,1.138,0,0,1-1.178-1.053c.1-.179.274-.357.275-.537.021-2.515.02-5.03.021-7.545a.665.665,0,0,0-.489-.713c-.708-1.3-1.616-1.408-2.847-.634a3.088,3.088,0,0,1-4.239-.536,3.126,3.126,0,0,1-.062-4.035,3.093,3.093,0,0,1,4.337-.657c1.17.743,2.036.617,2.776-.534.154-.124.443-.247.445-.372.018-2.907.385-5.822-.172-8.717.33-.954,1.13-.955,1.932-.954,2.26,0,4.52.016,6.778-.005,2.015-.02,2.59-1.064,1.6-2.841a3.176,3.176,0,0,1,.573-4.266,3.091,3.091,0,0,1,4.046-.023c1.356,1.113,1.575,2.673.614,4.378-.937,1.663-.334,2.727,1.6,2.751,2.207.027,4.414,0,6.621.009,1.951.009,2.356.432,2.369,2.433,0,.841.038,1.683-.007,2.522A1.814,1.814,0,0,0-5014.937-569.343Z" transform="translate(5094.138 587.495)" fill="#a8fff0"/>
      <path id="Trazado_587464" data-name="Trazado 587464" d="M-5180.252-553.653a5.515,5.515,0,0,0,.073-.775c-.009-.758.876-1.551.3-2.152-.434-.456-1.357-.446-2.062-.644-1.012-.283-2.039-.517-3.029-.861a4.659,4.659,0,0,1-3.064-5.654c.6-2.392,1.255-4.772,1.926-7.145.561-1.976,1.678-2.247,3.146-.805a3.252,3.252,0,0,0,4.278.552,3.49,3.49,0,0,0,1.134-4.086,3.422,3.422,0,0,0-4.048-1.564c-1.981.518-2.835-.321-2.32-2.3.594-2.286,1.178-4.576,1.824-6.847.842-2.96,3.195-4.269,6.2-3.5,1.222.313,2.448.608,3.647.992.893.287,1.213.145,1.43-.877a6.3,6.3,0,0,1,9.475-4.139,5.927,5.927,0,0,1,2.771,7.311c-.372,1.139-.081,1.411.945,1.608,1.235.237,2.445.606,3.655.959a4.712,4.712,0,0,1,3.473,5.963c-.586,2.342-1.214,4.674-1.868,7-.557,1.978-1.681,2.248-3.156.8a3.169,3.169,0,0,0-4.27-.555,3.431,3.431,0,0,0-1.14,4.077,3.425,3.425,0,0,0,4.042,1.583c1.978-.512,2.842.32,2.333,2.29-.589,2.287-1.19,4.572-1.832,6.844-.832,2.947-3.172,4.263-6.195,3.512-1.171-.291-2.348-.58-3.5-.948-.964-.309-1.393-.225-1.629.957a6.25,6.25,0,0,1-6.75,4.908A6.327,6.327,0,0,1-5180.252-553.653Zm15.906-14.065a6.5,6.5,0,0,1,6.745-6.432c.961.047,2.053,1.08,2.729.33.625-.694.616-1.961.887-2.976.094-.355.189-.71.281-1.066.463-1.81.17-2.323-1.671-2.829-2.076-.57-4.162-1.1-6.237-1.674-2.091-.573-2.383-1.653-.888-3.207a3.372,3.372,0,0,0,.572-4.3,3.388,3.388,0,0,0-3.961-1.056,3.187,3.187,0,0,0-1.783,3.923c.52,2.163-.283,2.949-2.459,2.376s-4.357-1.179-6.538-1.765a1.694,1.694,0,0,0-2.377,1.351,32.217,32.217,0,0,1-.926,3.337c-.43,1.146-.156,1.527,1.063,1.818a6.023,6.023,0,0,1,4.658,7.279,6.454,6.454,0,0,1-6.708,5.228c-.917-.052-1.953-1.031-2.594-.351-.6.641-.609,1.849-.875,2.808q-.168.607-.325,1.217c-.485,1.894-.245,2.338,1.591,2.845,2.075.573,4.159,1.112,6.231,1.693,2.21.62,2.479,1.629.9,3.283a3.368,3.368,0,0,0-.566,4.183,3.43,3.43,0,0,0,4.084,1.1,3.215,3.215,0,0,0,1.687-3.966c-.527-2.044.3-2.859,2.384-2.32,2.185.567,4.375,1.12,6.544,1.742a1.713,1.713,0,0,0,2.478-1.37c.286-1.119.526-2.257.92-3.338.386-1.063.279-1.48-.987-1.741A5.954,5.954,0,0,1-5164.346-567.718Z" transform="translate(5188.186 594.377)" fill="#050707"/>
      <path id="Trazado_587465" data-name="Trazado 587465" d="M-5116.218-434.932c0-1.156-.012-2.313,0-3.469.025-2.154,1.006-2.724,2.881-1.683a3.221,3.221,0,0,0,4.688-1.3,3.216,3.216,0,0,0-1.847-4.381,3.116,3.116,0,0,0-2.851.339c-1.846,1.06-2.857.456-2.87-1.7-.014-2.365-.035-4.731.006-7.1a4.7,4.7,0,0,1,4.73-4.863c1.417-.062,2.838-.039,4.257,0,.735.018,1.075-.054,1.049-1-.109-4.011,2.619-6.915,6.33-6.889a6.41,6.41,0,0,1,6.3,6.823c-.025,1.017.333,1.1,1.141,1.068,1.26-.051,2.523-.032,3.784-.007,3.178.063,5.044,1.946,5.1,5.15.025,1.314.045,2.63-.01,3.941-.032.761.19.923.965.914,4.029-.051,6.926,2.64,6.924,6.336,0,3.64-3,6.4-6.967,6.3-.877-.023-.931.29-.917.96.029,1.366.04,2.734,0,4.1a4.744,4.744,0,0,1-5.112,4.971q-11.275.022-22.549,0a4.745,4.745,0,0,1-5.031-5.04C-5116.232-432.619-5116.218-433.776-5116.218-434.932Zm16.349,5.352q5.281,0,10.561,0c2.281,0,2.605-.336,2.612-2.676.006-2.1-.022-4.2.01-6.305.03-1.956,1.079-2.554,2.748-1.611a3.181,3.181,0,0,0,4.375-.609,3.111,3.111,0,0,0-.021-4.051,3.187,3.187,0,0,0-4.268-.57c-1.775,1-2.809.424-2.836-1.609-.027-2,0-3.993-.007-5.99,0-2.678-.232-2.914-2.84-2.917-2.049,0-4.1.029-6.147-.011-1.928-.037-2.521-1.111-1.594-2.781.965-1.739.749-3.241-.629-4.37a3.143,3.143,0,0,0-4.054.05,3.223,3.223,0,0,0-.54,4.276c.991,1.755.4,2.8-1.652,2.828s-4.1,0-6.148.008c-2.471,0-2.749.276-2.756,2.678a23.567,23.567,0,0,1-.018,2.52c-.138,1.233.145,1.677,1.558,1.632a6.364,6.364,0,0,1,6.328,5.829,6.461,6.461,0,0,1-5.138,6.782c-.9.181-2.157-.5-2.606.348-.417.782-.113,1.949-.123,2.947,0,.42,0,.841,0,1.261.022,1.887.447,2.332,2.308,2.338C-5107.121-429.573-5103.494-429.581-5099.869-429.581Z" transform="translate(5138.949 507.199)" fill="#050606"/>
      <path id="Trazado_587466" data-name="Trazado 587466" d="M-5049.79-573.273c-.74,1.15-1.605,1.276-2.778.534a3.092,3.092,0,0,0-4.335.657,3.125,3.125,0,0,0,.061,4.035,3.088,3.088,0,0,0,4.239.536c1.231-.774,2.139-.662,2.847.635.148,2.93-.208,5.871.192,8.8a1.139,1.139,0,0,0,1.179,1.053c1.626.068,3.254.076,4.881.054,1.044-.014.539-.836.542-1.292a6.373,6.373,0,0,1,5.945-6.537,6.29,6.29,0,0,1,6.762,6.464c-.049,1.31.388,1.471,1.457,1.4,1.1-.073,2.205-.031,3.308-.014,1.427.022,2.15-.611,2.106-2.09-.039-1.312.051-2.63-.024-3.939a2,2,0,0,1,1.6-2.333,2.1,2.1,0,0,1,1.6,2.483c-.114,1.357-.007,2.731-.029,4.1a4.679,4.679,0,0,1-4.666,4.92c-2.571.105-5.151.081-7.724.014-1.715-.044-2.3-1.2-1.392-2.683a3.159,3.159,0,0,0-.086-3.937,3.148,3.148,0,0,0-4.233-.728,3.2,3.2,0,0,0-1.094,4.169c1.217,2.455.773,3.194-1.932,3.2-2.1.005-4.205.024-6.307-.005-3.381-.047-5.213-1.914-5.256-5.322-.015-1.156-.075-2.318.018-3.467.084-1.053-.262-1.249-1.292-1.222a6.3,6.3,0,0,1-6.456-7.6,6.311,6.311,0,0,1,6.5-5.062c1.184.071,1.285-.329,1.246-1.263-.055-1.311-.055-2.629,0-3.941a4.721,4.721,0,0,1,4.945-4.815q2.049-.039,4.1,0c.649.013.987-.008.974-.893-.058-4.233,2.7-7.1,6.554-7a6.489,6.489,0,0,1,6.068,7.336,2.929,2.929,0,0,0,.033.549c1.688,0,3.368-.023,5.045,0a4.74,4.74,0,0,1,4.961,4.952c.018,1.051-.039,2.1.015,3.153a1.825,1.825,0,0,1-1.587,2.151,1.813,1.813,0,0,1-1.6-2.141c.045-.838.012-1.681.007-2.521-.013-2-.418-2.425-2.369-2.434-2.208-.01-4.415.017-6.621-.009-1.932-.024-2.536-1.088-1.6-2.751.96-1.7.742-3.265-.614-4.378a3.092,3.092,0,0,0-4.047.023,3.178,3.178,0,0,0-.572,4.267c.994,1.777.42,2.821-1.594,2.841-2.259.022-4.519.006-6.778.005-.8,0-1.6,0-1.932.954a3.262,3.262,0,0,0-.214,1.694C-5049.757-578.2-5049.771-575.738-5049.79-573.273Z" transform="translate(5101.001 594.369)" fill="#070706"/>
      <path id="Trazado_587467" data-name="Trazado 587467" d="M-5177.858-423.085a6.084,6.084,0,0,1,5.612,3.859,5.768,5.768,0,0,1-1.677,6.694,1.876,1.876,0,0,0-.788,2.377c.38,1.117.086,2.064-1.124,2.332-1.141.254-1.633-.508-1.939-1.557-.658-2.247-.4-4.078,1.713-5.494a2.555,2.555,0,0,0,.783-3.385,2.647,2.647,0,0,0-2.8-1.624,2.725,2.725,0,0,0-2.581,2.353,4.671,4.671,0,0,0-.072.78,1.48,1.48,0,0,1-1.566,1.606c-1.069-.01-1.531-.755-1.595-1.779A6.1,6.1,0,0,1-5177.858-423.085Z" transform="translate(5185.255 477.163)" fill="#080909"/>
      <path id="Trazado_587468" data-name="Trazado 587468" d="M-4957.534-451.228a5.931,5.931,0,0,1-4.962,5.842c-.955.142-1.52.385-1.72,1.409-.218,1.1-.794,2.111-2.136,1.707-1.436-.431-1.19-1.571-.881-2.723a4.182,4.182,0,0,1,4.057-3.506,2.561,2.561,0,0,0,2.437-2.474,2.665,2.665,0,0,0-1.828-2.971,2.72,2.72,0,0,0-3.339,1.017c-.131.162-.214.361-.338.53a1.471,1.471,0,0,1-2.182.48,1.531,1.531,0,0,1-.461-2.2,6.049,6.049,0,0,1,6.651-3.033A6.047,6.047,0,0,1-4957.534-451.228Z" transform="translate(5038.305 500.581)" fill="#090909"/>
      <path id="Trazado_587469" data-name="Trazado 587469" d="M-5158.427-362.017a1.5,1.5,0,0,1-1.535-1.633,1.467,1.467,0,0,1,1.667-1.492,1.436,1.436,0,0,1,1.444,1.55A1.481,1.481,0,0,1-5158.427-362.017Z" transform="translate(5168.875 437.516)" fill="#0e0e0e"/>
      <path id="Trazado_587470" data-name="Trazado 587470" d="M-4940.725-521.4c-.867-.224-1.569-.639-1.564-1.648s.669-1.444,1.568-1.621c.891.188,1.557.627,1.558,1.627S-4939.867-521.63-4940.725-521.4Z" transform="translate(5019.92 546.678)" fill="#0d0c09"/>
      <path id="Trazado_587471" data-name="Trazado 587471" d="M-4968.179-397.257c-1.072-.1-1.68-.648-1.67-1.612a1.452,1.452,0,0,1,1.61-1.547,1.43,1.43,0,0,1,1.494,1.5A1.545,1.545,0,0,1-4968.179-397.257Z" transform="translate(5038.78 461.652)" fill="#111"/>
      <path id="Trazado_587472" data-name="Trazado 587472" d="M-5025.975-547.254c.017-2.465.032-4.93.059-7.4a3.252,3.252,0,0,1,.215-1.694c.556,2.9.189,5.811.171,8.717C-5025.531-547.5-5025.82-547.379-5025.975-547.254Z" transform="translate(5077.186 568.351)" fill="#68e2a0"/>
      <path id="Trazado_587473" data-name="Trazado 587473" d="M-5025.685-498.5c-.4-2.924-.045-5.865-.193-8.8a.666.666,0,0,1,.488.713c0,2.515,0,5.03-.021,7.545C-5025.411-498.857-5025.59-498.679-5025.685-498.5Z" transform="translate(5077.124 534.787)" fill="#68e2a0"/>
      <path id="Trazado_587474" data-name="Trazado 587474" d="M-5157.378-560.8a5.953,5.953,0,0,0,4.86,6.127c1.266.261,1.372.678.985,1.741-.393,1.081-.634,2.219-.919,3.338a1.713,1.713,0,0,1-2.478,1.37c-2.169-.622-4.36-1.175-6.544-1.742-2.08-.539-2.911.277-2.383,2.32a3.217,3.217,0,0,1-1.687,3.966,3.43,3.43,0,0,1-4.084-1.1,3.367,3.367,0,0,1,.567-4.183c1.578-1.654,1.309-2.664-.9-3.283-2.073-.581-4.156-1.121-6.23-1.693-1.836-.507-2.078-.952-1.592-2.846q.156-.61.326-1.217c.266-.959.27-2.167.875-2.809.641-.68,1.675.3,2.593.351a6.453,6.453,0,0,0,6.709-5.228,6.024,6.024,0,0,0-4.658-7.279c-1.22-.291-1.494-.672-1.063-1.818a32.338,32.338,0,0,0,.926-3.337,1.694,1.694,0,0,1,2.377-1.351c2.181.586,4.355,1.191,6.539,1.765s2.979-.213,2.458-2.377a3.187,3.187,0,0,1,1.784-3.923,3.387,3.387,0,0,1,3.96,1.056,3.372,3.372,0,0,1-.572,4.3c-1.5,1.554-1.2,2.634.888,3.207,2.075.569,4.161,1.1,6.237,1.674,1.842.505,2.136,1.019,1.671,2.829-.091.356-.187.711-.281,1.066-.27,1.015-.261,2.282-.887,2.976-.675.749-1.769-.283-2.729-.33A6.5,6.5,0,0,0-5157.378-560.8Z" transform="translate(5181.219 587.455)" fill="#a8fff0"/>
      <path id="Trazado_587475" data-name="Trazado 587475" d="M-5093.192-422.685c-3.626,0-7.252.008-10.877,0-1.861-.006-2.286-.451-2.308-2.338,0-.42-.006-.841,0-1.261.009-1-.3-2.165.122-2.947.45-.846,1.706-.167,2.607-.348a6.461,6.461,0,0,0,5.138-6.782,6.364,6.364,0,0,0-6.327-5.829c-1.414.046-1.7-.4-1.559-1.632a23.694,23.694,0,0,0,.019-2.52c.006-2.4.284-2.674,2.756-2.678,2.049,0,4.1.023,6.147-.008s2.644-1.073,1.654-2.828a3.22,3.22,0,0,1,.54-4.276,3.144,3.144,0,0,1,4.055-.05c1.378,1.129,1.594,2.631.628,4.37-.928,1.67-.333,2.744,1.594,2.781,2.049.04,4.1.008,6.147.011,2.608,0,2.837.24,2.84,2.917,0,2-.02,3.993.006,5.99.027,2.033,1.062,2.607,2.836,1.609a3.188,3.188,0,0,1,4.269.57,3.114,3.114,0,0,1,.021,4.051,3.182,3.182,0,0,1-4.376.609c-1.669-.943-2.717-.345-2.748,1.611-.032,2.1,0,4.2-.009,6.3-.008,2.34-.332,2.673-2.613,2.676Q-5087.912-422.68-5093.192-422.685Z" transform="translate(5132.273 500.303)" fill="#a8fff0"/>
    </g>
    <path id="Trazado_587830" data-name="Trazado 587830" d="M21.47,12.892a7.725,7.725,0,0,1-.668,3.313,5.03,5.03,0,0,1-1.912,2.2,5.288,5.288,0,0,1-2.852.773,5.324,5.324,0,0,1-2.839-.765,5.08,5.08,0,0,1-1.934-2.184,7.5,7.5,0,0,1-.694-3.265v-.633A7.685,7.685,0,0,1,11.252,9,5.072,5.072,0,0,1,13.177,6.8a5.3,5.3,0,0,1,2.843-.769,5.3,5.3,0,0,1,2.843.769A5.072,5.072,0,0,1,20.789,9a7.663,7.663,0,0,1,.681,3.318Zm-2.672-.58a5.385,5.385,0,0,0-.721-3.059,2.349,2.349,0,0,0-2.057-1.046A2.349,2.349,0,0,0,13.973,9.24a5.324,5.324,0,0,0-.729,3.028v.624a5.453,5.453,0,0,0,.721,3.041,2.342,2.342,0,0,0,2.074,1.081,2.321,2.321,0,0,0,2.039-1.042,5.421,5.421,0,0,0,.721-3.037Zm12.99,2.021a5.758,5.758,0,0,1-.976,3.564,3.231,3.231,0,0,1-2.725,1.279,2.969,2.969,0,0,1-2.47-1.187L25.5,19H23.219V5.5h2.54v4.843A2.893,2.893,0,0,1,28.07,9.314,3.258,3.258,0,0,1,30.8,10.593a5.767,5.767,0,0,1,.989,3.6Zm-2.54-.185a3.783,3.783,0,0,0-.457-2.1,1.545,1.545,0,0,0-1.362-.664,1.676,1.676,0,0,0-1.67.993v3.753a1.7,1.7,0,0,0,1.688,1,1.568,1.568,0,0,0,1.617-1.213A6.257,6.257,0,0,0,29.248,14.148ZM36.042,9.49V19.519a3.4,3.4,0,0,1-.835,2.448,3.174,3.174,0,0,1-2.408.875,5.165,5.165,0,0,1-1.257-.149V20.679a4.768,4.768,0,0,0,.8.079q1.151,0,1.151-1.222V9.49ZM33.291,7.029a1.251,1.251,0,0,1,.382-.94,1.654,1.654,0,0,1,2.083,0,1.251,1.251,0,0,1,.382.94,1.247,1.247,0,0,1-.391.949,1.629,1.629,0,0,1-2.065,0A1.247,1.247,0,0,1,33.291,7.029Zm9.114,12.146A4.668,4.668,0,0,1,39,17.893a4.561,4.561,0,0,1-1.314-3.419v-.246a5.745,5.745,0,0,1,.554-2.562,4.064,4.064,0,0,1,1.569-1.74,4.4,4.4,0,0,1,2.316-.611,3.947,3.947,0,0,1,3.072,1.23,5,5,0,0,1,1.121,3.489v1.037H40.261A2.36,2.36,0,0,0,41,16.565a2.245,2.245,0,0,0,1.569.563,2.742,2.742,0,0,0,2.294-1.063l1.248,1.4a3.813,3.813,0,0,1-1.547,1.261A5.075,5.075,0,0,1,42.405,19.176Zm-.29-7.813a1.587,1.587,0,0,0-1.226.512,2.651,2.651,0,0,0-.6,1.466H43.82v-.2a1.891,1.891,0,0,0-.457-1.311A1.638,1.638,0,0,0,42.115,11.362Zm9.6,5.766a1.666,1.666,0,0,0,1.143-.387,1.355,1.355,0,0,0,.457-1.028h2.382a3.258,3.258,0,0,1-.527,1.771,3.48,3.48,0,0,1-1.419,1.248,4.442,4.442,0,0,1-1.991.444,4.129,4.129,0,0,1-3.217-1.3A5.13,5.13,0,0,1,47.362,14.3v-.167a5.071,5.071,0,0,1,1.169-3.507,4.08,4.08,0,0,1,3.208-1.31A4,4,0,0,1,54.6,10.33a3.594,3.594,0,0,1,1.094,2.7H53.313a1.745,1.745,0,0,0-.457-1.206,1.7,1.7,0,0,0-2.5.183,3.749,3.749,0,0,0-.453,2.1v.264a3.8,3.8,0,0,0,.448,2.113A1.549,1.549,0,0,0,51.713,17.128ZM59.825,19H57.276V9.49h2.549Zm-2.7-11.971a1.251,1.251,0,0,1,.382-.94,1.648,1.648,0,0,1,2.079,0,1.244,1.244,0,0,1,.387.94,1.247,1.247,0,0,1-.391.949,1.629,1.629,0,0,1-2.065,0A1.247,1.247,0,0,1,57.127,7.029Zm4.395,7.128a5.64,5.64,0,0,1,.545-2.522,3.989,3.989,0,0,1,1.569-1.714,4.577,4.577,0,0,1,2.377-.606,4.33,4.33,0,0,1,3.142,1.178,4.727,4.727,0,0,1,1.358,3.2l.018.65a4.97,4.97,0,0,1-1.222,3.511,4.735,4.735,0,0,1-6.561,0,5.058,5.058,0,0,1-1.226-3.586Zm2.54.18a3.555,3.555,0,0,0,.51,2.073,1.831,1.831,0,0,0,2.9.009,3.89,3.89,0,0,0,.519-2.267,3.519,3.519,0,0,0-.519-2.06,1.686,1.686,0,0,0-1.459-.731,1.658,1.658,0,0,0-1.441.726A3.955,3.955,0,0,0,64.062,14.338ZM74.433,9.49l.079,1.1a3.32,3.32,0,0,1,2.733-1.274,2.759,2.759,0,0,1,2.25.888,4.142,4.142,0,0,1,.756,2.654V19h-2.54V12.918a1.648,1.648,0,0,0-.352-1.173,1.574,1.574,0,0,0-1.169-.365,1.747,1.747,0,0,0-1.608.914V19h-2.54V9.49Zm12.12,9.686a4.668,4.668,0,0,1-3.406-1.283,4.561,4.561,0,0,1-1.314-3.419v-.246a5.745,5.745,0,0,1,.554-2.562,4.064,4.064,0,0,1,1.569-1.74,4.4,4.4,0,0,1,2.316-.611,3.947,3.947,0,0,1,3.072,1.23,5,5,0,0,1,1.121,3.489v1.037H84.408a2.36,2.36,0,0,0,.743,1.494,2.245,2.245,0,0,0,1.569.563,2.742,2.742,0,0,0,2.294-1.063l1.248,1.4a3.813,3.813,0,0,1-1.547,1.261A5.075,5.075,0,0,1,86.553,19.176Zm-.29-7.813a1.587,1.587,0,0,0-1.226.512,2.651,2.651,0,0,0-.6,1.466h3.533v-.2a1.891,1.891,0,0,0-.457-1.311A1.638,1.638,0,0,0,86.263,11.362Zm10.793,5.01a.818.818,0,0,0-.461-.734,5.241,5.241,0,0,0-1.481-.479q-3.393-.712-3.393-2.883a2.613,2.613,0,0,1,1.05-2.114,4.237,4.237,0,0,1,2.747-.848,4.56,4.56,0,0,1,2.9.853A2.687,2.687,0,0,1,99.5,12.382h-2.54a1.229,1.229,0,0,0-.352-.9,1.488,1.488,0,0,0-1.1-.356,1.52,1.52,0,0,0-.993.29.916.916,0,0,0-.352.738.783.783,0,0,0,.4.681,4.114,4.114,0,0,0,1.349.448,11.019,11.019,0,0,1,1.6.426,2.628,2.628,0,0,1,2.013,2.558,2.481,2.481,0,0,1-1.116,2.1,4.815,4.815,0,0,1-2.883.8A5.029,5.029,0,0,1,93.4,18.75a3.561,3.561,0,0,1-1.455-1.169,2.716,2.716,0,0,1-.527-1.6H93.83a1.326,1.326,0,0,0,.5,1.037,1.987,1.987,0,0,0,1.248.36,1.839,1.839,0,0,0,1.1-.277A.861.861,0,0,0,97.056,16.372ZM14.4,35.9,16.17,29.49h2.654L15.616,39H13.19L9.982,29.49h2.654Zm9.914,3.278a4.668,4.668,0,0,1-3.406-1.283A4.561,4.561,0,0,1,19.6,34.474v-.246a5.745,5.745,0,0,1,.554-2.562,4.064,4.064,0,0,1,1.569-1.74,4.4,4.4,0,0,1,2.316-.611,3.947,3.947,0,0,1,3.072,1.23,5,5,0,0,1,1.121,3.489v1.037H22.173a2.36,2.36,0,0,0,.743,1.494,2.245,2.245,0,0,0,1.569.563,2.742,2.742,0,0,0,2.294-1.063l1.248,1.4a3.813,3.813,0,0,1-1.547,1.261A5.075,5.075,0,0,1,24.317,39.176Zm-.29-7.813a1.587,1.587,0,0,0-1.226.512,2.651,2.651,0,0,0-.6,1.466h3.533v-.2a1.891,1.891,0,0,0-.457-1.311A1.638,1.638,0,0,0,24.027,31.362Zm10.986.51a6.9,6.9,0,0,0-.914-.07,1.86,1.86,0,0,0-1.89.976V39H29.67V29.49h2.4l.07,1.134a2.354,2.354,0,0,1,2.118-1.31,2.662,2.662,0,0,1,.791.114Zm.826,2.3a5.731,5.731,0,0,1,1-3.542,3.237,3.237,0,0,1,2.729-1.318,2.913,2.913,0,0,1,2.294,1.037V25.5h2.549V39H42.115l-.123-1.011a2.989,2.989,0,0,1-2.443,1.187,3.228,3.228,0,0,1-2.694-1.323A5.916,5.916,0,0,1,35.84,34.175Zm2.54.189a3.754,3.754,0,0,0,.466,2.051,1.517,1.517,0,0,0,1.354.713,1.7,1.7,0,0,0,1.661-.995V32.375a1.675,1.675,0,0,0-1.644-.995Q38.38,31.38,38.38,34.364ZM51.889,39a2.821,2.821,0,0,1-.255-.853,3.073,3.073,0,0,1-2.4,1.028,3.376,3.376,0,0,1-2.316-.809A2.6,2.6,0,0,1,46,36.328a2.687,2.687,0,0,1,1.121-2.32,5.529,5.529,0,0,1,3.239-.817h1.169v-.545a1.567,1.567,0,0,0-.338-1.055,1.331,1.331,0,0,0-1.068-.4,1.513,1.513,0,0,0-1.006.308,1.045,1.045,0,0,0-.365.844h-2.54a2.551,2.551,0,0,1,.51-1.529,3.37,3.37,0,0,1,1.441-1.1,5.253,5.253,0,0,1,2.092-.4,4.15,4.15,0,0,1,2.791.883,3.09,3.09,0,0,1,1.033,2.483V36.8a4.546,4.546,0,0,0,.378,2.048V39Zm-2.1-1.767a2.188,2.188,0,0,0,1.037-.25,1.645,1.645,0,0,0,.7-.672V34.676h-.949q-1.907,0-2.03,1.318l-.009.149a1.017,1.017,0,0,0,.334.782A1.3,1.3,0,0,0,49.788,37.233Zm5.845-3.059a5.731,5.731,0,0,1,1-3.542,3.237,3.237,0,0,1,2.729-1.318,2.913,2.913,0,0,1,2.294,1.037V25.5H64.2V39H61.908l-.123-1.011a2.989,2.989,0,0,1-2.443,1.187,3.228,3.228,0,0,1-2.694-1.323A5.916,5.916,0,0,1,55.633,34.175Zm2.54.189a3.754,3.754,0,0,0,.466,2.051,1.517,1.517,0,0,0,1.354.713,1.7,1.7,0,0,0,1.661-.995V32.375a1.675,1.675,0,0,0-1.644-.995Q58.173,31.38,58.173,34.364Zm12.375,4.812a4.668,4.668,0,0,1-3.406-1.283,4.561,4.561,0,0,1-1.314-3.419v-.246a5.745,5.745,0,0,1,.554-2.562,4.064,4.064,0,0,1,1.569-1.74,4.4,4.4,0,0,1,2.316-.611,3.947,3.947,0,0,1,3.072,1.23,5,5,0,0,1,1.121,3.489v1.037H68.4a2.36,2.36,0,0,0,.743,1.494,2.245,2.245,0,0,0,1.569.563,2.742,2.742,0,0,0,2.294-1.063l1.248,1.4a3.813,3.813,0,0,1-1.547,1.261A5.075,5.075,0,0,1,70.548,39.176Zm-.29-7.813a1.587,1.587,0,0,0-1.226.512,2.651,2.651,0,0,0-.6,1.466h3.533v-.2a1.891,1.891,0,0,0-.457-1.311A1.638,1.638,0,0,0,70.258,31.362Zm10.986.51a6.9,6.9,0,0,0-.914-.07,1.86,1.86,0,0,0-1.89.976V39H75.9V29.49h2.4l.07,1.134a2.354,2.354,0,0,1,2.118-1.31,2.662,2.662,0,0,1,.791.114ZM87.713,39a2.821,2.821,0,0,1-.255-.853,3.073,3.073,0,0,1-2.4,1.028,3.376,3.376,0,0,1-2.316-.809,2.6,2.6,0,0,1-.918-2.039,2.687,2.687,0,0,1,1.121-2.32,5.529,5.529,0,0,1,3.239-.817h1.169v-.545a1.567,1.567,0,0,0-.338-1.055,1.331,1.331,0,0,0-1.068-.4,1.513,1.513,0,0,0-1.006.308,1.045,1.045,0,0,0-.365.844h-2.54a2.551,2.551,0,0,1,.51-1.529,3.37,3.37,0,0,1,1.441-1.1,5.253,5.253,0,0,1,2.092-.4,4.15,4.15,0,0,1,2.791.883A3.09,3.09,0,0,1,89.9,32.681V36.8a4.546,4.546,0,0,0,.378,2.048V39Zm-2.1-1.767a2.188,2.188,0,0,0,1.037-.25,1.645,1.645,0,0,0,.7-.672V34.676H86.4q-1.907,0-2.03,1.318l-.009.149a1.017,1.017,0,0,0,.334.782A1.3,1.3,0,0,0,85.612,37.233ZM97,36.372a.818.818,0,0,0-.461-.734,5.241,5.241,0,0,0-1.481-.479q-3.393-.712-3.393-2.883a2.613,2.613,0,0,1,1.05-2.114,4.237,4.237,0,0,1,2.747-.848,4.56,4.56,0,0,1,2.9.853,2.687,2.687,0,0,1,1.085,2.215h-2.54a1.229,1.229,0,0,0-.352-.9,1.488,1.488,0,0,0-1.1-.356,1.52,1.52,0,0,0-.993.29.916.916,0,0,0-.352.738.783.783,0,0,0,.4.681,4.114,4.114,0,0,0,1.349.448,11.019,11.019,0,0,1,1.6.426,2.628,2.628,0,0,1,2.013,2.558,2.481,2.481,0,0,1-1.116,2.1,4.815,4.815,0,0,1-2.883.8,5.029,5.029,0,0,1-2.123-.426A3.561,3.561,0,0,1,91.9,37.581a2.716,2.716,0,0,1-.527-1.6h2.408a1.326,1.326,0,0,0,.5,1.037,1.987,1.987,0,0,0,1.248.36,1.839,1.839,0,0,0,1.1-.277A.861.861,0,0,0,97,36.372Z" transform="translate(614 10154.366)" fill="#12263f"/>
    <circle id="Elipse_7393" data-name="Elipse 7393" cx="114.939" cy="114.939" r="114.939" transform="translate(810.196 10017.146)" fill="#f27b58"/>
    <g transform="matrix(1, 0, 0, 1, 536.86, 9984.87)" filter="url(#Elipse_7395)">
      <ellipse id="Elipse_7395-2" data-name="Elipse 7395" cx="93.501" cy="93.501" rx="93.501" ry="93.501" transform="translate(294.77 53.72)" fill="#fff"/>
    </g>
    <g id="Grupo_847239" data-name="Grupo 847239" transform="translate(884.726 10064.988)">
      <path id="Trazado_587476" data-name="Trazado 587476" d="M-4615.072-569.343q0,1.927,0,3.854c-.9.177-1.564.62-1.569,1.621s.7,1.424,1.564,1.648q0,1.889,0,3.777a2,2,0,0,0-1.6,2.333c.074,1.309-.015,2.627.023,3.939.043,1.479-.678,2.112-2.106,2.09-1.1-.017-2.21-.059-3.309.014-1.068.071-1.506-.09-1.457-1.4a6.288,6.288,0,0,0-6.761-6.464,6.372,6.372,0,0,0-5.945,6.537c0,.457.5,1.279-.542,1.293-1.627.022-3.256.014-4.881-.054a1.139,1.139,0,0,1-1.18-1.053c.1-.179.275-.357.276-.537.021-2.515.019-5.03.019-7.545a.664.664,0,0,0-.488-.713c-.708-1.3-1.615-1.408-2.848-.635a3.087,3.087,0,0,1-4.238-.536,3.123,3.123,0,0,1-.062-4.035,3.093,3.093,0,0,1,4.336-.657c1.172.743,2.037.617,2.777-.534.155-.124.444-.247.445-.372.019-2.907.384-5.822-.172-8.717.33-.954,1.129-.954,1.932-.954,2.259,0,4.519.016,6.778-.005,2.015-.02,2.589-1.064,1.593-2.841a3.178,3.178,0,0,1,.574-4.266,3.092,3.092,0,0,1,4.047-.023c1.355,1.113,1.574,2.673.614,4.378-.937,1.662-.334,2.727,1.6,2.751,2.207.027,4.414,0,6.621.009,1.951.009,2.355.432,2.369,2.433,0,.841.038,1.683-.007,2.522A1.814,1.814,0,0,0-4615.072-569.343Z" transform="translate(4694.274 587.495)" fill="#ffa084"/>
      <path id="Trazado_587477" data-name="Trazado 587477" d="M-4780.387-553.653a5.715,5.715,0,0,0,.074-.775c-.01-.758.875-1.551.3-2.152-.434-.456-1.358-.446-2.063-.644-1.011-.283-2.039-.517-3.028-.861a4.661,4.661,0,0,1-3.065-5.654c.6-2.392,1.256-4.772,1.928-7.145.56-1.976,1.676-2.247,3.145-.805a3.253,3.253,0,0,0,4.279.552,3.49,3.49,0,0,0,1.135-4.086,3.423,3.423,0,0,0-4.049-1.564c-1.98.518-2.834-.32-2.32-2.3.594-2.286,1.179-4.576,1.825-6.847.841-2.96,3.194-4.269,6.2-3.5,1.22.313,2.448.607,3.646.992.894.287,1.213.145,1.429-.877a6.3,6.3,0,0,1,9.476-4.139,5.926,5.926,0,0,1,2.771,7.311c-.373,1.139-.082,1.411.945,1.608,1.234.237,2.445.606,3.655.959a4.714,4.714,0,0,1,3.473,5.963q-.88,3.512-1.869,7c-.558,1.978-1.682,2.248-3.157.8a3.169,3.169,0,0,0-4.27-.555,3.432,3.432,0,0,0-1.141,4.077,3.426,3.426,0,0,0,4.043,1.583c1.979-.512,2.842.32,2.333,2.29-.59,2.287-1.191,4.572-1.833,6.845-.832,2.947-3.171,4.263-6.194,3.512-1.172-.291-2.347-.58-3.5-.948-.962-.309-1.392-.225-1.628.957a6.251,6.251,0,0,1-6.751,4.908A6.328,6.328,0,0,1-4780.387-553.653Zm15.907-14.065a6.5,6.5,0,0,1,6.745-6.432c.96.047,2.053,1.08,2.729.33.626-.694.617-1.961.886-2.976.1-.355.19-.71.282-1.066.464-1.81.171-2.323-1.672-2.829-2.075-.57-4.161-1.1-6.236-1.674-2.091-.573-2.383-1.653-.888-3.207a3.372,3.372,0,0,0,.571-4.3,3.386,3.386,0,0,0-3.96-1.056,3.187,3.187,0,0,0-1.784,3.923c.52,2.164-.283,2.949-2.458,2.377s-4.359-1.179-6.539-1.765a1.693,1.693,0,0,0-2.376,1.351,31.973,31.973,0,0,1-.926,3.337c-.43,1.146-.155,1.527,1.063,1.818a6.024,6.024,0,0,1,4.658,7.279,6.453,6.453,0,0,1-6.709,5.228c-.917-.052-1.952-1.031-2.594-.351-.6.641-.608,1.849-.874,2.809q-.168.607-.326,1.217c-.485,1.894-.244,2.338,1.592,2.845,2.075.573,4.158,1.113,6.23,1.693,2.21.62,2.479,1.629.9,3.283a3.368,3.368,0,0,0-.567,4.183,3.43,3.43,0,0,0,4.085,1.1,3.214,3.214,0,0,0,1.687-3.966c-.527-2.044.3-2.859,2.383-2.32,2.186.567,4.375,1.12,6.545,1.742a1.713,1.713,0,0,0,2.477-1.37c.285-1.119.526-2.257.92-3.338.387-1.063.28-1.48-.986-1.741A5.952,5.952,0,0,1-4764.48-567.718Z" transform="translate(4788.321 594.377)" fill="#050707"/>
      <path id="Trazado_587478" data-name="Trazado 587478" d="M-4716.354-434.932c0-1.156-.011-2.313,0-3.469.024-2.154,1.006-2.724,2.881-1.683a3.221,3.221,0,0,0,4.688-1.3,3.216,3.216,0,0,0-1.848-4.381,3.116,3.116,0,0,0-2.851.339c-1.846,1.06-2.857.456-2.87-1.7-.015-2.365-.035-4.731.006-7.1a4.7,4.7,0,0,1,4.73-4.863c1.417-.062,2.839-.039,4.257,0,.735.018,1.075-.054,1.048-1-.108-4.011,2.62-6.915,6.331-6.889a6.41,6.41,0,0,1,6.3,6.823c-.026,1.017.333,1.1,1.141,1.068,1.26-.051,2.522-.032,3.784-.007,3.179.063,5.044,1.946,5.1,5.15.024,1.314.044,2.63-.01,3.941-.031.761.189.923.965.914,4.03-.051,6.926,2.64,6.925,6.336,0,3.64-3,6.4-6.967,6.3-.876-.023-.93.29-.916.96.029,1.366.041,2.734,0,4.1a4.745,4.745,0,0,1-5.112,4.971q-11.275.022-22.549,0a4.746,4.746,0,0,1-5.032-5.04C-4716.369-432.619-4716.354-433.776-4716.354-434.932Zm16.35,5.352q5.281,0,10.562,0c2.28,0,2.6-.336,2.612-2.676.006-2.1-.022-4.2.01-6.3.029-1.956,1.08-2.554,2.748-1.611a3.182,3.182,0,0,0,4.375-.609,3.113,3.113,0,0,0-.02-4.051,3.189,3.189,0,0,0-4.269-.57c-1.775,1-2.81.424-2.836-1.609-.026-2,0-3.993-.007-5.99,0-2.678-.232-2.914-2.84-2.917-2.048,0-4.1.029-6.147-.011-1.928-.037-2.522-1.111-1.594-2.781.967-1.739.751-3.241-.628-4.37a3.143,3.143,0,0,0-4.054.049,3.221,3.221,0,0,0-.541,4.276c.992,1.755.4,2.8-1.653,2.828s-4.1,0-6.147.009c-2.471,0-2.75.276-2.755,2.678a23.823,23.823,0,0,1-.019,2.52c-.138,1.234.144,1.677,1.558,1.632a6.363,6.363,0,0,1,6.327,5.829,6.46,6.46,0,0,1-5.138,6.782c-.9.181-2.156-.5-2.606.348-.417.782-.113,1.949-.122,2.947q-.007.63,0,1.261c.022,1.887.446,2.332,2.308,2.338C-4707.255-429.573-4703.63-429.581-4700-429.581Z" transform="translate(4739.085 507.199)" fill="#050606"/>
      <path id="Trazado_587479" data-name="Trazado 587479" d="M-4649.924-573.273c-.74,1.15-1.605,1.276-2.777.534a3.092,3.092,0,0,0-4.335.657,3.124,3.124,0,0,0,.061,4.035,3.088,3.088,0,0,0,4.239.536c1.232-.774,2.139-.662,2.847.634.148,2.93-.208,5.871.192,8.8a1.139,1.139,0,0,0,1.179,1.053c1.625.068,3.254.076,4.881.054,1.042-.014.538-.836.541-1.292a6.373,6.373,0,0,1,5.946-6.537,6.288,6.288,0,0,1,6.76,6.464c-.049,1.31.389,1.471,1.458,1.4,1.1-.073,2.206-.031,3.309-.014,1.427.022,2.149-.611,2.106-2.09-.039-1.312.051-2.63-.024-3.939a2,2,0,0,1,1.6-2.333,2.1,2.1,0,0,1,1.6,2.483c-.114,1.357-.009,2.731-.03,4.1a4.679,4.679,0,0,1-4.666,4.92c-2.571.105-5.151.08-7.725.014-1.714-.044-2.3-1.2-1.392-2.683a3.158,3.158,0,0,0-.086-3.937,3.149,3.149,0,0,0-4.234-.728,3.2,3.2,0,0,0-1.092,4.169c1.216,2.455.772,3.194-1.933,3.2-2.1.005-4.2.024-6.307,0-3.38-.047-5.212-1.914-5.255-5.322-.015-1.156-.074-2.318.018-3.467.084-1.053-.262-1.249-1.292-1.222a6.3,6.3,0,0,1-6.455-7.6,6.311,6.311,0,0,1,6.5-5.062c1.184.071,1.284-.329,1.245-1.263-.054-1.312-.055-2.629,0-3.941a4.721,4.721,0,0,1,4.945-4.815q2.049-.039,4.1,0c.649.013.987-.008.974-.893-.059-4.233,2.695-7.1,6.553-7a6.489,6.489,0,0,1,6.068,7.336,2.9,2.9,0,0,0,.034.549c1.689,0,3.367-.022,5.045,0a4.741,4.741,0,0,1,4.961,4.952c.016,1.051-.04,2.1.014,3.153a1.825,1.825,0,0,1-1.587,2.151,1.813,1.813,0,0,1-1.6-2.141c.044-.838.012-1.681.006-2.522-.013-2-.417-2.425-2.368-2.434-2.208-.01-4.415.017-6.621-.009-1.933-.024-2.536-1.088-1.6-2.751.96-1.7.742-3.265-.613-4.378a3.093,3.093,0,0,0-4.048.023,3.178,3.178,0,0,0-.573,4.266c1,1.777.421,2.821-1.593,2.841-2.259.022-4.519.006-6.778.005-.8,0-1.6,0-1.932.954a3.267,3.267,0,0,0-.215,1.695C-4649.892-578.2-4649.906-575.738-4649.924-573.273Z" transform="translate(4701.135 594.369)" fill="#070706"/>
      <path id="Trazado_587480" data-name="Trazado 587480" d="M-4777.993-423.085a6.086,6.086,0,0,1,5.613,3.859,5.768,5.768,0,0,1-1.678,6.694,1.875,1.875,0,0,0-.788,2.377c.38,1.117.086,2.064-1.124,2.332-1.141.254-1.632-.508-1.939-1.557-.658-2.247-.4-4.078,1.714-5.494a2.555,2.555,0,0,0,.783-3.385,2.647,2.647,0,0,0-2.8-1.624,2.726,2.726,0,0,0-2.581,2.353,4.777,4.777,0,0,0-.072.78,1.48,1.48,0,0,1-1.565,1.606c-1.069-.01-1.53-.755-1.6-1.779A6.1,6.1,0,0,1-4777.993-423.085Z" transform="translate(4785.391 477.163)" fill="#080909"/>
      <path id="Trazado_587481" data-name="Trazado 587481" d="M-4557.669-451.228a5.931,5.931,0,0,1-4.962,5.842c-.956.142-1.521.385-1.721,1.409-.216,1.1-.792,2.111-2.136,1.707-1.435-.431-1.189-1.571-.88-2.723a4.183,4.183,0,0,1,4.057-3.506,2.562,2.562,0,0,0,2.437-2.474,2.665,2.665,0,0,0-1.828-2.971,2.722,2.722,0,0,0-3.34,1.017c-.13.162-.213.361-.336.53a1.472,1.472,0,0,1-2.183.48,1.531,1.531,0,0,1-.461-2.2,6.048,6.048,0,0,1,6.651-3.033A6.045,6.045,0,0,1-4557.669-451.228Z" transform="translate(4638.439 500.581)" fill="#090909"/>
      <path id="Trazado_587482" data-name="Trazado 587482" d="M-4758.562-362.017a1.5,1.5,0,0,1-1.535-1.633,1.467,1.467,0,0,1,1.667-1.492,1.437,1.437,0,0,1,1.444,1.55A1.482,1.482,0,0,1-4758.562-362.017Z" transform="translate(4769.009 437.516)" fill="#0e0e0e"/>
      <path id="Trazado_587483" data-name="Trazado 587483" d="M-4540.859-521.4c-.866-.224-1.569-.639-1.564-1.648s.669-1.444,1.568-1.621c.891.188,1.557.627,1.56,1.627S-4540-521.63-4540.859-521.4Z" transform="translate(4620.056 546.678)" fill="#0d0c09"/>
      <path id="Trazado_587484" data-name="Trazado 587484" d="M-4568.314-397.257c-1.071-.1-1.68-.648-1.67-1.612a1.452,1.452,0,0,1,1.609-1.547,1.431,1.431,0,0,1,1.5,1.5A1.546,1.546,0,0,1-4568.314-397.257Z" transform="translate(4638.915 461.652)" fill="#111"/>
      <path id="Trazado_587485" data-name="Trazado 587485" d="M-4626.111-547.254c.019-2.465.034-4.93.059-7.4a3.257,3.257,0,0,1,.215-1.694c.556,2.9.189,5.811.171,8.717C-4625.667-547.5-4625.956-547.378-4626.111-547.254Z" transform="translate(4677.322 568.351)" fill="#d64952"/>
      <path id="Trazado_587486" data-name="Trazado 587486" d="M-4625.82-498.5c-.4-2.924-.044-5.865-.192-8.795a.664.664,0,0,1,.488.713c0,2.515,0,5.03-.02,7.545C-4625.546-498.857-4625.724-498.679-4625.82-498.5Z" transform="translate(4677.258 534.787)" fill="#d64952"/>
      <path id="Trazado_587487" data-name="Trazado 587487" d="M-4757.512-560.8a5.95,5.95,0,0,0,4.858,6.127c1.267.261,1.373.678.987,1.741-.395,1.081-.635,2.219-.92,3.338a1.714,1.714,0,0,1-2.478,1.371c-2.17-.622-4.359-1.175-6.544-1.742-2.079-.539-2.911.277-2.384,2.32a3.215,3.215,0,0,1-1.687,3.966,3.431,3.431,0,0,1-4.085-1.1,3.367,3.367,0,0,1,.567-4.183c1.579-1.654,1.31-2.664-.9-3.283-2.073-.581-4.156-1.12-6.231-1.693-1.836-.507-2.077-.952-1.592-2.845q.157-.61.326-1.217c.265-.96.27-2.167.874-2.809.642-.68,1.676.3,2.594.351a6.452,6.452,0,0,0,6.708-5.228,6.024,6.024,0,0,0-4.657-7.279c-1.219-.291-1.494-.672-1.064-1.818a32.216,32.216,0,0,0,.926-3.337,1.693,1.693,0,0,1,2.376-1.351c2.18.586,4.355,1.191,6.539,1.765s2.979-.213,2.458-2.377a3.187,3.187,0,0,1,1.784-3.923,3.386,3.386,0,0,1,3.96,1.056,3.371,3.371,0,0,1-.571,4.3c-1.5,1.554-1.2,2.634.888,3.207,2.075.569,4.16,1.1,6.236,1.674,1.843.505,2.136,1.019,1.672,2.829-.092.356-.187.711-.281,1.066-.27,1.015-.261,2.282-.887,2.976-.677.75-1.769-.283-2.729-.33A6.5,6.5,0,0,0-4757.512-560.8Z" transform="translate(4781.354 587.455)" fill="#ffa084"/>
      <path id="Trazado_587488" data-name="Trazado 587488" d="M-4693.328-422.685c-3.626,0-7.25.008-10.876,0-1.861-.006-2.286-.451-2.308-2.338q-.008-.63,0-1.261c.01-1-.295-2.165.122-2.947.45-.846,1.706-.167,2.607-.348a6.46,6.46,0,0,0,5.138-6.782,6.364,6.364,0,0,0-6.328-5.829c-1.413.045-1.695-.4-1.558-1.632a23.438,23.438,0,0,0,.018-2.52c.007-2.4.285-2.674,2.756-2.678,2.049,0,4.1.023,6.148-.008s2.644-1.073,1.652-2.828a3.221,3.221,0,0,1,.541-4.276,3.143,3.143,0,0,1,4.054-.049c1.378,1.129,1.594,2.631.628,4.37-.927,1.67-.333,2.744,1.594,2.781,2.049.04,4.1.008,6.148.011,2.608,0,2.837.24,2.839,2.917,0,2-.02,3.993.007,5.99.027,2.033,1.062,2.607,2.836,1.609a3.189,3.189,0,0,1,4.269.57,3.113,3.113,0,0,1,.02,4.051,3.182,3.182,0,0,1-4.375.609c-1.668-.943-2.718-.345-2.748,1.611-.032,2.1,0,4.2-.009,6.3-.007,2.34-.332,2.673-2.613,2.676Q-4688.047-422.68-4693.328-422.685Z" transform="translate(4732.409 500.303)" fill="#ffa084"/>
    </g>
    <path id="Trazado_587831" data-name="Trazado 587831" d="M18.47,12.892a7.725,7.725,0,0,1-.668,3.313,5.03,5.03,0,0,1-1.912,2.2,5.288,5.288,0,0,1-2.852.773,5.324,5.324,0,0,1-2.839-.765,5.08,5.08,0,0,1-1.934-2.184,7.5,7.5,0,0,1-.694-3.265v-.633A7.685,7.685,0,0,1,8.252,9,5.072,5.072,0,0,1,10.177,6.8a5.3,5.3,0,0,1,2.843-.769,5.3,5.3,0,0,1,2.843.769A5.072,5.072,0,0,1,17.789,9a7.663,7.663,0,0,1,.681,3.318Zm-2.672-.58a5.385,5.385,0,0,0-.721-3.059,2.349,2.349,0,0,0-2.057-1.046A2.349,2.349,0,0,0,10.973,9.24a5.324,5.324,0,0,0-.729,3.028v.624a5.453,5.453,0,0,0,.721,3.041,2.342,2.342,0,0,0,2.074,1.081,2.321,2.321,0,0,0,2.039-1.042,5.421,5.421,0,0,0,.721-3.037Zm12.99,2.021a5.758,5.758,0,0,1-.976,3.564,3.231,3.231,0,0,1-2.725,1.279,2.969,2.969,0,0,1-2.47-1.187L22.5,19H20.219V5.5h2.54v4.843A2.893,2.893,0,0,1,25.07,9.314,3.258,3.258,0,0,1,27.8,10.593a5.767,5.767,0,0,1,.989,3.6Zm-2.54-.185a3.783,3.783,0,0,0-.457-2.1,1.545,1.545,0,0,0-1.362-.664,1.676,1.676,0,0,0-1.67.993v3.753a1.7,1.7,0,0,0,1.688,1,1.568,1.568,0,0,0,1.617-1.213A6.257,6.257,0,0,0,26.248,14.148ZM33.042,9.49V19.519a3.4,3.4,0,0,1-.835,2.448,3.174,3.174,0,0,1-2.408.875,5.165,5.165,0,0,1-1.257-.149V20.679a4.768,4.768,0,0,0,.8.079q1.151,0,1.151-1.222V9.49ZM30.291,7.029a1.251,1.251,0,0,1,.382-.94,1.654,1.654,0,0,1,2.083,0,1.251,1.251,0,0,1,.382.94,1.247,1.247,0,0,1-.391.949,1.629,1.629,0,0,1-2.065,0A1.247,1.247,0,0,1,30.291,7.029Zm9.114,12.146A4.668,4.668,0,0,1,36,17.893a4.561,4.561,0,0,1-1.314-3.419v-.246a5.745,5.745,0,0,1,.554-2.562,4.064,4.064,0,0,1,1.569-1.74,4.4,4.4,0,0,1,2.316-.611,3.947,3.947,0,0,1,3.072,1.23,5,5,0,0,1,1.121,3.489v1.037H37.261A2.36,2.36,0,0,0,38,16.565a2.245,2.245,0,0,0,1.569.563,2.742,2.742,0,0,0,2.294-1.063l1.248,1.4a3.813,3.813,0,0,1-1.547,1.261A5.075,5.075,0,0,1,39.405,19.176Zm-.29-7.813a1.587,1.587,0,0,0-1.226.512,2.651,2.651,0,0,0-.6,1.466H40.82v-.2a1.891,1.891,0,0,0-.457-1.311A1.638,1.638,0,0,0,39.115,11.362Zm9.6,5.766a1.666,1.666,0,0,0,1.143-.387,1.355,1.355,0,0,0,.457-1.028h2.382a3.258,3.258,0,0,1-.527,1.771,3.48,3.48,0,0,1-1.419,1.248,4.442,4.442,0,0,1-1.991.444,4.129,4.129,0,0,1-3.217-1.3A5.13,5.13,0,0,1,44.362,14.3v-.167a5.071,5.071,0,0,1,1.169-3.507,4.08,4.08,0,0,1,3.208-1.31A4,4,0,0,1,51.6,10.33a3.594,3.594,0,0,1,1.094,2.7H50.313a1.745,1.745,0,0,0-.457-1.206,1.7,1.7,0,0,0-2.5.183,3.749,3.749,0,0,0-.453,2.1v.264a3.8,3.8,0,0,0,.448,2.113A1.549,1.549,0,0,0,48.713,17.128ZM56.825,19H54.276V9.49h2.549Zm-2.7-11.971a1.251,1.251,0,0,1,.382-.94,1.648,1.648,0,0,1,2.079,0,1.244,1.244,0,0,1,.387.94,1.247,1.247,0,0,1-.391.949,1.629,1.629,0,0,1-2.065,0A1.247,1.247,0,0,1,54.127,7.029Zm4.395,7.128a5.64,5.64,0,0,1,.545-2.522,3.989,3.989,0,0,1,1.569-1.714,4.577,4.577,0,0,1,2.377-.606,4.33,4.33,0,0,1,3.142,1.178,4.727,4.727,0,0,1,1.358,3.2l.018.65a4.97,4.97,0,0,1-1.222,3.511,4.735,4.735,0,0,1-6.561,0,5.058,5.058,0,0,1-1.226-3.586Zm2.54.18a3.555,3.555,0,0,0,.51,2.073,1.831,1.831,0,0,0,2.9.009,3.89,3.89,0,0,0,.519-2.267,3.519,3.519,0,0,0-.519-2.06,1.686,1.686,0,0,0-1.459-.731,1.658,1.658,0,0,0-1.441.726A3.955,3.955,0,0,0,61.062,14.338ZM71.433,9.49l.079,1.1a3.32,3.32,0,0,1,2.733-1.274,2.759,2.759,0,0,1,2.25.888,4.142,4.142,0,0,1,.756,2.654V19h-2.54V12.918a1.648,1.648,0,0,0-.352-1.173,1.574,1.574,0,0,0-1.169-.365,1.747,1.747,0,0,0-1.608.914V19h-2.54V9.49Zm12.12,9.686a4.668,4.668,0,0,1-3.406-1.283,4.561,4.561,0,0,1-1.314-3.419v-.246a5.745,5.745,0,0,1,.554-2.562,4.064,4.064,0,0,1,1.569-1.74,4.4,4.4,0,0,1,2.316-.611,3.947,3.947,0,0,1,3.072,1.23,5,5,0,0,1,1.121,3.489v1.037H81.408a2.36,2.36,0,0,0,.743,1.494,2.245,2.245,0,0,0,1.569.563,2.742,2.742,0,0,0,2.294-1.063l1.248,1.4a3.813,3.813,0,0,1-1.547,1.261A5.075,5.075,0,0,1,83.553,19.176Zm-.29-7.813a1.587,1.587,0,0,0-1.226.512,2.651,2.651,0,0,0-.6,1.466h3.533v-.2a1.891,1.891,0,0,0-.457-1.311A1.638,1.638,0,0,0,83.263,11.362Zm10.793,5.01a.818.818,0,0,0-.461-.734,5.241,5.241,0,0,0-1.481-.479q-3.393-.712-3.393-2.883a2.613,2.613,0,0,1,1.05-2.114,4.237,4.237,0,0,1,2.747-.848,4.56,4.56,0,0,1,2.9.853A2.687,2.687,0,0,1,96.5,12.382h-2.54a1.229,1.229,0,0,0-.352-.9,1.488,1.488,0,0,0-1.1-.356,1.52,1.52,0,0,0-.993.29.916.916,0,0,0-.352.738.783.783,0,0,0,.4.681,4.114,4.114,0,0,0,1.349.448,11.019,11.019,0,0,1,1.6.426,2.628,2.628,0,0,1,2.013,2.558,2.481,2.481,0,0,1-1.116,2.1,4.815,4.815,0,0,1-2.883.8A5.029,5.029,0,0,1,90.4,18.75a3.561,3.561,0,0,1-1.455-1.169,2.716,2.716,0,0,1-.527-1.6H90.83a1.326,1.326,0,0,0,.5,1.037,1.987,1.987,0,0,0,1.248.36,1.839,1.839,0,0,0,1.1-.277A.861.861,0,0,0,94.056,16.372ZM29.153,39V31.354H27.738V29.49h1.415v-.809a3.283,3.283,0,0,1,.918-2.483,3.557,3.557,0,0,1,2.571-.883,5.938,5.938,0,0,1,1.292.176l-.026,1.969a3.238,3.238,0,0,0-.773-.079q-1.433,0-1.433,1.345v.765h1.89v1.863H31.7V39ZM40.42,39a2.821,2.821,0,0,1-.255-.853,3.073,3.073,0,0,1-2.4,1.028,3.376,3.376,0,0,1-2.316-.809,2.6,2.6,0,0,1-.918-2.039,2.687,2.687,0,0,1,1.121-2.32,5.529,5.529,0,0,1,3.239-.817H40.06v-.545a1.567,1.567,0,0,0-.338-1.055,1.331,1.331,0,0,0-1.068-.4,1.513,1.513,0,0,0-1.006.308,1.045,1.045,0,0,0-.365.844h-2.54a2.551,2.551,0,0,1,.51-1.529,3.37,3.37,0,0,1,1.441-1.1,5.253,5.253,0,0,1,2.092-.4,4.15,4.15,0,0,1,2.791.883,3.09,3.09,0,0,1,1.033,2.483V36.8a4.546,4.546,0,0,0,.378,2.048V39Zm-2.1-1.767a2.188,2.188,0,0,0,1.037-.25,1.645,1.645,0,0,0,.7-.672V34.676h-.949q-1.907,0-2.03,1.318l-.009.149a1.017,1.017,0,0,0,.334.782A1.3,1.3,0,0,0,38.32,37.233ZM47.241,39H44.692V25.5h2.549Zm7.242-2.628a.818.818,0,0,0-.461-.734,5.241,5.241,0,0,0-1.481-.479q-3.393-.712-3.393-2.883a2.613,2.613,0,0,1,1.05-2.114,4.237,4.237,0,0,1,2.747-.848,4.56,4.56,0,0,1,2.9.853,2.687,2.687,0,0,1,1.085,2.215h-2.54a1.229,1.229,0,0,0-.352-.9,1.488,1.488,0,0,0-1.1-.356,1.52,1.52,0,0,0-.993.29.916.916,0,0,0-.352.738.783.783,0,0,0,.4.681,4.114,4.114,0,0,0,1.349.448,11.019,11.019,0,0,1,1.6.426,2.628,2.628,0,0,1,2.013,2.558,2.481,2.481,0,0,1-1.116,2.1,4.815,4.815,0,0,1-2.883.8,5.029,5.029,0,0,1-2.123-.426,3.561,3.561,0,0,1-1.455-1.169,2.716,2.716,0,0,1-.527-1.6h2.408a1.326,1.326,0,0,0,.5,1.037,1.987,1.987,0,0,0,1.248.36,1.839,1.839,0,0,0,1.1-.277A.861.861,0,0,0,54.483,36.372ZM64.1,39a2.821,2.821,0,0,1-.255-.853,3.073,3.073,0,0,1-2.4,1.028,3.376,3.376,0,0,1-2.316-.809,2.6,2.6,0,0,1-.918-2.039,2.687,2.687,0,0,1,1.121-2.32,5.529,5.529,0,0,1,3.239-.817h1.169v-.545a1.567,1.567,0,0,0-.338-1.055,1.331,1.331,0,0,0-1.068-.4,1.513,1.513,0,0,0-1.006.308,1.045,1.045,0,0,0-.365.844H58.42a2.551,2.551,0,0,1,.51-1.529,3.37,3.37,0,0,1,1.441-1.1,5.253,5.253,0,0,1,2.092-.4,4.15,4.15,0,0,1,2.791.883,3.09,3.09,0,0,1,1.033,2.483V36.8a4.546,4.546,0,0,0,.378,2.048V39ZM62,37.233a2.188,2.188,0,0,0,1.037-.25,1.645,1.645,0,0,0,.7-.672V34.676h-.949q-1.907,0-2.03,1.318l-.009.149a1.017,1.017,0,0,0,.334.782A1.3,1.3,0,0,0,62,37.233Zm11.391-.861a.818.818,0,0,0-.461-.734,5.241,5.241,0,0,0-1.481-.479q-3.393-.712-3.393-2.883a2.613,2.613,0,0,1,1.05-2.114,4.237,4.237,0,0,1,2.747-.848,4.56,4.56,0,0,1,2.9.853,2.687,2.687,0,0,1,1.085,2.215h-2.54a1.229,1.229,0,0,0-.352-.9,1.488,1.488,0,0,0-1.1-.356,1.52,1.52,0,0,0-.993.29.916.916,0,0,0-.352.738.783.783,0,0,0,.4.681,4.114,4.114,0,0,0,1.349.448,11.019,11.019,0,0,1,1.6.426,2.628,2.628,0,0,1,2.013,2.558,2.481,2.481,0,0,1-1.116,2.1,4.815,4.815,0,0,1-2.883.8,5.029,5.029,0,0,1-2.123-.426,3.561,3.561,0,0,1-1.455-1.169,2.716,2.716,0,0,1-.527-1.6h2.408a1.326,1.326,0,0,0,.5,1.037,1.987,1.987,0,0,0,1.248.36,1.839,1.839,0,0,0,1.1-.277A.861.861,0,0,0,73.388,36.372Z" transform="translate(873.135 10154.366)" fill="#12263f"/>
  </g>
</svg>
