<svg xmlns="http://www.w3.org/2000/svg" width="81.396" height="81.396" viewBox="0 0 81.396 81.396">
  <g id="Grupo_846495" data-name="Grupo 846495" transform="translate(-240 -1286.742)">
    <rect id="Rectángulo_38178" data-name="Rectángulo 38178" width="81.396" height="81.396" transform="translate(240 1286.742)" fill="none"/>
    <g id="Grupo_847231" data-name="Grupo 847231" transform="translate(3968.614 928.513)">
      <path id="Trazado_587358" data-name="Trazado 587358" d="M-3688.747,379.376a5.821,5.821,0,0,0,1.644,1.465c-.741.595-.336,1.145.032,1.739,3.034,4.9,1.375,11.4-3.53,13.886l-.339.18.008,0a22.919,22.919,0,0,1-4.543.056,11.127,11.127,0,0,1-8.7-8.283,18.347,18.347,0,0,1,0-5.1,3.342,3.342,0,0,1,.165-.408,9.868,9.868,0,0,1,13.567-3.585C-3689.858,379.655-3689.333,379.946-3688.747,379.376Zm-6.789,13.854c1.381,0,2.762-.017,4.142.006.88.015,1.316-.338,1.306-1.254-.021-1.828-.016-3.657,0-5.485a1.453,1.453,0,0,0-.563-1.264q-2.023-1.591-4.021-3.215a1.035,1.035,0,0,0-1.495-.039c-1.357,1.111-2.731,2.2-4.106,3.287a1.339,1.339,0,0,0-.521,1.165c.018,1.866.023,3.732,0,5.6-.01.867.4,1.213,1.228,1.205C-3698.223,393.22-3696.88,393.23-3695.537,393.23Z" transform="translate(-9.504 -5.998)" fill="#8aec9f"/>
      <path id="Trazado_587359" data-name="Trazado 587359" d="M-3552.672,545.75a11.661,11.661,0,0,1-11.569-11.646,11.683,11.683,0,0,1,11.63-11.6A11.657,11.657,0,0,1-3541,534.222,11.636,11.636,0,0,1-3552.672,545.75Zm3.654-2.442a9.725,9.725,0,0,0,6.268-10.121,9.93,9.93,0,0,0-8.508-8.892,9.832,9.832,0,0,0-10.435,5.968,9.079,9.079,0,0,0-.565,6.2C-3560.916,542.293-3554.22,545.743-3549.018,543.308Z" transform="translate(-118.225 -118.144)" fill="#0a0908"/>
      <path id="Trazado_587360" data-name="Trazado 587360" d="M-3552.619,370.339A11.633,11.633,0,0,1-3541,381.92a11.662,11.662,0,0,1-11.666,11.661,11.686,11.686,0,0,1-11.576-11.653A11.657,11.657,0,0,1-3552.619,370.339Zm-8.776,7.137a9.723,9.723,0,0,0,1.765,11.492,9.731,9.731,0,0,0,11.5,1.767,9.8,9.8,0,0,0,5.1-11.355,9.911,9.911,0,0,0-8.662-7.292A9.7,9.7,0,0,0-3561.4,377.476Z" transform="translate(-118.224 -0.072)" fill="#0a0908"/>
      <path id="Trazado_587361" data-name="Trazado 587361" d="M-3704.809,545.75a11.635,11.635,0,0,1-11.61-11.591,11.659,11.659,0,0,1,11.674-11.651,11.682,11.682,0,0,1,11.568,11.659A11.658,11.658,0,0,1-3704.809,545.75Zm4.582-2.889a9.759,9.759,0,0,0,5.087-10.972,9.973,9.973,0,0,0-8.514-7.617,9.752,9.752,0,0,0-9.876,5.283,8.939,8.939,0,0,0-1.1,5.9C-3713.888,542.181-3705.924,546.269-3700.227,542.86Z" transform="translate(-0.146 -118.143)" fill="#0a0908"/>
      <path id="Trazado_587362" data-name="Trazado 587362" d="M-3700.1,390.469c4.9-2.483,6.564-8.989,3.53-13.886-.368-.594-.773-1.145-.032-1.739.68-.259,1.017.155,1.357.649,4.68,6.807.367,16.657-7.822,17.849a11.639,11.639,0,0,1-13.416-9.991,11.661,11.661,0,0,1,10.146-13.006,11.333,11.333,0,0,1,7.4,1.593c.57.336.952.724.693,1.44-.585.57-1.111.279-1.7-.052a9.868,9.868,0,0,0-13.567,3.585,3.41,3.41,0,0,0-.166.408,9.716,9.716,0,0,0,1.658,11.516,9.732,9.732,0,0,0,11.587,1.81l-.008,0Z" fill="#0a0908"/>
      <path id="Trazado_587363" data-name="Trazado 587363" d="M-3594.317,498.028a2.2,2.2,0,0,1-2.063,1.128c-.014-1.635-.037-3.27-.037-4.9,0-.646-.084-1.288-.87-1.287s-.864.651-.865,1.293c0,1.635-.027,3.269-.042,4.9h-5.36c-.015-1.637-.05-3.275-.037-4.911.006-.674-.168-1.169-.864-1.368a3.764,3.764,0,0,1,1.12-2.674c2.085-.013,4.171-.069,6.255-.023a2.574,2.574,0,0,1,2.495,2.41c.051.555-.005,1.119.034,1.675C-3594.462,495.523-3594.8,496.8-3594.317,498.028Z" transform="translate(-87.02 -93.05)" fill="#79d6ed"/>
      <path id="Trazado_587364" data-name="Trazado 587364" d="M-3609.8,491.93c-.48-1.227-.145-2.506-.234-3.757-.04-.556.016-1.12-.034-1.675a2.574,2.574,0,0,0-2.495-2.41c-2.084-.046-4.17.01-6.255.023-2.879-.194-3.851.705-3.855,3.567,0,.665.023,1.331-.007,1.995a4.205,4.205,0,0,1-.267,2.273c-1.065.263-1.422.043-1.44-.971-.026-1.416-.041-2.835,0-4.25a4.4,4.4,0,0,1,4.354-4.368c2.459-.061,4.923-.066,7.382,0a4.4,4.4,0,0,1,4.319,4.4c.041,1.378.024,2.759,0,4.139C-3608.344,491.994-3608.7,492.23-3609.8,491.93Z" transform="translate(-71.534 -86.952)" fill="#0a0e0f"/>
      <path id="Trazado_587365" data-name="Trazado 587365" d="M-3600.749,446.432a3.583,3.583,0,0,1,3.553,3.559,3.6,3.6,0,0,1-3.592,3.528,3.6,3.6,0,0,1-3.5-3.511A3.58,3.58,0,0,1-3600.749,446.432Zm1.835,3.49a1.8,1.8,0,0,0-1.878-1.774,1.793,1.793,0,0,0-1.774,1.878,1.806,1.806,0,0,0,1.878,1.778A1.807,1.807,0,0,0-3598.914,449.921Z" transform="translate(-87.155 -59.114)" fill="#0a0908"/>
      <path id="Trazado_587366" data-name="Trazado 587366" d="M-3617.877,498.1a4.207,4.207,0,0,0,.267-2.273c.03-.664.006-1.33.007-1.995,0-2.862.976-3.76,3.855-3.567a3.764,3.764,0,0,0-1.12,2.674,1.156,1.156,0,0,0-.882,1.325c.016,1.651-.018,3.3-.032,4.954A2.36,2.36,0,0,1-3617.877,498.1Z" transform="translate(-76.608 -93.104)" fill="#4bc1ed"/>
      <path id="Trazado_587367" data-name="Trazado 587367" d="M-3608.524,508.56c.014-1.651.048-3.3.031-4.954a1.156,1.156,0,0,1,.882-1.325c.7.2.87.694.864,1.368-.014,1.637.021,3.274.037,4.911-.171.425-.371.845-.91.842S-3608.372,509-3608.524,508.56Z" transform="translate(-83.865 -102.449)" fill="#0a0e0f"/>
      <path id="Trazado_587368" data-name="Trazado 587368" d="M-3576.506,508.847c.015-1.635.039-3.269.042-4.9,0-.642.076-1.291.865-1.293s.87.641.87,1.287c0,1.635.023,3.27.037,4.9-.151.443-.367.843-.9.847S-3576.337,509.275-3576.506,508.847Z" transform="translate(-108.709 -102.735)" fill="#0a0e0f"/>
      <path id="Trazado_587369" data-name="Trazado 587369" d="M-3683.194,406.049c-1.343,0-2.687-.01-4.03,0-.828.008-1.239-.338-1.228-1.205.023-1.866.017-3.732,0-5.6a1.339,1.339,0,0,1,.521-1.164c1.376-1.087,2.75-2.176,4.106-3.287a1.035,1.035,0,0,1,1.495.039q1.994,1.628,4.021,3.215a1.453,1.453,0,0,1,.563,1.264c-.016,1.828-.021,3.657,0,5.485.01.916-.426,1.27-1.306,1.254C-3680.432,406.032-3681.813,406.049-3683.194,406.049Zm3.675-4.382a3.3,3.3,0,0,0-1.6-3.738c-2.061-1.415-1.913-1.426-3.956-.009a3.224,3.224,0,0,0-1.6,3.729c-.023.629-.015,1.262-.079,1.887s.147.835.791.812c1.336-.048,2.676-.014,4.013-.014C-3679.326,404.334-3679.326,404.334-3679.519,401.667Z" transform="translate(-21.846 -18.816)" fill="#0a0e0f"/>
      <path id="Trazado_587370" data-name="Trazado 587370" d="M-3694.47,415.137a9.732,9.732,0,0,1-11.587-1.81,9.716,9.716,0,0,1-1.657-11.516,18.355,18.355,0,0,0,0,5.1,11.127,11.127,0,0,0,8.7,8.283A22.921,22.921,0,0,0-3694.47,415.137Z" transform="translate(-5.965 -24.492)" fill="#4bdc9d"/>
      <path id="Trazado_587371" data-name="Trazado 587371" d="M-3644.131,460.494l-.339.18Z" transform="translate(-55.974 -70.025)" fill="#4bdc9d"/>
      <path id="Trazado_587372" data-name="Trazado 587372" d="M-3552.869,536.128a9.832,9.832,0,0,1,10.435-5.968,9.93,9.93,0,0,1,8.508,8.892,9.725,9.725,0,0,1-6.268,10.121,3.569,3.569,0,0,0-2.079-.238c-6.042.158-11.434-6.065-10.342-12.032C-3552.558,536.592-3552.54,536.307-3552.869,536.128Zm9.968-.627a1.043,1.043,0,0,0-1.142-.852c-1.156.01-2.317-.06-3.467.026a2.906,2.906,0,0,0-2.234,4.359,3.792,3.792,0,0,1,.6,2.376c0,.97-.025,1.94.008,2.908a1.753,1.753,0,0,0,1.873,1.911q3.468.044,6.936,0a1.737,1.737,0,0,0,1.869-1.9c.027-1.23.016-2.461,0-3.692a1.818,1.818,0,0,1,.433-1.3,3.014,3.014,0,0,0-1.375-4.535c-.773-.252-1.4-.187-1.715.689Z" transform="translate(-127.049 -124.009)" fill="#fbce8b"/>
      <path id="Trazado_587373" data-name="Trazado 587373" d="M-3555.84,557.117c.329.179.311.464.254.775-1.092,5.967,4.3,12.19,10.342,12.032a3.569,3.569,0,0,1,2.079.238c-5.2,2.435-11.9-1.016-13.24-6.846A9.081,9.081,0,0,1-3555.84,557.117Z" transform="translate(-124.079 -144.998)" fill="#f4b97d"/>
      <path id="Trazado_587374" data-name="Trazado 587374" d="M-3552.02,383.4a9.7,9.7,0,0,1,9.7-5.388,9.911,9.911,0,0,1,8.662,7.292,9.8,9.8,0,0,1-5.1,11.355,26.3,26.3,0,0,1-4.747.029c-3.874-.581-7.962-4.668-8.543-8.541A26,26,0,0,1-3552.02,383.4Zm9.629.6c.779.227,1.476.413,1.707-.443.212-.784-.448-1.027-1.01-1.223-.415-.145-.731-.249-.728-.8a.759.759,0,0,0-.8-.771.734.734,0,0,0-.828.733c.018.637-.393.777-.816,1.024-1.847,1.077-2.116,3.671-.386,4.737a2.1,2.1,0,0,1,1.162,2.326,8.636,8.636,0,0,0-.006,1.565c.036.612-.215.73-.725.483-.2-.1-.386-.229-.591-.317a.813.813,0,0,0-1.151.351.773.773,0,0,0,.309,1.074,5.338,5.338,0,0,0,1.4.668c.474.127.8.217.794.82a.748.748,0,0,0,.815.754.738.738,0,0,0,.815-.75c-.048-.688.382-.844.854-1.1,2.353-1.288,2.6-4.585.337-5.733a1.849,1.849,0,0,1-1.16-2.147C-3542.363,384.888-3542.39,384.514-3542.39,384.007Z" transform="translate(-127.6 -5.998)" fill="#fcdd75"/>
      <path id="Trazado_587375" data-name="Trazado 587375" d="M-3555.543,402.188a26,26,0,0,0-.029,4.747c.581,3.873,4.67,7.96,8.543,8.541a26.307,26.307,0,0,0,4.747-.029,9.731,9.731,0,0,1-11.5-1.767A9.723,9.723,0,0,1-3555.543,402.188Z" transform="translate(-124.076 -24.784)" fill="#f6ca58"/>
      <path id="Trazado_587376" data-name="Trazado 587376" d="M-3704.191,535.462a9.752,9.752,0,0,1,9.876-5.283,9.973,9.973,0,0,1,8.514,7.617,9.759,9.759,0,0,1-5.087,10.972,6.567,6.567,0,0,0-.885.066,10.8,10.8,0,0,1-11.983-6.779A13.923,13.923,0,0,1-3704.191,535.462Zm15.311,3.382a4.111,4.111,0,0,0-3.661-4.109c-1.051-.139-1.959.574-2.869.621-.926.048-1.874-.771-2.968-.626a4.115,4.115,0,0,0-3.2,6.03c1.238,2.459,3.424,3.973,5.685,5.38a.924.924,0,0,0,1.047-.1,17.02,17.02,0,0,0,4.871-4.213A4.85,4.85,0,0,0-3688.881,538.844Z" transform="translate(-9.485 -124.05)" fill="#fa7c8f"/>
      <path id="Trazado_587377" data-name="Trazado 587377" d="M-3707.625,553.959a13.923,13.923,0,0,0,.436,6.592,10.8,10.8,0,0,0,11.983,6.779,6.567,6.567,0,0,1,.885-.066c-5.7,3.409-13.661-.679-14.4-7.4A8.939,8.939,0,0,1-3707.625,553.959Z" transform="translate(-6.051 -142.547)" fill="#f95d78"/>
      <path id="Trazado_587378" data-name="Trazado 587378" d="M-3592.967,455.861a1.807,1.807,0,0,1-1.774,1.882,1.806,1.806,0,0,1-1.878-1.778,1.793,1.793,0,0,1,1.774-1.878A1.8,1.8,0,0,1-3592.967,455.861Z" transform="translate(-93.102 -65.053)" fill="#f4b97d"/>
      <path id="Trazado_587379" data-name="Trazado 587379" d="M-3673.646,417.957c.192,2.667.192,2.667-2.422,2.667-1.338,0-2.677-.034-4.013.014-.644.023-.855-.184-.791-.812s.056-1.258.079-1.888a26.489,26.489,0,0,0,2.834-2.148,1.06,1.06,0,0,1,1.491.015C-3675.552,416.554-3674.589,417.244-3673.646,417.957Zm-2.726-.468c.014-.629-.039-1.285-.838-1.317-.72-.029-.878.526-.879,1.154,0,.668.009,1.372.887,1.373C-3676.482,418.7-3676.357,418.1-3676.372,417.49Z" transform="translate(-27.719 -35.107)" fill="#f7f9fa"/>
      <path id="Trazado_587380" data-name="Trazado 587380" d="M-3673.745,409.856c-.943-.714-1.906-1.4-2.822-2.151a1.06,1.06,0,0,0-1.491-.015,26.493,26.493,0,0,1-2.834,2.148,3.224,3.224,0,0,1,1.6-3.728c2.043-1.418,1.895-1.407,3.956.009A3.3,3.3,0,0,1-3673.745,409.856Z" transform="translate(-27.62 -27.006)" fill="#b3fa9a"/>
      <path id="Trazado_587381" data-name="Trazado 587381" d="M-3531.794,551.294c.313-.875.943-.94,1.715-.689a3.014,3.014,0,0,1,1.375,4.535,1.818,1.818,0,0,0-.433,1.3c.013,1.23.024,2.461,0,3.692a1.737,1.737,0,0,1-1.869,1.9q-3.467.043-6.936,0a1.753,1.753,0,0,1-1.873-1.911c-.032-.968-.006-1.939-.008-2.909a3.79,3.79,0,0,0-.6-2.376,2.906,2.906,0,0,1,2.234-4.359c1.15-.086,2.311-.016,3.467-.026a1.042,1.042,0,0,1,1.142.852,1.041,1.041,0,0,1-1.188.871c-.507-.017-1.016.024-1.524.039-.517-.013-1.035-.022-1.552-.041-.536-.02-1.006.147-1.1.708-.076.46-.307,1.024.394,1.326.487.21.447.711.449,1.162.009,1.555.027,3.109.041,4.664.162.558.618.274.925.28,1.669.031,3.346-.072,5.008.043,1.238.086,1.487-.4,1.221-1.45q0-.222.005-.444c.021-1.035.043-2.07.06-3.1a1.363,1.363,0,0,1,.448-1.182,1.077,1.077,0,0,0-.407-1.971A1.3,1.3,0,0,1-3531.794,551.294Z" transform="translate(-136.366 -139.817)" fill="#100f0c"/>
      <path id="Trazado_587382" data-name="Trazado 587382" d="M-3520.509,555.175c.508-.015,1.017-.056,1.524-.039a1.041,1.041,0,0,0,1.188-.871l1.792-.016a1.3,1.3,0,0,0,.993.914,1.077,1.077,0,0,1,.407,1.971,1.363,1.363,0,0,0-.448,1.182c-.017,1.035-.04,2.07-.06,3.1-1.112,0-2.223.007-3.334,0-1.408-.014-2.045-.634-2.059-2.019C-3520.522,557.991-3520.509,556.583-3520.509,555.175Z" transform="translate(-152.154 -142.772)" fill="#f7f9fa"/>
      <path id="Trazado_587383" data-name="Trazado 587383" d="M-3523.377,393.675c0,.507.028.881-.005,1.249a1.849,1.849,0,0,0,1.16,2.147c2.265,1.147,2.015,4.444-.337,5.733-.472.258-.9.415-.854,1.1a.738.738,0,0,1-.815.75.748.748,0,0,1-.815-.754c.006-.6-.319-.693-.793-.82a5.333,5.333,0,0,1-1.4-.668.773.773,0,0,1-.309-1.074.813.813,0,0,1,1.151-.351c.205.088.39.219.591.317.51.247.76.129.725-.483a8.658,8.658,0,0,1,.006-1.565,2.1,2.1,0,0,0-1.162-2.326c-1.73-1.066-1.461-3.661.386-4.737.423-.247.834-.387.816-1.024a.734.734,0,0,1,.828-.733.759.759,0,0,1,.8.771c0,.551.313.655.728.8.561.2,1.222.439,1.01,1.223C-3521.9,394.088-3522.6,393.9-3523.377,393.675Zm.054,7.567a1.612,1.612,0,0,0,.912-1.7c-.046-.535-.251-1-.912-1.068Z" transform="translate(-146.613 -15.667)" fill="#0a0908"/>
      <path id="Trazado_587384" data-name="Trazado 587384" d="M-3680.842,554.745a4.85,4.85,0,0,1-1.1,2.985,17.021,17.021,0,0,1-4.871,4.213.924.924,0,0,1-1.047.1c-2.261-1.407-4.448-2.921-5.685-5.38a4.115,4.115,0,0,1,3.2-6.03c1.094-.145,2.042.674,2.968.626.91-.047,1.818-.76,2.869-.621A4.111,4.111,0,0,1-3680.842,554.745Zm-5.169,4.546a9.055,9.055,0,0,0,3.085-3.162,2.455,2.455,0,0,0-.448-3.243,2.374,2.374,0,0,0-3.246.113,1.022,1.022,0,0,1-1.631-.026,1.824,1.824,0,0,0-1.606-.617,2.38,2.38,0,0,0-2.154,3.593,9.615,9.615,0,0,0,3.255,3.453C-3687.251,560.474-3687.712,560.647-3686.011,559.291Z" transform="translate(-17.524 -139.952)" fill="#0a0908"/>
      <path id="Trazado_587385" data-name="Trazado 587385" d="M-3666.7,419.843c.015.607-.11,1.21-.831,1.21-.878,0-.888-.7-.887-1.373,0-.629.159-1.183.879-1.154C-3666.734,418.557-3666.681,419.213-3666.7,419.843Z" transform="translate(-37.396 -37.46)" fill="#100f0c"/>
      <path id="Trazado_587386" data-name="Trazado 587386" d="M-3530,558.232c0,1.408-.013,2.816,0,4.224.014,1.385.651,2,2.059,2.019,1.111.011,2.223,0,3.334,0q0,.222-.005.444c-.164,1.079-.884,1.173-1.807,1.141-1.781-.061-3.565-.016-5.347-.014-.015-1.554-.033-3.109-.041-4.664,0-.451.038-.952-.449-1.162-.7-.3-.47-.866-.394-1.326.092-.561.561-.728,1.1-.708C-3531.037,558.21-3530.519,558.219-3530,558.232Z" transform="translate(-142.661 -145.83)" fill="#f8f2d9"/>
      <path id="Trazado_587387" data-name="Trazado 587387" d="M-3528.366,589.368c1.783,0,3.567-.047,5.347.014.923.032,1.643-.062,1.807-1.141.265,1.05.017,1.536-1.221,1.45-1.662-.116-3.339-.012-5.008-.043C-3527.748,589.642-3528.2,589.926-3528.366,589.368Z" transform="translate(-146.062 -169.148)" fill="#f7f9fa"/>
      <path id="Trazado_587388" data-name="Trazado 587388" d="M-3508.321,429.078v-2.766c.661.073.866.533.912,1.068A1.612,1.612,0,0,1-3508.321,429.078Z" transform="translate(-161.615 -43.503)" fill="#fcdd75"/>
      <path id="Trazado_587389" data-name="Trazado 587389" d="M-3676.829,558.193a1.824,1.824,0,0,1,1.606.617,1.022,1.022,0,0,0,1.631.026,2.374,2.374,0,0,1,3.246-.113,2.454,2.454,0,0,1,.448,3.243,9.058,9.058,0,0,1-3.085,3.162,16.754,16.754,0,0,1-2.949-2.888C-3676.853,561.091-3677.787,559.815-3676.829,558.193Z" transform="translate(-30.553 -145.788)" fill="#f7f9fa"/>
      <path id="Trazado_587390" data-name="Trazado 587390" d="M-3684,558.392c-.958,1.623-.024,2.9.9,4.046a16.749,16.749,0,0,0,2.949,2.888c-1.7,1.356-1.24,1.183-2.746.112a9.614,9.614,0,0,1-3.255-3.453A2.379,2.379,0,0,1-3684,558.392Z" transform="translate(-23.384 -145.987)" fill="#f8f2d9"/>
    </g>
  </g>
</svg>
