<svg xmlns="http://www.w3.org/2000/svg" width="81.396" height="81.396" viewBox="0 0 81.396 81.396">
  <g id="Grupo_846497" data-name="Grupo 846497" transform="translate(-240 -1286.743)">
    <rect id="Rectángulo_38178" data-name="Rectángulo 38178" width="81.396" height="81.396" transform="translate(240 1286.742)" fill="none"/>
    <g id="Grupo_847232" data-name="Grupo 847232" transform="translate(4422.095 943.311)">
      <path id="Trazado_587391" data-name="Trazado 587391" d="M-4088.651,379.33h-1.937c-.157-.85-.8-.829-1.452-.828q-6.969.009-13.939-.005c-.346,0-.742.145-1.1-.18a7.934,7.934,0,0,0,2.875-6.208,8.3,8.3,0,0,0-3.036-6.245h1.409q17.239,0,34.48,0c.558,0,1.116.026,1.674.039q0,6.279,0,12.558c-.384.014-.768.04-1.151.04q-8.183,0-16.366,0C-4087.849,378.5-4088.489,378.483-4088.651,379.33Z" transform="translate(-48.216 -6.122)" fill="#e17e83"/>
      <path id="Trazado_587392" data-name="Trazado 587392" d="M-4117.884,359.783c-.558-.014-1.116-.039-1.674-.039q-17.24,0-34.48,0h-1.409a8.3,8.3,0,0,1,3.036,6.245,7.932,7.932,0,0,1-2.875,6.208c.36.325.755.179,1.1.18q6.969.019,13.939.005c.653,0,1.295-.022,1.452.828-.137.63-.564.8-1.161.8-6.854-.01-13.708.048-20.561-.031a7.863,7.863,0,0,1-7.749-8.005,7.914,7.914,0,0,1,7.93-7.837c6.119-.044,12.238-.012,18.358-.012q12.954,0,25.911,0c1.448,0,1.549.1,1.549,1.545q0,6.452,0,12.9c0,1.26-.151,1.428-1.351,1.429q-9.809.007-19.617.007c-.634,0-1.208-.034-1.373-.8.162-.847.8-.829,1.456-.828q8.183.009,16.367,0c.383,0,.767-.026,1.151-.04,1.758.1,1.758.1,1.758-1.614q0-4.666,0-9.332C-4116.125,359.681-4116.125,359.681-4117.884,359.783Zm-40.471,12.251a6.225,6.225,0,0,0,4.354-5.982,6.167,6.167,0,0,0-4.181-5.876,6.149,6.149,0,0,0-7.13,1.966,6.341,6.341,0,0,0-.242,7.518A6.223,6.223,0,0,0-4158.354,372.034Z" transform="translate(-0.011)" fill="#0e0b0c"/>
      <path id="Trazado_587393" data-name="Trazado 587393" d="M-4145.6,457.322c-.228.688-.742.8-1.4.8-2.448-.026-4.9,0-7.343-.017a2.324,2.324,0,0,0-1.449.438,7.876,7.876,0,0,1-10.528-1.256,7.912,7.912,0,0,1,.033-10.452,7.863,7.863,0,0,1,10.449-1.246,2.517,2.517,0,0,0,1.545.468q9.861-.02,19.722-.007c1.419,0,1.546.131,1.547,1.561q0,4.511,0,9.022c0,1.3-.162,1.475-1.42,1.478-2.623.005-5.246-.008-7.869.008-.641,0-1.195-.066-1.4-.791.157-.656.6-.838,1.235-.835,2.04.01,4.079-.018,6.118-.032a4.459,4.459,0,0,1,.519.042c1.034.2,1.273-.248,1.232-1.236-.083-1.982-.024-3.969-.025-5.954,0-1.714,0-1.714-1.726-1.611H-4153.7a8.311,8.311,0,0,1,0,8.8c2.348,0,4.54.013,6.732-.008C-4146.308,456.483-4145.779,456.59-4145.6,457.322Zm-12.766-11.213a6.213,6.213,0,0,0-7.08,2.2,6.355,6.355,0,0,0,0,7.527,6.211,6.211,0,0,0,7.078,2.2,6.206,6.206,0,0,0,4.358-5.964A6.22,6.22,0,0,0-4158.367,446.109Z" transform="translate(0 -67.964)" fill="#0d0e0d"/>
      <path id="Trazado_587394" data-name="Trazado 587394" d="M-4081.537,469.807c-2.04.014-4.079.042-6.118.032-.636,0-1.079.179-1.236.835l-1.882,0c-.179-.732-.707-.839-1.365-.832-2.192.022-4.384.008-6.731.008a8.311,8.311,0,0,0,0-8.8h17.335Z" transform="translate(-54.827 -81.313)" fill="#b2e39e"/>
      <path id="Trazado_587395" data-name="Trazado 587395" d="M-3989.729,462.793c0-3.813-.019-7.626.017-11.439.006-.714-.149-1.01-.91-.933a18.979,18.979,0,0,1-1.993.009,1.1,1.1,0,0,1-1.1-.65,1.084,1.084,0,0,1,.245-1.261c2.368-2.381,4.728-4.77,7.136-7.11a1.462,1.462,0,0,1,2.177.067c2.37,2.329,4.708,4.691,7.052,7.047a1.062,1.062,0,0,1,.313,1.24,1.135,1.135,0,0,1-1.1.665l-.525.007c-2.444.021-2.444.021-2.444,2.422q0,10.6,0,21.2c0,1.383-.1,1.481-1.5,1.483q-2.99,0-5.981,0c-1.211,0-1.374-.173-1.375-1.41Q-3989.733,468.461-3989.729,462.793Zm5.456,11.1a5.549,5.549,0,0,1,.624.046c1.014.186,1.284-.22,1.25-1.232-.081-2.44-.026-4.885-.026-7.328q0-7.224,0-14.448c0-1.56.5-2.03,2.076-2.058a2.187,2.187,0,0,0,1.23-.142c-1.958-1.96-3.867-3.846-5.742-5.764-.46-.471-.686-.269-.934.158l-5.806,5.727c3.407.08,3.462.137,3.462,3.227,0,6.956.01,13.912-.015,20.868,0,.733.1,1.085.948,1C-3986.234,473.857-3985.25,473.9-3984.273,473.892Z" transform="translate(-137.815 -65.441)" fill="#090906"/>
      <path id="Trazado_587396" data-name="Trazado 587396" d="M-4147.669,541.157a1,1,0,0,1-1.171.8c-.418-.018-.841.026-1.258-.008a5.411,5.411,0,0,0-4.975,1.818c-3.019,3.266-8.333,2.793-11.27-.589a7.913,7.913,0,0,1,.986-11.32,7.854,7.854,0,0,1,11.266,1.329,1.934,1.934,0,0,0,1.8.869c4.055-.034,8.111-.018,12.167-.015,1.287,0,1.438.156,1.441,1.451,0,1.713-.029,3.427.013,5.139.023.928-.305,1.357-1.271,1.332-1.538-.039-3.076,0-4.615-.014-.562,0-1.121-.052-1.239-.78a1.124,1.124,0,0,1,1.261-.841c.832.029,1.667-.019,2.5-.034.207.014.416.011.618.046.885.151,1.266-.15,1.141-1.1a15.307,15.307,0,0,1-.016-1.969c0-1.693,0-1.693-1.742-1.572l-10.067-.048c-.367,0-.7-.048-.546.543a8.494,8.494,0,0,1-.092,4.146c1.306,0,2.559.015,3.81-.007C-4148.3,540.322-4147.819,540.47-4147.669,541.157Zm-10.692-9.137a6.233,6.233,0,0,0-7.2,2.379,6.343,6.343,0,0,0,.241,7.519,6.151,6.151,0,0,0,7.131,1.966,6.163,6.163,0,0,0,4.182-5.875A6.244,6.244,0,0,0-4158.362,532.02Z" transform="translate(0 -135.835)" fill="#0b0c0d"/>
      <path id="Trazado_587397" data-name="Trazado 587397" d="M-4089.222,562.16c-.15-.687-.629-.835-1.257-.824-1.251.022-2.5.007-3.81.007a8.5,8.5,0,0,0,.092-4.146c-.155-.591.18-.545.546-.543l10.066.048q0,2.3,0,4.6c-.834.015-1.669.063-2.5.034a1.125,1.125,0,0,0-1.261.841Z" transform="translate(-58.447 -156.838)" fill="#7fb2f9"/>
      <path id="Trazado_587398" data-name="Trazado 587398" d="M-3928.4,365.924c1.758-.1,1.759-.1,1.759,1.612v9.332c0,1.717,0,1.717-1.758,1.614Q-3928.4,372.2-3928.4,365.924Z" transform="translate(-189.495 -6.141)" fill="#c8646c"/>
      <path id="Trazado_587399" data-name="Trazado 587399" d="M-4152.367,378.154a6.223,6.223,0,0,1-7.2-2.374,6.341,6.341,0,0,1,.241-7.518,6.149,6.149,0,0,1,7.13-1.966,1.19,1.19,0,0,0,.458,1,6.932,6.932,0,0,1-.115,9.9C-4152.115,377.462-4152.457,377.694-4152.367,378.154Zm-.377-1.992c.364-.093.338-.384.338-.663v-6.641c0-.28.023-.57-.341-.661-.5-.963-1.4-.525-2.145-.6-.545-.058-1.011.152-1.042.753s.417.869.966.825c.614-.049.656.262.652.745-.019,1.912,0,3.823-.01,5.735,0,.437.025.852.5,1.043C-4153.28,376.914-4152.984,376.585-4152.744,376.162Z" transform="translate(-5.998 -6.12)" fill="#e6e3f4"/>
      <path id="Trazado_587400" data-name="Trazado 587400" d="M-4121.139,379.788c-.09-.46.25-.692.514-.96a6.932,6.932,0,0,0,.116-9.9,1.188,1.188,0,0,1-.458-1,6.166,6.166,0,0,1,4.181,5.876A6.225,6.225,0,0,1-4121.139,379.788Z" transform="translate(-37.226 -7.753)" fill="#d8d5e6"/>
      <path id="Trazado_587401" data-name="Trazado 587401" d="M-4152.367,464.14a6.212,6.212,0,0,1-7.079-2.2,6.355,6.355,0,0,1,0-7.527,6.213,6.213,0,0,1,7.08-2.2c-.087.509.315.743.6,1.034a6.927,6.927,0,0,1,1.013,8.541c-.2.329-.332.809-.878.778.2-1.061.042-1.264-.97-1.306a6.993,6.993,0,0,1-1.979-.092c.418-.588.787-1.091,1.14-1.606a8.425,8.425,0,0,0,1.555-2.7,2.668,2.668,0,0,0-1.91-3.246,2.775,2.775,0,0,0-3.337,1.81c-.153.494-.117.917.4,1.145.532.237.857-.04,1.06-.521.027-.064.053-.129.083-.192a1.082,1.082,0,0,1,1.537-.637,1.074,1.074,0,0,1,.535,1.576,5.787,5.787,0,0,1-.705,1.156c-.813,1.133-1.668,2.237-2.459,3.385-.587.851-.306,1.436.711,1.456a22,22,0,0,0,4.174-.085C-4151.656,463.314-4152.509,463.531-4152.367,464.14Z" transform="translate(-6.002 -74.063)" fill="#e6e3f4"/>
      <path id="Trazado_587402" data-name="Trazado 587402" d="M-4120.429,463.835c.546.03.678-.449.877-.778a6.925,6.925,0,0,0-1.013-8.541c-.282-.291-.684-.525-.6-1.034a6.22,6.22,0,0,1,4.355,5.968,6.206,6.206,0,0,1-4.357,5.964c-.143-.609.711-.826.564-1.436Z" transform="translate(-37.205 -75.337)" fill="#d8d5e6"/>
      <path id="Trazado_587403" data-name="Trazado 587403" d="M-4016.34,469.67v-8.76c1.726-.1,1.727-.1,1.727,1.611,0,1.985-.058,3.973.024,5.954.041.988-.2,1.437-1.232,1.236A4.459,4.459,0,0,0-4016.34,469.67Z" transform="translate(-120.025 -81.176)" fill="#94d5a3"/>
      <path id="Trazado_587404" data-name="Trazado 587404" d="M-3975.92,482.052c-.978.013-1.961-.034-2.931.059-.846.081-.951-.272-.948-1,.026-6.956.016-13.912.016-20.868,0-3.09-.055-3.147-3.462-3.227l5.807-5.727a1.258,1.258,0,0,0,.574.958,2.58,2.58,0,0,1,.967,2.375C-3975.93,463.763-3975.919,472.908-3975.92,482.052Z" transform="translate(-146.168 -73.602)" fill="#fdde7c"/>
      <path id="Trazado_587405" data-name="Trazado 587405" d="M-3954.081,480.441c0-9.145-.01-18.29.022-27.435a2.58,2.58,0,0,0-.967-2.375,1.257,1.257,0,0,1-.574-.958c.248-.427.473-.629.934-.158,1.875,1.918,3.783,3.8,5.742,5.764a2.186,2.186,0,0,1-1.229.142c-1.578.029-2.074.5-2.076,2.058q-.009,7.224,0,14.448c0,2.443-.054,4.887.026,7.328.034,1.012-.236,1.418-1.25,1.232A5.54,5.54,0,0,0-3954.081,480.441Z" transform="translate(-168.007 -71.99)" fill="#f7cb62"/>
      <path id="Trazado_587406" data-name="Trazado 587406" d="M-4152.2,549.981a6.152,6.152,0,0,1-7.131-1.966,6.343,6.343,0,0,1-.241-7.519,6.232,6.232,0,0,1,7.2-2.379c-.1.509.3.747.583,1.037a6.961,6.961,0,0,1,.122,9.758C-4151.951,549.221-4152.266,549.5-4152.2,549.981Zm-2.2-1.226a2.685,2.685,0,0,0,2.429-3.982,1.153,1.153,0,0,1,0-1.358,2.655,2.655,0,0,0-1.11-3.681,2.737,2.737,0,0,0-3.69,1.165c-.266.531-.574,1.163.178,1.544.718.364.967-.2,1.205-.747a1.041,1.041,0,0,1,1.278-.656,1.055,1.055,0,0,1,.883,1.035,1.043,1.043,0,0,1-.839,1.167c-.5.116-1.024.176-1.055.8-.034.7.526.787,1.063.9a1.027,1.027,0,0,1,.83.964,1.076,1.076,0,0,1-.5,1.08c-.72.477-1.521.1-1.765-.908-.141-.579-.4-.908-1-.775-.568.127-.6.6-.556,1.085A2.713,2.713,0,0,0-4154.4,548.755Z" transform="translate(-5.997 -141.932)" fill="#e6e3f4"/>
      <path id="Trazado_587407" data-name="Trazado 587407" d="M-4120.961,551.237c-.07-.481.245-.76.536-1.069a6.961,6.961,0,0,0-.122-9.758c-.284-.29-.681-.527-.583-1.037a6.245,6.245,0,0,1,4.352,5.99A6.164,6.164,0,0,1-4120.961,551.237Z" transform="translate(-37.232 -143.188)" fill="#d8d5e6"/>
      <path id="Trazado_587408" data-name="Trazado 587408" d="M-4043.327,561.313q0-2.3,0-4.6c1.742-.121,1.742-.121,1.743,1.572a15.307,15.307,0,0,0,.016,1.969c.125.95-.256,1.251-1.141,1.1C-4042.911,561.324-4043.12,561.327-4043.327,561.313Z" transform="translate(-98.706 -156.853)" fill="#61a2f8"/>
      <path id="Trazado_587409" data-name="Trazado 587409" d="M-4134.878,382.555c-.241.423-.537.752-1.083.532-.473-.191-.5-.606-.5-1.043.007-1.912-.009-3.823.01-5.735,0-.483-.039-.794-.652-.745-.548.044-1-.215-.966-.825s.5-.811,1.042-.753c.745.079,1.646-.359,2.145.6Q-4134.879,378.572-4134.878,382.555Z" transform="translate(-23.863 -12.512)" fill="#090906"/>
      <path id="Trazado_587410" data-name="Trazado 587410" d="M-4122.886,384.949q0-3.982,0-7.965c.364.092.34.382.34.661q0,3.321,0,6.641C-4122.548,384.565-4122.522,384.856-4122.886,384.949Z" transform="translate(-35.855 -14.907)" fill="#f7f9fa"/>
      <path id="Trazado_587411" data-name="Trazado 587411" d="M-4138.6,468.76l-.17.143a22,22,0,0,1-4.174.085c-1.017-.021-1.3-.606-.711-1.456.791-1.148,1.646-2.252,2.459-3.385a5.764,5.764,0,0,0,.705-1.156,1.073,1.073,0,0,0-.535-1.576,1.083,1.083,0,0,0-1.537.637c-.03.063-.055.128-.083.192-.2.481-.527.758-1.06.521-.513-.228-.549-.651-.4-1.145a2.776,2.776,0,0,1,3.338-1.81,2.668,2.668,0,0,1,1.909,3.246,8.417,8.417,0,0,1-1.555,2.7c-.353.514-.722,1.018-1.14,1.606a7,7,0,0,0,1.98.092C-4138.555,467.5-4138.4,467.7-4138.6,468.76Z" transform="translate(-19.037 -80.262)" fill="#09090a"/>
      <path id="Trazado_587412" data-name="Trazado 587412" d="M-4140.786,554.928a2.713,2.713,0,0,1-2.653-2.363c-.048-.488-.012-.958.556-1.085.6-.133.857.2,1,.775.243,1,1.045,1.385,1.765.908a1.076,1.076,0,0,0,.5-1.08,1.026,1.026,0,0,0-.829-.964c-.537-.116-1.1-.2-1.063-.9.031-.628.558-.688,1.055-.8a1.043,1.043,0,0,0,.839-1.167,1.055,1.055,0,0,0-.883-1.035,1.041,1.041,0,0,0-1.278.656c-.238.547-.486,1.112-1.205.747-.751-.381-.444-1.013-.178-1.544a2.737,2.737,0,0,1,3.69-1.165,2.654,2.654,0,0,1,1.11,3.682,1.153,1.153,0,0,0,0,1.358A2.685,2.685,0,0,1-4140.786,554.928Z" transform="translate(-19.609 -148.105)" fill="#09090a"/>
    </g>
  </g>
</svg>
