<svg xmlns="http://www.w3.org/2000/svg" width="189" height="240.6" viewBox="0 0 189 240.6">
  <g id="Grupo_847372" data-name="Grupo 847372" transform="translate(-1010.108 -11203.953)">
    <g id="Grupo_846522" data-name="Grupo 846522" transform="translate(1025.717 11227.692)" opacity="0.5">
      <path id="Trazado_586034" data-name="Trazado 586034" d="M-47.51,273.817h-.185c.634,2.746-.686,5.492-4.065,7.419l-63.3,36.561a22.063,22.063,0,0,1-11.351,2.428,28.159,28.159,0,0,1-13.094-3.431l-59.818-34.528c-3.96-2.3-5.967-5.228-5.967-7.973,0-.157.026-.316.026-.475V170.208h13.807l53.694-31.019a21.8,21.8,0,0,1,11.351-2.4,27.86,27.86,0,0,1,13.094,3.433l51.952,29.988H-47.51Z" transform="translate(205.292 -103.374)" fill="#d8dbe8"/>
      <path id="Trazado_586035" data-name="Trazado 586035" d="M-83.7,273.811h-.185c.634,2.746-.686,5.492-4.065,7.419l-63.3,36.561a22.064,22.064,0,0,1-11.351,2.428V136.78a27.861,27.861,0,0,1,13.094,3.433L-97.56,170.2H-83.7Z" transform="translate(241.483 -103.368)" fill="#fff"/>
      <g id="Grupo_846521" data-name="Grupo 846521" transform="translate(0)">
        <path id="Trazado_586036" data-name="Trazado 586036" d="M-51.738,182.287l-63.323,36.559c-6.262,3.616-17.2,3.163-24.436-1.013L-199.309,183.3c-7.232-4.176-8.018-10.492-1.755-14.108l63.323-36.559c6.264-3.616,17.2-3.163,24.436,1.013l59.814,34.532C-46.259,172.355-45.474,178.671-51.738,182.287Z" transform="translate(205.292 -108.953)" fill="#00e7bf"/>
        <path id="Trazado_586037" data-name="Trazado 586037" d="M-84.991,174.054l-44.326,25.592c-4.383,2.532-12.042,2.214-17.105-.71l-41.868-24.173c-5.063-2.923-5.614-7.343-1.229-9.875l44.326-25.592c4.385-2.531,12.042-2.214,17.105.71l41.87,24.173C-81.155,167.1-80.606,171.524-84.991,174.054Z" transform="translate(216.155 -102.684)" fill="#04b193"/>
        <g id="Grupo_846520" data-name="Grupo 846520" transform="translate(23.667)">
          <path id="Trazado_586038" data-name="Trazado 586038" d="M-82.034,154.547h-.129c.443,1.922-.48,3.843-2.846,5.192l-44.311,25.592a15.443,15.443,0,0,1-7.946,1.7,19.722,19.722,0,0,1-9.165-2.4L-188.3,160.46c-2.772-1.608-4.176-3.659-4.176-5.58,0-.111.018-.222.018-.333v-7.853h9.664l37.585-21.712a15.258,15.258,0,0,1,7.946-1.682,19.5,19.5,0,0,1,9.165,2.4l36.365,20.991h9.7Z" transform="translate(192.489 -114.804)" fill="#d8dbe8"/>
          <path id="Trazado_586039" data-name="Trazado 586039" d="M-107.367,154.543h-.129c.443,1.922-.48,3.843-2.846,5.192l-44.311,25.592a15.443,15.443,0,0,1-7.946,1.7V123.3a19.5,19.5,0,0,1,9.165,2.4l36.365,20.991h9.7Z" transform="translate(217.822 -114.8)" fill="#fff"/>
          <path id="Trazado_586040" data-name="Trazado 586040" d="M-85,155.165l-44.326,25.591c-4.385,2.532-12.042,2.214-17.105-.708L-188.3,155.874c-5.063-2.923-5.614-7.345-1.229-9.877l44.326-25.59c4.385-2.532,12.042-2.214,17.105.708l41.87,24.173C-81.162,148.211-80.611,152.633-85,155.165Z" transform="translate(192.484 -118.698)" fill="#fff"/>
          <path id="Trazado_586041" data-name="Trazado 586041" d="M-108.276,149.4l-31.029,17.913c-3.069,1.772-8.43,1.55-11.972-.5l-29.31-16.922c-3.542-2.046-3.928-5.141-.859-6.913l31.029-17.913c3.069-1.772,8.43-1.55,11.974.5l29.308,16.922C-105.592,144.534-105.207,147.629-108.276,149.4Z" transform="translate(200.085 -114.31)" fill="#00e7bf"/>
        </g>
      </g>
    </g>
    <path id="Trazado_587712" data-name="Trazado 587712" d="M870.5,520.259V496.553" transform="translate(234.108 10708.193)" fill="none" stroke="#e8e8e8" stroke-width="2" stroke-dasharray="5 5"/>
    <path id="Trazado_587713" data-name="Trazado 587713" d="M870.5,685.553v-189" transform="translate(513.556 12075.953) rotate(-90)" fill="none" stroke="#7ef2de" stroke-width="3"/>
  </g>
</svg>
