<svg xmlns="http://www.w3.org/2000/svg" width="189" height="240.6" viewBox="0 0 189 240.6">
  <g id="Grupo_847370" data-name="Grupo 847370" transform="translate(-595.297 -11203.953)">
    <g id="Grupo_846516" data-name="Grupo 846516" transform="translate(610.906 11264.648)" opacity="0.5">
      <path id="Trazado_586018" data-name="Trazado 586018" d="M-246.02,256.861h-.185c.634,2.746-.686,5.492-4.065,7.419l-63.3,36.561a22.065,22.065,0,0,1-11.351,2.428,28.16,28.16,0,0,1-13.094-3.431l-59.82-34.528c-3.958-2.3-5.965-5.228-5.965-7.973,0-.157.026-.316.026-.475V190.208h13.807l53.694-31.019a21.8,21.8,0,0,1,11.351-2.4,27.861,27.861,0,0,1,13.094,3.433l51.951,29.988h13.859Z" transform="translate(403.802 -123.374)" fill="#d8dbe8"/>
      <path id="Trazado_586019" data-name="Trazado 586019" d="M-282.211,256.854h-.185c.634,2.746-.686,5.492-4.065,7.419l-63.3,36.561a22.064,22.064,0,0,1-11.351,2.428V156.78a27.861,27.861,0,0,1,13.094,3.433L-296.07,190.2h13.859Z" transform="translate(439.993 -123.368)" fill="#fff"/>
      <g id="Grupo_846515" data-name="Grupo 846515" transform="translate(0)">
        <path id="Trazado_586020" data-name="Trazado 586020" d="M-250.248,202.287l-63.323,36.559c-6.262,3.616-17.2,3.163-24.436-1.013L-397.821,203.3c-7.231-4.176-8.016-10.492-1.754-14.108l63.323-36.559c6.262-3.616,17.2-3.163,24.436,1.013L-252,188.179C-244.771,192.355-243.986,198.671-250.248,202.287Z" transform="translate(403.802 -128.953)" fill="#f27b58"/>
        <path id="Trazado_586021" data-name="Trazado 586021" d="M-283.5,194.054l-44.326,25.592c-4.385,2.532-12.042,2.214-17.105-.71L-386.8,194.763c-5.063-2.923-5.614-7.343-1.229-9.875L-343.7,159.3c4.385-2.532,12.042-2.214,17.105.71l41.87,24.173C-279.667,187.1-279.116,191.524-283.5,194.054Z" transform="translate(414.665 -122.684)" fill="#c55b3c"/>
        <g id="Grupo_846514" data-name="Grupo 846514" transform="translate(23.667)">
          <path id="Trazado_586022" data-name="Trazado 586022" d="M-280.544,174.547h-.129c.443,1.922-.48,3.843-2.846,5.192l-44.311,25.592a15.443,15.443,0,0,1-7.946,1.7,19.723,19.723,0,0,1-9.165-2.4l-41.872-24.17c-2.772-1.608-4.176-3.659-4.176-5.58,0-.111.019-.222.019-.333v-7.853h9.664l37.585-21.712a15.258,15.258,0,0,1,7.946-1.681,19.5,19.5,0,0,1,9.165,2.4l36.365,20.991h9.7Z" transform="translate(390.999 -134.804)" fill="#d8dbe8"/>
          <path id="Trazado_586023" data-name="Trazado 586023" d="M-305.877,174.543h-.129c.443,1.922-.48,3.843-2.846,5.192l-44.311,25.592a15.443,15.443,0,0,1-7.946,1.7V143.3a19.5,19.5,0,0,1,9.165,2.4l36.365,20.991h9.7Z" transform="translate(416.332 -134.8)" fill="#fff"/>
          <path id="Trazado_586024" data-name="Trazado 586024" d="M-283.506,175.165l-44.326,25.59c-4.385,2.532-12.042,2.214-17.105-.708l-41.87-24.173c-5.061-2.923-5.612-7.345-1.227-9.877l44.326-25.591c4.385-2.532,12.042-2.214,17.105.708l41.87,24.173C-279.672,168.211-279.121,172.633-283.506,175.165Z" transform="translate(390.994 -138.698)" fill="#fff"/>
          <path id="Trazado_586025" data-name="Trazado 586025" d="M-306.786,169.4l-31.029,17.913c-3.069,1.772-8.43,1.55-11.974-.5L-379.1,169.9c-3.544-2.046-3.928-5.141-.859-6.913l31.029-17.913c3.069-1.772,8.43-1.55,11.974.5l29.308,16.922C-304.1,164.534-303.717,167.629-306.786,169.4Z" transform="translate(398.595 -134.309)" fill="#f27b58"/>
        </g>
      </g>
    </g>
    <path id="Trazado_587714" data-name="Trazado 587714" d="M870.5,560.959V496.553" transform="translate(-180.703 10708.193)" fill="none" stroke="#e8e8e8" stroke-width="2" stroke-dasharray="5 5"/>
    <path id="Trazado_587715" data-name="Trazado 587715" d="M870.5,685.553v-189" transform="translate(98.744 12075.953) rotate(-90)" fill="none" stroke="#f8bcaa" stroke-width="3"/>
  </g>
</svg>
