<svg xmlns="http://www.w3.org/2000/svg" width="106" height="106" viewBox="0 0 106 106">
  <g id="Grupo_841495" data-name="Grupo 841495" transform="translate(-0.417 -0.165)">
    <rect id="Rectángulo_38178" data-name="Rectángulo 38178" width="106" height="106" transform="translate(0.417 0.165)" fill="none"/>
    <g id="Grupo_847252" data-name="Grupo 847252" transform="translate(-6295.787 -268.517)">
      <path id="Trazado_587531" data-name="Trazado 587531" d="M6329.682,350.818l-2.644,0c-.272-1.086-1.031-1.345-2.06-1.331-2.668.038-5.338.016-8.006.011-2.83-.005-3.694-.836-3.695-3.609q-.009-24.866,0-49.732c0-2.684.885-3.554,3.591-3.555q37.392-.006,74.784,0c2.782,0,3.631.86,3.631,3.685q.007,24.78,0,49.562c0,2.805-.852,3.647-3.654,3.649-7.5,0-14.991.027-22.486-.016a5.954,5.954,0,0,0-4.553,1.89c-2.738,2.8-5.523,5.558-8.305,8.316-1.539,1.526-2.477,1.519-4.031-.024q-4.231-4.2-8.433-8.429a5.171,5.171,0,0,0-3.755-1.732c-2.839,0-5.678.016-8.517-.013A1.617,1.617,0,0,0,6329.682,350.818Zm60.031-45.275-.012-2.588c1.265-.712,1.75-2.536,1.223-4.63-.388-1.541-1.549-1.736-2.9-1.735q-33.735.021-67.47.012c-2.372,0-2.989.636-2.99,3.068q-.007,21.293,0,42.585c0,2.461.657,3.093,3.159,3.095,6.7,0,13.4.029,20.1-.013a7.372,7.372,0,0,1,5.632,2.334c1.975,2.039,4,4.033,6.021,6.024,1.386,1.364,2.405,1.368,3.793,0,1.986-1.949,3.977-3.9,5.9-5.909a7.632,7.632,0,0,1,5.923-2.459c6.7.058,13.4.028,20.1.015,2.042,0,2.8-.73,2.8-2.764.015-11.64,0-23.28.021-34.919A1.914,1.914,0,0,0,6389.713,305.543Z" transform="translate(-5.077 -5.037)" fill="#fb4949"/>
      <path id="Trazado_587532" data-name="Trazado 587532" d="M6324.606,345.781a1.616,1.616,0,0,1,1.867-1.332c2.839.03,5.679.009,8.518.013a5.17,5.17,0,0,1,3.754,1.732q4.2,4.232,8.433,8.429c1.554,1.543,2.492,1.551,4.031.024,2.781-2.759,5.566-5.515,8.3-8.316a5.953,5.953,0,0,1,4.552-1.89c7.5.043,14.991.021,22.487.016,2.8,0,3.654-.844,3.655-3.649q.008-24.781,0-49.562c0-2.824-.85-3.684-3.631-3.685q-37.392-.006-74.785,0c-2.706,0-3.59.871-3.591,3.555q-.01,24.866,0,49.732c0,2.773.866,3.6,3.694,3.609,2.669.005,5.338.027,8.006-.011,1.029-.015,1.788.245,2.061,1.331a1.709,1.709,0,0,1-1.906,1.324c-3.01-.025-6.022.051-9.03-.028-3.362-.088-5.451-2.383-5.453-5.88q-.01-25.042,0-50.084c0-4.084,2.067-6.143,6.209-6.145q33.738-.013,67.476,0c2.556,0,5.112-.023,7.667.007,3.793.043,5.909,2.164,5.911,5.929q.01,25.127,0,50.255c0,3.737-2.166,5.923-5.922,5.935-7.327.025-14.655.066-21.98-.033a5.285,5.285,0,0,0-4.311,1.826c-2.48,2.654-5.1,5.176-7.688,7.73-2.434,2.4-5.019,2.4-7.451,0-2.626-2.595-5.275-5.169-7.812-7.849a4.75,4.75,0,0,0-4.02-1.7c-2.321.135-4.656.016-6.984.041C6325.663,347.111,6324.854,346.907,6324.606,345.781Z" transform="translate(0)" fill="#0f0909"/>
      <path id="Trazado_587533" data-name="Trazado 587533" d="M6403,315.565q.006,1.294.012,2.588c-1.351.276-1.348,1.3-1.347,2.365.01,11.013-.031,22.025.048,33.037.012,1.559-.445,1.839-1.884,1.821-6.244-.08-12.49-.025-18.736-.038a9.592,9.592,0,0,0-7.181,2.962c-1.748,1.784-3.576,3.492-5.274,5.322-.79.851-1.25.727-1.976-.045-1.593-1.7-3.317-3.268-4.914-4.961a10.189,10.189,0,0,0-7.907-3.291c-6.246.056-12.492-.03-18.736.052-1.388.018-1.65-.418-1.646-1.7q.067-20.18-.005-40.36c-.006-1.319.386-1.577,1.62-1.575q32.534.055,65.068-.006c1.334,0,1.7.41,1.541,1.637C6401.547,314.41,6401.759,315.315,6403,315.565Zm-26.487,32.63a5.167,5.167,0,0,0,3.654-8.686c-1.379-1.5-2.84-2.938-4.344-4.319-.752-.691-.854-1.111-.035-1.844,1.437-1.284,2.781-2.674,4.123-4.059a5.149,5.149,0,0,0,.176-7.452c-2.086-2.085-5.153-2.027-7.457.176-1.395,1.332-2.786,2.673-4.1,4.084-.693.746-1.135.839-1.875.032-1.34-1.462-2.773-2.843-4.22-4.2a5.147,5.147,0,1,0-7.221,7.33c1.34,1.387,2.7,2.762,4.12,4.063.743.68.867,1.1.038,1.845-1.479,1.321-2.875,2.742-4.239,4.183a5.18,5.18,0,0,0-.034,7.349,5.074,5.074,0,0,0,7.312-.085c1.44-1.367,2.869-2.75,4.22-4.2.692-.744,1.121-.854,1.864-.038,1.336,1.466,2.8,2.816,4.21,4.213A5.031,5.031,0,0,0,6376.513,348.195Z" transform="translate(-18.376 -17.647)" fill="#f6a18a"/>
      <path id="Trazado_587534" data-name="Trazado 587534" d="M6397.98,310.674c-1.242-.25-1.454-1.155-1.317-2.2.161-1.227-.206-1.64-1.541-1.637q-32.533.069-65.068.006c-1.234,0-1.625.256-1.621,1.575q.081,20.18.006,40.36c0,1.286.258,1.723,1.645,1.7,6.245-.082,12.491,0,18.736-.052a10.188,10.188,0,0,1,7.908,3.291c1.6,1.693,3.32,3.265,4.914,4.961.726.772,1.187.9,1.977.045,1.7-1.83,3.525-3.537,5.273-5.322a9.593,9.593,0,0,1,7.182-2.962c6.246.013,12.492-.042,18.736.038,1.438.018,1.9-.262,1.883-1.821-.08-11.012-.038-22.024-.048-33.037,0-1.068,0-2.089,1.347-2.365a1.914,1.914,0,0,1,1.3,2.121c-.02,11.64,0,23.28-.021,34.919,0,2.034-.758,2.76-2.8,2.764-6.7.013-13.4.043-20.1-.015a7.63,7.63,0,0,0-5.923,2.459c-1.919,2.013-3.91,3.96-5.9,5.909-1.388,1.363-2.407,1.359-3.793,0-2.024-1.991-4.046-3.985-6.021-6.024a7.372,7.372,0,0,0-5.632-2.334c-6.7.042-13.4.017-20.1.013-2.5,0-3.157-.634-3.159-3.095q-.008-21.292,0-42.585c0-2.432.618-3.067,2.99-3.068q33.734-.007,67.469-.012c1.355,0,2.515.193,2.9,1.735C6399.73,308.139,6399.244,309.962,6397.98,310.674Z" transform="translate(-13.355 -12.756)" fill="#0b0504"/>
      <path id="Trazado_587535" data-name="Trazado 587535" d="M6415.354,364.776a5.029,5.029,0,0,1-3.806-1.615c-1.411-1.4-2.875-2.746-4.21-4.213-.744-.816-1.172-.706-1.864.038-1.351,1.453-2.78,2.837-4.22,4.2a5.074,5.074,0,0,1-7.312.085,5.18,5.18,0,0,1,.035-7.349c1.364-1.442,2.76-2.862,4.239-4.183.829-.741.706-1.164-.038-1.845-1.421-1.3-2.779-2.676-4.119-4.063a5.147,5.147,0,1,1,7.221-7.33c1.446,1.36,2.879,2.741,4.22,4.2.74.807,1.181.713,1.875-.032,1.313-1.411,2.7-2.752,4.1-4.084,2.3-2.2,5.371-2.261,7.457-.176a5.149,5.149,0,0,1-.176,7.452c-1.342,1.385-2.687,2.775-4.123,4.059-.82.733-.717,1.154.035,1.844,1.5,1.38,2.965,2.815,4.344,4.319a4.914,4.914,0,0,1,.908,5.687A4.865,4.865,0,0,1,6415.354,364.776Zm2.433-5.192a2.947,2.947,0,0,0-1.1-2.209q-2.437-2.379-4.831-4.8c-1.308-1.33-1.314-2.146-.008-3.473,1.633-1.659,3.32-3.263,4.954-4.921,1.291-1.309,1.39-2.821.318-3.919s-2.584-1.028-3.911.252c-1.676,1.616-3.3,3.281-4.973,4.9-1.377,1.338-2.249,1.337-3.624,0-1.668-1.622-3.3-3.288-4.973-4.9-1.332-1.281-2.843-1.354-3.911-.257s-.979,2.609.313,3.917c1.635,1.656,3.322,3.261,4.955,4.92,1.305,1.327,1.3,2.151,0,3.477-1.631,1.66-3.315,3.267-4.946,4.928a2.7,2.7,0,0,0-.292,3.932c1.1,1.144,2.5,1.064,3.883-.273,1.631-1.58,3.225-3.2,4.847-4.787,1.531-1.5,2.334-1.5,3.864-.008,1.7,1.667,3.384,3.36,5.093,5.023a2.372,2.372,0,0,0,2.8.616A2.468,2.468,0,0,0,6417.786,359.585Z" transform="translate(-57.216 -34.229)" fill="#080606"/>
      <path id="Trazado_587536" data-name="Trazado 587536" d="M6422.792,364.6a2.468,2.468,0,0,1-1.548,2.417,2.372,2.372,0,0,1-2.8-.616c-1.708-1.663-3.388-3.356-5.093-5.023-1.53-1.5-2.332-1.493-3.863.008-1.622,1.59-3.216,3.207-4.847,4.787-1.381,1.338-2.782,1.418-3.883.274a2.7,2.7,0,0,1,.292-3.932c1.631-1.661,3.315-3.268,4.946-4.928,1.3-1.326,1.3-2.15,0-3.477-1.632-1.659-3.32-3.264-4.955-4.92-1.292-1.308-1.389-2.811-.312-3.917s2.579-1.024,3.91.257c1.677,1.613,3.3,3.279,4.974,4.9,1.375,1.337,2.247,1.338,3.624,0,1.669-1.622,3.3-3.287,4.972-4.9,1.327-1.28,2.836-1.353,3.911-.252s.973,2.61-.318,3.919c-1.634,1.657-3.321,3.262-4.954,4.921-1.306,1.327-1.3,2.143.008,3.473q2.388,2.428,4.831,4.8A2.945,2.945,0,0,1,6422.792,364.6Z" transform="translate(-62.222 -39.24)" fill="#f8f8f8"/>
    </g>
  </g>
</svg>
