<svg xmlns="http://www.w3.org/2000/svg" width="81.396" height="81.396" viewBox="0 0 81.396 81.396">
  <g id="Grupo_845537" data-name="Grupo 845537" transform="translate(-240 -1286.742)">
    <rect id="Rectángulo_38178" data-name="Rectángulo 38178" width="81.396" height="81.396" transform="translate(240 1286.742)" fill="none"/>
    <g id="Grupo_847201" data-name="Grupo 847201" transform="translate(-973.113 1888.854)">
      <path id="Trazado_587088" data-name="Trazado 587088" d="M1277.779-575.411l2.114,1.656c-.33.543-.489,1.091.029,1.61s1.069.352,1.613.031l1.654,2.111c-.588.689-.388,1.312.07,2a24.4,24.4,0,0,1,4.278,12.9c.327,10.7-4.015,19.111-13.391,24.313s-18.824,4.582-27.832-1.333a2.341,2.341,0,0,0-2.163-.375c-1.711.517-3.453.935-5.195,1.4a1.189,1.189,0,0,1-.035-.241c.443-1.681.846-3.374,1.349-5.036a2.331,2.331,0,0,0-.375-2.162c-5.752-8.716-6.427-17.881-1.729-27.163a26.056,26.056,0,0,1,37.427-9.91C1276.316-575.138,1276.98-574.714,1277.779-575.411Zm-5.467,14.812a10.465,10.465,0,0,0-.273-2.545,11.46,11.46,0,0,0-10.2-8.686,11.128,11.128,0,0,0-11.188,7.453,3.5,3.5,0,0,0,2.811,4.732c1.655.242,3.008-.675,3.889-2.636a4.135,4.135,0,0,1,4.16-2.547,4.411,4.411,0,0,1,3.707,3.363c.406,1.813-.46,3.483-2.377,4.562a9.535,9.535,0,0,0-5.166,8.265,3.479,3.479,0,0,0,3.171,3.749,3.392,3.392,0,0,0,3.782-3.1,3.611,3.611,0,0,1,2.117-3.1A10.941,10.941,0,0,0,1272.312-560.6Zm-11.116,18.3a3.5,3.5,0,0,0-3.532,3.515,3.507,3.507,0,0,0,3.483,3.458,3.5,3.5,0,0,0,3.53-3.52A3.494,3.494,0,0,0,1261.2-542.294Z" transform="translate(-7.572 -7.845)" fill="#fdef9f"/>
      <path id="Trazado_587089" data-name="Trazado 587089" d="M1270.207-583.255c-.8.7-1.463.272-2.186-.2a26.056,26.056,0,0,0-37.427,9.91c-4.7,9.282-4.022,18.446,1.729,27.163a2.331,2.331,0,0,1,.375,2.162c-.5,1.663-.907,3.356-1.349,5.036a1.178,1.178,0,0,0,.035.241c1.741-.462,3.483-.879,5.195-1.4a2.341,2.341,0,0,1,2.163.375c9.008,5.914,18.455,6.535,27.832,1.333s13.718-13.61,13.39-24.313a24.4,24.4,0,0,0-4.278-12.9c-.458-.689-.658-1.311-.07-2,.962-.449,1.483.058,1.988.819a28.426,28.426,0,0,1-15.154,42.691c-8.547,2.734-16.681,1.514-24.253-3.3a2.123,2.123,0,0,0-1.944-.3c-1.914.571-3.854,1.058-5.787,1.564-1.531.4-2.141-.209-1.736-1.741.53-2,1.064-4.005,1.631-6a1.7,1.7,0,0,0-.246-1.545,28.444,28.444,0,0,1,19.652-43.951,27.781,27.781,0,0,1,19.716,4.416C1270.238-584.7,1270.622-584.146,1270.207-583.255Z" transform="translate(0 0)" fill="#070706"/>
      <path id="Trazado_587090" data-name="Trazado 587090" d="M1437.1-551.844c-.544.321-1.093.489-1.613-.031s-.359-1.067-.029-1.61a1.179,1.179,0,0,1,1.583.057A1.183,1.183,0,0,1,1437.1-551.844Z" transform="translate(-163.141 -28.115)" fill="#0c0c0a"/>
      <path id="Trazado_587091" data-name="Trazado 587091" d="M1326.038-532.677a10.941,10.941,0,0,1-5.569,9.511,3.611,3.611,0,0,0-2.117,3.1,3.392,3.392,0,0,1-3.782,3.1,3.479,3.479,0,0,1-3.171-3.749,9.536,9.536,0,0,1,5.166-8.265c1.917-1.078,2.783-2.749,2.377-4.562a4.411,4.411,0,0,0-3.707-3.363,4.134,4.134,0,0,0-4.16,2.547c-.882,1.961-2.234,2.878-3.889,2.636a3.5,3.5,0,0,1-2.811-4.732,11.128,11.128,0,0,1,11.188-7.453,11.46,11.46,0,0,1,10.2,8.686A10.466,10.466,0,0,1,1326.038-532.677Zm-11.12-9.016a8.915,8.915,0,0,0-8.232,5.4c-.51,1.2-.362,1.964.505,2.255,1.109.371,1.522-.389,1.848-1.239a4.4,4.4,0,0,1,.237-.5,6.308,6.308,0,0,1,7.679-3.005,6.433,6.433,0,0,1,4.167,7.242,6.381,6.381,0,0,1-3.458,4.5,7.333,7.333,0,0,0-4.026,6.118c-.079.867.139,1.616,1.135,1.706.98.088,1.382-.546,1.408-1.457a4.66,4.66,0,0,1,.45-1.819,5.847,5.847,0,0,1,2.671-2.558,8.865,8.865,0,0,0,4.213-9.984A9.169,9.169,0,0,0,1314.918-541.693Z" transform="translate(-61.298 -35.766)" fill="#070504"/>
      <path id="Trazado_587092" data-name="Trazado 587092" d="M1340.167-411.138a3.493,3.493,0,0,1,3.48,3.453,3.5,3.5,0,0,1-3.53,3.52,3.507,3.507,0,0,1-3.483-3.458A3.5,3.5,0,0,1,1340.167-411.138Zm.036,4.751a1.208,1.208,0,0,0,1.2-1.306,1.159,1.159,0,0,0-1.3-1.2,1.152,1.152,0,0,0-1.217,1.283A1.214,1.214,0,0,0,1340.2-406.387Z" transform="translate(-86.543 -139.001)" fill="#060504"/>
      <path id="Trazado_587093" data-name="Trazado 587093" d="M1322.709-533.908a9.169,9.169,0,0,1,8.6,6.662,8.865,8.865,0,0,1-4.212,9.984,5.848,5.848,0,0,0-2.671,2.558,4.664,4.664,0,0,0-.45,1.818c-.026.911-.428,1.545-1.408,1.457-1-.089-1.214-.839-1.135-1.706a7.333,7.333,0,0,1,4.027-6.118,6.381,6.381,0,0,0,3.458-4.5,6.434,6.434,0,0,0-4.167-7.242,6.308,6.308,0,0,0-7.679,3.005,4.453,4.453,0,0,0-.237.5c-.327.85-.74,1.611-1.848,1.239-.867-.29-1.015-1.055-.505-2.255A8.915,8.915,0,0,1,1322.709-533.908Z" transform="translate(-69.089 -43.551)" fill="#f87a91"/>
      <path id="Trazado_587094" data-name="Trazado 587094" d="M1348.064-398.563a1.214,1.214,0,0,1-1.318-1.227,1.152,1.152,0,0,1,1.217-1.283,1.159,1.159,0,0,1,1.3,1.2A1.208,1.208,0,0,1,1348.064-398.563Z" transform="translate(-94.404 -146.826)" fill="#ef768d"/>
    </g>
  </g>
</svg>
