<svg xmlns="http://www.w3.org/2000/svg" xmlns:xlink="http://www.w3.org/1999/xlink" width="292" height="214.127" viewBox="0 0 292 214.127">
  <defs>
    <clipPath id="clip-path">
      <rect id="Rectángulo_281200" data-name="Rectángulo 281200" width="292" height="171.311" fill="none"/>
    </clipPath>
    <clipPath id="clip-path-2">
      <rect id="Rectángulo_281199" data-name="Rectángulo 281199" width="292" height="171.312" fill="none"/>
    </clipPath>
    <clipPath id="clip-path-3">
      <rect id="Rectángulo_281193" data-name="Rectángulo 281193" width="83.089" height="5.976" fill="none"/>
    </clipPath>
    <clipPath id="clip-path-4">
      <rect id="Rectángulo_281195" data-name="Rectángulo 281195" width="83.372" height="7.559" fill="none"/>
    </clipPath>
    <clipPath id="clip-path-5">
      <rect id="Rectángulo_281196" data-name="Rectángulo 281196" width="4.963" height="4.972" fill="none"/>
    </clipPath>
    <clipPath id="clip-path-6">
      <rect id="Rectángulo_281198" data-name="Rectángulo 281198" width="5.343" height="4.116" fill="none"/>
    </clipPath>
  </defs>
  <g id="Grupo_847364" data-name="Grupo 847364" transform="translate(-284 -4071.236)">
    <g id="Grupo_847363" data-name="Grupo 847363">
      <path id="Trazado_582986" data-name="Trazado 582986" d="M299.623,32.226a21.27,21.27,0,1,0,21.27-21.27A21.265,21.265,0,0,0,299.623,32.226Z" transform="translate(154.706 4064.78)" fill="none" stroke="#befdf0" stroke-linecap="round" stroke-linejoin="round" stroke-width="9" opacity="0.996"/>
      <path id="Trazado_587648" data-name="Trazado 587648" d="M299.623,16.2a5.248,5.248,0,1,0,5.248-5.248A5.247,5.247,0,0,0,299.623,16.2Z" transform="translate(32.389 4096.82)" fill="#4a2efc"/>
    </g>
    <g id="Grupo_847361" data-name="Grupo 847361" transform="translate(284 4093.425)">
      <g id="Grupo_847360" data-name="Grupo 847360" clip-path="url(#clip-path)">
        <g id="Grupo_847359" data-name="Grupo 847359" transform="translate(0 -0.001)">
          <g id="Grupo_847358" data-name="Grupo 847358" clip-path="url(#clip-path-2)">
            <path id="Trazado_587721" data-name="Trazado 587721" d="M291,1012.878H1a1,1,0,0,1-1-1v-.052a1,1,0,0,1,1-1H291a1,1,0,0,1,1,1v.052a1,1,0,0,1-1,1" transform="translate(0 -841.566)" fill="#1a3141"/>
            <path id="Trazado_587722" data-name="Trazado 587722" d="M446.008,642.52s-6.9-39.807-9.688-43.918c-3.855-5.681-8.649,11.752-8.883,10.22-2.208-14.471-1.746-32.721-12.072-35.487-5.87-1.572.388,13.63-.341,17.547s-10.494-10.068-16.508-17.466-9.7-3.317-6.21,5.659c3.371,8.68,15.583,18.85,12.85,19.72s-18.062-11.221-20.373-6.764c-2.833,5.463,20.781,15.108,18.412,16.2s-13.618-4.027-13.618.325,15.544,5.44,15.14,7.322c-.655,3.047-10.419-4.754-11.181-.526-.78,4.324,13.255,4.652,12.765,8.034-.282,1.944-3.817-.091-4.456,2.581-1.458,6.093,20.658,14.631,20.658,14.631Z" transform="translate(-320.155 -474.207)" fill="#acfff0"/>
            <path id="Trazado_587723" data-name="Trazado 587723" d="M436.71,830.429c-2.807-3.651-19.386-24.075-29.422-27.335-11.078-3.6-.637,10.693-.637,10.693S387,792.226,379.789,794.17c-6.61,1.782,0,15.147,0,15.147s-7.445-7.4-16.474-7.4c-8.787,0,2.84,22.851,9.794,28.513Z" transform="translate(-299.851 -661.085)" fill="#00e7bf"/>
            <path id="Trazado_587724" data-name="Trazado 587724" d="M395.4,914.016a5.326,5.326,0,0,0-.188,2.285,4.1,4.1,0,0,0,.828,1.85,4.4,4.4,0,0,1-1.856-1.292,4.342,4.342,0,0,1-1.1-3.159c.195-1.434,1.383-2.132,1.874-1.713s.517,1.282.442,2.028" transform="translate(-327.227 -759.177)" fill="#1d3b4c"/>
            <path id="Trazado_587725" data-name="Trazado 587725" d="M438.531,929.512a5.327,5.327,0,0,0-.188,2.285,4.1,4.1,0,0,0,.828,1.85,4.4,4.4,0,0,1-1.856-1.293,4.341,4.341,0,0,1-1.1-3.158c.195-1.434,1.383-2.132,1.874-1.713s.517,1.282.442,2.028" transform="translate(-363.139 -772.079)" fill="#1d3b4c"/>
            <path id="Trazado_587726" data-name="Trazado 587726" d="M482.359,949.115a5.325,5.325,0,0,0-.187,2.285,4.1,4.1,0,0,0,.828,1.85,4.4,4.4,0,0,1-1.856-1.292,4.342,4.342,0,0,1-1.1-3.159c.195-1.434,1.383-2.132,1.874-1.713s.517,1.282.442,2.028" transform="translate(-399.628 -788.399)" fill="#1d3b4c"/>
            <path id="Trazado_587727" data-name="Trazado 587727" d="M383.326,950.814a4.907,4.907,0,0,1,1.133-1.789,3.768,3.768,0,0,1,1.639-.9,4.058,4.058,0,0,0-2.086-.087,3.99,3.99,0,0,0-2.568,1.711c-.654,1.166-.166,2.345.428,2.311.6-.019,1.094-.655,1.454-1.247" transform="translate(-317.312 -789.205)" fill="#1d3b4c"/>
            <path id="Trazado_587728" data-name="Trazado 587728" d="M428.192,966.749a4.908,4.908,0,0,1,1.133-1.789,3.768,3.768,0,0,1,1.639-.9,4.061,4.061,0,0,0-2.086-.087,3.991,3.991,0,0,0-2.568,1.711c-.654,1.166-.166,2.345.428,2.311.6-.019,1.094-.655,1.454-1.247" transform="translate(-354.666 -802.472)" fill="#1d3b4c"/>
            <path id="Trazado_587729" data-name="Trazado 587729" d="M358.332,922.143a3.157,3.157,0,0,0,.3,1.327,2.427,2.427,0,0,0,.8.9,2.6,2.6,0,0,1-1.279-.4,2.57,2.57,0,0,1-1.183-1.59c-.144-.846.4-1.453.756-1.3s.52.633.61,1.068" transform="translate(-297.173 -766.824)" fill="#1d3b4c"/>
            <path id="Trazado_587730" data-name="Trazado 587730" d="M351.188,939.577a3.143,3.143,0,0,1,.947-.973,2.415,2.415,0,0,1,1.148-.348,2.606,2.606,0,0,0-1.3-.331,2.557,2.557,0,0,0-1.838.734c-.564.645-.413,1.451-.035,1.508s.773-.266,1.077-.59" transform="translate(-291.205 -780.87)" fill="#1d3b4c"/>
            <path id="Trazado_587731" data-name="Trazado 587731" d="M424.005,720.886a136.467,136.467,0,0,1,17.328,42.528h.866a138.87,138.87,0,0,0-17.577-42.327c-1.863-2.921-3.875-6.386-7.363-7.526-.067-.022-.093.081-.029.1,3.186,1.2,5.031,4.488,6.774,7.22" transform="translate(-347.337 -594.075)" fill="#1d3b4c"/>
            <path id="Trazado_587732" data-name="Trazado 587732" d="M385.237,842.149a166.881,166.881,0,0,0-33.247-34c-.129-.1-.3.128-.174.229a165.077,165.077,0,0,1,32.555,33.768Z" transform="translate(-292.868 -672.809)" fill="#1d3b4c"/>
            <path id="Trazado_587733" data-name="Trazado 587733" d="M440.177,698.023a5.736,5.736,0,0,0-1.23,2.146,4.436,4.436,0,0,0-.039,2.189,4.773,4.773,0,0,1-1.22-2.118,4.69,4.69,0,0,1,.372-3.593c.847-1.311,2.327-1.444,2.615-.808a2.545,2.545,0,0,1-.5,2.184" transform="translate(-364.241 -579.014)" fill="#1d3b4c"/>
            <path id="Trazado_587734" data-name="Trazado 587734" d="M429.342,764.348a5.707,5.707,0,0,1,2.114-1.276,4.389,4.389,0,0,1,2.18-.083,4.753,4.753,0,0,0-2.135-1.182,4.647,4.647,0,0,0-3.572.444c-1.29.876-1.393,2.364-.754,2.639.635.294,1.484-.112,2.167-.542" transform="translate(-355.327 -634.109)" fill="#1d3b4c"/>
            <path id="Trazado_587735" data-name="Trazado 587735" d="M446.653,793.745a5.707,5.707,0,0,1,2.114-1.277,4.388,4.388,0,0,1,2.18-.082,4.75,4.75,0,0,0-2.135-1.182,4.646,4.646,0,0,0-3.572.444c-1.29.876-1.393,2.364-.754,2.639.635.294,1.484-.112,2.167-.542" transform="translate(-369.739 -658.583)" fill="#1d3b4c"/>
            <path id="Trazado_587736" data-name="Trazado 587736" d="M384.9,861.931a5.7,5.7,0,0,1,2.114-1.277,4.392,4.392,0,0,1,2.181-.083,4.755,4.755,0,0,0-2.135-1.182,4.647,4.647,0,0,0-3.572.444c-1.29.876-1.393,2.363-.754,2.639.635.294,1.483-.111,2.167-.542" transform="translate(-318.33 -715.352)" fill="#1d3b4c"/>
            <path id="Trazado_587737" data-name="Trazado 587737" d="M353.356,834.043a5.708,5.708,0,0,1,2.114-1.277,4.393,4.393,0,0,1,2.18-.083,4.752,4.752,0,0,0-2.135-1.182,4.647,4.647,0,0,0-3.572.444c-1.29.876-1.393,2.364-.754,2.639.635.294,1.484-.112,2.167-.542" transform="translate(-292.065 -692.134)" fill="#1d3b4c"/>
            <path id="Trazado_587738" data-name="Trazado 587738" d="M463.563,731.166a5.722,5.722,0,0,0-1.552,1.924,4.432,4.432,0,0,0-.383,2.156,4.78,4.78,0,0,1-.872-2.285,4.687,4.687,0,0,1,.932-3.489c1.043-1.161,2.525-1.058,2.709-.384.2.672-.315,1.459-.835,2.079" transform="translate(-383.572 -606.588)" fill="#1d3b4c"/>
            <path id="Trazado_587739" data-name="Trazado 587739" d="M483.992,762.058a4.977,4.977,0,0,0-2.242,1.478,3.826,3.826,0,0,0-.757,2.241,6.341,6.341,0,0,1-.852-2.926c-.089-1.543.824-3.187,1.629-3.492,1.49-.846,3.4-.091,3.554.739.18.837-.585,1.493-1.332,1.96" transform="translate(-399.738 -631.898)" fill="#1d3b4c"/>
            <path id="Trazado_587740" data-name="Trazado 587740" d="M510.055,811.894a4.972,4.972,0,0,0-2.458,1.079,3.824,3.824,0,0,0-1.121,2.081,6.351,6.351,0,0,1-.349-3.028c.171-1.536,1.347-3,2.192-3.167,1.611-.582,3.364.483,3.379,1.328.037.856-.827,1.373-1.642,1.707" transform="translate(-421.315 -673.279)" fill="#1d3b4c"/>
            <path id="Trazado_587741" data-name="Trazado 587741" d="M435.206,850.764a4.06,4.06,0,0,0-1.74,1.331,3.12,3.12,0,0,0-.488,1.866,5.17,5.17,0,0,1-.859-2.332,3.176,3.176,0,0,1,1.127-2.933c1.164-.773,2.758-.268,2.932.4.194.67-.391,1.247-.972,1.67" transform="translate(-359.741 -706.258)" fill="#1d3b4c"/>
            <path id="Trazado_587742" data-name="Trazado 587742" d="M401.846,714.346a3.39,3.39,0,0,1,1.195-.848,2.605,2.605,0,0,1,1.286-.144,2.814,2.814,0,0,0-1.314-.606,2.757,2.757,0,0,0-2.094.42c-.725.575-.721,1.459-.331,1.594s.873-.131,1.258-.416" transform="translate(-333.292 -593.358)" fill="#1d3b4c"/>
            <path id="Trazado_587743" data-name="Trazado 587743" d="M411.544,694.591a3.41,3.41,0,0,0,.06,1.467,2.62,2.62,0,0,0,.671,1.11,2.817,2.817,0,0,1-1.281-.675,2.778,2.778,0,0,1-.947-1.92c.011-.927.712-1.464,1.057-1.236s.43.774.44,1.254" transform="translate(-341.381 -577.196)" fill="#1d3b4c"/>
            <path id="Trazado_587744" data-name="Trazado 587744" d="M335.757,810.886a3.391,3.391,0,0,1,1.195-.848,2.6,2.6,0,0,1,1.286-.145,2.812,2.812,0,0,0-1.314-.606,2.757,2.757,0,0,0-2.094.42c-.725.575-.721,1.459-.331,1.594s.873-.131,1.258-.416" transform="translate(-278.27 -673.733)" fill="#1d3b4c"/>
            <path id="Trazado_587745" data-name="Trazado 587745" d="M347.416,790.709a3.409,3.409,0,0,0-.06,1.467,2.624,2.624,0,0,0,.578,1.162,2.82,2.82,0,0,1-1.221-.778,2.779,2.779,0,0,1-.787-1.991c.087-.923.829-1.4,1.154-1.145s.365.806.336,1.286" transform="translate(-287.988 -657.18)" fill="#1d3b4c"/>
            <path id="Trazado_587746" data-name="Trazado 587746" d="M362.841,939.527a41.774,41.774,0,0,1,6.848,1.225,82.461,82.461,0,0,1,11.921,4.36c1.907.831,3.827,1.652,5.7,2.563a20.6,20.6,0,0,1,2.561,1.4,28.409,28.409,0,0,1,2.987,2.444l-.891.027a29.583,29.583,0,0,0-5.945-3.877c-7.351-3.541-14.986-7.172-23.185-8.074a.034.034,0,0,1,.006-.067" transform="translate(-302.055 -782.206)" fill="#1d3b4c"/>
            <path id="Trazado_587747" data-name="Trazado 587747" d="M1030.218,617.5c2.176-1.865,3.492-3.843,3.155-5.81-.6-3.509-5.583-1.254-5.772-3.788-.329-4.409,18-3.325,17.368-8.977-.614-5.526-13.9,3.461-14.485-.533-.361-2.467,22.7-5.656,21.124-11.054-1.811-6.191-15.214,3.006-18.311,1.359s22.647-12.424,19.354-19.757c-2.685-5.981-17.465,8.807-21.076,7.4s14.662-11.242,19.326-24.078c4.278-11.773-.274-19.965-8.723-8.369-7.4,10.158-22.572,26.351-23.172,21.229s16.568-21.592,5.5-21.592c-14.457,0-19.649,25-24.063,43.421-.468,1.95-5.231-21.009-11.006-14.088-2.971,3.56,2.539,29.774,5.973,44.636Z" transform="translate(-823.053 -448.158)" fill="#acfff0"/>
            <path id="Trazado_587748" data-name="Trazado 587748" d="M688.8.584h0l-.021-.007c-.2-.071-.4-.135-.6-.193-.069-.02-.138-.041-.208-.059s-.148-.037-.222-.054-.151-.036-.227-.053-.144-.029-.216-.043-.162-.03-.244-.044L686.85.1c-.088-.013-.177-.024-.266-.034L686.39.043c-.1-.01-.2-.017-.306-.023-.054,0-.107-.008-.161-.011C685.766,0,685.608,0,685.449,0H612.5q-.255,0-.506.013a9.859,9.859,0,0,0-.992.1q-.244.037-.484.087a9.865,9.865,0,0,0-7.8,8.661,10.009,10.009,0,0,0-.051,1.009v149.6a9.872,9.872,0,0,0,6.49,9.283l.051.017c.188.067.378.127.571.183.07.02.139.041.209.059s.148.037.222.054.151.036.226.052.144.029.216.043.162.03.244.044l.208.032c.088.013.177.024.266.034l.194.021c.1.01.2.017.306.023l.161.011c.157.008.315.012.474.012h72.952a9.86,9.86,0,0,0,9.837-9.87V9.868A9.872,9.872,0,0,0,688.8.584" transform="translate(-501.746 0.003)" fill="#1d3b4c"/>
            <rect id="Rectángulo_281191" data-name="Rectángulo 281191" width="83.372" height="142.438" transform="translate(105.682 13.453)" fill="#f7f7f7"/>
            <path id="Trazado_587749" data-name="Trazado 587749" d="M808.946,44.733H773.572a.09.09,0,0,1-.09-.09v-1.6a.09.09,0,0,1,.09-.09h35.374a.09.09,0,0,1,.09.09v1.6a.09.09,0,0,1-.09.09" transform="translate(-643.965 -35.756)" fill="#fff"/>
            <g id="Grupo_847348" data-name="Grupo 847348" transform="translate(105.682 149.914)" opacity="0.2">
              <g id="Grupo_847347" data-name="Grupo 847347">
                <g id="Grupo_847346" data-name="Grupo 847346" clip-path="url(#clip-path-3)">
                  <rect id="Rectángulo_281192" data-name="Rectángulo 281192" width="83.089" height="5.976" transform="translate(0)" fill="#ff7c48"/>
                </g>
              </g>
            </g>
            <g id="Grupo_847351" data-name="Grupo 847351" transform="translate(105.682 13.453)" opacity="0.2">
              <g id="Grupo_847350" data-name="Grupo 847350">
                <g id="Grupo_847349" data-name="Grupo 847349" clip-path="url(#clip-path-4)">
                  <rect id="Rectángulo_281194" data-name="Rectángulo 281194" width="83.372" height="7.559" transform="translate(0 0)" fill="#3cb4c5"/>
                </g>
              </g>
            </g>
            <g id="Grupo_847362" data-name="Grupo 847362" transform="translate(-3.515 16.092)">
              <path id="Trazado_587750" data-name="Trazado 587750" d="M775.029,312.43a31.624,31.624,0,1,1-31.624-31.624,31.624,31.624,0,0,1,31.624,31.624" transform="translate(-592.597 -233.786)" fill="#f27b58"/>
              <path id="Trazado_587751" data-name="Trazado 587751" d="M766.359,393.126l6.4,19.414a2.172,2.172,0,0,0,1.988,1.3h21.374a2.172,2.172,0,0,0,2.127-1.733l1.508-19.137a.793.793,0,0,0-.777-.953h-31.9a.793.793,0,0,0-.726,1.113M793,395.282a1.538,1.538,0,0,1,3.077,0v15.285a1.538,1.538,0,0,1-3.077,0Zm-6.538,0a1.538,1.538,0,1,1,3.077,0l.495,15.285a1.538,1.538,0,1,1-3.077,0Zm-7.088,0a1.538,1.538,0,0,1,3.077,0l1.538,15.285a1.538,1.538,0,1,1-3.077,0Zm-8.187,0a1.538,1.538,0,0,1,3.077,0l3.681,15.285a1.538,1.538,0,1,1-3.077,0Z" transform="translate(-636.864 -324.098)" fill="#f7f7f7"/>
              <path id="Trazado_587752" data-name="Trazado 587752" d="M791.721,386.3a1.154,1.154,0,0,0,1.154,1.154h25.254a3.811,3.811,0,0,0,3.7-2.979l3.049-25.46a1.5,1.5,0,0,1,1.558-1.179l2.046.123a1.154,1.154,0,1,0,.139-2.3l-3.044-.183a2.641,2.641,0,0,0-2.739,2.072l-3.263,26.437a1.49,1.49,0,0,1-1.447,1.164H792.875a1.154,1.154,0,0,0-1.154,1.154" transform="translate(-657.516 -294.423)" fill="#f7f7f7"/>
              <path id="Trazado_587753" data-name="Trazado 587753" d="M801.6,530.837a3.375,3.375,0,1,0,3.375-3.375,3.375,3.375,0,0,0-3.375,3.375" transform="translate(-665.542 -434.097)" fill="#f7f7f7"/>
              <path id="Trazado_587754" data-name="Trazado 587754" d="M900.441,530.837a3.375,3.375,0,1,0,3.375-3.375,3.375,3.375,0,0,0-3.375,3.375" transform="translate(-745.808 -434.097)" fill="#f7f7f7"/>
            </g>
            <path id="Trazado_587758" data-name="Trazado 587758" d="M927.082,175.886h-1.131a6.08,6.08,0,0,1-6.08-6.08v-3.793h13.291v3.793a6.08,6.08,0,0,1-6.08,6.08" transform="translate(-765.842 -138.214)" fill="#00e7bf"/>
            <path id="Trazado_587759" data-name="Trazado 587759" d="M847.7,175.886h-1.131a6.08,6.08,0,0,1-6.08-6.08v-3.793h13.291v3.793a6.08,6.08,0,0,1-6.08,6.08" transform="translate(-699.755 -138.214)" fill="#e2bc00"/>
            <path id="Trazado_587760" data-name="Trazado 587760" d="M768.327,175.886H767.2a6.08,6.08,0,0,1-6.08-6.08v-3.793h13.291v3.793a6.08,6.08,0,0,1-6.08,6.08" transform="translate(-633.67 -138.214)" fill="#00e7bf"/>
            <path id="Trazado_587761" data-name="Trazado 587761" d="M688.949,175.886h-1.131a6.08,6.08,0,0,1-6.08-6.08v-3.793h13.291v3.793a6.08,6.08,0,0,1-6.08,6.08" transform="translate(-567.583 -138.214)" fill="#e2bc00"/>
            <path id="Trazado_587762" data-name="Trazado 587762" d="M609.571,175.886H608.44a6.08,6.08,0,0,1-6.08-6.08v-3.793h13.291v3.793a6.08,6.08,0,0,1-6.08,6.08" transform="translate(-501.497 -138.214)" fill="#00e7bf"/>
            <path id="Trazado_587763" data-name="Trazado 587763" d="M1165.031,175.886H1163.9a6.08,6.08,0,0,1-6.08-6.08v-3.793h13.291v3.793a6.08,6.08,0,0,1-6.08,6.08" transform="translate(-963.947 -138.214)" fill="#e2bc00"/>
            <path id="Trazado_587764" data-name="Trazado 587764" d="M1085.654,175.886h-1.131a6.08,6.08,0,0,1-6.08-6.08v-3.793h13.291v3.793a6.08,6.08,0,0,1-6.08,6.08" transform="translate(-897.861 -138.214)" fill="#00e7bf"/>
            <path id="Trazado_587765" data-name="Trazado 587765" d="M1006.459,175.886h-1.131a6.08,6.08,0,0,1-6.08-6.08v-3.793h13.291v3.793a6.08,6.08,0,0,1-6.08,6.08" transform="translate(-831.927 -138.214)" fill="#e2bc00"/>
            <path id="Trazado_587766" data-name="Trazado 587766" d="M530.194,175.886h-1.131a6.08,6.08,0,0,1-6.08-6.08v-3.793h13.291v3.793a6.08,6.08,0,0,1-6.08,6.08" transform="translate(-435.411 -138.214)" fill="#e2bc00"/>
            <path id="Trazado_587767" data-name="Trazado 587767" d="M851.863,80.339h-9.45l-1.921,14.346h13.292Z" transform="translate(-699.755 -66.886)" fill="#ffd400"/>
            <path id="Trazado_587768" data-name="Trazado 587768" d="M776.328,80.339h-9.45l-5.762,14.346h13.291Z" transform="translate(-633.669 -66.886)" fill="#45ffdf"/>
            <path id="Trazado_587769" data-name="Trazado 587769" d="M700.792,80.339h-9.45l-9.6,14.346h13.291Z" transform="translate(-567.583 -66.886)" fill="#ffd400"/>
            <path id="Trazado_587770" data-name="Trazado 587770" d="M625.255,80.339h-9.45L602.361,94.685h13.291Z" transform="translate(-501.497 -66.886)" fill="#45ffdf"/>
            <path id="Trazado_587771" data-name="Trazado 587771" d="M549.719,80.339h-9.45L522.982,94.685h13.292Z" transform="translate(-435.411 -66.886)" fill="#ffd400"/>
            <path id="Trazado_587772" data-name="Trazado 587772" d="M1086.786,80.339h-9.45l13.477,14.346H1104.1Z" transform="translate(-896.939 -66.886)" fill="#ffd400"/>
            <path id="Trazado_587773" data-name="Trazado 587773" d="M1030.629,80.339h-9.45l9.589,14.346h13.291Z" transform="translate(-850.186 -66.886)" fill="#45ffdf"/>
            <path id="Trazado_587774" data-name="Trazado 587774" d="M974.193,80.339h-9.45l5.778,14.346h13.291Z" transform="translate(-803.2 -66.886)" fill="#ffd400"/>
            <path id="Trazado_587775" data-name="Trazado 587775" d="M917.757,80.339h-9.45l1.936,14.346h13.291Z" transform="translate(-756.214 -66.886)" fill="#45ffdf"/>
            <path id="Trazado_587776" data-name="Trazado 587776" d="M130.137,931s-.652,4.547-1.773,6.014a11.6,11.6,0,0,0-1.515,2.005,5.93,5.93,0,0,0,.2,4.584c.266.583-.019.582.587.769a3.714,3.714,0,0,0,4.465-2.108,10.753,10.753,0,0,0,.876-3.875,14.094,14.094,0,0,1,1.468-6.228Z" transform="translate(-105.291 -775.104)" fill="#f7a491"/>
            <path id="Trazado_587777" data-name="Trazado 587777" d="M261.855,943.417a43.13,43.13,0,0,1,.076,6.794c-.175.892-1.149,2.729-.7,3.569a2.248,2.248,0,0,0,.958,1.049l11.581.188c.631.01.214-.4-.295-.774a23.315,23.315,0,0,0-4.164-2.316c-.173-.084-.8-.488-1.033-.628a8.028,8.028,0,0,1-1.657-1.472c-.832-.931-.9-5.446-.9-5.446Z" transform="translate(-217.39 -785.445)" fill="#f7a491"/>
            <path id="Trazado_587778" data-name="Trazado 587778" d="M264.6,530.008s1.458,8.325.5,13.783-5.553,56.046-5.553,56.046l-5.107.29s-1.07-21.132-.879-24.071a45.773,45.773,0,0,1,1.707-7.857l-.508-17.062,6.445-22.414Z" transform="translate(-211.087 -440.19)" fill="#d54e26"/>
            <path id="Trazado_587779" data-name="Trazado 587779" d="M158.876,516.546s-4.021,6.087-4.979,11.125.7,20.521-1.139,27.122c-1,3.574-4.776,9.093-5.351,13.711s-2.828,16.715-2.828,16.715l5.1,1.018,11.864-30.211,9.306-27.306,2.384-14.063Z" transform="translate(-120.37 -428.479)" fill="#f27b58"/>
            <path id="Trazado_587780" data-name="Trazado 587780" d="M130.5,981.152a5.693,5.693,0,0,1-5.6-2.352c-.707,1.388-1.052,3.459-.532,4.6.458,1,1.8.976,2.851,1.015a2.751,2.751,0,0,0,2.53-1.557,9.372,9.372,0,0,0,.748-1.706" transform="translate(-103.334 -814.903)" fill="#4a2efc"/>
            <path id="Trazado_587781" data-name="Trazado 587781" d="M268.147,989.181a10.427,10.427,0,0,1-6.593-.26,5.377,5.377,0,0,0-.53,2.772c.281.825.682,1.011,1.035,1.02,2.8.074,10.248.174,12.38.2a.351.351,0,0,0,.271-.576c-.529-.635-6.335-3.018-6.563-3.158" transform="translate(-217.262 -823.328)" fill="#4a2efc"/>
            <path id="Trazado_587782" data-name="Trazado 587782" d="M300.369,413.39c.213-.454-2.036-1.071-2.109-1.56s2.943-.213,3.095-.62c.279-.75-3.284-.5-3.178-.858s3.768-.787,3.446-1.446-3.75.846-3.8.416,3.313-1.112,3.35-2.038c.02-.495-5.608,1.9-6.2,1.565s.931-2.509.475-2.9-2.431,4.161-2.787,4.294-8.078,2.467-10.7,2.854c-.222-.889-2.2-5.782-2.386-6.621-1.542.873-3.506-.178-5.084.6.794,2.8,2.578,12.028,3.291,12.443,2.17,1.265,13.588-4.766,15.476-5.834s2.854-.558,4.085-.83,2.821.991,3.035.537" transform="translate(-228.522 -337.951)" fill="#f7a491"/>
            <path id="Trazado_587783" data-name="Trazado 587783" d="M136.5,227.912c.574-2.611,1.137-5.238-.377-8.106a7.363,7.363,0,0,0-5.795-3.948c-6.946-.824-5.462,5.66-15.17,7.064-3.017.436-5.819.855-8.338,2.356-4.548,2.709-6.265,7.055-3.249,14.135,7.386,17.336,25.057,2.271,27.753-.795,2.675-3.043,4.806-9.025,5.176-10.706" transform="translate(-84.975 -179.653)" fill="#1d3b4c"/>
            <path id="Trazado_587784" data-name="Trazado 587784" d="M212.208,337.417a10.08,10.08,0,0,0-5.605,2.68c-2.1,2.282,3.391,20.626,3.773,23.531s-3.648,10.943-3.648,10.943,13.7,2.723,17.257.371c0,0,.313-22.449-.069-24.524s-3.56-10.512-4.323-11.342-7.384-1.66-7.384-1.66" transform="translate(-171.611 -280.917)" fill="#ffd400"/>
            <path id="Trazado_587785" data-name="Trazado 587785" d="M243.318,294.6s-.027.156-.077.421a40.1,40.1,0,0,1-1.762,6.654c-.743,1.4,2.545,5.875,5.71,5.329.942-.162-.8-4.109-.713-4.527.16-.8.377-1.892.6-3.012l.371-1.874c.339-1.71.615-3.109.615-3.109Z" transform="translate(-200.956 -245.17)" fill="#f7a491"/>
            <g id="Grupo_847354" data-name="Grupo 847354" transform="translate(42.141 49.31)" opacity="0.5">
              <g id="Grupo_847353" data-name="Grupo 847353">
                <g id="Grupo_847352" data-name="Grupo 847352" clip-path="url(#clip-path-5)">
                  <path id="Trazado_587786" data-name="Trazado 587786" d="M251.816,295.019c.049-.265.077-.421.077-.421l4.742-.118s-.276,1.4-.615,3.109l-.369,1.863a4.446,4.446,0,0,1-2.264-1.133,5.97,5.97,0,0,1-1.715-2.546c.058-.3.107-.557.144-.754" transform="translate(-251.672 -294.48)" fill="#f47458"/>
                </g>
              </g>
            </g>
            <path id="Trazado_587787" data-name="Trazado 587787" d="M245.674,227.859a5.6,5.6,0,0,0-3.335,2.077c-1.4,1.808-2.911,7.4.569,10.442s6.92-.4,7.429-4.05.407-8.6-4.664-8.468" transform="translate(-200.46 -189.702)" fill="#f7a491"/>
            <path id="Trazado_587788" data-name="Trazado 587788" d="M294.664,263.714c-.22.88-.8,1.474-1.288,1.327s-.712-.979-.492-1.859.8-1.474,1.288-1.327.712.979.492,1.858" transform="translate(-243.771 -217.99)" fill="#f7a491"/>
            <path id="Trazado_587789" data-name="Trazado 587789" d="M237.616,227.5s-4.545,5.218-6.681,5.464-2.417,3.072-2.417,3.072.764-6.512,2.879-7.768,6.219-.768,6.219-.768" transform="translate(-190.253 -189.332)" fill="#1d3b4c"/>
            <path id="Trazado_587790" data-name="Trazado 587790" d="M236.013,260.7c.174.945-.176,1.811-.78,1.935s-1.236-.541-1.41-1.486.176-1.811.78-1.935,1.236.541,1.41,1.486" transform="translate(-194.633 -215.8)" fill="#f7a491"/>
            <path id="Trazado_587791" data-name="Trazado 587791" d="M227.885,426.28l14.687,2.148a.808.808,0,0,1,.683.916l-2.867,19.594a.808.808,0,0,1-.916.682l-14.687-2.149a.808.808,0,0,1-.683-.916l2.867-19.594a.808.808,0,0,1,.916-.682" transform="translate(-186.57 -354.893)" fill="#1d3b4c"/>
            <path id="Trazado_587792" data-name="Trazado 587792" d="M279.623,426.627a.164.164,0,0,0-.138-.186l-6.126-.9a.164.164,0,0,0-.186.138l-.093.637,6.45.944Z" transform="translate(-227.354 -354.287)" fill="#f7f7f7"/>
            <path id="Trazado_587793" data-name="Trazado 587793" d="M288.156,423.555a.976.976,0,1,0,.825,1.107.976.976,0,0,0-.825-1.107m-.232,1.586a.626.626,0,1,1,.71-.529.626.626,0,0,1-.71.529" transform="translate(-238.974 -352.623)" fill="#f7f7f7"/>
            <path id="Trazado_587794" data-name="Trazado 587794" d="M279.5,430.325a.164.164,0,0,1,.077.164l-.093.637-6.45-.944a.807.807,0,0,0,.682.916l4.853.71a.807.807,0,0,0,.916-.682l.093-.637a.164.164,0,0,0-.077-.164" transform="translate(-227.311 -358.149)" fill="#dff7f6"/>
            <path id="Trazado_587795" data-name="Trazado 587795" d="M268.447,289.154l-3.305-.017a1.445,1.445,0,0,0,1.523,1.305c1.772.06,1.782-1.288,1.782-1.288" transform="translate(-220.745 -240.721)" fill="#fff"/>
            <path id="Trazado_587796" data-name="Trazado 587796" d="M185.08,456.246l5.322.544s-.087,4.516,0,5.035c0,0,9.1,2.523,12.9,3.207,0,0,1.732-.981,2.432-1.294a17,17,0,0,1,3-.707c.416-.054.274.4-.083.561a3.463,3.463,0,0,0-1.545,1.129,2.89,2.89,0,0,0,1.149-.095c.4-.177.945-.552.954-.746s.1-.663.229-.638c.033.006.078.16.122.321s.087.31.125.464c.067.277.144.682.173.863a12.538,12.538,0,0,1-.221,1.965c-.065.742-.277,1.072-.669,1.261a9.677,9.677,0,0,1-2.287.462,15.385,15.385,0,0,1-4.2-.415c-.726-.082-12.314-1.231-12.314-1.231s-4.606-.663-4.912-1.456-.183-9.232-.183-9.232" transform="translate(-154.069 -379.849)" fill="#f7a491"/>
            <path id="Trazado_587797" data-name="Trazado 587797" d="M188.092,349.08s-1.68.8-3.156,4.236c-1.4,3.269-1.815,19.582-1.815,19.582l5.567-.928,2.829-7.606a13.95,13.95,0,0,0-1.442-13.873c-.783-1.072-1.505-1.72-1.982-1.411" transform="translate(-152.458 -290.563)" fill="#e2bc00"/>
            <rect id="Rectángulo_281197" data-name="Rectángulo 281197" width="1.264" height="28.973" transform="translate(262.168 141.206) rotate(-10.731)" fill="#1d3b4c"/>
            <path id="Trazado_587798" data-name="Trazado 587798" d="M1246.826,869.884h-1.494l5.569-28.836,1.242.235Z" transform="translate(-1036.805 -700.217)" fill="#1d3b4c"/>
            <path id="Trazado_587799" data-name="Trazado 587799" d="M1507.345,869.884h-1.494l5.569-28.836,1.242.235Z" transform="translate(-1253.701 -700.217)" fill="#1d3b4c"/>
            <path id="Trazado_587800" data-name="Trazado 587800" d="M1308.874,870.528l1.213.015-5.339-28.722-1.242.235Z" transform="translate(-1085.239 -700.86)" fill="#1d3b4c"/>
            <path id="Trazado_587801" data-name="Trazado 587801" d="M1269.752,467.009c6.633.71,15.216,1.46,23.833,16.083,9.418,15.982,4.46,39.855-2.973,46.489s-31.711,14.825-52.119,2.562c0,0-12.323-7.432-6-19.765,9.732-18.98,8.357-22.938,12.708-30.376s10.47-16.5,24.549-14.993" transform="translate(-1024.615 -388.672)" fill="#f7f7f7"/>
            <path id="Trazado_587802" data-name="Trazado 587802" d="M1313.493,489.544c-5.881-9.981-11.747-13.5-16.987-14.951a43.886,43.886,0,0,1,6.139,8.287c9.418,15.982,4.46,39.855-2.973,46.489-6.592,5.883-26.431,12.988-45.07,5.97a18.939,18.939,0,0,0,3.8,3.257c20.408,12.263,44.685,4.072,52.119-2.562s12.391-30.507,2.973-46.489" transform="translate(-1044.522 -395.124)" fill="#dff7f6"/>
            <path id="Trazado_587803" data-name="Trazado 587803" d="M1328.326,612.907l-1.7,5.114,5.2-2.044Z" transform="translate(-1104.483 -510.278)" fill="#f79c8d"/>
            <path id="Trazado_587804" data-name="Trazado 587804" d="M1333.754,522.016c-.346.014-1.3.331-2.683,2.945-1.772,3.338-4.363,13.422-4.363,13.422l7.732,2.87.993-2.1,1.636-16.2s-3.22-.932-3.316-.928" transform="translate(-1104.555 -434.606)" fill="#7762ff"/>
            <path id="Trazado_587805" data-name="Trazado 587805" d="M1376.572,513.335a47.371,47.371,0,0,0-10.221,1.454s-1.865,15.978,1.68,28.12c.793,2.718-.656,11.267-.656,11.267l22.912-.3s-2.714-20.667-1.692-24.005,1.047-14.972,1.047-14.972-.157-.024-5.148-.884a52.047,52.047,0,0,0-7.921-.678" transform="translate(-1137.151 -427.378)" fill="#4a2efc"/>
            <path id="Trazado_587806" data-name="Trazado 587806" d="M1440.565,937.637s-.507,5.831-1.439,7.445.049,4.359.1,4.736,1.962.915,5,.592,2.992-1.023,2.747-2.153-1.864-2.583-1.962-3.659a27.98,27.98,0,0,1,.932-4.952Z" transform="translate(-1197.816 -780.632)" fill="#f7a491"/>
            <path id="Trazado_587807" data-name="Trazado 587807" d="M1287.08,726.722s-15.816-.875-19.348,1.256.638,6.509.638,6.509,12.876,5.579,34.433,6.819c5.1.294,5.545-13.265,4.59-14.387s-20.313-.2-20.313-.2" transform="translate(-1054.273 -604.737)" fill="#1a3141"/>
            <path id="Trazado_587808" data-name="Trazado 587808" d="M1442.969,989.624c3.132-.333,2.744-1.866,2.492-3.03a10.3,10.3,0,0,0-1.592-2.4,5.228,5.228,0,0,1-2.1,1.015c-1.412.416-3.348-.407-4.582-.922a15,15,0,0,0-.419,4.026c.05.388,3.064,1.644,6.2,1.312" transform="translate(-1196.179 -819.394)" fill="#f7f7f7"/>
            <path id="Trazado_587809" data-name="Trazado 587809" d="M1440.893,738.777c-.632,4.765-3.76,28.488-3.76,28.488l7.259.9s8.927-30.964,8.469-35.7-3.8-5.135-3.8-5.135-6.5-1.165-8.169,11.449" transform="translate(-1196.489 -605.515)" fill="#1d3b4c"/>
            <path id="Trazado_587810" data-name="Trazado 587810" d="M1377.029,533.148c-2.142-.8-3.19,18.436-3.479,26.353a93.618,93.618,0,0,1-12.052-.121c-.775-.058-2.56-.71-3.33-.81a7.744,7.744,0,0,0-1.892-.089,35.8,35.8,0,0,0-4.435,1.99c-.419.438-1.554,1.544-1.362,2.022s2.182-1.332,2.182-1.332l.972-.544c-1.211,1.179-3.52,2.731-3.187,3.3s2.407-1.024,3.892-2.1c-1.273,1.146-2.855,3.2-2.491,3.517.327.287,2.127-2.087,4.05-2.771.713-.253,1.423.448,1.983.533a4.044,4.044,0,0,0,1.452.081l2.082-.588c.709.064.727.482,1.443.634.831.176,2.2.362,3.255.62,6.1,1.485,8.131,2.174,10,2.173,5.655,0,5.983-30.973.92-32.866" transform="translate(-1124.291 -443.854)" fill="#f7a491"/>
            <path id="Trazado_587811" data-name="Trazado 587811" d="M1490.443,542.271c.4-8.11.343-18.107-4.219-19.812-1.8-.673-4.973,3.373-4.4,19.977a34.4,34.4,0,0,0,8.622-.165" transform="translate(-1233.639 -434.917)" fill="#7762ff"/>
            <path id="Trazado_587812" data-name="Trazado 587812" d="M1281.513,964.137a3.929,3.929,0,0,1-.5,3.362c-1.134,1.338-5.847,2.652-6.466,3.377a2.028,2.028,0,0,0-.572,1.342l13.228-.363-.144-3.981-.609-2.861Z" transform="translate(-1060.651 -802.695)" fill="#f7a491"/>
            <path id="Trazado_587813" data-name="Trazado 587813" d="M1270.041,986.695s3.4,1.37,5.041.559,1.592-1.036,2.067-.733.645,4.37.645,4.37l-14.875.1c-1.035-.024-1.558-.784-.717-1.434a12.1,12.1,0,0,1,1.622-.961,46.6,46.6,0,0,1,6.217-1.9" transform="translate(-1050.502 -821.223)" fill="#f7f7f7"/>
            <path id="Trazado_587814" data-name="Trazado 587814" d="M1264.091,732.071c-1.023-2.144-3.348-4.936-7.439-3.255-3.9,1.6-4.95,5.545-3.719,9.581s9.337,27.761,9.619,31.023l6.471.043s-1.176-18.786-1.465-23.327a43.858,43.858,0,0,0-3.468-14.066" transform="translate(-1042.728 -606.349)" fill="#1d3b4c"/>
            <path id="Trazado_587815" data-name="Trazado 587815" d="M1252.232,620.312h21.632a1.411,1.411,0,0,1,1.305.875l6.661,16.245h11.926a.6.6,0,1,1,0,1.207h-33.943a2.37,2.37,0,0,1-2.162-1.4l-6.707-14.94a1.411,1.411,0,0,1,1.287-1.988" transform="translate(-1041.374 -516.442)" fill="#f27b58"/>
            <path id="Trazado_587816" data-name="Trazado 587816" d="M1328.659,668.986a1.19,1.19,0,1,0,.893-1.553,1.273,1.273,0,0,0-.893,1.553" transform="translate(-1106.155 -555.656)" fill="#fff"/>
            <path id="Trazado_587817" data-name="Trazado 587817" d="M1414.595,470.375l1.058,6.976s-3.865,8.306-6.173,7.586c-1.936-.6-.745-7.954-.745-7.954s1.055-3.947.739-5.922,5.121-.686,5.121-.686" transform="translate(-1172.545 -391.268)" fill="#f7a491"/>
            <g id="Grupo_847357" data-name="Grupo 847357" transform="translate(236.793 78.694)" opacity="0.2">
              <g id="Grupo_847356" data-name="Grupo 847356">
                <g id="Grupo_847355" data-name="Grupo 847355" clip-path="url(#clip-path-6)">
                  <path id="Trazado_587818" data-name="Trazado 587818" d="M1414.277,471.061c-.316-1.975,5.12-.686,5.12-.686l.088.579a3.214,3.214,0,0,1-.59.972,7.157,7.157,0,0,1-4.754,2.151,10.777,10.777,0,0,0,.135-3.016" transform="translate(-1414.142 -469.962)" fill="#f47458"/>
                </g>
              </g>
            </g>
            <path id="Trazado_587819" data-name="Trazado 587819" d="M1404.7,402.655c.154-.056,1.232,7.945-.814,10.147s-6.032,2.922-7.462,1.188c-1.581-1.918-1.5-10.517,1.679-12.782s6.6,1.447,6.6,1.447" transform="translate(-1161.755 -333.417)" fill="#f7a491"/>
            <path id="Trazado_587820" data-name="Trazado 587820" d="M1404.958,379.042a8.835,8.835,0,0,1,4.636,2.644c1.116.132,2.634.749,4.2,3.343a6.488,6.488,0,0,1-1.739,8.458,5.054,5.054,0,0,0-2.212,3.737l-.354-1.036a5.8,5.8,0,0,1-.281-2.44,4.771,4.771,0,0,1,.363-1.467c.539-1.158-1.159-1.927-1.635-2.891-.367-.742-.385-2.439-.962-3.665l-.69-.936a4.386,4.386,0,0,0-3.149-.889c-1.557.349-1.333-5.5,1.821-4.858" transform="translate(-1167.403 -315.531)" fill="#1d3b4c"/>
            <path id="Trazado_587821" data-name="Trazado 587821" d="M1437.1,440.887c-.016.976.427,1.775.991,1.785s1.034-.774,1.05-1.75-.428-1.775-.991-1.785-1.034.774-1.05,1.75" transform="translate(-1196.465 -365.604)" fill="#f7a491"/>
            <path id="Trazado_587822" data-name="Trazado 587822" d="M1405.28,464.957l-3.084-.16a1.35,1.35,0,0,0,1.364,1.284c1.651.133,1.719-1.125,1.719-1.125" transform="translate(-1167.403 -386.968)" fill="#fff"/>
          </g>
        </g>
      </g>
    </g>
    <g id="Grupo_845305" data-name="Grupo 845305" transform="translate(109.432 4244.108)">
      <path id="Trazado_582519" data-name="Trazado 582519" d="M239.153,0a3.289,3.289,0,1,0,3.292,3.286A3.287,3.287,0,0,0,239.153,0" transform="translate(208.295)" fill="#ffd400"/>
      <path id="Trazado_582520" data-name="Trazado 582520" d="M221.888,0a3.289,3.289,0,1,0,3.292,3.286A3.287,3.287,0,0,0,221.888,0" transform="translate(193.048)" fill="#ffd400"/>
      <path id="Trazado_582521" data-name="Trazado 582521" d="M204.62,0a3.289,3.289,0,1,0,3.292,3.286A3.289,3.289,0,0,0,204.62,0" transform="translate(177.8)" fill="#ffd400"/>
      <path id="Trazado_582522" data-name="Trazado 582522" d="M187.352,0a3.289,3.289,0,1,0,3.292,3.286A3.285,3.285,0,0,0,187.352,0" transform="translate(162.554)" fill="#ffd400"/>
      <path id="Trazado_582523" data-name="Trazado 582523" d="M170.093,0a3.289,3.289,0,1,0,3.286,3.286A3.287,3.287,0,0,0,170.093,0" transform="translate(147.307)" fill="#ffd400"/>
      <path id="Trazado_582524" data-name="Trazado 582524" d="M152.827,0a3.289,3.289,0,1,0,3.292,3.286A3.287,3.287,0,0,0,152.827,0" transform="translate(132.059)" fill="#ffd400"/>
      <path id="Trazado_582525" data-name="Trazado 582525" d="M230.521,8.478a3.292,3.292,0,1,0,3.29,3.292,3.287,3.287,0,0,0-3.29-3.292" transform="translate(200.672 7.487)" fill="#ffd400"/>
      <path id="Trazado_582526" data-name="Trazado 582526" d="M213.255,8.478a3.292,3.292,0,1,0,3.29,3.292,3.288,3.288,0,0,0-3.29-3.292" transform="translate(185.424 7.487)" fill="#ffd400"/>
      <path id="Trazado_582527" data-name="Trazado 582527" d="M195.985,8.478a3.292,3.292,0,1,0,3.292,3.292,3.287,3.287,0,0,0-3.292-3.292" transform="translate(170.178 7.487)" fill="#ffd400"/>
      <path id="Trazado_582528" data-name="Trazado 582528" d="M178.726,8.478a3.292,3.292,0,1,0,3.284,3.292,3.287,3.287,0,0,0-3.284-3.292" transform="translate(154.931 7.487)" fill="#ffd400"/>
      <path id="Trazado_582529" data-name="Trazado 582529" d="M161.46,8.478a3.292,3.292,0,1,0,3.286,3.292,3.288,3.288,0,0,0-3.286-3.292" transform="translate(139.683 7.487)" fill="#ffd400"/>
      <path id="Trazado_582530" data-name="Trazado 582530" d="M239.153,18.415a3.289,3.289,0,1,0,3.292,3.292,3.288,3.288,0,0,0-3.292-3.292" transform="translate(208.295 16.263)" fill="#ffd400"/>
      <path id="Trazado_582531" data-name="Trazado 582531" d="M221.888,18.415a3.289,3.289,0,1,0,3.292,3.292,3.288,3.288,0,0,0-3.292-3.292" transform="translate(193.048 16.263)" fill="#ffd400"/>
      <path id="Trazado_582532" data-name="Trazado 582532" d="M204.62,18.415a3.289,3.289,0,1,0,3.292,3.292,3.29,3.29,0,0,0-3.292-3.292" transform="translate(177.8 16.263)" fill="#ffd400"/>
      <path id="Trazado_582533" data-name="Trazado 582533" d="M187.352,18.415a3.289,3.289,0,1,0,3.292,3.292,3.287,3.287,0,0,0-3.292-3.292" transform="translate(162.554 16.263)" fill="#ffd400"/>
      <path id="Trazado_582534" data-name="Trazado 582534" d="M170.093,18.415a3.289,3.289,0,1,0,3.286,3.292,3.288,3.288,0,0,0-3.286-3.292" transform="translate(147.307 16.263)" fill="#ffd400"/>
      <path id="Trazado_582535" data-name="Trazado 582535" d="M152.827,18.415a3.289,3.289,0,1,0,3.292,3.292,3.288,3.288,0,0,0-3.292-3.292" transform="translate(132.059 16.263)" fill="#ffd400"/>
    </g>
  </g>
</svg>
