<svg xmlns="http://www.w3.org/2000/svg" width="81.396" height="81.396" viewBox="0 0 81.396 81.396">
  <g id="Grupo_846464" data-name="Grupo 846464" transform="translate(-240 -1286.742)">
    <rect id="Rectángulo_38178" data-name="Rectángulo 38178" width="81.396" height="81.396" transform="translate(240 1286.742)" fill="none"/>
    <g id="Grupo_847221" data-name="Grupo 847221" transform="translate(1551.594 185.811)">
      <path id="Trazado_587195" data-name="Trazado 587195" d="M-1284.429,1150.982a1.058,1.058,0,0,1,.15-1.475,4.394,4.394,0,0,1,4.167-1.925,3.727,3.727,0,0,0,3.6-1.4c.528-.641.5-.9.005-1.5a19.053,19.053,0,0,1,1.267-25.777c5.563-5.417,12.271-7.048,19.624-4.584,7.4,2.478,11.749,7.845,12.91,15.578a19,19,0,0,1-9.572,19.326,19.141,19.141,0,0,1-21.579-1.9c-.618-.511-.909-.548-1.581,0a3.66,3.66,0,0,0-1.357,3.509,4.683,4.683,0,0,1-1.791,4.117c-4.659,4.537-9.211,9.184-13.826,13.766-2.322,2.3-5.823,1.49-6.709-1.535a3.572,3.572,0,0,1,.9-3.691c3.606-3.658,7.253-7.275,10.875-10.916a.97.97,0,0,1,1.378-.175c.435.639.1,1.077-.357,1.525-1.65,1.63-3.283,3.276-4.923,4.915-1.709,1.709-1.709,1.708.161,3.267a4.84,4.84,0,0,0,.343.425c1.276,1.264.975,1.184,2.157.01,2.9-2.878,5.74-5.814,8.689-8.639a4.34,4.34,0,0,0,1.5-3.454c-.013-1.128-.34-1.449-1.373-1.18a2.909,2.909,0,0,0-3.078,1.153C-1283.218,1150.945-1283.7,1151.381-1284.429,1150.982Zm36.88-28.636a.5.5,0,0,0-.254-.45c-3.182-4.892-10.557-7.861-16.686-6.717-9.637,1.8-15.732,9.927-14.553,19.675a16.263,16.263,0,0,0,7.012,11.706,16.475,16.475,0,0,0,13.021,3.258,17.528,17.528,0,0,0,14.181-22.082,10.819,10.819,0,0,0-2.468-4.967h-.017A.381.381,0,0,0-1247.549,1122.346Zm-44.816,41.034c-.428-.454-.853-.911-1.286-1.361-.172-.179-.3-.354-.63-.146-1.2.751-1.3,1.32-.322,2.283.208.205.437.39.656.583.4.428.8.859,1.208,1.284.154.161.284.283.56.139,1.137-.591,1.293-1.409.4-2.286C-1291.963,1163.7-1292.17,1163.545-1292.365,1163.38Zm-2.92,2.491a2.359,2.359,0,0,0-.433-.481c-.416-.264-.61-1.114-1.234-.749a1.708,1.708,0,0,0-.639,1.747,1.1,1.1,0,0,0,.31.789,1.979,1.979,0,0,0,2.131,1.2c.542-.042,1.18-.188,1.372-.756.161-.475-.434-.693-.706-1.01A8.974,8.974,0,0,0-1295.285,1165.87Z" fill="#050606"/>
      <path id="Trazado_587196" data-name="Trazado 587196" d="M-1267.277,1288.424c-1.87-1.559-1.87-1.558-.161-3.267,1.64-1.64,3.273-3.286,4.923-4.915.453-.448.792-.887.356-1.525l1.535-1.429c.728.4,1.212-.037,1.582-.549a2.908,2.908,0,0,1,3.078-1.153,2.444,2.444,0,0,1-.9,2.322c-2.566,2.487-5.081,5.028-7.591,7.571A26.362,26.362,0,0,0-1267.277,1288.424Z" transform="translate(-23.805 -126.305)" fill="#b26a39"/>
      <path id="Trazado_587197" data-name="Trazado 587197" d="M-1201.522,1152.634a16.263,16.263,0,0,1-7.011-11.706c-1.179-9.748,4.916-17.877,14.553-19.675,6.129-1.144,13.5,1.825,16.686,6.717-.007.2.017.386.254.45-.035.2-.031.387.236.424h.016c-.184.428.087.789.182,1.173a9.753,9.753,0,0,1,.608,3.564q-.415-.9-.83-1.795c-3.83-8.306-14.467-11.671-22.206-7.037-.588.352-1.028.721-.876,1.478a3.791,3.791,0,0,1-1.29.957,1.452,1.452,0,0,0-1.576.5,15.368,15.368,0,0,0-4.092,13.171c1.04,6.545,4.9,10.8,11.146,12.938-.257.223-.535.115-.829.088C-1198.276,1153.718-1199.834,1152.918-1201.522,1152.634Z" transform="translate(-70.508 -6.074)" fill="#2f738f"/>
      <path id="Trazado_587198" data-name="Trazado 587198" d="M-1150.9,1161.057a9.753,9.753,0,0,0-.608-3.564c-.095-.384-.366-.744-.182-1.173a10.807,10.807,0,0,1,2.469,4.967,17.528,17.528,0,0,1-14.181,22.082,16.476,16.476,0,0,1-13.021-3.259c1.688.284,3.247,1.084,4.969,1.243.293.027.572.135.829-.088l.643.157a15.844,15.844,0,0,0,18.662-9.554,16.067,16.067,0,0,0,.475-10.412c.2-.171.166-.31-.056-.425Z" transform="translate(-95.604 -33.55)" fill="#035e79"/>
      <path id="Trazado_587199" data-name="Trazado 587199" d="M-1262.286,1288.315a26.366,26.366,0,0,1,2.819-2.946c2.51-2.543,5.025-5.084,7.591-7.571a2.444,2.444,0,0,0,.9-2.322c1.032-.27,1.36.052,1.373,1.18a4.34,4.34,0,0,1-1.5,3.454c-2.949,2.824-5.791,5.76-8.689,8.639-1.183,1.175-.882,1.254-2.157-.01A4.835,4.835,0,0,1-1262.286,1288.315Z" transform="translate(-28.796 -126.195)" fill="#9f5422"/>
      <path id="Trazado_587200" data-name="Trazado 587200" d="M-1288.224,1350.553a9.011,9.011,0,0,1,.8.743c.272.317.867.535.706,1.01-.192.568-.829.714-1.372.756a1.979,1.979,0,0,1-2.131-1.2C-1289.532,1351.457-1288.516,1351.557-1288.224,1350.553Z" transform="translate(-7.062 -184.683)" fill="#9b5221"/>
      <path id="Trazado_587201" data-name="Trazado 587201" d="M-1279.811,1335.071c-.219-.194-.448-.378-.656-.583-.974-.963-.874-1.531.322-2.283.331-.208.458-.033.63.146.433.45.858.907,1.286,1.362Z" transform="translate(-14.136 -170.332)" fill="#f4af4d"/>
      <path id="Trazado_587202" data-name="Trazado 587202" d="M-1275.2,1340.689l1.582-1.359c.195.165.4.318.583.5.9.877.739,1.695-.4,2.286-.276.144-.406.022-.56-.139C-1274.393,1341.547-1274.794,1341.117-1275.2,1340.689Z" transform="translate(-18.751 -175.95)" fill="#f39225"/>
      <path id="Trazado_587203" data-name="Trazado 587203" d="M-1289.38,1345.926c-.293,1-1.309.9-2,1.306a1.1,1.1,0,0,1-.311-.789,1.708,1.708,0,0,1,.639-1.747c.624-.365.819.485,1.234.749A2.367,2.367,0,0,1-1289.38,1345.926Z" transform="translate(-5.905 -180.056)" fill="#ac6636"/>
      <path id="Trazado_587204" data-name="Trazado 587204" d="M-1066.993,1152.832c-.237-.063-.261-.248-.254-.45A.5.5,0,0,1-1066.993,1152.832Z" transform="translate(-180.556 -30.486)" fill="#035e79"/>
      <path id="Trazado_587205" data-name="Trazado 587205" d="M-1065.917,1154.834c-.266-.037-.27-.22-.235-.424A.38.38,0,0,1-1065.917,1154.834Z" transform="translate(-181.397 -32.064)" fill="#035e79"/>
      <path id="Trazado_587206" data-name="Trazado 587206" d="M-1189.682,1138.992a3.787,3.787,0,0,0,1.29-.957c.615.562,1.17.294,1.791-.052,6.35-3.529,14.6-1.7,18.367,4.058a.354.354,0,0,0,.277.408l-.011-.014a2.35,2.35,0,0,0,.147,1.184,16.211,16.211,0,0,1,.014,8.254,5.144,5.144,0,0,1-1.257,2.585c.054-.52-.037-.99-.627-1.111-.574-.119-.836.257-1.053.741-.283.632-.629,1.237-.974,1.839-.529.925-.319,1.318.824,1.492a5.576,5.576,0,0,1-1.974,2.014c-4.269,3.4-9.032,4.095-14.194,2.571-.233-.069-.452-.306-.685-.009a14.109,14.109,0,0,1-2.426-21.168C-1189.657,1140.26-1189.28,1139.757-1189.682,1138.992Zm10.761.111c-1.112-.06-1.563.142-1.544.756.031,1.006.823.841,1.464.89a9.662,9.662,0,0,1,8.958,9.188c.041.628.066,1.265.9,1.219.848-.047.775-.731.756-1.329A11.275,11.275,0,0,0-1178.921,1139.1Z" transform="translate(-82.028 -17.883)" fill="#daf1fc"/>
      <path id="Trazado_587207" data-name="Trazado 587207" d="M-1195.592,1132.953c.4.764.025,1.268-.49,1.835a14.109,14.109,0,0,0,2.426,21.167A12.468,12.468,0,0,0-1187,1158.4a5.821,5.821,0,0,0,2.671.016,13.463,13.463,0,0,0,11.85-8.672,13.284,13.284,0,0,0-1.394-13.35l.011.015a.469.469,0,0,0-.277-.408c-3.771-5.756-12.017-7.587-18.367-4.058-.622.346-1.176.614-1.791.052-.152-.757.288-1.125.876-1.477,7.74-4.634,18.376-1.269,22.206,7.037q.414.9.83,1.795v-.025q.028.213.055.425a16.065,16.065,0,0,1-.475,10.412,15.843,15.843,0,0,1-18.662,9.554l-.643-.157c-6.242-2.137-10.106-6.393-11.146-12.938a15.369,15.369,0,0,1,4.092-13.171A1.452,1.452,0,0,1-1195.592,1132.953Z" transform="translate(-76.119 -11.844)" fill="#040707"/>
      <path id="Trazado_587208" data-name="Trazado 587208" d="M-1061.353,1177.978l-.055-.425C-1061.187,1177.668-1061.149,1177.808-1061.353,1177.978Z" transform="translate(-185.1 -50.071)" fill="#2f738f"/>
      <path id="Trazado_587209" data-name="Trazado 587209" d="M-1159.61,1186.354a12.468,12.468,0,0,1-6.652-2.446c.233-.3.452-.059.685.009,5.162,1.524,9.925.831,14.194-2.571a5.573,5.573,0,0,0,1.974-2.014,7.743,7.743,0,0,0,1.83-2.961,5.145,5.145,0,0,0,1.257-2.585,16.211,16.211,0,0,0-.014-8.254,2.349,2.349,0,0,1-.147-1.184,13.284,13.284,0,0,1,1.394,13.35,13.463,13.463,0,0,1-11.85,8.672A3.476,3.476,0,0,0-1159.61,1186.354Z" transform="translate(-103.513 -39.796)" fill="#abdbef"/>
      <path id="Trazado_587210" data-name="Trazado 587210" d="M-1131.906,1149.3a11.275,11.275,0,0,1,10.53,10.726c.019.6.092,1.282-.756,1.329-.831.046-.856-.591-.9-1.219a9.662,9.662,0,0,0-8.958-9.188c-.641-.05-1.433.116-1.464-.89C-1133.469,1149.439-1133.018,1149.237-1131.906,1149.3Z" transform="translate(-129.043 -28.078)" fill="#070809"/>
      <path id="Trazado_587211" data-name="Trazado 587211" d="M-1092.335,1214.558a7.742,7.742,0,0,1-1.83,2.961c-1.143-.174-1.353-.567-.823-1.492.345-.6.69-1.207.974-1.839.217-.484.478-.86,1.053-.741C-1092.372,1213.569-1092.282,1214.038-1092.335,1214.558Z" transform="translate(-158.756 -77.983)" fill="#090a0a"/>
      <path id="Trazado_587212" data-name="Trazado 587212" d="M-1078.327,1162.574a.47.47,0,0,1,.277.408A.354.354,0,0,1-1078.327,1162.574Z" transform="translate(-171.935 -38.416)" fill="#abdbef"/>
      <path id="Trazado_587213" data-name="Trazado 587213" d="M-1136.284,1262.613a3.477,3.477,0,0,1,2.671.016A5.822,5.822,0,0,1-1136.284,1262.613Z" transform="translate(-126.839 -116.055)" fill="#9dc9d8"/>
    </g>
  </g>
</svg>
